<svg width="193" height="180" viewBox="0 0 193 180" fill="none" xmlns="http://www.w3.org/2000/svg">
<path d="M150.641 147.99C157.447 116.331 178.525 98.1097 181.801 82.8537C185.077 67.5978 183.193 33.6642 113.006 18.5792C42.819 3.4942 23.252 44.3851 19.6417 61.1689C2.75155 139.748 138.587 204.067 150.641 147.99Z" fill="url(#paint0_linear_2052_4454)"/>
<path d="M161.465 33.592H170.829V38.2742H161.465V33.592Z" fill="#D4D8FF"/>
<path d="M134.541 33.592H143.905V38.2742H134.541V33.592Z" fill="#D4D8FF"/>
<path d="M150.928 17.2043H155.61V26.5686H150.928V17.2043Z" fill="#D4D8FF"/>
<path d="M150.928 44.1277H155.61V53.492H150.928V44.1277Z" fill="#D4D8FF"/>
<path d="M16.1326 150.646C12.2605 150.646 9.10938 147.495 9.10938 143.623C9.10938 139.75 12.2605 136.599 16.1326 136.599C20.0047 136.599 23.1558 139.75 23.1558 143.623C23.1558 147.495 20.0047 150.646 16.1326 150.646ZM16.1326 141.282C14.8403 141.282 13.7915 142.335 13.7915 143.623C13.7915 144.91 14.8403 145.964 16.1326 145.964C17.4249 145.964 18.4737 144.91 18.4737 143.623C18.4737 142.335 17.4249 141.282 16.1326 141.282Z" fill="#D4D8FF"/>
<path d="M113.119 146.873H80.327C79.3907 146.873 78.6309 144.773 78.6309 142.185C78.6309 139.598 79.3907 137.498 80.327 137.498H113.119C114.055 137.498 114.815 139.598 114.815 142.185C114.815 144.773 114.055 146.873 113.119 146.873Z" fill="#433ED1"/>
<path fill-rule="evenodd" clip-rule="evenodd" d="M94.8874 96.1881C102.886 96.1881 109.371 90.0214 109.371 82.4144C109.371 74.8073 102.886 68.6406 94.8874 68.6406C86.8885 68.6406 80.404 74.8073 80.404 82.4144C80.404 90.0214 86.8885 96.1881 94.8874 96.1881ZM94.8874 106.569C108.915 106.569 120.287 95.7546 120.287 82.4144C120.287 69.0741 108.915 58.2598 94.8874 58.2598C80.8599 58.2598 69.4883 69.0741 69.4883 82.4144C69.4883 95.7546 80.8599 106.569 94.8874 106.569Z" fill="#433ED1"/>
<path fill-rule="evenodd" clip-rule="evenodd" d="M113.903 108.267L95.6557 92.5941L102.972 84.8902L121.219 100.563L113.903 108.267Z" fill="#433ED1"/>
<path d="M130.668 165H62.7802C52.972 165 45 157.294 45 147.812V32.1875C45 22.7063 52.972 15 62.7802 15H130.668C140.476 15 148.448 22.7063 148.448 32.1875V52.5H138.75V32.1875C138.75 27.8813 135.123 24.375 130.668 24.375H62.7802C58.3254 24.375 54.6983 27.8813 54.6983 32.1875V147.812C54.6983 152.119 58.3254 155.625 62.7802 155.625H130.668C135.123 155.625 138.75 152.119 138.75 147.812V115H148.448V147.812C148.448 157.294 140.476 165 130.668 165Z" fill="#433ED1"/>
<path d="M138.76 115.166V52.5151H148.432V115.166H138.76Z" fill="#433ED1"/>
<defs>
<linearGradient id="paint0_linear_2052_4454" x1="175.767" y1="108.595" x2="17.2329" y2="71.4046" gradientUnits="userSpaceOnUse">
<stop stop-color="#F1F2FF"/>
<stop offset="1" stop-color="#F1F2FF" stop-opacity="0"/>
</linearGradient>
</defs>
</svg>
