<svg width="48" height="37" viewBox="0 0 48 37" fill="none" xmlns="http://www.w3.org/2000/svg">
<rect width="47" height="36" transform="translate(0.181641 0.990234)" fill="white"/>
<path d="M18.8045 29.4392H12.4646C12.2836 29.4392 12.1367 29.0332 12.1367 28.533C12.1367 28.0327 12.2836 27.6267 12.4646 27.6267H18.8045C18.9855 27.6267 19.1324 28.0327 19.1324 28.533C19.1324 29.0332 18.9855 29.4392 18.8045 29.4392Z" fill="#433ED1"/>
<path fill-rule="evenodd" clip-rule="evenodd" d="M15.2792 19.6402C16.8256 19.6402 18.0793 18.448 18.0793 16.9773C18.0793 15.5066 16.8256 14.3143 15.2792 14.3143C13.7327 14.3143 12.479 15.5066 12.479 16.9773C12.479 18.448 13.7327 19.6402 15.2792 19.6402ZM15.2792 21.6471C17.9912 21.6471 20.1897 19.5564 20.1897 16.9773C20.1897 14.3982 17.9912 12.3074 15.2792 12.3074C12.5672 12.3074 10.3687 14.3982 10.3687 16.9773C10.3687 19.5564 12.5672 21.6471 15.2792 21.6471Z" fill="#433ED1"/>
<path fill-rule="evenodd" clip-rule="evenodd" d="M18.9562 21.9754L15.4283 18.9454L16.8428 17.4559L20.3707 20.486L18.9562 21.9754Z" fill="#433ED1"/>
<path d="M22.1973 32.9438H9.07227C7.17602 32.9438 5.63477 31.454 5.63477 29.6209V7.26676C5.63477 5.43372 7.17602 3.94385 9.07227 3.94385H22.1973C24.0935 3.94385 25.6348 5.43372 25.6348 7.26676V11.1938H23.7598V7.26676C23.7598 6.43422 23.0585 5.75635 22.1973 5.75635H9.07227C8.21102 5.75635 7.50977 6.43422 7.50977 7.26676V29.6209C7.50977 30.4535 8.21102 31.1313 9.07227 31.1313H22.1973C23.0585 31.1313 23.7598 30.4535 23.7598 29.6209V23.2772H25.6348V29.6209C25.6348 31.454 24.0935 32.9438 22.1973 32.9438Z" fill="#433ED1"/>
<path d="M23.7617 23.3093V11.1968H25.6317V23.3093H23.7617Z" fill="#433ED1"/>
</svg>
