<svg width="449" height="332" viewBox="0 0 449 332" fill="none" xmlns="http://www.w3.org/2000/svg">
<path d="M157.003 201.227L90.3062 248.884L26.7711 159.962L0 122.506L66.6969 74.8486L116.685 144.8L157.003 201.227Z" fill="#DAD9F5"/>
<path d="M144.379 199.311L92.5905 236.329L11.4233 122.737L63.2115 85.7417L144.379 199.311ZM97.8293 230.19L136.878 202.288C139.532 200.396 140.132 196.703 138.24 194.049L66.2348 93.2884C64.2962 90.5882 60.5575 89.9651 57.8573 91.9037L18.97 119.713C16.2929 121.629 15.6698 125.344 17.5853 128.022L89.6364 228.828C91.5289 231.483 95.1984 232.083 97.8293 230.19Z" fill="#FFF8F8"/>
<path d="M63.9728 170.971C58.4802 163.286 60.2572 152.577 67.9424 147.085C75.6275 141.592 86.3359 143.369 91.8286 151.054C97.3213 158.739 95.5443 169.448 87.8591 174.94C80.174 180.456 69.4655 178.679 63.9728 170.971Z" fill="#FFF8F8"/>
<path d="M221.987 165.399L144.733 192.812L108.187 89.8163L92.7855 46.429L170.04 19.0159L198.796 100.041L221.987 165.399Z" fill="#DAD9F5"/>
<path d="M210.382 160.076L150.392 181.374L103.703 49.8014L163.686 28.5251L210.382 160.076ZM157.121 176.919L202.351 160.869C205.424 159.782 207.019 156.398 205.932 153.325L164.511 36.6129C163.392 33.4827 159.97 31.8526 156.84 32.9713L111.791 48.9768C108.689 50.0797 107.066 53.4793 108.169 56.5809L149.622 173.35C150.709 176.423 154.07 178.012 157.121 176.919Z" fill="#FFF8F8"/>
<path d="M140.91 110.658C137.75 101.756 142.412 91.9535 151.314 88.7935C160.216 85.6335 170.019 90.2951 173.179 99.1971C176.339 108.099 171.677 117.902 162.775 121.062C153.867 124.244 144.064 119.583 140.91 110.658Z" fill="#FFF8F8"/>
<path d="M46.1128 219.32C46.1128 219.32 50.6362 226.982 54.7903 227.098C58.9444 227.213 65.2449 223.543 65.2449 223.543C65.2449 223.543 69.0528 213.32 66.468 209.327C66.468 209.327 63.8832 207.965 61.16 210.366C60.6984 210.781 60.2138 211.312 59.7522 211.981C59.106 212.927 58.3675 213.481 57.5828 213.758C54.6288 214.843 51.0978 212.281 49.7823 214.751C49.0207 216.181 48.1899 217.266 47.4975 218.005C46.7128 218.905 46.1128 219.32 46.1128 219.32Z" fill="#7671FF"/>
<path d="M111.055 331.482C111.055 331.482 122.179 233.952 60.3288 227.121C60.3288 227.121 12.3486 238.544 24.3033 331.482H111.055Z" fill="#5F5BD9"/>
<path d="M68.221 228.528C68.221 228.528 56.6817 231.621 53.1045 229.798C53.1045 229.798 52.5737 223.982 57.4202 224.813C60.7435 225.367 62.9129 223.451 64.1822 222.667C66.0054 221.559 68.7056 226.105 68.221 228.528Z" fill="#7671FF"/>
<path d="M58.159 219.782C58.8975 220.451 61.1592 210.389 61.1592 210.389C60.6977 210.804 60.213 211.335 59.7515 212.004C59.1053 212.95 58.3667 213.504 57.5821 213.781C57.5821 214.058 57.4436 219.135 58.159 219.782Z" fill="#FF5549"/>
<path d="M47.52 218.028C47.6816 218.143 53.0127 221.997 53.7512 221.997C54.4897 221.997 49.8048 214.774 49.8048 214.774C49.0432 216.205 48.1893 217.266 47.52 218.028Z" fill="#FF5549"/>
<path d="M44.7503 331.481C60.3258 331.481 72.9522 318.855 72.9522 303.279C72.9522 287.704 60.3258 275.077 44.7503 275.077C29.1748 275.077 16.5483 287.704 16.5483 303.279C16.5483 318.855 29.1748 331.481 44.7503 331.481Z" fill="#2C28A3"/>
<path d="M42.2815 331.483C57.857 331.483 70.4835 318.856 70.4835 303.281C70.4835 287.705 57.857 275.079 42.2815 275.079C26.706 275.079 14.0796 287.705 14.0796 303.281C14.0796 318.856 26.706 331.483 42.2815 331.483Z" fill="#7671FF"/>
<path d="M42.2811 329.311C35.4268 329.311 28.9648 326.634 24.1183 321.788C19.2718 316.941 16.5947 310.479 16.5947 303.625C16.5947 296.771 19.2718 290.309 24.1183 285.462C28.9648 280.616 35.4268 277.938 42.2811 277.938C49.1354 277.938 55.5974 280.616 60.4439 285.462C65.2904 290.309 67.9675 296.771 67.9675 303.625C67.9675 310.479 65.2904 316.941 60.4439 321.788C55.5974 326.634 49.1585 329.311 42.2811 329.311ZM42.2811 279.462C28.9648 279.462 18.1179 290.309 18.1179 303.625C18.1179 316.941 28.9648 327.788 42.2811 327.788C55.5974 327.788 66.4443 316.941 66.4443 303.625C66.4443 290.285 55.5974 279.462 42.2811 279.462Z" fill="#433ED1"/>
<path d="M45.8122 311.079C45.8815 310.525 45.8584 310.018 45.743 309.579C45.6276 309.141 45.4199 308.725 45.1199 308.333C44.7968 307.941 44.3814 307.571 43.8506 307.225C43.3198 306.879 42.6736 306.51 41.8889 306.14C40.5503 305.494 39.3503 304.825 38.2886 304.156C37.227 303.486 36.327 302.748 35.5885 301.963C34.873 301.179 34.3191 300.278 33.996 299.286C33.6499 298.294 33.5575 297.163 33.7191 295.87C33.8576 294.74 34.1807 293.747 34.6884 292.87C35.1961 291.993 35.8654 291.255 36.6732 290.655C37.504 290.055 38.4502 289.593 39.5349 289.293C40.6196 288.993 41.7966 288.855 43.089 288.878L43.5967 284.654L47.0123 285.07L46.5046 289.362C47.7047 289.662 48.7663 290.124 49.7125 290.724C50.6587 291.324 51.4203 292.063 52.0204 292.916C52.6204 293.77 53.0589 294.763 53.2897 295.87C53.5435 296.978 53.5897 298.201 53.4281 299.517L47.2662 298.778C47.4508 297.186 47.2431 295.963 46.6431 295.109C46.043 294.232 45.143 293.747 43.966 293.586C43.3198 293.516 42.7659 293.54 42.2812 293.655C41.7966 293.77 41.3812 293.978 41.0581 294.255C40.7119 294.532 40.458 294.878 40.2734 295.27C40.0888 295.686 39.9503 296.124 39.9041 296.609C39.8349 297.094 39.858 297.555 39.9503 297.971C40.0426 298.386 40.2503 298.778 40.5503 299.148C40.8504 299.517 41.2889 299.886 41.8197 300.255C42.3505 300.625 43.0428 301.017 43.8506 301.432C45.166 302.102 46.3661 302.794 47.4277 303.463C48.4893 304.133 49.3894 304.871 50.1048 305.679C50.8203 306.487 51.3511 307.387 51.6973 308.356C52.0434 309.348 52.1358 310.479 51.9742 311.748C51.8357 312.902 51.5126 313.918 51.0049 314.795C50.4972 315.672 49.8279 316.41 48.9971 316.987C48.1893 317.564 47.22 318.003 46.1353 318.303C45.0507 318.58 43.8506 318.718 42.5582 318.672L42.0966 322.618L38.7041 322.226L39.1656 318.303C38.0117 318.049 36.8809 317.657 35.8423 317.126C34.7807 316.595 33.8806 315.903 33.1191 315.072C32.3575 314.218 31.7805 313.202 31.4112 312.002C31.042 310.802 30.9497 309.418 31.1343 307.825L37.2963 308.564C37.1809 309.51 37.227 310.295 37.4117 310.964C37.5963 311.61 37.8963 312.164 38.2886 312.602C38.681 313.041 39.1425 313.364 39.6964 313.572C40.2503 313.779 40.8042 313.941 41.3812 314.01C42.0504 314.079 42.6505 314.079 43.1582 313.964C43.689 313.849 44.1275 313.664 44.5198 313.41C44.8891 313.156 45.1891 312.81 45.4199 312.418C45.6276 312.002 45.7661 311.564 45.8122 311.079Z" fill="#433ED1"/>
<g opacity="0.5">
<path opacity="0.5" d="M291.714 135.153L307.384 195.088C308.077 197.742 306.484 200.465 303.83 201.158L198.708 228.644C196.054 229.336 193.33 227.744 192.638 225.09L176.968 165.155C176.275 162.501 177.868 159.778 180.522 159.085L285.644 131.599C288.298 130.907 291.022 132.522 291.714 135.153Z" fill="#AAC9F5"/>
<g opacity="0.5">
<path opacity="0.5" d="M228.271 206.881L200.254 214.197C199.077 214.497 197.854 213.782 197.531 212.605L197.461 212.328C197.161 211.151 197.877 209.928 199.054 209.604L227.071 202.289C228.248 201.989 229.471 202.704 229.794 203.881L229.864 204.158C230.164 205.335 229.448 206.558 228.271 206.881Z" fill="#CDE0FB"/>
<path opacity="0.5" d="M265.174 197.211L237.156 204.527C235.979 204.827 234.756 204.112 234.433 202.935L234.364 202.658C234.064 201.481 234.779 200.258 235.956 199.935L263.974 192.619C265.151 192.319 266.374 193.034 266.697 194.211L266.766 194.488C267.089 195.688 266.374 196.911 265.174 197.211Z" fill="#CDE0FB"/>
<g opacity="0.5">
<path opacity="0.5" d="M233.463 175.565C233.74 176.58 233.763 177.48 233.578 178.219C233.348 179.165 232.771 179.742 231.824 179.996C230.878 180.249 230.094 180.019 229.424 179.303C228.893 178.749 228.501 177.965 228.224 176.926C227.947 175.911 227.924 175.034 228.086 174.295C228.316 173.349 228.917 172.772 229.84 172.518C230.786 172.264 231.594 172.495 232.24 173.211C232.794 173.741 233.186 174.549 233.463 175.565ZM232.171 175.888C232.009 175.241 231.801 174.734 231.524 174.341C231.132 173.741 230.67 173.511 230.163 173.649C229.632 173.788 229.355 174.203 229.309 174.918C229.263 175.403 229.332 175.957 229.517 176.603C229.978 178.357 230.647 179.096 231.524 178.865C232.032 178.726 232.309 178.311 232.355 177.595C232.424 177.111 232.355 176.534 232.171 175.888Z" fill="#CDE0FB"/>
<path opacity="0.5" d="M239.209 174.064C239.486 175.08 239.509 175.98 239.324 176.718C239.094 177.664 238.517 178.241 237.571 178.495C236.624 178.749 235.84 178.518 235.17 177.803C234.64 177.249 234.247 176.464 233.97 175.426C233.693 174.41 233.67 173.533 233.832 172.795C234.063 171.849 234.663 171.272 235.586 171.018C236.532 170.764 237.34 170.995 237.986 171.71C238.563 172.241 238.955 173.026 239.209 174.064ZM237.917 174.387C237.755 173.741 237.547 173.233 237.27 172.841C236.878 172.241 236.417 172.01 235.909 172.149C235.378 172.287 235.101 172.702 235.055 173.418C235.009 173.903 235.078 174.456 235.263 175.103C235.724 176.857 236.394 177.595 237.27 177.364C237.778 177.226 238.055 176.81 238.101 176.095C238.171 175.61 238.101 175.033 237.917 174.387Z" fill="#CDE0FB"/>
<path opacity="0.5" d="M247.933 171.779C248.21 172.795 248.233 173.695 248.049 174.433C247.818 175.38 247.241 175.957 246.295 176.21C245.348 176.464 244.564 176.234 243.894 175.518C243.364 174.964 242.971 174.18 242.694 173.141C242.417 172.126 242.394 171.249 242.556 170.51C242.787 169.564 243.387 168.987 244.31 168.733C245.256 168.479 246.064 168.71 246.71 169.425C247.264 169.956 247.656 170.764 247.933 171.779ZM246.641 172.102C246.479 171.456 246.248 170.949 245.995 170.556C245.602 169.956 245.141 169.725 244.633 169.864C244.102 170.002 243.825 170.418 243.779 171.133C243.733 171.618 243.802 172.172 243.987 172.818C244.448 174.572 245.118 175.31 245.995 175.08C246.502 174.941 246.779 174.526 246.825 173.81C246.895 173.326 246.825 172.772 246.641 172.102Z" fill="#CDE0FB"/>
<path opacity="0.5" d="M253.679 170.279C253.956 171.295 253.979 172.195 253.795 172.933C253.564 173.88 252.987 174.457 252.041 174.71C251.095 174.964 250.31 174.734 249.641 174.018C249.11 173.464 248.717 172.68 248.44 171.641C248.164 170.626 248.14 169.749 248.302 169.01C248.533 168.064 249.133 167.487 250.056 167.233C251.002 166.979 251.81 167.21 252.456 167.925C253.033 168.456 253.425 169.241 253.679 170.279ZM252.41 170.602C252.248 169.956 252.041 169.449 251.764 169.056C251.371 168.456 250.91 168.225 250.402 168.364C249.871 168.502 249.594 168.918 249.548 169.633C249.502 170.118 249.571 170.672 249.756 171.318C250.218 173.072 250.887 173.81 251.764 173.58C252.272 173.441 252.548 173.026 252.595 172.31C252.641 171.826 252.572 171.249 252.41 170.602Z" fill="#CDE0FB"/>
<path opacity="0.5" d="M259.449 168.779C259.726 169.794 259.749 170.694 259.564 171.433C259.333 172.379 258.756 172.956 257.81 173.21C256.864 173.464 256.079 173.233 255.41 172.518C254.879 171.964 254.487 171.179 254.21 170.141C253.933 169.125 253.91 168.248 254.072 167.51C254.302 166.563 254.902 165.986 255.826 165.733C256.772 165.479 257.579 165.709 258.226 166.425C258.78 166.956 259.172 167.74 259.449 168.779ZM258.156 169.102C257.995 168.456 257.764 167.948 257.51 167.556C257.118 166.956 256.656 166.725 256.149 166.863C255.618 167.002 255.341 167.417 255.295 168.133C255.249 168.617 255.318 169.171 255.502 169.817C255.964 171.571 256.633 172.31 257.51 172.079C258.018 171.941 258.295 171.525 258.341 170.81C258.387 170.302 258.318 169.748 258.156 169.102Z" fill="#CDE0FB"/>
<path opacity="0.5" d="M265.195 167.255C265.472 168.271 265.495 169.171 265.311 169.91C265.08 170.856 264.503 171.433 263.557 171.687C262.611 171.94 261.826 171.71 261.157 170.994C260.626 170.44 260.234 169.656 259.957 168.617C259.68 167.602 259.657 166.725 259.818 165.986C260.049 165.04 260.649 164.463 261.572 164.209C262.518 163.955 263.326 164.186 263.972 164.901C264.526 165.455 264.918 166.24 265.195 167.255ZM263.903 167.602C263.741 166.955 263.534 166.448 263.257 166.055C262.864 165.455 262.403 165.225 261.895 165.363C261.364 165.502 261.087 165.917 261.041 166.632C260.995 167.117 261.064 167.671 261.249 168.317C261.711 170.071 262.38 170.81 263.257 170.579C263.765 170.44 264.041 170.025 264.088 169.309C264.134 168.802 264.065 168.248 263.903 167.602Z" fill="#CDE0FB"/>
<path opacity="0.5" d="M273.919 164.994C274.196 166.01 274.219 166.91 274.034 167.648C273.804 168.594 273.227 169.171 272.28 169.425C271.334 169.679 270.55 169.448 269.88 168.733C269.349 168.179 268.957 167.394 268.68 166.356C268.403 165.34 268.38 164.463 268.542 163.725C268.773 162.779 269.373 162.202 270.296 161.948C271.242 161.694 272.05 161.925 272.696 162.64C273.25 163.171 273.642 163.956 273.919 164.994ZM272.627 165.317C272.465 164.671 272.257 164.163 271.98 163.771C271.588 163.171 271.127 162.94 270.619 163.079C270.088 163.217 269.811 163.633 269.765 164.348C269.719 164.833 269.788 165.387 269.973 166.033C270.434 167.787 271.103 168.525 271.98 168.294C272.488 168.156 272.765 167.741 272.811 167.025C272.857 166.541 272.788 165.964 272.627 165.317Z" fill="#CDE0FB"/>
<path opacity="0.5" d="M279.666 163.471C279.943 164.486 279.966 165.386 279.781 166.125C279.551 167.071 278.974 167.648 278.028 167.902C277.081 168.156 276.297 167.925 275.627 167.21C275.097 166.656 274.704 165.871 274.427 164.832C274.15 163.817 274.127 162.94 274.289 162.201C274.52 161.255 275.12 160.678 276.043 160.424C276.989 160.171 277.797 160.401 278.443 161.117C278.997 161.671 279.389 162.455 279.666 163.471ZM278.374 163.817C278.212 163.171 278.004 162.663 277.728 162.271C277.335 161.671 276.874 161.44 276.366 161.578C275.835 161.717 275.558 162.132 275.512 162.848C275.466 163.332 275.535 163.886 275.72 164.532C276.181 166.286 276.851 167.025 277.728 166.794C278.235 166.656 278.512 166.24 278.558 165.525C278.628 165.017 278.558 164.463 278.374 163.817Z" fill="#CDE0FB"/>
<path opacity="0.5" d="M285.413 161.971C285.69 162.987 285.713 163.887 285.529 164.625C285.298 165.572 284.721 166.148 283.775 166.402C282.828 166.656 282.044 166.425 281.374 165.71C280.844 165.156 280.451 164.371 280.174 163.333C279.897 162.317 279.874 161.44 280.036 160.702C280.267 159.756 280.867 159.179 281.79 158.925C282.736 158.671 283.544 158.902 284.19 159.617C284.767 160.171 285.159 160.956 285.413 161.971ZM284.121 162.317C283.959 161.671 283.752 161.164 283.475 160.771C283.082 160.171 282.621 159.94 282.113 160.079C281.582 160.217 281.305 160.633 281.259 161.348C281.213 161.833 281.282 162.387 281.467 163.033C281.928 164.787 282.598 165.525 283.475 165.295C283.982 165.156 284.259 164.741 284.305 164.025C284.375 163.518 284.305 162.964 284.121 162.317Z" fill="#CDE0FB"/>
<path opacity="0.5" d="M291.16 160.471C291.437 161.486 291.46 162.386 291.275 163.125C291.044 164.071 290.467 164.648 289.521 164.902C288.575 165.156 287.79 164.925 287.121 164.21C286.59 163.656 286.198 162.871 285.921 161.832C285.644 160.817 285.621 159.94 285.782 159.201C286.013 158.255 286.613 157.678 287.536 157.424C288.483 157.171 289.29 157.401 289.937 158.117C290.514 158.671 290.906 159.455 291.16 160.471ZM289.89 160.794C289.729 160.148 289.498 159.64 289.244 159.248C288.852 158.648 288.39 158.417 287.883 158.555C287.352 158.694 287.075 159.109 287.029 159.825C286.983 160.309 287.052 160.863 287.236 161.509C287.698 163.263 288.367 164.002 289.244 163.771C289.752 163.633 290.029 163.217 290.075 162.502C290.121 162.017 290.052 161.463 289.89 160.794Z" fill="#CDE0FB"/>
</g>
<path opacity="0.5" d="M215.301 159.778L187.883 166.956C186.706 167.256 185.483 166.54 185.16 165.363C184.86 164.186 185.576 162.963 186.753 162.64L214.17 155.462C215.347 155.162 216.57 155.878 216.893 157.055C217.216 158.232 216.501 159.478 215.301 159.778Z" fill="#CDE0FB"/>
<g opacity="0.5">
<g opacity="0.5">
<path opacity="0.5" d="M281.651 147.338C281.444 146.554 280.982 145.908 280.382 145.469C280.197 145.331 279.967 145.4 279.851 145.584L279.759 145.746C279.667 145.908 279.713 146.115 279.851 146.208C280.29 146.531 280.613 147.015 280.774 147.569C280.913 148.146 280.867 148.7 280.636 149.208C280.567 149.369 280.636 149.577 280.774 149.669L280.936 149.762C281.121 149.877 281.374 149.808 281.467 149.6C281.767 148.908 281.859 148.123 281.651 147.338Z" fill="#CDE0FB"/>
</g>
<g opacity="0.5">
<path opacity="0.5" d="M283.428 146.877C283.082 145.585 282.297 144.547 281.282 143.854C281.097 143.739 280.866 143.808 280.774 143.97L280.728 144.062C280.635 144.223 280.682 144.431 280.843 144.547C281.697 145.123 282.343 146 282.643 147.085C282.92 148.17 282.782 149.255 282.32 150.178C282.228 150.339 282.297 150.547 282.459 150.662L282.551 150.708C282.736 150.824 282.966 150.755 283.059 150.57C283.589 149.462 283.751 148.17 283.428 146.877Z" fill="#CDE0FB"/>
</g>
<g opacity="0.5">
<path opacity="0.5" d="M284.974 146.462C284.513 144.731 283.451 143.346 282.066 142.446C281.882 142.331 281.651 142.4 281.559 142.561C281.466 142.723 281.513 142.931 281.674 143.046C282.92 143.854 283.867 145.1 284.282 146.646C284.674 148.193 284.467 149.739 283.774 151.054C283.682 151.216 283.751 151.447 283.913 151.539C284.097 151.654 284.328 151.585 284.42 151.4C285.182 149.923 285.436 148.193 284.974 146.462Z" fill="#CDE0FB"/>
</g>
<g opacity="0.5">
<path opacity="0.5" d="M286.659 146.023C286.082 143.831 284.721 142.054 282.944 140.923C282.759 140.808 282.528 140.877 282.436 141.038L282.343 141.2C282.251 141.362 282.297 141.592 282.459 141.685C284.051 142.7 285.274 144.269 285.782 146.231C286.29 148.193 285.99 150.177 285.113 151.816C285.021 151.978 285.09 152.208 285.251 152.301L285.413 152.393C285.598 152.508 285.828 152.439 285.921 152.255C286.913 150.431 287.236 148.216 286.659 146.023Z" fill="#CDE0FB"/>
</g>
</g>
<g opacity="0.5">
<g opacity="0.5">
<path opacity="0.5" d="M201.891 219.044C202.03 219.528 202.03 219.967 201.961 220.313C201.845 220.775 201.568 221.051 201.107 221.167C200.645 221.282 200.276 221.167 199.953 220.844C199.699 220.567 199.514 220.198 199.376 219.69C199.237 219.205 199.237 218.767 199.307 218.42C199.422 217.959 199.699 217.682 200.161 217.567C200.622 217.451 200.991 217.567 201.315 217.89C201.568 218.167 201.776 218.559 201.891 219.044ZM201.268 219.205C201.199 218.905 201.084 218.651 200.968 218.444C200.784 218.167 200.553 218.051 200.322 218.12C200.068 218.19 199.93 218.397 199.907 218.721C199.884 218.951 199.93 219.228 199.999 219.528C200.23 220.359 200.553 220.728 200.968 220.613C201.222 220.544 201.361 220.336 201.384 219.99C201.384 219.782 201.361 219.528 201.268 219.205Z" fill="#CDE0FB"/>
<path opacity="0.5" d="M204.661 218.328C204.799 218.813 204.799 219.251 204.73 219.598C204.614 220.059 204.337 220.336 203.876 220.452C203.414 220.567 203.045 220.451 202.722 220.128C202.468 219.851 202.283 219.482 202.145 218.974C202.007 218.49 202.007 218.051 202.076 217.705C202.191 217.244 202.468 216.967 202.93 216.851C203.391 216.736 203.76 216.851 204.084 217.174C204.361 217.451 204.545 217.821 204.661 218.328ZM204.061 218.49C203.991 218.19 203.876 217.936 203.76 217.728C203.576 217.451 203.345 217.336 203.114 217.405C202.86 217.474 202.722 217.682 202.699 218.005C202.676 218.236 202.722 218.513 202.791 218.813C203.022 219.644 203.345 220.013 203.76 219.898C204.014 219.828 204.153 219.621 204.176 219.275C204.176 219.067 204.13 218.79 204.061 218.49Z" fill="#CDE0FB"/>
<path opacity="0.5" d="M206.345 216.206C206.368 216.252 206.345 216.321 206.345 216.39L205.676 219.76C205.653 219.921 205.561 220.013 205.468 220.06C205.399 220.083 205.33 220.06 205.261 220.037C205.191 219.99 205.168 219.944 205.145 219.875C205.122 219.829 205.122 219.76 205.145 219.69L205.815 216.321C205.838 216.159 205.93 216.067 206.022 216.044C206.091 216.021 206.161 216.021 206.23 216.067C206.299 216.09 206.345 216.136 206.345 216.206Z" fill="#CDE0FB"/>
<path opacity="0.5" d="M209.345 217.105C209.484 217.59 209.484 218.028 209.414 218.374C209.299 218.836 209.022 219.113 208.56 219.228C208.099 219.344 207.73 219.228 207.407 218.905C207.153 218.628 206.968 218.259 206.83 217.751C206.691 217.267 206.691 216.828 206.76 216.482C206.876 216.02 207.153 215.744 207.614 215.628C208.076 215.513 208.445 215.628 208.768 215.951C209.022 216.228 209.207 216.62 209.345 217.105ZM208.722 217.267C208.63 216.967 208.537 216.713 208.422 216.505C208.237 216.228 208.007 216.113 207.776 216.182C207.522 216.251 207.383 216.459 207.36 216.782C207.337 217.013 207.383 217.29 207.453 217.59C207.683 218.421 208.007 218.79 208.422 218.674C208.676 218.605 208.814 218.398 208.837 218.051C208.837 217.844 208.814 217.567 208.722 217.267Z" fill="#CDE0FB"/>
<path opacity="0.5" d="M212.116 216.366C212.254 216.851 212.254 217.29 212.185 217.636C212.069 218.097 211.793 218.374 211.331 218.49C210.869 218.605 210.5 218.49 210.177 218.166C209.923 217.89 209.739 217.52 209.6 217.013C209.462 216.528 209.462 216.089 209.531 215.743C209.646 215.282 209.923 215.005 210.385 214.889C210.846 214.774 211.216 214.889 211.539 215.212C211.793 215.512 212 215.882 212.116 216.366ZM211.492 216.528C211.4 216.228 211.308 215.974 211.192 215.766C211.008 215.489 210.777 215.374 210.546 215.42C210.292 215.489 210.154 215.697 210.131 216.02C210.108 216.251 210.154 216.528 210.223 216.828C210.454 217.659 210.777 218.028 211.192 217.913C211.446 217.843 211.585 217.636 211.608 217.29C211.608 217.128 211.585 216.851 211.492 216.528Z" fill="#CDE0FB"/>
<path opacity="0.5" d="M214.885 215.651C215.024 216.136 215.024 216.574 214.954 216.92C214.839 217.382 214.562 217.659 214.1 217.774C213.639 217.89 213.27 217.774 212.947 217.451C212.693 217.174 212.508 216.805 212.37 216.297C212.231 215.813 212.231 215.374 212.3 215.028C212.416 214.566 212.693 214.289 213.154 214.174C213.616 214.059 213.985 214.174 214.308 214.497C214.585 214.774 214.77 215.166 214.885 215.651ZM214.285 215.813C214.193 215.513 214.1 215.259 213.985 215.051C213.8 214.774 213.57 214.659 213.339 214.705C213.085 214.774 212.947 214.982 212.923 215.305C212.9 215.536 212.947 215.813 213.016 216.113C213.247 216.943 213.57 217.313 213.985 217.197C214.239 217.128 214.377 216.92 214.401 216.574C214.401 216.39 214.354 216.136 214.285 215.813Z" fill="#CDE0FB"/>
<path opacity="0.5" d="M217.677 214.936C217.816 215.42 217.816 215.859 217.746 216.205C217.631 216.667 217.354 216.944 216.892 217.059C216.431 217.174 216.062 217.059 215.739 216.736C215.485 216.459 215.3 216.09 215.162 215.582C215.023 215.097 215.023 214.659 215.092 214.313C215.208 213.851 215.485 213.574 215.946 213.459C216.408 213.343 216.777 213.459 217.1 213.782C217.354 214.059 217.539 214.428 217.677 214.936ZM217.054 215.074C216.985 214.774 216.869 214.52 216.754 214.313C216.569 214.036 216.339 213.92 216.108 213.966C215.854 214.036 215.715 214.243 215.692 214.566C215.669 214.797 215.715 215.074 215.785 215.374C216.015 216.205 216.339 216.574 216.754 216.459C217.008 216.39 217.146 216.182 217.169 215.836C217.169 215.674 217.123 215.397 217.054 215.074Z" fill="#CDE0FB"/>
</g>
</g>
</g>
</g>
<path d="M367.872 318.695H78.5137V322.872H367.872V318.695Z" fill="#7F7D9D"/>
<path d="M370.826 322.873H75.5361V327.05H370.826V322.873Z" fill="#454457"/>
<path d="M374.911 327.073H71.4746V331.25H374.911V327.073Z" fill="#3F3E50"/>
<path d="M355.872 158.831H85.2529V318.719H355.872V158.831Z" fill="#433ED1"/>
<path d="M374.265 161.877H69.2134L224.509 83.1562L374.265 161.877Z" fill="white"/>
<path d="M115.509 151.353L327.947 150.915L224.393 97.0728L115.509 151.353Z" fill="#433ED1"/>
<path d="M367.779 161.877H77.1743V167.139H367.779V161.877Z" fill="#3A4ACE"/>
<path d="M127.37 161.877H98.7529V172.008H127.37V161.877Z" fill="white"/>
<path d="M120.954 172.008H105.168V318.695H120.954V172.008Z" fill="white"/>
<path d="M189.221 161.877H160.604V172.008H189.221V161.877Z" fill="white"/>
<path d="M182.806 172.008H167.02V318.695H182.806V172.008Z" fill="white"/>
<path d="M286.449 161.877H257.832V172.008H286.449V161.877Z" fill="white"/>
<path d="M280.034 172.008H264.249V318.695H280.034V172.008Z" fill="white"/>
<path d="M344.701 161.877H316.083V172.008H344.701V161.877Z" fill="white"/>
<path d="M338.285 172.008H322.5V318.695H338.285V172.008Z" fill="white"/>
<path d="M227.693 133.652C227.693 133.121 227.623 132.659 227.485 132.267C227.346 131.875 227.116 131.506 226.769 131.182C226.446 130.859 226.008 130.536 225.477 130.259C224.946 129.982 224.3 129.705 223.538 129.428C222.223 128.944 221.046 128.436 219.984 127.928C218.923 127.398 218 126.821 217.238 126.128C216.476 125.459 215.899 124.674 215.484 123.774C215.069 122.874 214.884 121.836 214.884 120.612C214.907 119.551 215.092 118.582 215.484 117.728C215.876 116.851 216.43 116.112 217.123 115.466C217.838 114.82 218.669 114.312 219.661 113.92C220.631 113.527 221.738 113.297 222.938 113.181L223.008 109.166L226.239 109.212L226.169 113.274C227.323 113.435 228.362 113.758 229.308 114.243C230.231 114.727 231.039 115.327 231.685 116.066C232.331 116.805 232.816 117.682 233.162 118.697C233.508 119.712 233.67 120.843 233.647 122.089L227.831 121.997C227.854 120.497 227.531 119.366 226.885 118.628C226.239 117.866 225.339 117.497 224.231 117.474C223.631 117.474 223.1 117.543 222.661 117.705C222.223 117.866 221.854 118.097 221.577 118.374C221.3 118.674 221.069 118.997 220.931 119.412C220.792 119.805 220.723 120.243 220.7 120.705C220.7 121.166 220.746 121.582 220.884 121.951C221.023 122.32 221.231 122.666 221.554 122.99C221.877 123.313 222.315 123.613 222.846 123.913C223.377 124.213 224.046 124.513 224.854 124.813C226.146 125.32 227.323 125.828 228.385 126.359C229.447 126.89 230.347 127.49 231.108 128.159C231.87 128.828 232.447 129.613 232.862 130.513C233.278 131.413 233.462 132.452 233.462 133.675C233.439 134.783 233.231 135.752 232.839 136.629C232.447 137.506 231.893 138.244 231.177 138.868C230.462 139.491 229.608 139.998 228.616 140.368C227.623 140.737 226.516 140.968 225.315 141.06L225.269 144.776L222.061 144.73L222.108 141.014C221 140.875 219.915 140.622 218.877 140.229C217.838 139.837 216.915 139.283 216.13 138.568C215.346 137.852 214.699 136.952 214.238 135.867C213.776 134.783 213.545 133.49 213.568 131.99L219.384 132.083C219.361 132.959 219.477 133.721 219.73 134.298C219.961 134.898 220.284 135.383 220.7 135.729C221.115 136.098 221.577 136.352 222.108 136.49C222.638 136.652 223.169 136.721 223.723 136.721C224.346 136.721 224.9 136.652 225.385 136.514C225.869 136.352 226.262 136.144 226.585 135.867C226.908 135.59 227.162 135.244 227.323 134.852C227.6 134.552 227.693 134.113 227.693 133.652Z" fill="white"/>
<path d="M153.265 225.874H134.733V197.256C134.733 197.072 134.894 196.91 135.079 196.91H152.965C153.15 196.91 153.288 197.049 153.288 197.233V225.874H153.265Z" fill="#3A4ACE"/>
<path d="M153.265 288.024H134.733V259.407C134.733 259.222 134.894 259.061 135.079 259.061H152.965C153.15 259.061 153.288 259.199 153.288 259.384V288.024H153.265Z" fill="#3A4ACE"/>
<path d="M310.798 225.874H292.266V197.256C292.266 197.072 292.427 196.91 292.612 196.91H310.498C310.682 196.91 310.821 197.049 310.821 197.233V225.874H310.798Z" fill="#3A4ACE"/>
<path d="M310.706 288.024H292.174V259.407C292.174 259.222 292.335 259.061 292.52 259.061H310.406C310.59 259.061 310.729 259.199 310.729 259.384V288.024H310.706Z" fill="#3A4ACE"/>
<path d="M105.169 178.632C105.169 178.632 107.5 174.293 113.062 174.501C119.108 174.732 120.955 178.632 120.955 178.632V172.008H105.169V178.632Z" fill="#DCEAFF"/>
<path d="M167.02 178.632C167.02 178.632 169.351 174.293 174.913 174.501C180.959 174.732 182.806 178.632 182.806 178.632V172.008H167.02V178.632Z" fill="#DCEAFF"/>
<path d="M264.249 178.632C264.249 178.632 266.58 174.293 272.142 174.501C278.188 174.732 280.035 178.632 280.035 178.632V172.008H264.249V178.632Z" fill="#DCEAFF"/>
<path d="M322.5 178.632C322.5 178.632 324.83 174.293 330.392 174.501C336.439 174.732 338.285 178.632 338.285 178.632V172.008H322.5V178.632Z" fill="#DCEAFF"/>
<path d="M127.37 161.854H98.7529V163.607H127.37V161.854Z" fill="#DCEAFF"/>
<path d="M189.221 161.854H160.604V163.607H189.221V161.854Z" fill="#DCEAFF"/>
<path d="M286.449 161.854H257.832V163.607H286.449V161.854Z" fill="#DCEAFF"/>
<path d="M344.701 161.854H316.083V163.607H344.701V161.854Z" fill="#DCEAFF"/>
<path d="M221.139 98.7113L320.054 150.938H327.947L224.393 97.0728L221.139 98.7113Z" fill="#2D28B6"/>
<path d="M153.933 226.543H134.062V205.634C134.062 200.464 138.263 196.287 143.432 196.287H145.094C149.987 196.287 153.956 200.257 153.956 205.149V226.543H153.933ZM135.378 225.228H152.595V205.126C152.595 200.972 149.225 197.603 145.071 197.603H143.409C138.978 197.603 135.378 201.203 135.378 205.634V225.228Z" fill="white"/>
<path d="M152.964 205.403H134.87V206.649H152.964V205.403Z" fill="white"/>
<path d="M144.517 206.027H143.294V225.782H144.517V206.027Z" fill="white"/>
<path d="M311.191 226.543H291.321V205.634C291.321 200.464 295.521 196.287 300.691 196.287H302.329C307.222 196.287 311.191 200.257 311.191 205.149V226.543ZM292.659 225.228H309.876V205.126C309.876 200.972 306.506 197.603 302.352 197.603H300.714C296.283 197.603 292.682 201.203 292.682 205.634V225.228H292.659Z" fill="white"/>
<path d="M310.244 205.403H292.15V206.649H310.244V205.403Z" fill="white"/>
<path d="M301.798 206.027H300.575V225.782H301.798V206.027Z" fill="white"/>
<path d="M311.376 288.693H291.505V267.784C291.505 262.615 295.706 258.438 300.852 258.438H302.514C307.406 258.438 311.376 262.407 311.376 267.3V288.693ZM292.844 287.378H310.061V267.277C310.061 263.122 306.691 259.753 302.537 259.753H300.875C296.444 259.753 292.844 263.353 292.844 267.784V287.378Z" fill="white"/>
<path d="M310.407 267.554H292.313V268.8H310.407V267.554Z" fill="white"/>
<path d="M301.982 268.177H300.759V287.932H301.982V268.177Z" fill="white"/>
<path d="M153.841 288.693H133.971V267.784C133.971 262.615 138.171 258.438 143.341 258.438H144.979C149.872 258.438 153.841 262.407 153.841 267.3V288.693ZM135.309 287.378H152.526V267.277C152.526 263.122 149.156 259.753 145.002 259.753H143.364C138.933 259.753 135.332 263.353 135.332 267.784V287.378H135.309Z" fill="white"/>
<path d="M152.872 267.554H134.779V268.8H152.872V267.554Z" fill="white"/>
<path d="M144.448 268.177H143.225V287.932H144.448V268.177Z" fill="white"/>
<path d="M139.349 189.295C139.349 189.295 143.318 187.956 149.434 189.295L147.311 194.603C147.311 194.603 144.38 194.21 141.495 194.603L139.349 189.295Z" fill="#CCCBFF"/>
<path d="M140.71 194.718L138.402 190.217C138.402 190.217 135.887 190.725 134.963 191.717L138.794 195.202L140.71 194.718Z" fill="#CCCBFF"/>
<path d="M148.05 194.742L150.15 190.288C150.15 190.288 152.342 190.495 153.589 191.788L149.781 195.203L148.05 194.742Z" fill="#CCCBFF"/>
<path d="M139.349 248.375C139.349 248.375 143.318 246.367 149.434 248.375L147.311 256.406C147.311 256.406 144.38 255.806 141.495 256.406L139.349 248.375Z" fill="#CCCBFF"/>
<path d="M140.71 256.59L138.402 249.782C138.402 249.782 135.887 250.567 134.963 252.044L138.794 257.306L140.71 256.59Z" fill="#CCCBFF"/>
<path d="M148.05 256.637L150.15 249.898C150.15 249.898 152.342 250.222 153.589 252.16L149.781 257.307L148.05 256.637Z" fill="#CCCBFF"/>
<path d="M296.606 186.271C296.606 186.271 300.575 184.263 306.691 186.271L304.568 194.302C304.568 194.302 301.637 193.702 298.752 194.302L296.606 186.271Z" fill="#CCCBFF"/>
<path d="M297.967 194.486L295.659 187.678C295.659 187.678 293.144 188.463 292.221 189.94L296.052 195.202L297.967 194.486Z" fill="#CCCBFF"/>
<path d="M305.307 194.51L307.407 187.771C307.407 187.771 309.6 188.094 310.846 190.033L307.038 195.179L305.307 194.51Z" fill="#CCCBFF"/>
<path d="M296.514 248.375C296.514 248.375 300.483 246.367 306.599 248.375L304.476 256.406C304.476 256.406 301.545 255.806 298.66 256.406L296.514 248.375Z" fill="#CCCBFF"/>
<path d="M297.875 256.59L295.567 249.782C295.567 249.782 293.052 250.567 292.128 252.044L295.959 257.306L297.875 256.59Z" fill="#CCCBFF"/>
<path d="M305.215 256.637L307.315 249.898C307.315 249.898 309.507 250.222 310.754 252.16L306.946 257.307L305.215 256.637Z" fill="#CCCBFF"/>
<path d="M323.315 127.916C323.315 124.8 325.831 122.285 328.947 122.285C332.062 122.285 334.578 124.8 334.578 127.916C334.578 131.031 332.062 133.547 328.947 133.547C325.854 133.547 323.315 131.031 323.315 127.916Z" fill="#DAD9F5"/>
<path d="M329.615 129.255C329.615 129.14 329.592 129.048 329.569 128.955C329.546 128.863 329.477 128.794 329.407 128.724C329.338 128.655 329.246 128.586 329.13 128.517C329.015 128.447 328.877 128.401 328.715 128.332C328.438 128.217 328.161 128.124 327.93 128.009C327.7 127.894 327.492 127.755 327.33 127.617C327.169 127.478 327.03 127.294 326.938 127.109C326.846 126.924 326.799 126.67 326.799 126.417C326.799 126.186 326.846 125.978 326.938 125.77C327.03 125.586 327.146 125.424 327.307 125.263C327.469 125.124 327.653 125.009 327.861 124.916C328.069 124.824 328.323 124.778 328.576 124.755L328.6 123.878H329.315L329.292 124.778C329.546 124.824 329.777 124.893 329.984 124.986C330.192 125.101 330.354 125.216 330.515 125.378C330.654 125.54 330.769 125.724 330.838 125.955C330.907 126.186 330.954 126.417 330.954 126.694L329.684 126.67C329.684 126.347 329.615 126.093 329.477 125.932C329.338 125.77 329.13 125.678 328.9 125.678C328.761 125.678 328.646 125.701 328.553 125.724C328.461 125.77 328.369 125.817 328.323 125.863C328.253 125.932 328.207 126.001 328.184 126.093C328.161 126.186 328.138 126.278 328.138 126.37C328.138 126.463 328.161 126.555 328.184 126.647C328.207 126.74 328.253 126.809 328.323 126.878C328.392 126.947 328.484 127.017 328.6 127.086C328.715 127.155 328.877 127.224 329.038 127.294C329.315 127.409 329.592 127.524 329.823 127.64C330.054 127.755 330.261 127.894 330.423 128.032C330.584 128.171 330.723 128.355 330.815 128.54C330.907 128.724 330.954 128.978 330.954 129.232C330.954 129.463 330.907 129.694 330.815 129.878C330.723 130.063 330.607 130.225 330.446 130.363C330.284 130.501 330.1 130.617 329.892 130.686C329.684 130.778 329.43 130.825 329.177 130.848L329.153 131.655H328.461L328.484 130.848C328.23 130.825 328 130.755 327.769 130.686C327.538 130.594 327.33 130.478 327.169 130.317C326.984 130.155 326.846 129.971 326.753 129.717C326.661 129.486 326.592 129.186 326.615 128.863L327.884 128.886C327.884 129.071 327.907 129.232 327.953 129.371C328 129.509 328.069 129.601 328.161 129.694C328.253 129.763 328.346 129.832 328.461 129.855C328.576 129.878 328.692 129.901 328.807 129.901C328.946 129.901 329.061 129.878 329.177 129.855C329.292 129.832 329.361 129.763 329.453 129.717C329.523 129.648 329.569 129.578 329.615 129.486C329.592 129.463 329.615 129.371 329.615 129.255Z" fill="white"/>
<path d="M329.477 100.429C329.477 95.9286 333.123 92.2822 337.624 92.2822C342.124 92.2822 345.77 95.9286 345.77 100.429C345.77 104.929 342.124 108.576 337.624 108.576C333.123 108.576 329.477 104.929 329.477 100.429Z" fill="#DAD9F5"/>
<path d="M338.592 102.367C338.592 102.206 338.569 102.044 338.523 101.929C338.477 101.79 338.408 101.675 338.292 101.583C338.177 101.467 338.061 101.375 337.877 101.283C337.715 101.19 337.508 101.098 337.254 101.029C336.838 100.867 336.469 100.706 336.123 100.544C335.777 100.383 335.5 100.198 335.246 99.9671C335.015 99.7594 334.83 99.5056 334.692 99.2286C334.553 98.9517 334.507 98.6055 334.507 98.2132C334.507 97.867 334.577 97.567 334.692 97.29C334.807 97.0131 334.992 96.7823 335.223 96.5746C335.454 96.3669 335.707 96.2053 336.031 96.0899C336.331 95.9746 336.7 95.8822 337.069 95.8592L337.092 94.5898L338.108 94.6129L338.085 95.9053C338.454 95.9515 338.777 96.0669 339.077 96.2053C339.377 96.3669 339.631 96.5515 339.838 96.7823C340.046 97.0131 340.208 97.29 340.3 97.6131C340.415 97.9362 340.462 98.2824 340.462 98.6978L338.615 98.6747C338.615 98.1901 338.523 97.8439 338.315 97.5901C338.108 97.3593 337.831 97.2208 337.461 97.2208C337.277 97.2208 337.092 97.2439 336.954 97.29C336.815 97.3362 336.7 97.4054 336.607 97.4977C336.515 97.5901 336.446 97.7054 336.4 97.8208C336.354 97.9362 336.331 98.0747 336.331 98.2363C336.331 98.3747 336.354 98.5132 336.4 98.6286C336.446 98.744 336.515 98.8594 336.607 98.9517C336.7 99.044 336.838 99.1594 337.023 99.2517C337.184 99.344 337.415 99.4363 337.669 99.5286C338.084 99.6902 338.454 99.8517 338.8 100.013C339.146 100.175 339.423 100.383 339.677 100.59C339.908 100.798 340.092 101.052 340.231 101.329C340.369 101.606 340.415 101.952 340.415 102.321C340.415 102.667 340.346 102.99 340.208 103.267C340.092 103.544 339.908 103.775 339.677 103.983C339.446 104.191 339.192 104.352 338.869 104.467C338.546 104.583 338.2 104.652 337.808 104.698L337.784 105.875L336.769 105.852L336.792 104.675C336.446 104.629 336.1 104.56 335.777 104.421C335.454 104.306 335.154 104.121 334.9 103.89C334.646 103.66 334.438 103.383 334.3 103.037C334.161 102.69 334.069 102.275 334.092 101.813L335.938 101.836C335.938 102.113 335.961 102.344 336.054 102.552C336.123 102.737 336.238 102.898 336.354 103.014C336.492 103.129 336.631 103.221 336.792 103.267C336.954 103.314 337.138 103.337 337.3 103.337C337.508 103.337 337.669 103.314 337.831 103.267C337.992 103.221 338.108 103.152 338.223 103.06C338.338 102.967 338.408 102.852 338.454 102.737C338.546 102.644 338.569 102.506 338.592 102.367Z" fill="white"/>
<path d="M319.992 78.2513C320.701 69.9201 314.522 62.5916 306.19 61.8827C297.859 61.1738 290.531 67.3528 289.822 75.684C289.113 84.0153 295.292 91.3437 303.623 92.0527C311.954 92.7616 319.283 86.5825 319.992 78.2513Z" fill="#DAD9F5"/>
<path d="M306.699 80.5813C306.699 80.2813 306.653 80.0044 306.584 79.7505C306.492 79.5197 306.353 79.2889 306.168 79.1043C305.984 78.9197 305.73 78.735 305.407 78.5504C305.107 78.3889 304.715 78.2273 304.253 78.0658C303.468 77.7888 302.776 77.4888 302.153 77.1657C301.53 76.8657 300.976 76.4964 300.537 76.1041C300.099 75.7118 299.753 75.2502 299.499 74.7194C299.245 74.1886 299.13 73.5655 299.153 72.85C299.153 72.2269 299.291 71.6499 299.522 71.1422C299.753 70.6345 300.076 70.1729 300.491 69.8037C300.907 69.4344 301.414 69.1113 301.991 68.8805C302.568 68.6497 303.214 68.5113 303.93 68.442L303.953 66.0649L305.868 66.088L305.822 68.4882C306.515 68.5805 307.115 68.7651 307.669 69.0651C308.222 69.3421 308.684 69.7113 309.076 70.1498C309.469 70.5883 309.746 71.1191 309.953 71.6961C310.161 72.2961 310.253 72.9654 310.23 73.7039L306.792 73.6578C306.815 72.7808 306.607 72.1115 306.238 71.673C305.845 71.2345 305.338 71.0037 304.668 70.9807C304.322 70.9807 303.999 71.0268 303.745 71.1191C303.491 71.2114 303.261 71.3499 303.099 71.5115C302.938 71.673 302.799 71.8807 302.73 72.1115C302.637 72.3423 302.614 72.5962 302.591 72.8731C302.568 73.15 302.614 73.4039 302.707 73.6116C302.776 73.8424 302.914 74.0501 303.099 74.2347C303.284 74.4194 303.538 74.604 303.861 74.7886C304.184 74.9502 304.576 75.1348 305.061 75.3194C305.822 75.6194 306.515 75.9195 307.161 76.2426C307.784 76.5657 308.315 76.9118 308.776 77.3042C309.215 77.6965 309.561 78.1812 309.815 78.6889C310.069 79.2197 310.184 79.8428 310.161 80.5582C310.161 81.2044 310.023 81.7814 309.792 82.3122C309.561 82.8199 309.238 83.2584 308.823 83.6277C308.407 83.9969 307.899 84.297 307.322 84.5047C306.745 84.7124 306.076 84.8739 305.361 84.9201L305.338 87.1125L303.445 87.0895L303.468 84.897C302.799 84.8278 302.176 84.6662 301.553 84.4354C300.93 84.2047 300.399 83.8816 299.937 83.4431C299.476 83.0276 299.083 82.4968 298.806 81.8506C298.529 81.2044 298.391 80.4429 298.414 79.5659L301.853 79.612C301.853 80.1428 301.922 80.5813 302.061 80.9275C302.199 81.2737 302.384 81.5737 302.637 81.7814C302.891 81.9891 303.168 82.1507 303.468 82.243C303.791 82.3353 304.091 82.3814 304.415 82.3814C304.784 82.3814 305.107 82.3353 305.407 82.243C305.684 82.1507 305.938 82.0122 306.122 81.8506C306.307 81.6891 306.469 81.4814 306.561 81.2506C306.63 81.0891 306.676 80.8352 306.699 80.5813Z" fill="white"/>
<path d="M405.305 302.011L405.444 304.042C405.444 304.203 405.513 304.342 405.605 304.457C405.698 304.573 405.836 304.665 405.998 304.734C406.044 304.757 406.09 304.757 406.136 304.757C406.182 304.757 406.228 304.757 406.275 304.757L438.538 302.426C438.954 302.403 439.277 302.034 439.254 301.619C439.254 301.595 439.254 301.596 439.254 301.572L439.115 299.542C439.115 299.518 439.115 299.518 439.115 299.495C439.069 299.08 438.7 298.78 438.285 298.803L406.021 301.134C405.975 301.134 405.928 301.134 405.882 301.157C405.836 301.18 405.79 301.18 405.744 301.203C405.605 301.272 405.467 301.388 405.398 301.526C405.328 301.711 405.282 301.849 405.305 302.011Z" fill="#7671FF"/>
<path d="M421.345 303.672L438.631 302.426C439 302.403 439.277 302.057 439.277 301.642C439.277 301.618 439.277 301.618 439.277 301.595L439.138 299.564C439.138 299.541 439.138 299.541 439.138 299.518C439.092 299.103 438.769 298.803 438.4 298.826L423.237 299.934C423.053 301.018 422.591 302.519 421.345 303.672Z" fill="#433ED1"/>
<path d="M409.426 304.524L409.794 304.498L409.534 300.907L409.166 300.933L409.426 304.524Z" fill="#433ED1"/>
<path d="M410.664 304.438L411.033 304.411L410.772 300.82L410.404 300.847L410.664 304.438Z" fill="#433ED1"/>
<path d="M412.16 304.35L412.529 304.324L412.27 300.733L411.902 300.759L412.16 304.35Z" fill="#433ED1"/>
<path d="M414.44 304.166L414.808 304.14L414.548 300.549L414.179 300.575L414.44 304.166Z" fill="#433ED1"/>
<path d="M416.862 304.014L417.23 303.988L416.972 300.397L416.604 300.423L416.862 304.014Z" fill="#433ED1"/>
<path d="M420.548 303.721L420.917 303.694L420.656 300.103L420.288 300.13L420.548 303.721Z" fill="#433ED1"/>
<path d="M424.033 303.485L424.401 303.459L424.143 299.868L423.774 299.895L424.033 303.485Z" fill="#433ED1"/>
<path d="M427.104 303.255L427.472 303.228L427.212 299.637L426.844 299.664L427.104 303.255Z" fill="#433ED1"/>
<path d="M408.27 304.642L408.638 304.615L408.375 301.024L408.007 301.051L408.27 304.642Z" fill="#433ED1"/>
<path d="M407.486 304.682L407.854 304.656L407.596 301.065L407.227 301.091L407.486 304.682Z" fill="#433ED1"/>
<path d="M406.7 304.735L407.068 304.708L406.808 301.118L406.439 301.144L406.7 304.735Z" fill="#433ED1"/>
<path d="M405.883 301.203L406.137 304.757C406.183 304.757 406.229 304.757 406.275 304.757L406.506 304.734L406.252 301.157L406.021 301.18C405.975 301.18 405.929 301.203 405.883 301.203Z" fill="#433ED1"/>
<path d="M405.398 301.572L405.606 304.48C405.698 304.596 405.836 304.688 405.998 304.757L405.744 301.272C405.606 301.319 405.49 301.434 405.398 301.572Z" fill="#433ED1"/>
<path d="M408.491 298.18L408.629 300.21C408.652 300.372 408.698 300.51 408.791 300.626C408.883 300.741 409.022 300.834 409.183 300.88C409.229 300.903 409.275 300.903 409.322 300.903C409.368 300.903 409.414 300.903 409.46 300.903L441.724 298.572C442.139 298.549 442.462 298.179 442.439 297.764C442.439 297.741 442.439 297.741 442.439 297.718L442.301 295.687C442.301 295.664 442.301 295.664 442.301 295.641C442.255 295.225 441.885 294.925 441.47 294.949L409.206 297.279C409.183 297.279 409.16 297.279 409.137 297.279H409.114H409.091H409.068C409.022 297.303 408.975 297.303 408.929 297.326H408.906H408.883C408.86 297.326 408.86 297.349 408.837 297.349C408.837 297.349 408.814 297.349 408.814 297.372C408.814 297.372 408.791 297.372 408.791 297.395C408.768 297.395 408.768 297.418 408.745 297.418C408.721 297.418 408.721 297.441 408.698 297.441L408.675 297.464L408.652 297.487C408.629 297.51 408.606 297.533 408.606 297.556C408.606 297.556 408.606 297.579 408.583 297.579C408.583 297.579 408.583 297.603 408.56 297.603C408.56 297.626 408.537 297.626 408.537 297.649C408.514 297.879 408.491 298.018 408.491 298.18Z" fill="#7671FF"/>
<path d="M424.53 299.842L441.816 298.596C442.185 298.573 442.462 298.226 442.462 297.811C442.462 297.788 442.462 297.788 442.462 297.765L442.323 295.734C442.323 295.711 442.323 295.711 442.323 295.688C442.277 295.272 441.954 294.972 441.585 294.995L426.422 296.103C426.422 296.126 426.422 296.172 426.399 296.195C426.214 297.257 425.753 298.711 424.53 299.842Z" fill="#433ED1"/>
<path d="M412.623 300.706L412.991 300.679L412.731 297.088L412.363 297.115L412.623 300.706Z" fill="#433ED1"/>
<path d="M413.861 300.619L414.229 300.592L413.969 297.001L413.6 297.028L413.861 300.619Z" fill="#433ED1"/>
<path d="M415.36 300.51L415.728 300.483L415.465 296.893L415.097 296.92L415.36 300.51Z" fill="#433ED1"/>
<path d="M417.615 300.328L417.983 300.302L417.723 296.711L417.354 296.738L417.615 300.328Z" fill="#433ED1"/>
<path d="M420.037 300.161L420.406 300.135L420.145 296.544L419.777 296.571L420.037 300.161Z" fill="#433ED1"/>
<path d="M423.742 299.901L424.11 299.874L423.849 296.283L423.481 296.31L423.742 299.901Z" fill="#433ED1"/>
<path d="M427.234 299.669L427.603 299.642L427.34 296.051L426.972 296.078L427.234 299.669Z" fill="#433ED1"/>
<path d="M430.295 299.412L430.664 299.386L430.403 295.795L430.035 295.822L430.295 299.412Z" fill="#433ED1"/>
<path d="M411.455 300.797L411.824 300.77L411.565 297.179L411.197 297.206L411.455 300.797Z" fill="#433ED1"/>
<path d="M410.66 300.85L411.028 300.824L410.768 297.233L410.399 297.26L410.66 300.85Z" fill="#433ED1"/>
<path d="M409.889 300.892L410.257 300.865L409.997 297.274L409.628 297.301L409.889 300.892Z" fill="#433ED1"/>
<path d="M409.09 297.372L409.344 300.926C409.39 300.926 409.437 300.926 409.483 300.926L409.713 300.903L409.46 297.326L409.229 297.349C409.183 297.349 409.136 297.349 409.09 297.372Z" fill="#433ED1"/>
<path d="M408.605 297.741L408.813 300.649C408.905 300.764 409.044 300.857 409.205 300.926L408.952 297.441C408.79 297.487 408.675 297.602 408.605 297.741Z" fill="#433ED1"/>
<path d="M406.574 294.811L406.712 296.842C406.712 297.004 406.782 297.142 406.874 297.258C406.966 297.373 407.105 297.465 407.266 297.534C407.312 297.558 407.359 297.558 407.405 297.558C407.451 297.558 407.497 297.558 407.543 297.558L439.807 295.227C439.945 295.227 440.061 295.18 440.153 295.111C440.384 294.973 440.522 294.742 440.522 294.465C440.522 294.442 440.522 294.442 440.522 294.419C440.522 294.396 440.522 294.396 440.522 294.373L440.384 292.342C440.384 292.319 440.384 292.319 440.384 292.296C440.338 291.88 439.968 291.58 439.553 291.603L407.289 293.934C407.243 293.934 407.197 293.934 407.151 293.957C407.105 293.98 407.059 293.98 407.012 294.003C406.874 294.073 406.735 294.188 406.666 294.327C406.597 294.488 406.551 294.65 406.574 294.811Z" fill="#7671FF"/>
<path d="M422.614 296.472L439.9 295.226C440.015 295.226 440.131 295.179 440.223 295.11C440.408 294.972 440.546 294.741 440.546 294.464C440.546 294.441 440.546 294.441 440.546 294.418C440.546 294.395 440.546 294.395 440.546 294.372L440.408 292.341C440.408 292.318 440.408 292.318 440.408 292.295C440.362 291.879 440.039 291.579 439.669 291.602L424.507 292.71C424.345 293.749 423.907 295.203 422.753 296.356C422.684 296.403 422.66 296.426 422.614 296.472Z" fill="#433ED1"/>
<path d="M410.697 297.322L411.065 297.295L410.805 293.705L410.437 293.731L410.697 297.322Z" fill="#433ED1"/>
<path d="M411.933 297.235L412.302 297.208L412.041 293.617L411.673 293.644L411.933 297.235Z" fill="#433ED1"/>
<path d="M413.435 297.134L413.803 297.107L413.543 293.517L413.175 293.543L413.435 297.134Z" fill="#433ED1"/>
<path d="M415.71 296.964L416.078 296.937L415.818 293.346L415.449 293.373L415.71 296.964Z" fill="#433ED1"/>
<path d="M418.136 296.791L418.504 296.764L418.246 293.173L417.878 293.2L418.136 296.791Z" fill="#433ED1"/>
<path d="M421.816 296.517L422.185 296.491L421.924 292.9L421.556 292.927L421.816 296.517Z" fill="#433ED1"/>
<path d="M425.281 296.269L425.649 296.243L425.389 292.652L425.02 292.678L425.281 296.269Z" fill="#433ED1"/>
<path d="M428.373 296.052L428.741 296.025L428.481 292.434L428.113 292.461L428.373 296.052Z" fill="#433ED1"/>
<path d="M409.53 297.412L409.898 297.386L409.64 293.795L409.272 293.821L409.53 297.412Z" fill="#433ED1"/>
<path d="M408.733 297.467L409.102 297.44L408.841 293.85L408.473 293.876L408.733 297.467Z" fill="#433ED1"/>
<path d="M407.994 297.546L408.362 297.52L408.099 293.929L407.731 293.956L407.994 297.546Z" fill="#433ED1"/>
<path d="M407.152 294.003L407.406 297.557C407.452 297.557 407.498 297.557 407.544 297.557L407.775 297.534L407.521 293.957L407.29 293.98C407.244 293.98 407.198 293.98 407.152 294.003Z" fill="#433ED1"/>
<path d="M406.667 294.372L406.875 297.28C406.967 297.395 407.106 297.488 407.267 297.534L407.013 294.049C406.875 294.118 406.759 294.233 406.667 294.372Z" fill="#433ED1"/>
<path d="M405.537 291.279L405.675 293.31C405.698 293.472 405.744 293.61 405.837 293.726C405.929 293.841 406.067 293.933 406.229 293.98C406.275 294.003 406.321 294.003 406.367 294.003C406.414 294.003 406.46 294.003 406.506 294.003L438.77 291.672C439.185 291.649 439.508 291.279 439.485 290.864C439.485 290.841 439.485 290.841 439.485 290.818L439.347 288.787C439.347 288.764 439.347 288.764 439.347 288.741C439.3 288.371 438.977 288.071 438.608 288.048C438.585 288.048 438.539 288.048 438.516 288.048L406.252 290.379C406.206 290.379 406.16 290.379 406.114 290.402C406.067 290.425 406.021 290.425 405.975 290.449C405.837 290.518 405.698 290.633 405.629 290.772C405.56 290.956 405.537 291.118 405.537 291.279Z" fill="#7671FF"/>
<path d="M421.576 292.941L438.861 291.695C439.231 291.672 439.508 291.326 439.508 290.91C439.508 290.887 439.508 290.887 439.508 290.864L439.369 288.833C439.369 288.81 439.369 288.81 439.369 288.787C439.323 288.418 439.046 288.118 438.7 288.095C438.677 288.095 438.654 288.095 438.608 288.095L423.445 289.203C423.284 290.264 422.822 291.764 421.576 292.941Z" fill="#433ED1"/>
<path d="M409.67 293.79L410.038 293.764L409.778 290.173L409.409 290.199L409.67 293.79Z" fill="#433ED1"/>
<path d="M410.929 293.717L411.297 293.69L411.039 290.1L410.67 290.126L410.929 293.717Z" fill="#433ED1"/>
<path d="M412.382 293.603L412.75 293.576L412.489 289.985L412.121 290.012L412.382 293.603Z" fill="#433ED1"/>
<path d="M414.661 293.434L415.029 293.407L414.768 289.816L414.4 289.843L414.661 293.434Z" fill="#433ED1"/>
<path d="M417.105 293.257L417.473 293.231L417.215 289.64L416.847 289.667L417.105 293.257Z" fill="#433ED1"/>
<path d="M420.791 292.987L421.159 292.96L420.899 289.369L420.531 289.396L420.791 292.987Z" fill="#433ED1"/>
<path d="M424.255 292.74L424.624 292.713L424.363 289.122L423.995 289.149L424.255 292.74Z" fill="#433ED1"/>
<path d="M427.342 292.519L427.71 292.492L427.45 288.901L427.081 288.928L427.342 292.519Z" fill="#433ED1"/>
<path d="M408.483 293.869L408.852 293.843L408.591 290.252L408.223 290.279L408.483 293.869Z" fill="#433ED1"/>
<path d="M407.728 293.948L408.097 293.922L407.838 290.331L407.47 290.357L407.728 293.948Z" fill="#433ED1"/>
<path d="M406.969 294.016L407.337 293.989L407.075 290.399L406.707 290.426L406.969 294.016Z" fill="#433ED1"/>
<path d="M406.137 290.471L406.391 294.026C406.437 294.026 406.483 294.026 406.53 294.026L406.76 294.002L406.506 290.425L406.276 290.448C406.229 290.448 406.183 290.448 406.137 290.471Z" fill="#433ED1"/>
<path d="M405.652 290.841L405.86 293.748C405.952 293.864 406.091 293.956 406.252 294.025L405.999 290.541C405.837 290.587 405.722 290.702 405.652 290.841Z" fill="#433ED1"/>
<path d="M407.659 287.517L407.797 289.548C407.797 289.71 407.867 289.848 407.959 289.964C408.051 290.079 408.19 290.171 408.351 290.241C408.397 290.264 408.444 290.264 408.49 290.264C408.513 290.264 408.513 290.264 408.536 290.264H408.559H408.582C408.605 290.264 408.605 290.264 408.628 290.264L440.892 287.933C441.307 287.91 441.63 287.54 441.607 287.125C441.607 287.102 441.607 287.102 441.607 287.079L441.469 285.048C441.469 285.025 441.469 285.025 441.469 285.002V284.979C441.423 284.656 441.146 284.402 440.823 284.333H440.8C440.753 284.333 440.684 284.333 440.638 284.333L408.374 286.663C408.351 286.663 408.328 286.663 408.305 286.663H408.282C408.259 286.663 408.259 286.663 408.236 286.663C408.19 286.687 408.144 286.687 408.097 286.71C407.959 286.779 407.82 286.894 407.751 287.033C407.682 287.217 407.636 287.356 407.659 287.517Z" fill="#7671FF"/>
<path d="M423.698 289.179L440.984 287.933C441.353 287.91 441.63 287.563 441.63 287.148C441.63 287.125 441.63 287.125 441.63 287.102L441.492 285.071C441.492 285.048 441.492 285.048 441.492 285.025V285.002C441.446 284.655 441.192 284.402 440.892 284.355H440.869C440.823 284.355 440.776 284.355 440.753 284.355L425.591 285.463V285.486C425.383 286.548 424.921 288.025 423.698 289.179Z" fill="#433ED1"/>
<path d="M411.789 290.058L412.158 290.032L411.899 286.441L411.531 286.467L411.789 290.058Z" fill="#433ED1"/>
<path d="M413.007 289.96L413.375 289.933L413.115 286.342L412.747 286.369L413.007 289.96Z" fill="#433ED1"/>
<path d="M414.506 289.837L414.874 289.81L414.614 286.219L414.245 286.246L414.506 289.837Z" fill="#433ED1"/>
<path d="M416.785 289.668L417.153 289.641L416.892 286.05L416.524 286.077L416.785 289.668Z" fill="#433ED1"/>
<path d="M419.187 289.503L419.555 289.477L419.295 285.886L418.927 285.912L419.187 289.503Z" fill="#433ED1"/>
<path d="M422.89 289.243L423.258 289.216L422.998 285.625L422.629 285.652L422.89 289.243Z" fill="#433ED1"/>
<path d="M426.35 288.971L426.718 288.944L426.458 285.353L426.089 285.38L426.35 288.971Z" fill="#433ED1"/>
<path d="M429.446 288.754L429.814 288.728L429.554 285.137L429.185 285.163L429.446 288.754Z" fill="#433ED1"/>
<path d="M410.585 290.127L410.954 290.101L410.693 286.51L410.325 286.536L410.585 290.127Z" fill="#433ED1"/>
<path d="M409.807 290.169L410.175 290.143L409.915 286.552L409.546 286.578L409.807 290.169Z" fill="#433ED1"/>
<path d="M409.062 290.232L409.43 290.205L409.17 286.614L408.801 286.641L409.062 290.232Z" fill="#433ED1"/>
<path d="M408.236 286.709L408.49 290.263C408.536 290.263 408.582 290.263 408.629 290.263L408.859 290.24L408.606 286.663L408.375 286.686C408.329 286.686 408.282 286.686 408.236 286.709Z" fill="#433ED1"/>
<path d="M407.751 287.078L407.959 289.986C408.051 290.101 408.19 290.193 408.351 290.263L408.098 286.778C407.959 286.824 407.844 286.939 407.751 287.078Z" fill="#433ED1"/>
<path d="M407.452 283.963L407.591 285.994C407.591 286.156 407.66 286.294 407.752 286.409C407.844 286.525 407.983 286.617 408.145 286.686C408.191 286.709 408.214 286.709 408.26 286.709H408.283C408.329 286.709 408.375 286.709 408.421 286.709L440.685 284.378C440.708 284.378 440.754 284.378 440.778 284.355C440.801 284.355 440.801 284.355 440.824 284.355C441.17 284.263 441.424 283.94 441.401 283.571C441.401 283.548 441.401 283.548 441.401 283.525L441.262 281.494C441.262 281.471 441.262 281.471 441.262 281.448C441.216 281.032 440.847 280.732 440.431 280.755L408.168 283.086C408.144 283.086 408.121 283.086 408.098 283.086H408.075H408.052H408.029C407.983 283.109 407.937 283.109 407.891 283.132H407.868H407.844C407.821 283.132 407.821 283.155 407.798 283.155C407.775 283.155 407.775 283.178 407.752 283.178C407.729 283.178 407.729 283.201 407.706 283.201C407.683 283.201 407.683 283.225 407.66 283.225L407.637 283.248L407.614 283.271C407.591 283.294 407.568 283.317 407.568 283.34C407.568 283.34 407.568 283.363 407.544 283.363C407.544 283.363 407.544 283.386 407.521 283.386C407.521 283.409 407.498 283.409 407.498 283.432C407.498 283.64 407.452 283.801 407.452 283.963Z" fill="#7671FF"/>
<path d="M423.515 285.624L440.8 284.378C440.824 284.378 440.824 284.378 440.847 284.378C440.87 284.378 440.87 284.378 440.893 284.378C441.216 284.309 441.47 283.986 441.447 283.593C441.447 283.57 441.447 283.57 441.447 283.547L441.308 281.516C441.308 281.493 441.308 281.493 441.308 281.47C441.262 281.055 440.939 280.755 440.57 280.778L425.407 281.885C425.407 281.908 425.407 281.955 425.384 281.978C425.199 283.039 424.738 284.47 423.561 285.601C423.538 285.601 423.515 285.601 423.515 285.624Z" fill="#433ED1"/>
<path d="M411.602 286.485L411.971 286.458L411.708 282.868L411.34 282.895L411.602 286.485Z" fill="#433ED1"/>
<path d="M412.833 286.396L413.201 286.37L412.943 282.779L412.575 282.805L412.833 286.396Z" fill="#433ED1"/>
<path d="M414.314 286.284L414.683 286.257L414.422 282.666L414.054 282.693L414.314 286.284Z" fill="#433ED1"/>
<path d="M416.616 286.128L416.984 286.101L416.722 282.511L416.353 282.538L416.616 286.128Z" fill="#433ED1"/>
<path d="M419.034 285.936L419.402 285.909L419.144 282.318L418.775 282.345L419.034 285.936Z" fill="#433ED1"/>
<path d="M422.696 285.667L423.064 285.64L422.804 282.049L422.435 282.076L422.696 285.667Z" fill="#433ED1"/>
<path d="M426.16 285.419L426.528 285.392L426.268 281.801L425.9 281.828L426.16 285.419Z" fill="#433ED1"/>
<path d="M429.251 285.201L429.62 285.174L429.359 281.583L428.991 281.61L429.251 285.201Z" fill="#433ED1"/>
<path d="M410.409 286.562L410.777 286.535L410.519 282.944L410.151 282.971L410.409 286.562Z" fill="#433ED1"/>
<path d="M409.614 286.617L409.982 286.59L409.721 282.999L409.353 283.026L409.614 286.617Z" fill="#433ED1"/>
<path d="M408.867 286.679L409.235 286.652L408.974 283.061L408.606 283.088L408.867 286.679Z" fill="#433ED1"/>
<path d="M408.053 283.133L408.307 286.687C408.353 286.687 408.399 286.687 408.445 286.687L408.676 286.664L408.422 283.086L408.191 283.109C408.145 283.133 408.099 283.133 408.053 283.133Z" fill="#433ED1"/>
<path d="M407.568 283.502L407.776 286.41C407.868 286.525 408.006 286.617 408.168 286.687L407.914 283.202C407.776 283.271 407.637 283.386 407.568 283.502Z" fill="#433ED1"/>
<path d="M405.537 280.571L405.675 282.602C405.698 282.763 405.744 282.902 405.837 283.017C405.929 283.133 406.067 283.225 406.229 283.294C406.275 283.317 406.321 283.317 406.367 283.317C406.414 283.317 406.46 283.317 406.506 283.317L438.77 280.986C438.908 280.986 439.024 280.94 439.116 280.871C439.347 280.733 439.485 280.502 439.485 280.225C439.485 280.202 439.485 280.202 439.485 280.179C439.485 280.156 439.485 280.156 439.485 280.132L439.347 278.102C439.347 278.079 439.347 278.078 439.347 278.055C439.3 277.64 438.931 277.34 438.516 277.363L406.252 279.694C406.206 279.694 406.16 279.694 406.114 279.717C406.067 279.74 406.021 279.74 405.975 279.763C405.837 279.832 405.698 279.948 405.629 280.086C405.56 280.271 405.537 280.409 405.537 280.571Z" fill="#7671FF"/>
<path d="M421.598 282.233L438.883 280.986C438.999 280.986 439.114 280.94 439.207 280.871C439.391 280.733 439.53 280.502 439.53 280.225C439.53 280.202 439.53 280.202 439.53 280.179C439.53 280.156 439.53 280.156 439.53 280.132L439.391 278.102C439.391 278.079 439.391 278.078 439.391 278.055C439.345 277.64 439.022 277.34 438.653 277.363L423.49 278.471C423.329 279.509 422.89 280.963 421.736 282.117C421.644 282.163 421.621 282.21 421.598 282.233Z" fill="#433ED1"/>
<path d="M409.649 283.086L410.018 283.06L409.757 279.469L409.389 279.495L409.649 283.086Z" fill="#433ED1"/>
<path d="M410.932 283.01L411.301 282.984L411.043 279.393L410.675 279.419L410.932 283.01Z" fill="#433ED1"/>
<path d="M412.386 282.897L412.754 282.871L412.494 279.28L412.126 279.306L412.386 282.897Z" fill="#433ED1"/>
<path d="M414.665 282.729L415.033 282.703L414.773 279.112L414.405 279.138L414.665 282.729Z" fill="#433ED1"/>
<path d="M417.113 282.577L417.481 282.55L417.223 278.959L416.855 278.986L417.113 282.577Z" fill="#433ED1"/>
<path d="M420.809 282.29L421.177 282.263L420.919 278.672L420.55 278.699L420.809 282.29Z" fill="#433ED1"/>
<path d="M424.276 282.043L424.644 282.017L424.386 278.426L424.017 278.452L424.276 282.043Z" fill="#433ED1"/>
<path d="M427.349 281.815L427.718 281.788L427.457 278.197L427.089 278.224L427.349 281.815Z" fill="#433ED1"/>
<path d="M408.489 283.188L408.857 283.161L408.597 279.57L408.228 279.597L408.489 283.188Z" fill="#433ED1"/>
<path d="M407.686 283.231L408.055 283.204L407.794 279.613L407.426 279.64L407.686 283.231Z" fill="#433ED1"/>
<path d="M406.942 283.295L407.311 283.268L407.05 279.677L406.682 279.704L406.942 283.295Z" fill="#433ED1"/>
<path d="M406.137 279.762L406.391 283.317C406.437 283.317 406.483 283.317 406.53 283.317L406.76 283.293L406.506 279.716L406.276 279.739C406.229 279.739 406.183 279.762 406.137 279.762Z" fill="#433ED1"/>
<path d="M405.652 280.132L405.86 283.04C405.952 283.155 406.091 283.248 406.252 283.317L405.999 279.832C405.837 279.878 405.722 279.994 405.652 280.132Z" fill="#433ED1"/>
<path d="M402.652 277.178L402.79 279.209C402.813 279.37 402.859 279.509 402.952 279.624C403.044 279.739 403.182 279.832 403.344 279.901C403.39 279.924 403.436 279.924 403.482 279.924C403.528 279.924 403.575 279.924 403.621 279.924L435.885 277.593C436.3 277.57 436.623 277.201 436.6 276.785C436.6 276.762 436.6 276.762 436.6 276.739L436.462 274.708C436.462 274.685 436.462 274.685 436.462 274.662C436.415 274.293 436.092 273.993 435.723 273.97C435.7 273.97 435.654 273.97 435.631 273.97L403.367 276.301C403.321 276.301 403.275 276.301 403.228 276.324C403.182 276.347 403.136 276.347 403.09 276.37C402.952 276.439 402.813 276.555 402.744 276.693C402.675 276.878 402.628 277.016 402.652 277.178Z" fill="#7671FF"/>
<path d="M418.692 278.839L435.978 277.593C436.347 277.57 436.624 277.224 436.624 276.808C436.624 276.785 436.624 276.785 436.624 276.762L436.485 274.731C436.485 274.708 436.485 274.708 436.485 274.685C436.439 274.316 436.162 274.016 435.816 273.993C435.793 273.993 435.77 273.993 435.724 273.993L420.561 275.1C420.377 276.185 419.938 277.685 418.692 278.839Z" fill="#433ED1"/>
<path d="M406.789 279.723L407.158 279.696L406.9 276.105L406.531 276.132L406.789 279.723Z" fill="#433ED1"/>
<path d="M408.023 279.634L408.391 279.607L408.133 276.017L407.764 276.043L408.023 279.634Z" fill="#433ED1"/>
<path d="M409.53 279.513L409.898 279.486L409.635 275.895L409.267 275.922L409.53 279.513Z" fill="#433ED1"/>
<path d="M411.781 279.331L412.149 279.305L411.889 275.714L411.521 275.741L411.781 279.331Z" fill="#433ED1"/>
<path d="M414.183 279.166L414.551 279.139L414.291 275.548L413.922 275.575L414.183 279.166Z" fill="#433ED1"/>
<path d="M417.918 278.922L418.287 278.895L418.024 275.304L417.656 275.331L417.918 278.922Z" fill="#433ED1"/>
<path d="M421.348 278.635L421.717 278.608L421.456 275.017L421.088 275.044L421.348 278.635Z" fill="#433ED1"/>
<path d="M424.461 278.428L424.83 278.402L424.571 274.811L424.203 274.837L424.461 278.428Z" fill="#433ED1"/>
<path d="M405.603 279.802L405.972 279.776L405.714 276.185L405.345 276.211L405.603 279.802Z" fill="#433ED1"/>
<path d="M404.832 279.849L405.201 279.822L404.938 276.231L404.57 276.258L404.832 279.849Z" fill="#433ED1"/>
<path d="M404.058 279.895L404.427 279.869L404.166 276.278L403.798 276.304L404.058 279.895Z" fill="#433ED1"/>
<path d="M403.231 276.37L403.485 279.924C403.531 279.924 403.578 279.924 403.624 279.924L403.855 279.901L403.601 276.324L403.37 276.347C403.324 276.347 403.278 276.37 403.231 276.37Z" fill="#433ED1"/>
<path d="M402.747 276.739L402.954 279.647C403.047 279.763 403.185 279.855 403.347 279.924L403.093 276.439C402.954 276.486 402.839 276.601 402.747 276.739Z" fill="#433ED1"/>
<path d="M406.622 273.301L406.76 275.332C406.783 275.494 406.829 275.632 406.922 275.748C407.014 275.863 407.152 275.955 407.314 276.025C407.36 276.048 407.406 276.048 407.452 276.048C407.476 276.048 407.475 276.048 407.499 276.048C407.522 276.048 407.522 276.048 407.545 276.048H407.568C407.591 276.048 407.591 276.048 407.614 276.048L439.878 273.717C440.293 273.694 440.616 273.325 440.593 272.909C440.593 272.886 440.593 272.886 440.593 272.863L440.455 270.832C440.455 270.809 440.455 270.809 440.455 270.786C440.409 270.37 440.039 270.07 439.624 270.094L407.36 272.424C407.337 272.424 407.337 272.424 407.314 272.424C407.291 272.424 407.245 272.424 407.222 272.448C407.175 272.471 407.129 272.471 407.083 272.494C407.06 272.494 407.037 272.517 407.014 272.54C406.991 272.54 406.991 272.563 406.968 272.563C406.945 272.563 406.945 272.586 406.922 272.586L406.899 272.609C406.875 272.632 406.852 272.655 406.829 272.678L406.806 272.701C406.806 272.701 406.806 272.701 406.783 272.724L406.76 272.748C406.76 272.771 406.737 272.771 406.737 272.794C406.645 272.978 406.622 273.14 406.622 273.301Z" fill="#7671FF"/>
<path d="M422.661 274.963L439.947 273.717C440.316 273.694 440.593 273.348 440.593 272.933C440.593 272.909 440.593 272.909 440.593 272.886L440.455 270.855C440.455 270.832 440.455 270.832 440.455 270.809C440.409 270.394 440.085 270.094 439.716 270.117L424.554 271.225C424.554 271.248 424.554 271.271 424.531 271.317C424.346 272.356 423.884 273.81 422.661 274.963Z" fill="#433ED1"/>
<path d="M410.77 275.824L411.138 275.798L410.88 272.207L410.512 272.233L410.77 275.824Z" fill="#433ED1"/>
<path d="M411.986 275.726L412.354 275.699L412.094 272.108L411.725 272.135L411.986 275.726Z" fill="#433ED1"/>
<path d="M413.463 275.626L413.832 275.599L413.571 272.008L413.203 272.035L413.463 275.626Z" fill="#433ED1"/>
<path d="M415.763 275.455L416.131 275.428L415.871 271.837L415.503 271.864L415.763 275.455Z" fill="#433ED1"/>
<path d="M418.19 275.281L418.559 275.254L418.296 271.664L417.928 271.691L418.19 275.281Z" fill="#433ED1"/>
<path d="M421.87 275.009L422.239 274.982L421.979 271.392L421.61 271.418L421.87 275.009Z" fill="#433ED1"/>
<path d="M425.36 274.774L425.728 274.747L425.465 271.157L425.097 271.183L425.36 274.774Z" fill="#433ED1"/>
<path d="M428.423 274.541L428.791 274.515L428.531 270.924L428.162 270.95L428.423 274.541Z" fill="#433ED1"/>
<path d="M409.583 275.904L409.952 275.878L409.694 272.287L409.325 272.313L409.583 275.904Z" fill="#433ED1"/>
<path d="M408.785 275.957L409.154 275.931L408.893 272.34L408.525 272.367L408.785 275.957Z" fill="#433ED1"/>
<path d="M408.017 276.021L408.385 275.995L408.124 272.404L407.756 272.43L408.017 276.021Z" fill="#433ED1"/>
<path d="M407.223 272.493L407.477 276.048C407.523 276.048 407.569 276.048 407.615 276.048L407.846 276.024L407.592 272.447L407.362 272.47C407.292 272.47 407.246 272.47 407.223 272.493Z" fill="#433ED1"/>
<path d="M406.715 272.863L406.923 275.77C407.015 275.886 407.153 275.978 407.315 276.047L407.061 272.562C406.923 272.609 406.807 272.724 406.715 272.863Z" fill="#433ED1"/>
<path d="M403.991 269.955L404.129 271.986C404.152 272.148 404.198 272.286 404.291 272.402C404.383 272.517 404.522 272.609 404.683 272.679C404.729 272.702 404.775 272.702 404.822 272.702C404.868 272.702 404.914 272.702 404.96 272.702L437.224 270.371C437.339 270.371 437.455 270.325 437.57 270.255C437.801 270.117 437.939 269.863 437.962 269.609V269.586C437.962 269.563 437.962 269.563 437.962 269.54L437.824 267.509C437.824 267.486 437.824 267.486 437.824 267.463C437.778 267.094 437.455 266.794 437.085 266.771C437.062 266.771 437.016 266.771 436.993 266.771L404.729 269.101C404.683 269.101 404.637 269.101 404.591 269.125C404.545 269.148 404.498 269.148 404.452 269.171C404.314 269.24 404.175 269.355 404.106 269.494C404.014 269.655 403.991 269.817 403.991 269.955Z" fill="#7671FF"/>
<path d="M420.054 271.616L437.34 270.37C437.455 270.37 437.547 270.324 437.64 270.254C437.847 270.116 437.963 269.885 437.986 269.608V269.585C437.986 269.562 437.986 269.562 437.986 269.539L437.847 267.508C437.847 267.485 437.847 267.485 437.847 267.462C437.801 267.093 437.524 266.793 437.178 266.77C437.155 266.77 437.132 266.77 437.086 266.77L421.923 267.877C421.762 268.916 421.323 270.37 420.146 271.524C420.1 271.57 420.077 271.593 420.054 271.616Z" fill="#433ED1"/>
<path d="M408.106 272.474L408.475 272.447L408.214 268.856L407.846 268.883L408.106 272.474Z" fill="#433ED1"/>
<path d="M409.386 272.396L409.754 272.37L409.496 268.779L409.127 268.805L409.386 272.396Z" fill="#433ED1"/>
<path d="M410.863 272.297L411.231 272.27L410.973 268.679L410.604 268.706L410.863 272.297Z" fill="#433ED1"/>
<path d="M413.121 272.117L413.489 272.09L413.229 268.499L412.861 268.526L413.121 272.117Z" fill="#433ED1"/>
<path d="M415.564 271.961L415.933 271.934L415.674 268.343L415.306 268.37L415.564 271.961Z" fill="#433ED1"/>
<path d="M419.245 271.665L419.613 271.639L419.352 268.048L418.984 268.075L419.245 271.665Z" fill="#433ED1"/>
<path d="M422.711 271.418L423.08 271.392L422.819 267.801L422.451 267.827L422.711 271.418Z" fill="#433ED1"/>
<path d="M425.804 271.201L426.172 271.174L425.911 267.583L425.543 267.61L425.804 271.201Z" fill="#433ED1"/>
<path d="M406.973 272.589L407.341 272.562L407.078 268.971L406.71 268.998L406.973 272.589Z" fill="#433ED1"/>
<path d="M406.142 272.618L406.511 272.591L406.25 269L405.882 269.027L406.142 272.618Z" fill="#433ED1"/>
<path d="M405.4 272.683L405.768 272.656L405.508 269.065L405.139 269.092L405.4 272.683Z" fill="#433ED1"/>
<path d="M404.593 269.147L404.847 272.701C404.893 272.701 404.939 272.701 404.986 272.701L405.216 272.678L404.963 269.101L404.732 269.124C404.686 269.124 404.639 269.147 404.593 269.147Z" fill="#433ED1"/>
<path d="M404.108 269.517L404.316 272.425C404.408 272.54 404.547 272.632 404.708 272.702L404.455 269.217C404.293 269.263 404.178 269.378 404.108 269.517Z" fill="#433ED1"/>
<path d="M406.113 266.216L406.251 268.247C406.275 268.408 406.321 268.547 406.413 268.662C406.505 268.778 406.644 268.87 406.805 268.939C406.851 268.962 406.898 268.962 406.944 268.962C406.967 268.962 406.967 268.962 406.99 268.962H407.013H407.036C407.059 268.962 407.059 268.962 407.082 268.962L439.346 266.631C439.761 266.608 440.085 266.239 440.061 265.824C440.061 265.801 440.061 265.801 440.061 265.778L439.923 263.747C439.923 263.724 439.923 263.724 439.923 263.7C439.877 263.285 439.508 262.985 439.092 263.008L406.828 265.339C406.782 265.339 406.736 265.339 406.69 265.362C406.644 265.385 406.598 265.385 406.551 265.408C406.413 265.477 406.274 265.593 406.205 265.731C406.136 265.893 406.09 266.054 406.113 266.216Z" fill="#7671FF"/>
<path d="M422.153 267.878L439.439 266.631C439.808 266.608 440.085 266.262 440.085 265.847C440.085 265.824 440.085 265.824 440.085 265.8L439.947 263.77C439.947 263.746 439.947 263.746 439.947 263.723C439.901 263.308 439.578 263.008 439.208 263.031L424.046 264.139C423.861 265.2 423.4 266.701 422.153 267.878Z" fill="#433ED1"/>
<path d="M410.226 268.728L410.594 268.702L410.334 265.111L409.965 265.137L410.226 268.728Z" fill="#433ED1"/>
<path d="M411.464 268.642L411.833 268.615L411.572 265.024L411.204 265.051L411.464 268.642Z" fill="#433ED1"/>
<path d="M412.964 268.541L413.333 268.515L413.072 264.924L412.704 264.95L412.964 268.541Z" fill="#433ED1"/>
<path d="M415.244 268.373L415.612 268.346L415.352 264.755L414.984 264.782L415.244 268.373Z" fill="#433ED1"/>
<path d="M417.643 268.184L418.011 268.157L417.751 264.566L417.383 264.593L417.643 268.184Z" fill="#433ED1"/>
<path d="M421.374 267.939L421.743 267.912L421.48 264.321L421.112 264.348L421.374 267.939Z" fill="#433ED1"/>
<path d="M424.811 267.677L425.179 267.65L424.919 264.059L424.551 264.086L424.811 267.677Z" fill="#433ED1"/>
<path d="M428.028 263.834L427.66 263.86L427.92 267.451L428.289 267.425L428.028 263.834Z" fill="#433ED1"/>
<path d="M409.039 268.807L409.408 268.781L409.147 265.19L408.779 265.217L409.039 268.807Z" fill="#433ED1"/>
<path d="M408.265 268.874L408.633 268.848L408.372 265.257L408.004 265.283L408.265 268.874Z" fill="#433ED1"/>
<path d="M407.521 268.937L407.89 268.911L407.629 265.32L407.261 265.346L407.521 268.937Z" fill="#433ED1"/>
<path d="M406.689 265.408L406.943 268.962C406.989 268.962 407.036 268.962 407.082 268.962L407.313 268.939L407.059 265.362L406.828 265.385C406.782 265.385 406.736 265.385 406.689 265.408Z" fill="#433ED1"/>
<path d="M406.205 265.777L406.412 268.685C406.505 268.8 406.643 268.893 406.805 268.962L406.551 265.477C406.412 265.523 406.297 265.639 406.205 265.777Z" fill="#433ED1"/>
<path d="M447.24 323.335C447.54 323.335 447.84 323.15 447.956 322.85C448.117 322.458 447.909 322.019 447.517 321.858L441.032 319.319C440.94 319.296 440.87 319.273 440.778 319.273L396.56 318.465V311.242L402.468 306.395C402.791 306.118 402.837 305.657 402.583 305.333C402.306 305.01 401.845 304.964 401.522 305.218L395.337 310.295C395.152 310.434 395.06 310.665 395.06 310.895V319.227C395.06 319.642 395.383 319.988 395.798 319.988L440.64 320.796L447.009 323.289C447.055 323.312 447.148 323.335 447.24 323.335Z" fill="#3A4ACE"/>
<path d="M389.797 326.473C389.797 323.681 392.059 321.396 394.875 321.396C397.69 321.396 399.952 323.658 399.952 326.473C399.952 329.289 397.69 331.551 394.875 331.551C392.059 331.551 389.797 329.289 389.797 326.473Z" fill="#3A4ACE"/>
<path d="M392.544 326.474C392.544 325.181 393.583 324.143 394.875 324.143C396.167 324.143 397.206 325.181 397.206 326.474C397.206 327.766 396.167 328.804 394.875 328.804C393.583 328.804 392.544 327.766 392.544 326.474Z" fill="#7671FF"/>
<path d="M430.277 326.473C430.277 323.681 432.539 321.396 435.355 321.396C438.147 321.396 440.432 323.658 440.432 326.473C440.432 329.289 438.17 331.551 435.355 331.551C432.539 331.551 430.277 329.289 430.277 326.473Z" fill="#3A4ACE"/>
<path d="M433.023 326.474C433.023 325.181 434.062 324.143 435.354 324.143C436.647 324.143 437.685 325.181 437.685 326.474C437.685 327.766 436.647 328.804 435.354 328.804C434.062 328.804 433.023 327.766 433.023 326.474Z" fill="#7671FF"/>
<path d="M435.631 319.688L439.716 319.85C439.993 319.85 440.154 320.288 439.97 320.565L435.608 326.819C435.4 327.119 435.008 326.912 435.008 326.519L435.285 320.103C435.285 319.873 435.446 319.688 435.631 319.688Z" fill="#3A4ACE"/>
<path d="M396.167 318.95L400.252 319.457C400.46 319.481 400.575 319.781 400.413 319.965L395.175 326.381C394.99 326.612 394.667 326.427 394.713 326.127L395.867 319.204C395.89 319.042 396.028 318.927 396.167 318.95Z" fill="#3A4ACE"/>
<path d="M384.813 268.454L391.16 274.339L392.083 277.223C392.083 277.247 392.083 277.247 392.083 277.27L401.245 306.049C401.337 306.372 401.637 306.579 401.96 306.579C401.983 306.579 402.006 306.579 402.006 306.579L446.779 303.325C447.171 303.302 447.471 302.979 447.494 302.61L448.602 279.67C448.602 279.462 448.533 279.277 448.394 279.116C448.256 278.977 448.071 278.885 447.863 278.862L393.352 276.277L392.521 273.692C392.475 273.577 392.406 273.462 392.313 273.369L385.805 267.346C385.505 267.069 385.021 267.069 384.721 267.392C384.49 267.692 384.49 268.177 384.813 268.454ZM397.229 288.417L402.906 288.463L405.007 296.909L399.999 297.094L397.229 288.417ZM404.268 288.486L410.084 288.532L411.999 296.656L406.368 296.863L404.268 288.486ZM408.261 304.595L406.668 298.179L412.276 297.971L413.73 304.202L408.261 304.595ZM415.092 304.11L413.638 297.925L419.154 297.717L420.285 303.741L415.092 304.11ZM421.6 303.625L420.492 297.648L426.585 297.417L427.462 303.21L421.6 303.625ZM428.754 303.118L427.877 297.371L432.978 297.186L433.393 302.794L428.754 303.118ZM434.755 302.679L434.339 297.117L440.363 296.886L440.709 302.241L434.755 302.679ZM446.317 295.34L441.563 295.525L441.124 288.809L446.64 288.855L446.317 295.34ZM440.248 295.571L434.224 295.802L433.693 288.74L439.809 288.786L440.248 295.571ZM439.232 279.993L439.717 287.47L433.578 287.424L433.001 279.693L439.232 279.993ZM431.685 279.624L432.262 287.401L426.377 287.355L425.154 279.324L431.685 279.624ZM423.816 279.254L425.039 287.355L418.554 287.309L417.007 278.954L423.816 279.254ZM415.646 278.862L417.215 287.263L411.146 287.216L409.115 278.539L415.646 278.862ZM426.377 296.102L420.238 296.332L418.808 288.601L425.246 288.647L426.377 296.102ZM426.585 288.67L432.378 288.717L432.909 295.848L427.693 296.055L426.585 288.67ZM418.9 296.402L413.338 296.609L411.446 288.555L417.469 288.601L418.9 296.402ZM403.945 287.17L401.729 278.216L407.73 278.493L409.784 287.216L403.945 287.17ZM447.056 280.362L446.709 287.54L441.055 287.493L440.571 280.062L447.056 280.362ZM446.017 301.871L442.001 302.171L441.655 296.863L446.271 296.679L446.017 301.871ZM400.414 298.41L405.33 298.225L406.922 304.687L402.514 305.01L400.414 298.41ZM393.86 277.823L400.345 278.124L402.583 287.147L396.814 287.101L393.86 277.823Z" fill="#3A4ACE"/>
<path d="M387.535 270.854C387.789 270.854 388.043 270.739 388.228 270.554C388.551 270.185 388.528 269.608 388.158 269.262L384.835 266.331C384.466 266.008 383.889 266.031 383.543 266.4C383.219 266.769 383.243 267.346 383.612 267.692L386.935 270.623C387.097 270.785 387.327 270.854 387.535 270.854Z" fill="#3A4ACE"/>
<path d="M446.732 303.487C447.216 303.487 447.609 303.118 447.655 302.61L448.762 279.67C448.786 279.163 448.393 278.747 447.886 278.724C447.378 278.701 446.962 279.093 446.939 279.601L445.832 302.541C445.808 303.049 446.201 303.464 446.708 303.487H446.732Z" fill="#7671FF"/>
<path d="M440.754 320.796C441.077 320.796 441.354 320.612 441.469 320.288L443.015 315.95C443.154 315.557 442.946 315.119 442.554 314.98C442.161 314.842 441.723 315.05 441.584 315.442L440.038 319.781C439.9 320.173 440.107 320.612 440.5 320.75C440.569 320.773 440.661 320.796 440.754 320.796Z" fill="#3A4ACE"/>
<path d="M383.59 266.261L385.159 267.046C385.159 267.046 388.436 265.777 390.306 269.192C390.306 269.192 390.975 270.646 389.821 270.738C388.667 270.808 389.106 270.623 387.467 270.762C385.851 270.9 384.282 270.277 383.705 269.238L382.644 268.384L383.59 266.261Z" fill="#F48484"/>
<path d="M384.165 267.808C384.858 266.677 384.396 266.169 384.396 266.169C384.396 266.169 374.195 257.63 373.411 256.776C372.626 255.922 369.141 242.329 369.141 242.329C369.141 242.329 367.964 236.837 364.941 236.19C362.31 235.636 360.464 236.975 359.24 238.544C357.786 240.414 357.579 243.022 358.733 245.099C361.294 249.761 366.441 258.992 367.964 260.584C371.357 264.115 382.873 269.1 382.873 269.1C382.873 269.1 383.611 268.685 384.165 267.808Z" fill="#293EB7"/>
<path d="M330.577 322.735C330.577 322.735 328.777 324.466 329.146 325.713C329.492 326.936 331.108 327.767 331.339 329.29C331.546 330.79 332.423 331.621 333.208 331.621C333.993 331.621 336.947 331.621 336.947 331.621C336.947 331.621 337.524 330.559 336.139 330.236C334.754 329.913 334.223 328.136 334.293 326.497C334.385 324.859 334.154 322.666 334.154 322.666L331.177 321.928L330.577 322.735Z" fill="#293EB7"/>
<path d="M352.525 327.212C352.525 327.212 352.202 331.159 352.987 331.574L363.049 331.551C363.049 331.551 363.049 330.328 361.434 330.051C359.818 329.774 356.98 328.782 356.495 326.52C356.01 324.258 352.525 327.212 352.525 327.212Z" fill="#293EB7"/>
<path d="M361.018 271.362C361.018 271.362 360.487 278.286 359.864 286.617C359.01 297.926 357.994 311.842 357.902 314.473C357.717 319.043 357.025 326.358 357.025 326.358C357.025 326.358 355.363 328.089 352.04 327.374C352.04 327.374 349.086 316.919 348.232 305.888C348.209 305.703 348.209 305.519 348.186 305.334C347.401 294.095 346.178 270.393 346.178 270.393L361.018 271.362Z" fill="#7671FF"/>
<path d="M361.018 271.362C361.018 271.362 360.487 278.286 359.864 286.617L348.256 305.864C348.233 305.68 348.233 305.495 348.209 305.31C347.425 294.071 346.202 270.37 346.202 270.37L361.018 271.362Z" fill="#433ED1"/>
<path d="M358.594 272.193C358.594 272.193 349.04 297.303 342.762 309.096C336.485 320.889 334.523 324.189 334.523 324.189C334.523 324.189 330.923 322.689 330.6 321.651C330.6 321.651 333 298.872 337.201 293.333C339.578 290.195 342.509 280.778 342.509 277.478C342.509 269.355 344.609 266.631 344.609 266.631L358.594 272.193Z" fill="#7671FF"/>
<path d="M361.134 236.098C361.134 236.098 366.119 241.96 370.296 242.445C370.296 242.445 369.904 240.921 368.704 239.375C369.166 238.706 369.535 238.106 369.835 237.598C370.55 236.421 370.85 235.706 370.85 235.706L369.258 232.705L367.758 229.844C365.612 235.083 361.134 236.098 361.134 236.098Z" fill="#FC9490"/>
<path d="M344.077 268.824C346.27 271.224 348.439 273.162 351.185 274.709C354.416 276.555 358.778 277.57 360.14 278.217C360.278 278.286 360.44 278.286 360.578 278.24C360.694 278.217 362.379 274.593 364.433 269.816C364.548 269.539 364.663 269.262 364.779 268.985C364.871 268.777 364.963 268.57 365.033 268.362L365.056 268.293C365.91 266.262 366.787 264.139 367.617 261.992C367.756 261.646 367.894 261.3 368.01 260.977C369.694 256.615 371.102 252.461 371.541 249.922C372.072 246.691 371.241 244.014 370.341 241.937L369.556 240.276C368.171 239.975 366.879 239.306 365.817 238.06C364.663 236.698 363.417 235.244 363.094 235.337C361.109 235.775 359.032 237.437 357.047 239.929C356.494 240.622 355.94 241.383 355.409 242.191C354.14 244.107 352.916 246.322 351.832 248.722C351.786 248.815 351.739 248.907 351.693 249.022C351.601 249.207 351.532 249.392 351.462 249.553C351.024 250.545 350.585 251.584 350.193 252.623C348.093 258.254 345.647 262.869 344.239 265.546C343.823 266.331 343.5 266.931 343.293 267.37C343.131 267.67 343.777 268.501 344.077 268.824Z" fill="#3A4ACE"/>
<path d="M366.81 231.782C366.81 231.782 367.11 235.406 369.81 237.575C370.526 236.398 370.826 235.683 370.826 235.683L369.233 232.682L366.81 231.782Z" fill="#F48484"/>
<path d="M371.98 236.098C371.98 236.098 365.495 234.414 366.557 230.444C367.642 226.475 367.526 223.567 371.703 224.49C375.881 225.413 376.296 227.144 376.25 228.552C376.25 229.959 373.711 236.445 371.98 236.098Z" fill="#FC9490"/>
<path d="M367.619 222.136C367.595 222.043 367.48 221.951 367.203 221.813C367.203 221.813 367.48 221.766 367.803 221.905C368.034 221.536 368.542 220.936 369.303 221.074C369.303 221.074 368.865 221.097 368.634 221.513C369.765 221.051 371.703 221.213 376.181 223.636C382.089 226.821 378.327 229.844 377.335 229.959C376.342 230.075 374.911 227.905 373.388 227.374C371.865 226.844 370.642 228.852 370.019 228.921C369.396 228.99 369.811 228.552 369.28 227.951C368.749 227.351 368.172 228.436 368.057 229.244C367.919 230.052 366.58 230.605 366.58 230.605C366.58 230.605 366.58 230.605 366.095 229.175C365.611 227.744 366.603 223.059 367.457 222.343C367.48 222.251 367.549 222.205 367.619 222.136Z" fill="#2C3A64"/>
<path d="M364.434 269.793C364.549 269.516 364.665 269.239 364.78 268.962C364.872 268.754 364.965 268.547 365.034 268.339L365.057 268.27C365.911 266.239 366.788 264.115 367.619 261.969C367.757 261.623 367.896 261.277 368.011 260.954C365.357 253.822 361.734 246.299 361.734 246.299C361.734 246.299 358.156 261.692 364.434 269.793Z" fill="#293EB7"/>
<path d="M383.104 268.385L384.789 269.17C384.789 269.17 388.227 267.854 390.281 271.293C390.281 271.293 391.02 272.77 389.797 272.862C388.574 272.955 389.035 272.747 387.304 272.909C385.573 273.07 383.912 272.447 383.289 271.385L382.158 270.508L383.104 268.385Z" fill="#FC9490"/>
<path d="M383.751 269.932C384.466 268.778 383.958 268.247 383.958 268.247C383.958 268.247 372.973 259.662 372.119 258.785C371.265 257.908 367.273 244.084 367.273 244.084C367.273 244.084 365.911 238.499 362.68 237.876C359.887 237.345 357.949 238.729 356.703 240.345C355.203 242.284 355.041 244.938 356.31 247.038C359.103 251.769 364.757 261.139 366.419 262.731C370.088 266.285 382.389 271.27 382.389 271.27C382.389 271.27 383.197 270.832 383.751 269.932Z" fill="#3A4ACE"/>
<path d="M250.748 255.668L252.133 256.799C252.133 256.799 255.941 255.437 256.795 259.961C256.795 259.961 257.026 261.899 255.803 261.899C254.579 261.899 255.087 261.691 253.356 261.738C251.625 261.784 250.195 260.884 249.941 259.476L249.11 258.276L250.748 255.668Z" fill="#EA8E50"/>
<path d="M250.587 258.091C251.694 256.937 251.602 256.083 251.602 256.083C251.602 256.083 238.747 245.559 237.455 244.705C236.578 244.128 227.093 235.728 222.685 230.604C220.492 228.066 217.769 229.058 214.653 229.935L212.092 230.673C208.999 231.55 208.191 235.889 210.73 237.989C217.884 243.92 229.77 250.567 231.985 251.975C237.501 255.46 248.325 259.568 248.325 259.568C248.325 259.568 249.64 259.106 250.587 258.091Z" fill="#1E3D70"/>
<path d="M265.244 322.757C265.244 322.757 268.36 325.088 273.137 323.865C273.137 323.865 276.991 322.988 277.845 324.903C277.845 324.903 271.937 327.903 270.437 328.734C269.306 329.357 268.129 330.327 267.298 331.088C266.629 331.688 265.613 331.596 265.059 330.904C264.806 330.58 264.506 330.211 264.182 329.773C263.282 328.526 261.159 324.557 261.159 324.557L265.244 322.757Z" fill="#293EB7"/>
<path d="M267.09 321.58C267.09 321.58 265.197 325.965 260.812 325.157C260.812 325.157 251.858 317.772 245.719 310.087C243.734 307.595 242.026 305.079 241.034 302.771C236.972 293.355 225.987 279.3 218.994 272.169L236.465 265.846C236.465 265.846 242.05 277.108 249.504 290.932C254.881 300.879 261.205 312.187 267.09 321.58Z" fill="#9C99EB"/>
<path d="M249.504 290.932L245.719 310.087C243.734 307.595 242.026 305.079 241.034 302.771C236.972 293.355 225.987 279.3 218.994 272.169L236.465 265.846C236.465 265.846 242.073 277.085 249.504 290.932Z" fill="#8683C6"/>
<path d="M235.218 325.296C235.218 325.296 235.033 328.781 239.257 329.265C239.257 329.265 241.68 329.288 241.68 331.504L229.356 331.55C229.356 331.55 229.01 330.65 228.917 328.734C228.848 327.257 230.348 323.403 230.348 323.403L235.218 325.296Z" fill="#293EB7"/>
<path d="M230.74 265.846C230.74 265.846 238.518 274.408 243.457 289.801C246.134 298.179 238.518 319.273 237.041 326.589C237.041 326.589 231.941 327.027 228.433 325.665C228.433 325.665 228.156 310.549 230.21 298.871C231.364 292.34 219.963 284.909 214.978 273.116C211.585 265.084 215.716 265.223 220.771 265.038L230.74 265.846Z" fill="#9C99EB"/>
<path d="M221.74 227.673C217.401 230.12 208.539 227.858 208.539 227.858C208.539 227.858 212.139 223.75 210.501 217.104L213.893 218.834L217.54 220.681C217.54 220.681 217.77 221.858 217.932 223.958C217.978 224.489 218.001 225.112 218.047 225.758C220.309 226.45 221.74 227.673 221.74 227.673Z" fill="#FFB07B"/>
<path d="M237.618 265.384C237.618 266.145 236.741 266.514 236.556 266.538C234.802 266.861 229.933 268.753 225.548 269.192C221.855 269.584 218.417 269.215 214.632 268.453C214.124 268.361 212.97 268.038 212.878 267.553C212.762 267.022 198.315 238.082 209.554 225.665C209.808 225.365 212.047 225.896 214.055 226.381C215.924 226.819 217.655 226.589 219.178 225.965L221.071 226.958C223.401 228.25 227.833 232.889 228.34 236.512C228.594 238.359 229.656 239.72 229.956 241.336C230.071 241.936 230.187 242.513 230.302 243.09C230.533 244.221 230.764 245.282 231.017 246.298C231.687 249.044 232.379 251.398 233.071 253.452C233.81 255.621 234.525 257.421 235.148 258.922C235.979 260.883 236.672 262.337 237.11 263.445C237.456 264.276 237.618 264.899 237.618 265.384Z" fill="#D2E3FC"/>
<path d="M237.134 263.492C216.732 253.891 209.67 235.428 209.67 235.428C209.67 235.428 226.241 241.544 230.326 243.136C230.556 244.267 230.787 245.329 231.041 246.344C231.71 249.091 232.403 251.445 233.095 253.499C233.834 255.668 234.549 257.468 235.172 258.968C236.003 260.907 236.695 262.361 237.134 263.492Z" fill="#A4C8FC"/>
<path d="M217.979 223.981C213.709 224.212 210.94 220.704 210.94 220.704C210.94 220.704 212.855 219.642 213.917 218.857L217.563 220.704C217.563 220.704 217.794 221.881 217.979 223.981Z" fill="#EA8E50"/>
<path d="M219.779 219.596C219.779 219.596 213.317 224.235 210.501 220.173C207.685 216.111 204.939 213.965 208.955 210.85C212.947 207.711 214.84 208.703 216.109 209.834C217.378 210.965 221.394 218.304 219.779 219.596Z" fill="#FFB07B"/>
<path d="M216.801 206.165C216.571 204.595 216.04 203.511 216.04 203.511C216.04 203.511 215.624 205.195 212.578 204.965C209.532 204.734 204.662 205.265 203.023 208.75C202.931 208.98 202.839 209.211 202.747 209.442C202.446 208.657 202.377 207.503 202.377 207.503C201.8 209.003 202.377 210.896 202.377 210.896C202.377 210.942 202.354 211.011 202.354 211.057C201.685 211.634 201.108 213.411 201.108 213.411C201.316 212.927 201.8 212.581 202.262 212.396C202.239 215.119 203.347 217.773 205.285 218.558C208.124 219.712 208.101 218.835 210.939 220.727C210.939 220.727 211.701 219.781 211.193 219.135C210.662 218.489 208.701 217.566 209.809 216.642C210.916 215.719 211.309 216.758 211.724 216.112C212.139 215.465 210.109 213.619 212.716 211.888C215.301 210.157 217.032 207.711 216.801 206.165Z" fill="#293EB7"/>
<path d="M222.409 237.182C218.07 220.358 228.202 203.21 245.049 198.872C261.873 194.533 279.02 204.664 283.359 221.512C287.698 238.336 277.566 255.483 260.719 259.822C243.895 264.138 226.725 254.006 222.409 237.182Z" fill="#7671FF"/>
<path d="M260.121 257.468C252.713 259.383 244.982 258.275 238.404 254.398C231.804 250.498 227.119 244.267 225.227 236.859C223.311 229.45 224.419 221.719 228.296 215.142C232.196 208.541 238.427 203.856 245.836 201.964C253.244 200.048 260.975 201.156 267.553 205.033C274.153 208.934 278.838 215.165 280.73 222.573C282.646 229.981 281.538 237.712 277.661 244.29C273.761 250.867 267.53 255.552 260.121 257.468ZM246.251 203.579C231.85 207.272 223.15 222.019 226.865 236.397C230.581 250.798 245.305 259.499 259.683 255.783C274.084 252.09 282.784 237.343 279.069 222.965C275.376 208.587 260.652 199.887 246.251 203.579Z" fill="#433ED1"/>
<path d="M258.874 236.766C258.782 236.143 258.62 235.612 258.389 235.174C258.159 234.735 257.812 234.343 257.374 234.02C256.935 233.697 256.358 233.397 255.712 233.166C255.043 232.935 254.235 232.704 253.289 232.52C251.674 232.174 250.173 231.804 248.835 231.389C247.496 230.974 246.319 230.42 245.304 229.773C244.288 229.127 243.481 228.296 242.834 227.327C242.188 226.358 241.773 225.135 241.588 223.704C241.427 222.458 241.496 221.281 241.796 220.196C242.096 219.111 242.604 218.119 243.342 217.242C244.058 216.365 244.958 215.603 246.042 214.98C247.127 214.357 248.373 213.872 249.781 213.549L249.135 208.841L252.92 208.333L253.566 213.111C254.951 213.111 256.22 213.295 257.42 213.688C258.597 214.08 259.636 214.657 260.536 215.419C261.436 216.18 262.151 217.126 262.751 218.257C263.328 219.388 263.721 220.681 263.905 222.158L257.051 223.081C256.82 221.327 256.243 220.057 255.343 219.273C254.443 218.511 253.335 218.211 252.02 218.396C251.304 218.488 250.704 218.673 250.22 218.95C249.735 219.227 249.343 219.55 249.066 219.942C248.789 220.334 248.581 220.773 248.489 221.257C248.396 221.742 248.373 222.273 248.466 222.804C248.535 223.358 248.673 223.819 248.904 224.258C249.112 224.673 249.458 225.042 249.896 225.365C250.335 225.689 250.889 225.965 251.581 226.219C252.274 226.473 253.104 226.704 254.097 226.935C255.712 227.304 257.189 227.696 258.528 228.135C259.866 228.573 261.043 229.127 262.036 229.773C263.051 230.443 263.859 231.25 264.505 232.243C265.151 233.212 265.567 234.412 265.751 235.843C265.936 237.135 265.867 238.336 265.544 239.42C265.221 240.505 264.713 241.474 263.997 242.351C263.282 243.205 262.359 243.944 261.274 244.567C260.166 245.19 258.92 245.651 257.512 245.975L258.112 250.359L254.351 250.867L253.774 246.505C252.435 246.552 251.143 246.436 249.85 246.159C248.558 245.882 247.404 245.398 246.342 244.682C245.281 243.99 244.381 243.044 243.642 241.844C242.904 240.666 242.419 239.189 242.188 237.412L249.043 236.489C249.181 237.528 249.435 238.382 249.827 239.051C250.22 239.72 250.681 240.205 251.235 240.574C251.789 240.92 252.389 241.151 253.035 241.22C253.681 241.313 254.328 241.313 254.974 241.22C255.712 241.128 256.358 240.943 256.889 240.666C257.42 240.39 257.859 240.066 258.205 239.674C258.528 239.282 258.759 238.843 258.897 238.359C258.92 237.828 258.943 237.32 258.874 236.766Z" fill="#433ED1"/>
<path d="M249.502 261.068C249.502 261.068 252.964 262.222 254.949 262.176C256.933 262.129 260.395 260.029 260.395 259.891C260.395 259.752 258.849 258.852 256.564 259.129C254.302 259.406 253.841 259.083 254.533 258.783C255.318 258.46 255.895 257.998 255.687 257.698C255.572 257.537 254.441 257.883 254.048 258.021C253.656 258.16 252.687 257.791 251.879 258.368C251.348 258.76 249.317 259.037 249.317 259.037L249.502 261.068Z" fill="#FFB07B"/>
<path d="M250.865 259.937C251.465 258.23 251.742 257.445 251.742 257.445C251.742 257.445 238.149 246.921 236.764 246.021C235.818 245.421 226.448 238.751 221.833 233.512C219.548 230.905 215.994 229.774 212.624 230.581L209.855 231.228C206.508 232.012 205.516 236.328 208.193 238.497C215.717 244.636 228.341 251.652 230.718 253.106C236.58 256.752 249.434 261.737 249.434 261.737C249.434 261.737 250.404 261.276 250.865 259.937Z" fill="#D2E3FC"/>
<path d="M187.282 331.481C195.733 331.481 202.583 324.631 202.583 316.18C202.583 307.729 195.733 300.879 187.282 300.879C178.831 300.879 171.981 307.729 171.981 316.18C171.981 324.631 178.831 331.481 187.282 331.481Z" fill="#2C28A3"/>
<path d="M185.944 331.482C194.395 331.482 201.245 324.631 201.245 316.181C201.245 307.73 194.395 300.88 185.944 300.88C177.494 300.88 170.643 307.73 170.643 316.181C170.643 324.631 177.494 331.482 185.944 331.482Z" fill="#7671FF"/>
<path d="M185.944 330.304C182.229 330.304 178.721 328.85 176.09 326.219C173.459 323.588 172.005 320.08 172.005 316.364C172.005 312.649 173.459 309.141 176.09 306.51C178.721 303.879 182.229 302.425 185.944 302.425C189.66 302.425 193.168 303.879 195.799 306.51C198.43 309.141 199.884 312.649 199.884 316.364C199.884 320.08 198.43 323.588 195.799 326.219C193.168 328.85 189.683 330.304 185.944 330.304ZM185.944 303.256C178.721 303.256 172.836 309.141 172.836 316.364C172.836 323.588 178.721 329.473 185.944 329.473C193.168 329.473 199.053 323.588 199.053 316.364C199.053 309.141 193.168 303.256 185.944 303.256Z" fill="#433ED1"/>
<path d="M187.859 320.403C187.905 320.103 187.882 319.826 187.836 319.595C187.79 319.365 187.674 319.134 187.489 318.926C187.328 318.718 187.097 318.511 186.797 318.326C186.52 318.141 186.151 317.934 185.736 317.726C185.02 317.38 184.351 317.011 183.774 316.641C183.197 316.272 182.712 315.88 182.32 315.441C181.928 315.003 181.628 314.518 181.466 313.987C181.281 313.457 181.235 312.833 181.328 312.141C181.397 311.541 181.581 310.987 181.858 310.526C182.135 310.041 182.505 309.649 182.943 309.325C183.382 309.002 183.912 308.749 184.489 308.587C185.066 308.425 185.712 308.356 186.428 308.356L186.705 306.048L188.551 306.279L188.274 308.61C188.92 308.772 189.497 309.025 190.005 309.349C190.513 309.672 190.928 310.064 191.251 310.549C191.574 311.01 191.805 311.541 191.944 312.141C192.082 312.741 192.105 313.41 192.013 314.126L188.667 313.733C188.759 312.88 188.643 312.21 188.32 311.749C187.997 311.287 187.513 311.01 186.866 310.918C186.52 310.872 186.22 310.895 185.943 310.964C185.689 311.033 185.459 311.149 185.274 311.287C185.089 311.426 184.951 311.61 184.835 311.841C184.72 312.072 184.674 312.303 184.628 312.556C184.605 312.81 184.605 313.064 184.651 313.295C184.697 313.526 184.812 313.733 184.974 313.941C185.136 314.149 185.366 314.357 185.666 314.541C185.966 314.749 186.336 314.957 186.774 315.187C187.489 315.557 188.136 315.926 188.713 316.295C189.29 316.664 189.774 317.057 190.167 317.495C190.559 317.934 190.859 318.418 191.021 318.949C191.205 319.48 191.251 320.103 191.159 320.796C191.09 321.419 190.905 321.973 190.628 322.457C190.351 322.942 189.982 323.334 189.543 323.634C189.105 323.957 188.574 324.188 187.997 324.35C187.397 324.511 186.751 324.58 186.059 324.557L185.805 326.704L183.958 326.496L184.212 324.373C183.589 324.234 182.989 324.026 182.412 323.726C181.835 323.45 181.351 323.08 180.935 322.619C180.52 322.157 180.22 321.603 180.012 320.957C179.804 320.311 179.758 319.549 179.851 318.695L183.197 319.088C183.128 319.595 183.151 320.034 183.266 320.38C183.358 320.726 183.52 321.026 183.751 321.257C183.958 321.488 184.212 321.672 184.512 321.788C184.812 321.903 185.112 321.996 185.436 322.019C185.805 322.065 186.128 322.042 186.405 321.996C186.682 321.926 186.936 321.834 187.143 321.696C187.351 321.557 187.513 321.372 187.628 321.165C187.766 320.911 187.836 320.68 187.859 320.403Z" fill="#433ED1"/>
</svg>
