<svg width="77" height="75" viewBox="0 0 77 75" fill="none" xmlns="http://www.w3.org/2000/svg">
<rect x="15.9585" y="0.844788" width="62.492" height="59.894" rx="10" transform="rotate(14.7136 15.9585 0.844788)" fill="#4546EC"/>
<path d="M59.4028 19.3613L66.3555 14.4199L68.8262 17.8962L61.8735 22.8377L59.4028 19.3613Z" fill="#1F1E9C"/>
<path d="M48.0908 1.86243L52.1401 3.20123L49.4625 11.2999L45.4132 9.96106L48.0908 1.86243Z" fill="#1F1E9C"/>
<path d="M58.5435 7.15125L61.8733 9.81608L56.5436 16.4758L53.2138 13.811L58.5435 7.15125Z" fill="#1F1E9C"/>
<path d="M32.1177 14.3953C16.6799 14.3953 4.16553 26.9097 4.16553 42.3475C4.16553 57.7853 16.6799 70.2998 32.1177 70.2998C47.5556 70.2998 60.07 57.7853 60.07 42.3475C60.07 26.9097 47.5556 14.3953 32.1177 14.3953ZM32.1177 53.9375H23.2548V30.7576H32.1177C38.5181 30.7576 43.7077 35.9472 43.7077 42.3475C43.7077 48.7479 38.5181 53.9375 32.1177 53.9375Z" fill="#3531C8"/>
<path d="M23.2549 30.7576V53.9375H32.1178C38.5182 53.9375 43.7077 48.748 43.7077 42.3476C43.7077 35.9472 38.5182 30.7576 32.1178 30.7576H23.2549Z" fill="#3531C8"/>
<path d="M10.3014 42.3475C10.3014 27.9487 21.1932 16.0997 35.1857 14.5726C34.1767 14.4608 33.1568 14.3953 32.1177 14.3953C16.6799 14.3953 4.16553 26.9097 4.16553 42.3475C4.16553 57.7853 16.6799 70.2998 32.1177 70.2998C33.1568 70.2998 34.1767 70.2343 35.1857 70.1225C21.1932 68.5954 10.3014 56.7463 10.3014 42.3475Z" fill="#221DA4"/>
<path d="M32.4355 54.1947H38.7076C45.25 54.1947 50.5547 48.8899 50.5547 42.3475C50.5547 35.8051 45.25 30.5004 38.7076 30.5004H32.4355C38.978 30.5004 44.2827 35.8051 44.2827 42.3475C44.2827 48.8899 38.978 54.1947 32.4355 54.1947Z" fill="#221DA4"/>
<path d="M23.3765 30.5004H29.6485V54.1947H23.3765V30.5004Z" fill="#241FA5"/>
<path d="M32.4354 56.2854H23.3758C22.2218 56.2854 21.2852 55.3488 21.2852 54.1947V30.5004C21.2852 29.3464 22.2218 28.4097 23.3758 28.4097H32.4354C40.1207 28.4097 46.3732 34.6622 46.3732 42.3476C46.3732 50.0329 40.1207 56.2854 32.4354 56.2854ZM25.4665 52.104H32.4354C37.8154 52.104 42.1919 47.7276 42.1919 42.3476C42.1919 36.9676 37.8154 32.5911 32.4354 32.5911H25.4665V52.104Z" fill="white"/>
<path d="M16.4072 42.3476H30.3451V46.5289H16.4072V42.3476Z" fill="white"/>
<path d="M32.1176 72.3451C15.5781 72.3451 2.12012 58.8871 2.12012 42.3476C2.12012 25.8081 15.5781 12.3501 32.1176 12.3501C48.6571 12.3501 62.1151 25.8081 62.1151 42.3476C62.1151 58.8871 48.6571 72.3451 32.1176 72.3451ZM32.1176 16.4407C17.8334 16.4407 6.21069 28.0633 6.21069 42.3476C6.21069 56.6319 17.8334 68.2545 32.1176 68.2545C46.4019 68.2545 58.0246 56.6319 58.0246 42.3476C58.0246 28.0633 46.4019 16.4407 32.1176 16.4407Z" fill="white"/>
</svg>
