<svg width="522" height="306" viewBox="0 0 522 306" fill="none" xmlns="http://www.w3.org/2000/svg">
<path d="M261.323 305.811C405.109 305.811 521.67 290.47 521.67 271.547C521.67 252.624 405.109 237.284 261.323 237.284C117.538 237.284 0.977295 252.624 0.977295 271.547C0.977295 290.47 117.538 305.811 261.323 305.811Z" fill="#F5F5F5"/>
<path d="M431.655 252.922H45.3972V253.115H431.655V252.922Z" fill="#EBEBEB"/>
<path d="M151.742 258.183H126.156V258.376H151.742V258.183Z" fill="#EBEBEB"/>
<path d="M209.085 265.259H177.605V265.452H209.085V265.259Z" fill="#EBEBEB"/>
<path d="M125.383 262.841H85.9233V263.034H125.383V262.841Z" fill="#EBEBEB"/>
<path d="M392.952 259.48H321V259.674H392.952V259.48Z" fill="#EBEBEB"/>
<path d="M314.125 259.48H309.235V259.674H314.125V259.48Z" fill="#EBEBEB"/>
<path d="M292.17 262.74H259.546V262.933H292.17V262.74Z" fill="#EBEBEB"/>
<path d="M228.483 218.467H79.3184C78.1498 218.465 77.0298 218 76.2043 217.173C75.3787 216.346 74.915 215.225 74.915 214.056V4.37244C74.9252 3.21059 75.3934 2.09968 76.2178 1.281C77.0423 0.462318 78.1565 0.0019903 79.3184 0H228.483C229.653 0 230.775 0.464736 231.603 1.29197C232.43 2.11921 232.895 3.24118 232.895 4.41106V214.056C232.895 215.226 232.43 216.348 231.603 217.176C230.775 218.003 229.653 218.467 228.483 218.467ZM79.3184 0.154504C78.2011 0.15655 77.1302 0.60184 76.3408 1.39263C75.5515 2.18343 75.1082 3.25511 75.1082 4.37244V214.056C75.1082 215.174 75.5515 216.245 76.3408 217.036C77.1302 217.827 78.2011 218.272 79.3184 218.274H228.483C229.602 218.272 230.673 217.827 231.464 217.037C232.254 216.246 232.699 215.174 232.701 214.056V4.37244C232.699 3.2544 232.254 2.18274 231.464 1.39216C230.673 0.601589 229.602 0.156546 228.483 0.154504H79.3184Z" fill="#EBEBEB"/>
<path d="M395.586 218.467H246.413C245.244 218.465 244.123 218 243.297 217.173C242.47 216.346 242.004 215.226 242.002 214.056V4.37244C242.015 3.20989 242.485 2.09898 243.31 1.28052C244.136 0.462048 245.251 0.00196859 246.413 0H395.586C396.747 0.00402056 397.859 0.465247 398.682 1.28371C399.505 2.10217 399.972 3.21193 399.982 4.37244V214.056C399.982 215.224 399.519 216.343 398.695 217.17C397.872 217.997 396.754 218.463 395.586 218.467ZM246.413 0.154504C245.295 0.156546 244.224 0.601589 243.433 1.39216C242.643 2.18274 242.198 3.2544 242.196 4.37244V214.056C242.198 215.174 242.643 216.246 243.433 217.037C244.224 217.827 245.295 218.272 246.413 218.274H395.586C396.704 218.272 397.776 217.827 398.567 217.037C399.357 216.246 399.802 215.174 399.804 214.056V4.37244C399.802 3.2544 399.357 2.18274 398.567 1.39216C397.776 0.601589 396.704 0.156546 395.586 0.154504H246.413Z" fill="#EBEBEB"/>
<path d="M194.299 252.922H181.877V66.4365H188.83L194.299 252.922Z" fill="#E6E6E6"/>
<path d="M187.702 72.8711H176.045C174.34 72.865 172.707 72.185 171.502 70.9796C170.296 69.7741 169.616 68.1408 169.61 66.436C169.616 64.7312 170.296 63.098 171.502 61.8925C172.707 60.687 174.34 60.0071 176.045 60.001H187.702C189.407 60.0071 191.04 60.687 192.246 61.8925C193.451 63.098 194.131 64.7312 194.137 66.436C194.131 68.1408 193.451 69.7741 192.246 70.9796C191.04 72.185 189.407 72.865 187.702 72.8711Z" fill="#E6E6E6"/>
<path d="M174.848 73.4347C178.269 73.4347 181.043 70.3426 181.043 66.5284C181.043 62.7141 178.269 59.6221 174.848 59.6221C171.426 59.6221 168.652 62.7141 168.652 66.5284C168.652 70.3426 171.426 73.4347 174.848 73.4347Z" fill="#F5F5F5"/>
<path d="M174.848 66.5286L122.494 13.1709L153.217 59.6686L174.848 66.5286Z" fill="#F5F5F5"/>
<path d="M174.848 66.5293L154.809 138.543L179.714 88.6851L174.848 66.5293Z" fill="#F5F5F5"/>
<path d="M174.848 66.5293L247.232 47.873L191.596 51.2335L174.848 66.5293Z" fill="#F5F5F5"/>
<path d="M302.931 252.922H292.471V80.2646H298.327L302.931 252.922Z" fill="#E6E6E6"/>
<path d="M297.376 85.6795H287.565C286.131 85.6795 284.756 85.1097 283.742 84.0956C282.727 83.0815 282.158 81.7061 282.158 80.2719C282.158 78.8377 282.727 77.4622 283.742 76.4481C284.756 75.434 286.131 74.8643 287.565 74.8643H297.376C298.81 74.8643 300.186 75.434 301.2 76.4481C302.214 77.4622 302.784 78.8377 302.784 80.2719C302.784 81.7061 302.214 83.0815 301.2 84.0956C300.186 85.1097 298.81 85.6795 297.376 85.6795Z" fill="#E6E6E6"/>
<path d="M286.553 86.1509C289.433 86.1509 291.768 83.5499 291.768 80.3415C291.768 77.1332 289.433 74.5322 286.553 74.5322C283.673 74.5322 281.339 77.1332 281.339 80.3415C281.339 83.5499 283.673 86.1509 286.553 86.1509Z" fill="#F5F5F5"/>
<path d="M286.553 80.3416L312.765 23.1445L285.449 61.2759L286.553 80.3416Z" fill="#F5F5F5"/>
<path d="M286.554 80.3418L223.918 86.2361L270.601 90.8326L286.554 80.3418Z" fill="#F5F5F5"/>
<path d="M286.553 80.3418L322.985 131.637L303.618 88.9167L286.553 80.3418Z" fill="#F5F5F5"/>
<path d="M256.34 220.94C256.34 220.94 218.734 202.26 258.179 179.912C297.624 157.563 305.781 196.992 305.781 196.992C305.781 196.992 312.093 160.436 344.709 178.583C369.869 192.581 364.794 209.947 361.186 217.155C365.049 211.863 374.736 203.319 392.859 214.343C417.449 229.337 389.476 252.914 389.476 252.914H240.96C222.025 222.979 256.34 220.94 256.34 220.94Z" fill="#E6E6E6"/>
<path d="M251.659 211.151C251.659 211.151 298.265 186.778 249.341 157.593C200.418 128.407 190.352 179.911 190.352 179.911C190.352 179.911 182.526 132.185 142.108 155.878C110.922 174.156 117.195 196.821 121.683 206.23C116.901 199.309 104.881 188.169 82.4779 202.569C51.9867 222.144 86.6495 252.921 86.6495 252.921H270.694C294.147 213.832 251.659 211.151 251.659 211.151Z" fill="#F0F0F0"/>
<path d="M139.343 71.96C137.242 67.7266 133.163 64.7138 128.976 64.7138C127.766 64.6948 126.568 64.9653 125.484 65.5028C124.399 66.0403 123.459 66.8293 122.742 67.8039C121.463 66.7073 119.845 66.0853 118.16 66.0426C115.31 66.0426 113.209 68.082 112.753 70.9558C111.438 70.3087 110.006 69.9355 108.543 69.8588C105.692 69.7274 103.436 70.9017 102.278 72.8021C101.743 72.4797 101.139 72.2915 100.516 72.2536C100.161 72.1944 99.7969 72.2254 99.457 72.3438C99.1171 72.4622 98.8123 72.6641 98.5708 72.931C98.3293 73.1979 98.1587 73.5212 98.0748 73.8713C97.9909 74.2213 97.9963 74.5868 98.0905 74.9342L98.1601 75.2123H144.395C144.503 73.7059 141.382 72.0373 139.343 71.96Z" fill="#E6E6E6"/>
<path d="M380.669 57.7141C378.568 53.4807 374.489 50.4679 370.31 50.4679C369.098 50.447 367.899 50.7167 366.813 51.2543C365.727 51.7919 364.786 52.5818 364.068 53.558C362.786 52.467 361.169 51.8481 359.487 51.8044C356.636 51.8044 354.535 53.8361 354.04 56.7176C352.726 56.0693 351.294 55.696 349.83 55.6206C346.98 55.4893 344.732 56.6558 343.565 58.5639C343.031 58.2415 342.427 58.0533 341.804 58.0154C341.456 57.9644 341.101 57.9998 340.771 58.1184C340.44 58.2371 340.143 58.4354 339.907 58.6957C339.672 58.9561 339.503 59.2706 339.418 59.6113C339.332 59.9521 339.332 60.3087 339.417 60.6497L339.486 60.9355H385.721C385.86 59.4832 382.739 57.7837 380.669 57.7141Z" fill="#F5F5F5"/>
<path d="M267.233 117.005C267.012 116.981 266.79 116.968 266.568 116.967C264.514 114.471 261.933 112.872 259.523 112.872C258.711 112.863 257.911 113.065 257.2 113.458C256.489 113.85 255.892 114.42 255.467 115.113C251.721 110.261 246.877 107.109 242.335 107.109C238.681 107.109 235.9 109.164 234.347 112.517C232.23 110.609 229.858 109.473 227.595 109.473C223.624 109.473 221.152 112.996 221.106 117.971C219.245 116.881 217.161 116.229 215.011 116.063C211.025 115.839 208.151 117.871 206.961 121.169C206.205 120.626 205.316 120.298 204.389 120.219C202.21 120.095 200.997 121.919 201.538 124.352H277.152C276.227 122.408 274.839 120.722 273.109 119.441C271.38 118.16 269.362 117.323 267.233 117.005Z" fill="#F5F5F5"/>
<path d="M288.454 16.0525H288.122C287.715 15.4792 287.19 14.9997 286.583 14.6466C285.975 14.2934 285.299 14.0747 284.599 14.0053C284.192 13.9941 283.789 14.0903 283.431 14.2842C283.073 14.4781 282.773 14.763 282.56 15.11C280.682 12.6843 278.264 11.1084 275.993 11.1084C275.135 11.1074 274.297 11.3638 273.586 11.8444C272.876 12.3251 272.326 13.0079 272.007 13.8045C271.107 12.8957 269.907 12.3464 268.631 12.2595C266.638 12.2595 265.41 14.0208 265.387 16.5083C264.458 15.9634 263.417 15.6383 262.343 15.5581C261.482 15.462 260.614 15.6623 259.883 16.1257C259.151 16.5892 258.599 17.2881 258.318 18.1074C257.938 17.837 257.493 17.6742 257.028 17.6362C255.939 17.5744 255.336 18.4859 255.607 19.6988H293.421C292.955 18.731 292.258 17.8925 291.392 17.2568C290.526 16.6211 289.517 16.2076 288.454 16.0525Z" fill="#E6E6E6"/>
<path d="M67.2003 248.887L409.772 249.425L409.852 198.725L67.2799 198.187L67.2003 248.887Z" fill="#455A64"/>
<path d="M427.685 161.377C427.685 161.377 419.118 162.335 417.596 161.377C414.151 159.16 339.17 128.931 274.743 128.862C223.069 128.792 176.54 142.496 131.286 172.71C131.286 172.71 76.1751 178.782 54.6528 194.912C49.6237 197.832 39.357 209.342 43.2737 235.484C45.7689 252.155 58.1832 252.858 75.1399 252.48C75.1399 252.48 68.8285 201.841 113.959 205.711C152.307 208.995 144.968 255.809 144.968 255.809L337.115 256.11C337.115 256.11 337.957 235.314 338.776 230.277C340.406 220.188 352.944 203.657 376.352 206.113C402.03 208.809 410.574 232.24 408.929 252.016C408.929 252.016 436.021 257.872 439.682 236.079L446.148 234.071C446.148 234.071 448.636 188.863 426.063 169.859L430.907 166.638L427.685 161.377Z" fill="#433ED1"/>
<path d="M414.908 159.933C414.908 159.933 413.309 164.29 407.801 163.795C403.313 163.401 377.673 153.683 368.325 150.099C366.991 149.61 365.79 148.814 364.819 147.775C363.849 146.737 363.137 145.484 362.74 144.119C362.545 143.545 362.502 142.93 362.616 142.335C362.616 142.335 402.478 151.914 414.908 159.933Z" fill="#455A64"/>
<path d="M194.811 140.998C194.803 142.831 194.279 144.625 193.297 146.173C192.316 147.721 190.918 148.961 189.264 149.751L134.415 175.885L131.279 172.509C131.279 172.509 137.011 168.384 144.504 163.926C151.457 159.809 159.955 155.429 165.03 152.957C174.657 148.26 184.609 144.264 194.811 140.998Z" fill="#455A64"/>
<g opacity="0.3">
<path opacity="0.3" d="M376.908 163.803C377.278 164.12 377.575 164.513 377.779 164.956C377.983 165.398 378.089 165.88 378.089 166.367C378.089 166.855 377.983 167.336 377.779 167.779C377.575 168.222 377.278 168.615 376.908 168.932C374.189 171.706 361.233 181.339 355.216 181.926C349.198 182.513 166.444 194.711 155.628 191.613C144.813 188.516 138.479 183.031 141.198 179.879L146.103 178.256L232.254 180.018L376.908 163.803Z" fill="white"/>
</g>
<g opacity="0.7">
<path opacity="0.7" d="M443.383 202.661C443.383 202.661 432.745 205.813 428.203 197.423C423.66 189.033 418.655 180.165 418.655 178.249C418.655 175.847 420.377 168.121 426.063 169.69C426.063 169.69 441.876 182.289 443.383 202.661Z" fill="white"/>
</g>
<g opacity="0.7">
<path opacity="0.7" d="M49.9713 211.266C49.9713 211.266 91.1619 194.788 84.495 189.172C80.9801 186.206 47.113 202.521 49.9713 211.266Z" fill="white"/>
</g>
<path d="M66.7892 252.333C66.7892 252.333 66.7892 252.194 66.7892 251.924C66.7892 251.654 66.7428 251.244 66.7351 250.703C66.7351 249.637 66.6887 248.069 66.7351 246.068C66.9635 240.34 67.8447 234.656 69.3616 229.127C70.4123 225.298 71.8812 221.596 73.7418 218.088C75.8636 214.046 78.6889 210.415 82.085 207.365L83.4523 206.168L84.9278 205.079C85.9377 204.345 86.9845 203.665 88.0643 203.039C88.5973 202.707 89.1844 202.46 89.7483 202.166C90.3123 201.873 90.8762 201.571 91.4788 201.332L93.2787 200.621L94.1903 200.266L95.125 199.98C96.3921 199.569 97.6818 199.231 98.9876 198.968L100.95 198.558C101.614 198.458 102.286 198.389 102.951 198.296C103.615 198.203 104.295 198.118 104.975 198.049L107.014 197.948C108.389 197.836 109.769 197.805 111.147 197.855C116.562 197.843 121.933 198.838 126.984 200.791C131.675 202.658 135.895 205.539 139.344 209.227C142.418 212.595 144.927 216.438 146.775 220.606C148.395 224.223 149.645 227.994 150.507 231.862C151.746 237.444 152.398 243.14 152.453 248.857C152.453 250.889 152.399 252.465 152.338 253.531C152.338 254.056 152.268 254.465 152.237 254.736C152.206 255.006 152.175 255.145 152.175 255.145C152.175 255.145 152.175 255.006 152.175 254.736C152.175 254.465 152.175 254.041 152.229 253.523C152.276 252.457 152.307 250.889 152.229 248.888C152.125 243.167 151.434 237.472 150.167 231.893C149.29 228.051 148.032 224.306 146.412 220.714C144.568 216.586 142.069 212.783 139.012 209.451C135.588 205.805 131.398 202.963 126.744 201.131C121.737 199.197 116.414 198.212 111.047 198.226C105.685 198.089 100.335 198.798 95.1946 200.328L94.2598 200.606L93.3637 200.961L91.5792 201.656C90.9844 201.896 90.4359 202.212 89.8719 202.483C89.308 202.753 88.7286 203.016 88.2033 203.348C87.1383 203.959 86.1068 204.627 85.1132 205.349L83.6455 206.43L82.2936 207.612C78.9222 210.629 76.113 214.22 73.9967 218.219C72.1248 221.687 70.6404 225.35 69.5702 229.142C68.0307 234.647 67.1083 240.306 66.8201 246.014C66.7196 248.038 66.7042 249.606 66.7119 250.649V251.862C66.7892 252.194 66.7892 252.333 66.7892 252.333Z" fill="#263238"/>
<path d="M330.642 255.932C330.642 255.932 330.642 255.793 330.588 255.523C330.534 255.252 330.534 254.858 330.503 254.333C330.433 253.282 330.371 251.722 330.387 249.698C330.411 244.037 331.035 238.394 332.249 232.865C333.083 229.042 334.299 225.312 335.879 221.733C337.698 217.611 340.186 213.818 343.242 210.508C346.646 206.857 350.828 204.019 355.478 202.204C360.486 200.294 365.8 199.312 371.16 199.307C376.498 199.093 381.836 199.716 386.981 201.153C387.29 201.246 387.607 201.315 387.908 201.416L388.812 201.748L390.612 202.42C391.786 202.883 392.93 203.486 394.027 204.011C395.085 204.66 396.174 205.247 397.171 205.95L398.631 207.024C398.87 207.202 399.125 207.372 399.349 207.565L400.021 208.16C403.419 211.123 406.256 214.674 408.396 218.643C410.24 222.098 411.676 225.756 412.675 229.543C414.131 235.015 414.91 240.645 414.993 246.307C415.031 248.307 414.993 249.868 414.908 250.942C414.908 251.467 414.846 251.869 414.815 252.139C414.784 252.409 414.753 252.541 414.753 252.541C414.74 252.405 414.74 252.267 414.753 252.131C414.753 251.845 414.753 251.452 414.815 250.934C414.815 249.883 414.885 248.331 414.815 246.337C414.673 240.694 413.862 235.088 412.397 229.636C411.378 225.879 409.934 222.251 408.094 218.82C405.954 214.895 403.125 211.386 399.743 208.461L399.079 207.874C398.847 207.688 398.6 207.526 398.368 207.341L396.916 206.282C395.935 205.595 394.853 205.016 393.826 204.374C392.706 203.857 391.609 203.262 390.442 202.829L388.666 202.173L387.769 201.848C387.468 201.74 387.151 201.671 386.842 201.586C381.745 200.148 376.453 199.517 371.16 199.716C365.858 199.727 360.602 200.701 355.648 202.59C351.04 204.376 346.893 207.174 343.512 210.779C340.475 214.054 337.998 217.807 336.181 221.887C334.606 225.447 333.385 229.152 332.535 232.95C331.308 238.459 330.646 244.078 330.557 249.721C330.518 251.722 330.557 253.275 330.595 254.356C330.595 254.874 330.595 255.268 330.65 255.554C330.704 255.839 330.642 255.932 330.642 255.932Z" fill="#263238"/>
<path d="M375.1 163.795C375.1 163.795 359.125 177.7 352.203 177.7C345.281 177.7 162.851 188.762 154.732 185.479C150.455 183.835 146.321 181.84 142.372 179.515C142.372 179.515 201.902 136.641 271.274 138.696C322.198 140.202 375.1 163.795 375.1 163.795Z" fill="#455A64"/>
<path d="M179.221 159.044L167.17 186.082L161.052 186.074L171.009 162.93L179.221 159.044Z" fill="#263238"/>
<g opacity="0.3">
<path opacity="0.3" d="M331.3 198.599L309.669 198.565L309.676 194.246C309.676 193.986 309.78 193.737 309.964 193.553C310.149 193.369 310.398 193.266 310.659 193.267L330.327 193.298C330.587 193.298 330.836 193.402 331.02 193.586C331.204 193.77 331.307 194.02 331.306 194.28L331.3 198.56L331.3 198.599Z" fill="black"/>
</g>
<g opacity="0.3">
<path opacity="0.3" d="M246.995 198.469L225.365 198.435L225.371 194.155C225.372 193.895 225.475 193.645 225.66 193.462C225.844 193.278 226.094 193.175 226.354 193.175L246.03 193.206C246.29 193.207 246.539 193.311 246.723 193.495C246.907 193.679 247.01 193.929 247.009 194.189L247.003 198.469L246.995 198.469Z" fill="black"/>
</g>
<path d="M321.874 146.127L340.762 178.225L323.164 179.168L325.435 163.725L313.878 144.273L321.874 146.127Z" fill="#263238"/>
<path d="M253.012 139.152L250.069 183L256.488 182.683L259.262 138.758L253.012 139.152Z" fill="#263238"/>
<path d="M170.801 192.71L173.543 189.875L169.178 184.32L165.424 187.913C164.865 188.388 164.518 189.066 164.458 189.797C163.933 193.251 168.375 195.213 170.801 192.71Z" fill="#263238"/>
<path d="M181.894 191.667C188.561 191.891 193.806 185.093 191.033 179.021C190.745 178.282 190.272 177.628 189.659 177.124C189.047 176.619 188.315 176.28 187.533 176.14C180.581 174.927 171.581 174.479 169.155 184.321C168.445 187.233 170.075 189.033 172.74 190.122C175.274 191.158 178.696 191.552 181.894 191.667Z" fill="#433ED1"/>
<path d="M139.475 244.163C140.641 227.321 127.933 212.723 111.09 211.557C94.2482 210.391 79.6498 223.099 78.4839 239.941C77.318 256.783 90.0261 271.382 106.868 272.548C123.71 273.713 138.309 261.005 139.475 244.163Z" fill="#263238"/>
<path d="M109.007 221.68C104.979 221.669 101.038 222.853 97.6831 225.083C94.3281 227.312 91.7096 230.486 90.159 234.204C88.6083 237.922 88.195 242.016 88.9715 245.969C89.748 249.921 91.6793 253.555 94.5212 256.41C97.3631 259.264 100.988 261.212 104.937 262.007C108.886 262.801 112.982 262.407 116.707 260.873C120.431 259.339 123.618 256.735 125.862 253.39C128.107 250.045 129.309 246.11 129.317 242.082C129.323 239.409 128.802 236.761 127.785 234.289C126.768 231.817 125.273 229.569 123.387 227.675C121.501 225.78 119.261 224.276 116.793 223.247C114.326 222.218 111.68 221.686 109.007 221.68ZM92.6685 242.028C92.673 238.802 93.634 235.651 95.4297 232.972C97.2254 230.292 99.7753 228.206 102.757 226.976C105.739 225.746 109.018 225.427 112.18 226.061C115.343 226.695 118.247 228.252 120.524 230.536C122.801 232.82 124.35 235.728 124.975 238.892C125.6 242.057 125.272 245.335 124.034 248.313C122.795 251.291 120.701 253.835 118.017 255.623C115.333 257.411 112.178 258.363 108.953 258.359C104.631 258.345 100.49 256.618 97.4375 253.557C94.3854 250.496 92.6705 246.35 92.6685 242.028Z" fill="#E0E0E0"/>
<path d="M108.999 225.712C105.771 225.704 102.613 226.654 99.9241 228.441C97.2355 230.229 95.1373 232.773 93.8948 235.753C92.6523 238.733 92.3213 242.014 92.9436 245.182C93.566 248.35 95.1137 251.262 97.3912 253.55C99.6686 255.838 102.573 257.4 105.738 258.037C108.903 258.675 112.186 258.359 115.172 257.131C118.157 255.902 120.712 253.816 122.512 251.136C124.311 248.456 125.276 245.302 125.284 242.074C125.29 237.746 123.579 233.592 120.526 230.525C117.473 227.457 113.327 225.726 108.999 225.712Z" fill="#F5F5F5"/>
<path d="M104.156 242.097C104.154 243.05 104.435 243.983 104.964 244.776C105.492 245.57 106.244 246.189 107.124 246.555C108.005 246.922 108.974 247.019 109.909 246.834C110.845 246.65 111.704 246.192 112.379 245.519C113.055 244.846 113.515 243.987 113.703 243.053C113.89 242.118 113.796 241.149 113.433 240.267C113.069 239.386 112.453 238.632 111.661 238.101C110.869 237.57 109.937 237.286 108.984 237.284C108.351 237.283 107.724 237.407 107.139 237.648C106.553 237.889 106.021 238.244 105.573 238.691C105.125 239.138 104.769 239.668 104.526 240.253C104.282 240.837 104.157 241.464 104.156 242.097Z" fill="#263238"/>
<path d="M393.606 264.75C405.543 252.812 405.543 233.457 393.606 221.52C381.668 209.582 362.313 209.582 350.375 221.52C338.438 233.457 338.438 252.812 350.375 264.75C362.313 276.688 381.668 276.688 393.606 264.75Z" fill="#263238"/>
<path d="M372.018 222.769C367.99 222.758 364.05 223.942 360.695 226.171C357.34 228.4 354.721 231.574 353.17 235.291C351.62 239.008 351.206 243.102 351.982 247.055C352.758 251.007 354.688 254.641 357.529 257.496C360.37 260.351 363.994 262.299 367.943 263.095C371.891 263.89 375.987 263.497 379.712 261.964C383.437 260.431 386.624 257.829 388.869 254.485C391.115 251.141 392.318 247.206 392.327 243.179C392.34 237.779 390.207 232.596 386.399 228.768C382.59 224.941 377.417 222.783 372.018 222.769ZM355.71 243.124C355.713 239.896 356.674 236.741 358.472 234.06C360.27 231.378 362.823 229.29 365.808 228.061C368.793 226.832 372.076 226.516 375.24 227.154C378.405 227.792 381.309 229.355 383.585 231.644C385.86 233.934 387.405 236.848 388.024 240.016C388.642 243.185 388.306 246.466 387.058 249.443C385.811 252.421 383.707 254.961 381.014 256.742C378.322 258.523 375.161 259.465 371.933 259.448C367.622 259.419 363.497 257.687 360.458 254.629C357.419 251.571 355.712 247.436 355.71 243.124Z" fill="#E0E0E0"/>
<path d="M372.01 226.809C368.781 226.8 365.623 227.748 362.933 229.534C360.243 231.321 358.144 233.865 356.9 236.844C355.657 239.824 355.324 243.105 355.946 246.274C356.567 249.442 358.114 252.355 360.392 254.644C362.669 256.933 365.574 258.495 368.739 259.133C371.904 259.771 375.187 259.456 378.173 258.228C381.159 257 383.714 254.914 385.514 252.233C387.314 249.553 388.279 246.399 388.287 243.171C388.295 238.843 386.586 234.69 383.534 231.622C380.482 228.554 376.337 226.823 372.01 226.809Z" fill="#F5F5F5"/>
<path d="M367.167 243.225C367.165 244.179 367.446 245.111 367.975 245.905C368.504 246.699 369.256 247.318 370.137 247.684C371.018 248.05 371.987 248.147 372.923 247.961C373.858 247.776 374.718 247.318 375.393 246.644C376.068 245.97 376.528 245.111 376.714 244.176C376.901 243.241 376.806 242.271 376.441 241.39C376.077 240.508 375.459 239.755 374.666 239.225C373.873 238.695 372.941 238.412 371.987 238.412C370.71 238.412 369.485 238.919 368.581 239.821C367.677 240.724 367.169 241.948 367.167 243.225Z" fill="#263238"/>
<path d="M386.464 185.704C386.452 186.644 386.161 187.559 385.628 188.333C385.096 189.108 384.345 189.707 383.472 190.055C382.599 190.403 381.642 190.484 380.723 190.288C379.804 190.092 378.963 189.628 378.308 188.954C377.652 188.28 377.212 187.427 377.041 186.503C376.871 185.579 376.978 184.625 377.35 183.761C377.722 182.898 378.342 182.165 379.131 181.654C379.92 181.143 380.843 180.877 381.782 180.891C383.041 180.909 384.241 181.427 385.119 182.329C385.997 183.231 386.48 184.445 386.464 185.704Z" fill="#263238"/>
<path d="M330.526 245.156H330.07H328.718L323.527 245.257L304.446 245.566L241.478 246.338C216.881 246.593 194.61 246.756 178.495 246.779C170.438 246.779 163.91 246.779 159.406 246.701C154.902 246.624 152.392 246.524 152.454 246.377C153.046 246.472 153.646 246.511 154.246 246.493C155.428 246.493 157.181 246.539 159.429 246.547C163.933 246.547 170.461 246.547 178.518 246.501L241.494 245.929L304.461 245.265L323.55 245.087H328.742H330.094L330.526 245.156Z" fill="#263238"/>
<path d="M252.587 255.786C252.471 255.786 252.587 239.563 252.904 219.586C253.22 199.609 253.522 183.378 253.63 183.386C253.738 183.393 253.63 199.609 253.305 219.586C252.981 239.563 252.695 255.786 252.587 255.786Z" fill="#263238"/>
<path d="M294.975 151.488C295.044 151.573 290.062 156.123 283.843 161.655C277.624 167.186 272.525 171.597 272.448 171.512C272.371 171.427 277.361 166.877 283.58 161.353C289.799 155.83 294.897 151.411 294.975 151.488Z" fill="#F5F5F5"/>
<path d="M292.526 160.249C292.288 160.525 292.03 160.783 291.753 161.022C291.244 161.508 290.494 162.196 289.552 163.03C287.674 164.714 285.048 166.985 282.081 169.427C279.115 171.868 276.373 174.015 274.356 175.537C273.352 176.31 272.533 176.897 271.962 177.306C271.675 177.535 271.367 177.737 271.042 177.909C271.293 177.642 271.567 177.399 271.861 177.183L274.179 175.313C276.141 173.768 278.814 171.559 281.819 169.133C284.824 166.707 287.435 164.452 289.359 162.829L291.676 160.921C291.935 160.667 292.219 160.442 292.526 160.249Z" fill="#F5F5F5"/>
<path d="M229.674 152.454C229.736 152.547 222.466 157.615 213.451 163.779C204.436 169.944 197.051 174.865 196.989 174.772C196.927 174.68 204.189 169.612 213.212 163.447C222.235 157.283 229.612 152.362 229.674 152.454Z" fill="#F5F5F5"/>
<path d="M236.441 152.146C236.153 152.43 235.841 152.689 235.507 152.918L232.88 154.942L224.205 161.601L215.607 168.361L213.003 170.416C212.696 170.682 212.365 170.919 212.014 171.126C212.287 170.824 212.584 170.545 212.903 170.292C213.49 169.774 214.355 169.04 215.429 168.137C217.577 166.344 220.582 163.903 223.927 161.284C227.272 158.666 230.408 156.348 232.679 154.71C233.815 153.891 234.742 153.242 235.391 152.802C235.72 152.552 236.072 152.332 236.441 152.146Z" fill="#F5F5F5"/>
<path d="M127.37 174.371C127.3 174.397 127.227 174.412 127.153 174.417L126.535 174.51L124.141 174.834C122.063 175.12 119.057 175.545 115.365 176.178C105.733 177.831 96.2163 180.099 86.8745 182.969C81.405 184.653 76.2678 186.468 71.6482 188.268C67.5322 189.788 63.5218 191.579 59.6433 193.63C57.0393 195.029 54.6249 196.755 52.4589 198.767C52.0649 199.114 51.7482 199.454 51.4701 199.74C51.1919 200.026 50.9525 200.281 50.7748 200.513L50.3499 200.976C50.3046 201.031 50.2555 201.083 50.2031 201.131C50.2031 201.131 50.2031 201.061 50.319 200.953L50.713 200.459C50.8829 200.242 51.0992 199.98 51.3774 199.686C51.6555 199.393 51.9645 199.037 52.3507 198.674C54.4902 196.607 56.8959 194.836 59.5042 193.406C63.3773 191.312 67.3912 189.489 71.5168 187.952C76.1519 186.128 81.2814 184.29 86.7586 182.614C96.1093 179.734 105.646 177.498 115.303 175.924C119.011 175.329 122.024 174.942 124.11 174.703L126.512 174.456L127.138 174.402C127.213 174.378 127.291 174.367 127.37 174.371Z" fill="#F5F5F5"/>
<path d="M319.773 134.138H319.456L318.521 133.984L314.952 133.366C311.862 132.84 307.351 132.13 301.765 131.458C287.216 129.65 272.524 129.278 257.902 130.345C240.775 131.689 225.541 135.104 214.641 137.777C209.179 139.136 204.784 140.318 201.748 141.153L198.248 142.103L197.337 142.342C197.234 142.377 197.128 142.4 197.02 142.412C197.119 142.365 197.222 142.329 197.329 142.304L198.225 142.026L201.701 140.998C204.73 140.118 209.118 138.889 214.572 137.499C225.479 134.756 240.721 131.319 257.887 129.944C272.532 128.867 287.249 129.279 301.812 131.172C307.405 131.883 311.901 132.64 314.999 133.211C316.544 133.489 317.741 133.744 318.552 133.899L319.479 134.092C319.578 134.097 319.677 134.113 319.773 134.138Z" fill="#F5F5F5"/>
<path d="M190.09 178.334C189.751 178.329 189.412 178.296 189.078 178.234C188.437 178.156 187.533 178.04 186.351 177.986C183.343 177.806 180.325 178.127 177.421 178.937C175.839 179.399 174.353 180.142 173.033 181.13C171.967 181.947 171.074 182.969 170.407 184.136C169.807 185.227 169.419 186.422 169.263 187.658C169.263 187.658 169.263 187.566 169.263 187.396C169.259 187.137 169.275 186.879 169.31 186.623C169.443 185.699 169.736 184.805 170.175 183.981C170.83 182.756 171.732 181.68 172.825 180.821C174.169 179.777 175.697 178.991 177.328 178.504C180.274 177.68 183.343 177.393 186.39 177.654C187.311 177.725 188.227 177.851 189.133 178.033C189.462 178.098 189.783 178.199 190.09 178.334Z" fill="#F5F5F5"/>
<path d="M246.723 188.817C246.723 188.933 235.491 189.69 221.624 190.516C207.758 191.343 196.51 191.922 196.502 191.814C196.494 191.706 207.727 190.941 221.601 190.115C235.476 189.288 246.716 188.709 246.723 188.817Z" fill="#F5F5F5"/>
<path d="M120.34 198.149C120.273 198.156 120.206 198.156 120.139 198.149L119.575 198.025C119.081 197.932 118.37 197.708 117.42 197.562C114.757 197.067 112.055 196.808 109.347 196.789C105.333 196.715 101.324 197.114 97.404 197.979C92.5848 198.962 87.9885 200.827 83.8463 203.479C79.7836 206.25 76.2818 209.765 73.5255 213.838C71.2671 217.158 69.4979 220.784 68.2724 224.607C67.4445 227.185 66.8828 229.841 66.596 232.533C66.4493 233.484 66.457 234.233 66.4029 234.735L66.3566 235.307C66.3644 235.373 66.3644 235.441 66.3566 235.508C66.345 235.441 66.345 235.373 66.3566 235.307V234.735C66.3566 234.225 66.3565 233.476 66.4724 232.518C66.6989 229.805 67.2169 227.124 68.0175 224.522C69.2147 220.657 70.9715 216.987 73.2319 213.63C75.9871 209.47 79.5174 205.879 83.63 203.054C87.8078 200.372 92.4507 198.496 97.319 197.523C101.272 196.674 105.313 196.3 109.355 196.411C112.077 196.467 114.787 196.78 117.451 197.345C118.401 197.515 119.104 197.77 119.598 197.886L120.155 198.048L120.34 198.149Z" fill="#F5F5F5"/>
<path d="M299.944 297.496C296.082 297.496 293.988 295.985 293.988 293.253C293.988 290.925 295.634 289.205 299.025 288.011C303.578 286.668 308.207 286.071 312.838 286.23H374.809C378.579 286.23 381.406 284.499 383.469 280.927C389.054 271.282 387.803 249.555 386.891 233.705C386.582 228.315 386.288 223.219 386.288 219.256C386.342 213.976 386.652 208.709 387.215 203.503C387.795 197.346 388.251 192.53 387.007 190.201C386.188 188.702 384.481 187.982 381.777 187.982V184.117C385.284 184.117 387.532 185.251 388.853 187.677C390.839 191.335 390.306 196.944 389.626 204.064C389.076 209.084 388.772 214.163 388.714 219.256C388.714 223.048 389 228.047 389.309 233.351C390.313 250.847 391.565 272.624 385.261 283.536C382.743 287.876 379.22 290.083 374.793 290.083H312.838C302.834 290.083 298.384 291.937 296.908 293.095C297.899 293.505 298.921 293.69 299.944 293.644V297.496Z" fill="#263238"/>
<path d="M345.299 100.072H312.838V295.217H345.299V100.072Z" fill="#263238"/>
<path d="M354.214 97.6699H315.619V100.072H354.214V97.6699Z" fill="#263238"/>
<path opacity="0.4" d="M354.214 97.6699H345.307V100.072H354.214V97.6699Z" fill="black"/>
<path d="M334.422 117.361H328.96L333.734 109.806H327.732L323.723 120.49H328.705L325.669 130.138L334.422 117.361Z" fill="white"/>
<path opacity="0.5" d="M333.895 228.201C336.559 225.537 336.559 221.218 333.895 218.555C331.231 215.891 326.912 215.891 324.248 218.555C321.585 221.218 321.585 225.537 324.248 228.201C326.912 230.865 331.231 230.865 333.895 228.201Z" fill="#433ED1"/>
<path d="M299.944 297.496C299.62 297.496 299.31 297.368 299.081 297.139C298.852 296.91 298.724 296.6 298.724 296.276C298.724 295.952 298.852 295.642 299.081 295.413C299.31 295.184 299.62 293.603 299.944 293.603C303.876 293.603 306.588 294.082 308.241 292.081C312.042 287.485 310.149 277.596 308.148 267.121C306.82 260.169 305.445 252.976 305.445 246.263C305.445 230.705 313.834 222.13 329.068 222.13C329.237 222.116 329.407 222.138 329.567 222.194C329.727 222.249 329.874 222.337 329.999 222.452C330.123 222.567 330.223 222.707 330.291 222.862C330.359 223.017 330.394 223.185 330.394 223.354C330.394 223.524 330.359 223.691 330.291 223.847C330.223 224.002 330.123 224.142 329.999 224.257C329.874 224.372 329.727 224.46 329.567 224.515C329.407 224.57 329.237 224.592 329.068 224.579C319.404 224.579 307.886 228.341 307.886 246.263C307.886 252.714 309.238 259.79 310.543 266.634C312.66 277.689 314.653 288.126 310.126 293.603C307.978 296.23 304.649 297.496 299.944 297.496Z" fill="#263238"/>
<path opacity="0.5" d="M341.258 161.967H316.893V211.207H341.258V161.967Z" fill="#433ED1"/>
<path opacity="0.5" d="M316.886 161.967V211.207L325.615 168.819L316.886 161.967Z" fill="#433ED1"/>
<path d="M336.631 178.568L337.126 176.165H330.474L329.98 178.568H327.407L322.695 201.449H334.553L339.266 178.568H336.631Z" fill="#433ED1"/>
<path opacity="0.4" d="M336.013 186.68L333.587 198.468C333.505 198.872 333.286 199.236 332.966 199.496C332.646 199.757 332.246 199.899 331.834 199.897H325.916C325.755 199.899 325.597 199.864 325.451 199.795C325.306 199.727 325.177 199.627 325.076 199.502C324.974 199.378 324.902 199.232 324.864 199.076C324.827 198.919 324.824 198.757 324.858 198.6L327.284 186.811C327.366 186.407 327.585 186.044 327.905 185.783C328.225 185.523 328.625 185.381 329.037 185.382H334.955C335.115 185.381 335.274 185.416 335.42 185.484C335.565 185.552 335.693 185.652 335.795 185.777C335.897 185.902 335.969 186.047 336.007 186.204C336.044 186.36 336.047 186.523 336.013 186.68Z" fill="white"/>
<path opacity="0.4" d="M316.886 161.966L341.251 161.958V168.818H325.615L316.886 161.966Z" fill="#263238"/>
<path d="M345.299 295.218H356.979V100.073H345.299V295.218Z" fill="#263238"/>
<path opacity="0.4" d="M345.299 295.218H356.979V100.073H345.299V295.218Z" fill="black"/>
</svg>
