<svg width="285" height="68" viewBox="0 0 285 68" fill="none" xmlns="http://www.w3.org/2000/svg">
<path d="M41.5353 48.8981L29.712 54.053V53.5328C27.4419 54.1003 24.8881 54.4314 22.5234 54.5733C11.3621 54.4787 2.56556 48.6143 2.42368 41.7095V39.1556C6.06528 44.4525 13.5376 48.0468 22.5234 47.9049C25.5502 48.0468 28.6715 47.5739 31.2727 46.8645L32.3131 44.3106C29.239 45.2565 25.8339 45.8713 22.5234 45.8713C11.3621 45.8713 2.56556 40.0542 2.42368 33.0075V30.9266C6.06528 35.8451 13.5376 39.3921 22.5234 39.1556C26.5906 39.3921 30.516 38.5408 33.8738 37.0747L34.394 34.5209C31.1308 36.2234 26.9217 37.2166 22.5707 37.0747C11.4094 37.2166 2.61286 31.3995 2.47098 24.2109V22.13C6.11257 27.1431 13.5849 30.7374 22.5707 30.8793C27.6784 30.7374 32.5023 29.3659 36.4749 27.285L36.9952 24.2109C33.4009 26.8593 28.1513 28.6092 22.5707 28.8457C11.4094 28.6092 2.61286 22.7448 2.47098 15.4616C2.56556 8.5095 11.4094 2.69242 22.5707 2.59783C29.1918 2.69242 35.3872 5.0098 39.0288 8.79327L39.4071 9.40808H42.0083L41.6299 8.79327C37.9883 3.82746 30.6578 0.564211 22.5707 0.564211C10.1798 0.516918 0.342773 7.27988 0.342773 15.4143V15.9346V42.1824C0.768414 50.1277 10.369 56.6069 22.4761 56.6069C30.4687 56.6542 37.7046 53.4855 41.5353 48.8981Z" fill="#263238"/>
<path d="M36.7115 67.0121L40.8733 49.3244L28.908 54.5267L36.1912 23.8805H22.1924L25.834 8.79395H70.5262L66.8847 23.8805H52.3183L49.1969 32.2042L65.324 25.4412L36.7115 67.0121ZM43.9946 45.7301L41.9137 56.1346L59.0812 30.1706L45.0351 36.4133L51.2778 21.8469H65.324L67.9251 10.9221H27.3474L24.7462 21.8469H38.7924L32.0294 50.9324L43.9946 45.7301Z" fill="#FABF2C"/>
<path d="M100.18 18.9613C100.227 20.6165 99.7066 21.8934 98.6661 22.8393C97.6257 23.7852 96.2069 24.2581 94.3624 24.2581C92.518 24.2581 91.0046 23.6433 89.8696 22.461C88.7345 21.2786 88.167 19.7179 88.167 17.8262V14.7521C88.167 12.8604 88.7345 11.2997 89.8223 10.1174C90.9573 8.93505 92.4234 8.32025 94.2206 8.32025C96.1123 8.32025 97.5784 8.79318 98.6661 9.69175C99.7539 10.6376 100.274 11.9145 100.227 13.5698V13.6171H97.2C97.2 12.6239 96.9636 11.8673 96.4906 11.3943C96.0177 10.9214 95.261 10.6849 94.2678 10.6849C93.322 10.6849 92.6126 11.0633 92.0923 11.82C91.5721 12.5766 91.2884 13.5225 91.2884 14.7049V17.8262C91.2884 19.0085 91.5721 20.0017 92.0923 20.7584C92.6599 21.5151 93.4166 21.8934 94.4097 21.8934C95.3556 21.8934 96.0177 21.657 96.4906 21.184C96.9636 20.7111 97.2 19.9544 97.2 18.9613H100.18ZM117.3 17.6843C117.3 19.5761 116.685 21.184 115.503 22.4137C114.32 23.6433 112.76 24.2581 110.821 24.2581C108.882 24.2581 107.368 23.6433 106.138 22.4137C104.956 21.184 104.341 19.5761 104.341 17.6843V14.894C104.341 13.0023 104.956 11.4416 106.138 10.1647C107.321 8.93506 108.882 8.27295 110.773 8.27295C112.712 8.27295 114.273 8.88776 115.455 10.1647C116.685 11.3943 117.252 13.0023 117.252 14.894V17.6843H117.3ZM114.178 14.8467C114.178 13.6171 113.895 12.6712 113.28 11.8673C112.665 11.1106 111.861 10.6849 110.773 10.6849C109.733 10.6849 108.882 11.0633 108.314 11.8673C107.746 12.6239 107.415 13.6171 107.415 14.8467V17.637C107.415 18.8667 107.699 19.8598 108.314 20.6638C108.882 21.4205 109.733 21.8461 110.773 21.8461C111.861 21.8461 112.665 21.4678 113.28 20.6638C113.895 19.9071 114.178 18.8667 114.178 17.637V14.8467ZM125.34 24.0216H122.218V8.50942H125.34V24.0216ZM143.264 24.0216H140.142L133.9 13.5698H133.852V24.0216H130.731V8.50942H133.852L140.095 18.9613H140.142V8.50942H143.264V24.0216ZM158.918 10.9214H154.472V24.0216H151.351V10.9214H147V8.50942H158.918V10.9214ZM171.782 17.2114H166.012V21.657H172.869V24.0216H162.938V8.50942H172.869V10.9214H166.059V14.7994H171.829V17.2114H171.782ZM180.436 21.657H187.389V24.0216H177.315V8.50942H180.436V21.657ZM200.631 17.2114H194.861V21.657H201.718V24.0216H191.787V8.50942H201.718V10.9214H194.908V14.7994H200.678V17.2114H200.631ZM218.082 21.9407C217.609 22.5556 216.9 23.1231 215.906 23.596C214.961 24.0689 213.731 24.3054 212.218 24.3054C210.326 24.3054 208.812 23.7379 207.63 22.5556C206.448 21.3732 205.833 19.8598 205.833 17.9681V14.7049C205.833 12.8131 206.401 11.2997 207.583 10.1174C208.718 8.93505 210.231 8.32025 212.028 8.32025C213.92 8.32025 215.386 8.79318 216.379 9.69175C217.373 10.5903 217.893 11.7727 217.846 13.2861V13.3333H214.913C214.913 12.5293 214.677 11.8673 214.204 11.3943C213.731 10.9214 213.022 10.6849 212.123 10.6849C211.177 10.6849 210.42 11.0633 209.806 11.7727C209.238 12.5294 208.954 13.4752 208.954 14.6103V17.8735C208.954 19.0558 209.238 20.0017 209.853 20.7584C210.468 21.5151 211.272 21.8461 212.265 21.8461C213.022 21.8461 213.589 21.7516 214.015 21.6097C214.44 21.4678 214.771 21.2786 215.008 21.0422V18.0154H212.028V15.8399H218.129V21.9407H218.082ZM226.122 17.8262V24.0216H223V8.50942H228.392C230.142 8.50942 231.561 8.93506 232.554 9.73905C233.547 10.543 234.067 11.6781 234.067 13.0969C234.067 13.9009 233.878 14.563 233.452 15.1778C233.027 15.7453 232.412 16.2182 231.608 16.5966C232.506 16.8804 233.169 17.306 233.594 17.9681C233.973 18.5829 234.209 19.3869 234.209 20.3328V21.4678C234.209 21.8934 234.256 22.3664 234.398 22.8393C234.493 23.3122 234.729 23.6433 235.013 23.8798V24.1162H231.797C231.513 23.8798 231.324 23.5014 231.23 22.9812C231.135 22.461 231.088 21.9407 231.088 21.4678V20.3801C231.088 19.6234 230.899 19.0085 230.473 18.5829C230.047 18.1573 229.432 17.9208 228.676 17.9208H226.122V17.8262ZM226.122 15.4615H228.345C229.196 15.4615 229.858 15.2724 230.284 14.894C230.709 14.5157 230.946 13.9955 230.946 13.2388C230.946 12.5294 230.709 11.9618 230.284 11.5362C229.858 11.1106 229.243 10.9214 228.392 10.9214H226.122V15.4615ZM247.262 20.7111H242.249L241.208 24.0689H237.945L243.195 8.55671H246.363L251.566 24.0689H248.302L247.262 20.7111ZM243.006 18.2519H246.505L244.803 12.7658H244.755L243.006 18.2519ZM258.471 18.3937V24.0216H255.349V8.50942H261.308C263.105 8.50942 264.477 8.98235 265.517 9.88092C266.558 10.7795 267.031 12.0091 267.031 13.4752C267.031 14.9413 266.51 16.171 265.517 17.0695C264.477 17.9681 263.105 18.441 261.308 18.441H258.471V18.3937ZM258.471 16.0291H261.308C262.159 16.0291 262.822 15.7926 263.294 15.3197C263.72 14.8467 263.957 14.2319 263.957 13.5225C263.957 12.7658 263.72 12.151 263.294 11.6781C262.869 11.2051 262.207 10.9687 261.308 10.9687H258.471V16.0291ZM284.104 24.0216H280.982V17.5897H274.645V24.0216H271.524V8.50942H274.645V15.1778H280.982V8.50942H284.104V24.0216Z" fill="#263238"/>
<path d="M93.8421 49.3713H91.903V39.156H88.4033V37.5007H97.3418V39.156H93.8421V49.3713ZM106.848 49.3713H104.909V43.838C104.909 43.1286 104.767 42.6084 104.483 42.2773C104.199 41.9463 103.774 41.7571 103.159 41.7571C102.355 41.7571 101.787 41.9936 101.409 42.4665C101.031 42.9394 100.841 43.7434 100.841 44.8785V49.324H98.9497V36.6967H100.841V39.9127C100.841 40.4329 100.794 40.9531 100.747 41.5679H100.889C101.125 41.1423 101.504 40.8112 101.977 40.5748C102.449 40.3383 102.97 40.1964 103.585 40.1964C105.76 40.1964 106.848 41.2842 106.848 43.507V49.3713ZM113.422 49.5132C112.003 49.5132 110.915 49.0876 110.158 48.2836C109.354 47.4796 108.976 46.3446 108.976 44.9258C108.976 43.4597 109.354 42.3246 110.064 41.4733C110.773 40.6221 111.814 40.1964 113.09 40.1964C114.273 40.1964 115.219 40.5748 115.881 41.2842C116.59 41.9936 116.921 42.9867 116.921 44.2637V45.3041H110.915C110.962 46.1554 111.199 46.8648 111.624 47.2904C112.05 47.7634 112.712 47.9998 113.516 47.9998C114.036 47.9998 114.557 47.9525 114.982 47.8579C115.455 47.7634 115.928 47.5742 116.448 47.3377V48.8984C115.975 49.1349 115.502 49.2768 115.03 49.3713C114.604 49.4659 114.036 49.5132 113.422 49.5132ZM113.09 41.6625C112.476 41.6625 112.003 41.8517 111.624 42.23C111.246 42.6084 111.057 43.1759 110.962 43.9326H115.03C115.03 43.1759 114.84 42.6084 114.509 42.23C114.178 41.8517 113.705 41.6625 113.09 41.6625ZM127.893 41.8044H125.718V49.3713H123.779V41.8044H122.313V40.9058L123.779 40.3383V39.7708C123.779 38.7303 124.015 37.9263 124.535 37.4061C125.056 36.8859 125.812 36.6494 126.806 36.6494C127.468 36.6494 128.13 36.744 128.792 36.9805L128.272 38.4466C127.799 38.3047 127.373 38.2101 126.9 38.2101C126.475 38.2101 126.143 38.352 125.954 38.5884C125.765 38.8722 125.671 39.2506 125.671 39.7708V40.3383H127.846V41.8044H127.893ZM135.791 49.3713L135.508 48.189H135.413C135.129 48.6146 134.751 48.9457 134.278 49.1822C133.805 49.4186 133.237 49.5605 132.623 49.5605C131.535 49.5605 130.731 49.2768 130.163 48.7565C129.596 48.2363 129.359 47.385 129.359 46.2973V40.3856H131.298V45.9189C131.298 46.6283 131.44 47.1013 131.724 47.4796C132.008 47.8107 132.433 47.9998 133.048 47.9998C133.852 47.9998 134.42 47.7634 134.798 47.2904C135.177 46.8175 135.366 46.0135 135.366 44.8785V40.3856H137.305V49.3713H135.791ZM143.358 47.9525C143.831 47.9525 144.304 47.8579 144.777 47.7161V49.1349C144.588 49.2295 144.304 49.324 143.973 49.3713C143.642 49.4186 143.311 49.4659 142.933 49.4659C141.135 49.4659 140.237 48.5201 140.237 46.6283V41.8044H139.007V40.9531L140.331 40.2437L140.994 38.352H142.176V40.3383H144.73V41.8044H142.176V46.6283C142.176 47.1013 142.271 47.4323 142.507 47.6688C142.649 47.8579 142.98 47.9525 143.358 47.9525ZM152.864 49.3713L152.58 48.189H152.486C152.202 48.6146 151.824 48.9457 151.351 49.1822C150.878 49.4186 150.31 49.5605 149.696 49.5605C148.608 49.5605 147.804 49.2768 147.236 48.7565C146.716 48.2363 146.432 47.385 146.432 46.2973V40.3856H148.371V45.9189C148.371 46.6283 148.513 47.1013 148.797 47.4796C149.081 47.8107 149.506 47.9998 150.121 47.9998C150.925 47.9998 151.493 47.7634 151.871 47.2904C152.249 46.8175 152.439 46.0135 152.439 44.8785V40.3856H154.378V49.3713H152.864ZM161.661 40.1964C162.039 40.1964 162.37 40.2437 162.607 40.291L162.418 42.0882C162.134 42.0409 161.85 41.9936 161.566 41.9936C160.81 41.9936 160.195 42.23 159.722 42.7503C159.249 43.2705 159.012 43.8853 159.012 44.6893V49.3713H157.121V40.3856H158.634L158.87 41.9463H158.965C159.249 41.426 159.674 41.0004 160.147 40.6694C160.573 40.3856 161.093 40.1964 161.661 40.1964ZM167.856 49.5132C166.437 49.5132 165.35 49.0876 164.593 48.2836C163.789 47.4796 163.411 46.3446 163.411 44.9258C163.411 43.4597 163.789 42.3246 164.498 41.4733C165.208 40.6221 166.248 40.1964 167.525 40.1964C168.708 40.1964 169.653 40.5748 170.315 41.2842C171.025 41.9936 171.356 42.9867 171.356 44.2637V45.3041H165.35C165.397 46.1554 165.633 46.8648 166.059 47.2904C166.485 47.7634 167.147 47.9998 167.951 47.9998C168.471 47.9998 168.991 47.9525 169.417 47.8579C169.89 47.7634 170.363 47.5742 170.883 47.3377V48.8984C170.41 49.1349 169.937 49.2768 169.464 49.3713C168.991 49.4659 168.471 49.5132 167.856 49.5132ZM167.525 41.6625C166.91 41.6625 166.437 41.8517 166.059 42.23C165.681 42.6084 165.492 43.1759 165.397 43.9326H169.464C169.464 43.1759 169.275 42.6084 168.944 42.23C168.566 41.8517 168.093 41.6625 167.525 41.6625ZM185.78 44.8312C185.78 46.2973 185.402 47.4323 184.645 48.2836C183.889 49.0876 182.848 49.5132 181.524 49.5132C180.673 49.5132 179.963 49.324 179.301 48.9457C178.639 48.5674 178.166 47.9998 177.835 47.2904C177.504 46.581 177.315 45.777 177.315 44.8312C177.315 43.3651 177.693 42.23 178.45 41.4261C179.207 40.6221 180.247 40.1964 181.619 40.1964C182.896 40.1964 183.936 40.6221 184.693 41.4733C185.449 42.3246 185.78 43.4124 185.78 44.8312ZM179.254 44.8312C179.254 46.9121 180.011 47.9525 181.571 47.9525C183.085 47.9525 183.841 46.9121 183.841 44.8312C183.841 42.7976 183.085 41.7571 181.571 41.7571C180.767 41.7571 180.2 42.0409 179.821 42.5611C179.443 43.0813 179.254 43.838 179.254 44.8312ZM192.496 41.8044H190.321V49.3713H188.382V41.8044H186.915V40.9058L188.382 40.3383V39.7708C188.382 38.7303 188.618 37.9263 189.138 37.4061C189.659 36.8859 190.415 36.6494 191.408 36.6494C192.07 36.6494 192.733 36.744 193.395 36.9805L192.874 38.4466C192.402 38.3047 191.976 38.2101 191.503 38.2101C191.077 38.2101 190.746 38.352 190.557 38.5884C190.368 38.8249 190.273 39.2506 190.273 39.7708V40.3383H192.449V41.8044H192.496ZM205.927 49.3713H203.988V43.838C203.988 43.1286 203.847 42.6557 203.61 42.2773C203.374 41.9463 202.948 41.7571 202.38 41.7571C201.624 41.7571 201.104 41.9936 200.772 42.4665C200.441 42.9394 200.252 43.7434 200.252 44.8785V49.3713H198.36V40.3856H199.874L200.158 41.5679H200.252C200.489 41.1423 200.867 40.8112 201.34 40.5748C201.813 40.3383 202.333 40.2437 202.901 40.2437C204.272 40.2437 205.218 40.7167 205.644 41.6625H205.786C206.069 41.2369 206.448 40.8585 206.921 40.6221C207.394 40.3856 207.961 40.2437 208.576 40.2437C209.664 40.2437 210.42 40.5275 210.941 41.0477C211.413 41.5679 211.697 42.4192 211.697 43.507V49.3713H209.805V43.838C209.805 43.1286 209.664 42.6557 209.427 42.2773C209.143 41.9463 208.765 41.7571 208.198 41.7571C207.441 41.7571 206.921 41.9936 206.59 42.4665C206.258 42.9394 206.069 43.6488 206.069 44.5947V49.3713H205.927ZM222.196 44.8312C222.196 46.2973 221.818 47.4323 221.061 48.2836C220.305 49.0876 219.264 49.5132 217.94 49.5132C217.089 49.5132 216.379 49.324 215.717 48.9457C215.055 48.5674 214.582 47.9998 214.251 47.2904C213.92 46.581 213.731 45.777 213.731 44.8312C213.731 43.3651 214.109 42.23 214.866 41.4261C215.623 40.6221 216.663 40.1964 218.035 40.1964C219.311 40.1964 220.352 40.6221 221.109 41.4733C221.818 42.3246 222.196 43.4124 222.196 44.8312ZM215.67 44.8312C215.67 46.9121 216.427 47.9525 217.987 47.9525C219.501 47.9525 220.257 46.9121 220.257 44.8312C220.257 42.7976 219.501 41.7571 217.987 41.7571C217.183 41.7571 216.616 42.0409 216.237 42.5611C215.859 43.0813 215.67 43.838 215.67 44.8312ZM232.317 49.3713H230.378V43.838C230.378 43.1286 230.236 42.6084 229.952 42.2773C229.669 41.9463 229.243 41.7571 228.628 41.7571C227.824 41.7571 227.209 41.9936 226.878 42.4665C226.547 42.9394 226.311 43.7434 226.311 44.8785V49.3713H224.419V40.3856H225.933L226.216 41.5679H226.311C226.595 41.1423 226.973 40.8112 227.446 40.5748C227.919 40.3383 228.486 40.2437 229.101 40.2437C231.277 40.2437 232.317 41.3315 232.317 43.5543V49.3713ZM238.891 49.5132C237.472 49.5132 236.384 49.0876 235.628 48.2836C234.824 47.4796 234.445 46.3446 234.445 44.9258C234.445 43.4597 234.824 42.3246 235.533 41.4733C236.242 40.6221 237.283 40.1964 238.56 40.1964C239.742 40.1964 240.688 40.5748 241.35 41.2842C242.06 41.9936 242.391 42.9867 242.391 44.2637V45.3041H236.384C236.432 46.1554 236.668 46.8648 237.094 47.2904C237.519 47.7634 238.182 47.9998 238.986 47.9998C239.506 47.9998 240.026 47.9525 240.452 47.8579C240.877 47.7634 241.397 47.5742 241.918 47.3377V48.8984C241.445 49.1349 240.972 49.2768 240.499 49.3713C240.026 49.4659 239.506 49.5132 238.891 49.5132ZM238.513 41.6625C237.898 41.6625 237.425 41.8517 237.046 42.23C236.668 42.6084 236.479 43.1759 236.384 43.9326H240.452C240.452 43.1759 240.262 42.6084 239.931 42.23C239.6 41.8517 239.127 41.6625 238.513 41.6625ZM242.864 40.3856H244.945L246.789 45.4933C247.073 46.2027 247.262 46.9121 247.356 47.5269H247.404C247.451 47.2431 247.546 46.8648 247.688 46.4391C247.829 46.0135 248.492 43.9799 249.768 40.3856H251.849L248.019 50.5537C247.309 52.3981 246.174 53.344 244.519 53.344C244.093 53.344 243.668 53.2967 243.289 53.2021V51.6887C243.573 51.736 243.904 51.7833 244.282 51.7833C245.181 51.7833 245.843 51.2631 246.221 50.1753L246.552 49.324L242.864 40.3856Z" fill="#263238"/>
</svg>
