<svg width="36" height="36" viewBox="0 0 36 36" fill="none" xmlns="http://www.w3.org/2000/svg">
<path fill-rule="evenodd" clip-rule="evenodd" d="M17.8765 0.863281C27.5011 0.863281 35.3033 8.67038 35.3033 18.3009C35.3033 27.9314 27.5011 35.7385 17.8765 35.7385C8.25197 35.7385 0.449707 27.9314 0.449707 18.3009C0.449707 8.67038 8.25197 0.863281 17.8765 0.863281Z" fill="white"/>
<path d="M20.1413 35.5925V22.1234H23.9361L24.4391 17.3829H20.1413L20.1476 15.01C20.1476 13.7736 20.265 13.1114 22.0399 13.1114H24.4125V8.37012H20.6168C16.0575 8.37012 14.453 10.6697 14.453 14.5373V17.3832H11.6108V22.1242H14.453V35.4015C15.5602 35.6223 16.7049 35.7389 17.8769 35.7389C18.6341 35.7389 19.3904 35.69 20.1413 35.5925V35.5925Z" fill="#0A0E30"/>
</svg>
