<svg width="179" height="180" viewBox="0 0 179 180" fill="none" xmlns="http://www.w3.org/2000/svg">
<path d="M145.45 162.906C109.667 162.238 84.7404 180.322 67.4983 179.996C50.2562 179.67 14.2196 169.075 15.7047 89.7328C17.1898 10.3905 66.127 -0.343796 85.0974 0.00814819C173.911 1.66953 208.83 164.091 145.45 162.906Z" fill="url(#paint0_linear_2052_4225)"/>
<path d="M168.518 27.6475H178.867V32.8231H168.518V27.6475Z" fill="#D4D8FF"/>
<path d="M138.764 27.6475H149.113V32.8231H138.764V27.6475Z" fill="#D4D8FF"/>
<path d="M156.875 9.53271H162.05V19.884H156.875V9.53271Z" fill="#D4D8FF"/>
<path d="M156.875 39.293H162.05V49.6442H156.875V39.293Z" fill="#D4D8FF"/>
<path d="M7.89682 157.038C3.61734 157.038 0.134766 153.554 0.134766 149.274C0.134766 144.994 3.61734 141.511 7.89682 141.511C12.1763 141.511 15.6589 144.994 15.6589 149.274C15.6589 153.554 12.1763 157.038 7.89682 157.038ZM7.89682 146.686C6.4686 146.686 5.30947 147.851 5.30947 149.274C5.30947 150.697 6.4686 151.862 7.89682 151.862C9.32503 151.862 10.4842 150.697 10.4842 149.274C10.4842 147.851 9.32503 146.686 7.89682 146.686Z" fill="#D4D8FF"/>
<path d="M151.68 165H39.6108C29.8961 165 22 157.294 22 147.812V32.1875C22 22.7063 29.8961 15 39.6108 15H138.872C141.523 15 143.675 17.1 143.675 19.6875V40H151.68C154.331 40 156.483 42.1 156.483 44.6875V160.312C156.483 162.9 154.331 165 151.68 165ZM31.6059 47.4938V147.812C31.6059 152.119 35.1985 155.625 39.6108 155.625H146.877V49.375H39.6108C36.7291 49.375 34.0074 48.7 31.6059 47.4938ZM39.6108 24.375C35.1985 24.375 31.6059 27.8813 31.6059 32.1875C31.6059 36.4937 35.1985 40 39.6108 40H134.069V24.375H39.6108Z" fill="#433ED1"/>
<rect x="48.6309" y="65.9802" width="81.1607" height="24.6088" fill="#433ED1"/>
<rect x="48.6309" y="109.881" width="81.1607" height="12.3044" fill="#433ED1"/>
<rect x="48.6309" y="128.337" width="81.1607" height="12.3044" fill="#433ED1"/>
<defs>
<linearGradient id="paint0_linear_2052_4225" x1="96.7189" y1="180" x2="96.7189" y2="0" gradientUnits="userSpaceOnUse">
<stop stop-color="#F1F2FF"/>
<stop offset="1" stop-color="#F1F2FF" stop-opacity="0"/>
</linearGradient>
</defs>
</svg>
