<svg width="51" height="37" viewBox="0 0 51 37" fill="none" xmlns="http://www.w3.org/2000/svg">
<rect width="50" height="36" transform="translate(0.181641 0.223877)" fill="white"/>
<path d="M30.6076 32.7239H8.94089C7.0627 32.7239 5.53613 31.234 5.53613 29.401V7.04679C5.53613 5.21375 7.0627 3.72388 8.94089 3.72388H28.1314C28.6439 3.72388 29.0599 4.12988 29.0599 4.63013V8.55721H30.6076C31.1201 8.55721 31.5361 8.96321 31.5361 9.46346V31.8176C31.5361 32.3179 31.1201 32.7239 30.6076 32.7239ZM7.39328 10.006V29.401C7.39328 30.2335 8.08785 30.9114 8.94089 30.9114H29.679V10.3697H8.94089C8.38375 10.3697 7.85756 10.2392 7.39328 10.006ZM8.94089 5.53638C8.08785 5.53638 7.39328 6.21425 7.39328 7.04679C7.39328 7.87934 8.08785 8.55721 8.94089 8.55721H27.2028V5.53638H8.94089Z" fill="#433ED1"/>
<rect x="10.6846" y="13.5801" width="15.6911" height="4.75771" fill="#433ED1"/>
<rect x="10.6846" y="22.0676" width="15.6911" height="2.37885" fill="#433ED1"/>
<rect x="10.6846" y="25.6357" width="15.6911" height="2.37885" fill="#433ED1"/>
</svg>
