<svg width="69" height="70" viewBox="0 0 69 70" fill="none" xmlns="http://www.w3.org/2000/svg">
<path d="M40.7021 11.6273H35.0098V14.4734C35.0098 16.0445 33.7347 17.3196 32.1636 17.3196H16.5097C14.9386 17.3196 13.6635 16.0445 13.6635 14.4734V11.6273H7.97115C4.84036 11.6273 2.27881 14.1888 2.27881 17.3196V52.8967C2.27881 56.0275 4.84036 58.5891 7.97115 58.5891H40.7021C43.8329 58.5891 46.3944 56.0275 46.3944 52.8967V17.3196C46.3944 14.1888 43.8329 11.6273 40.7021 11.6273Z" fill="#E5E7FF"/>
<path d="M35.0103 8.78121V14.4735C35.0103 16.0446 33.7352 17.3197 32.1642 17.3197H16.5102C14.9391 17.3197 13.6641 16.0446 13.6641 14.4735V8.78121H18.6449C18.6449 5.65042 21.2064 3.08887 24.3372 3.08887C27.468 3.08887 30.0295 5.65042 30.0295 8.78121H35.0103Z" fill="#E5E7FF"/>
<path d="M49.9524 67.1277C58.9908 67.1277 66.3179 59.8006 66.3179 50.7622C66.3179 41.7238 58.9908 34.3968 49.9524 34.3968C40.914 34.3968 33.5869 41.7238 33.5869 50.7622C33.5869 59.8006 40.914 67.1277 49.9524 67.1277Z" fill="#E5E7FF"/>
<path d="M8.68269 52.8967V17.3196C8.68269 14.4336 10.8685 12.057 13.6635 11.6984V11.6273H7.97115C4.84036 11.6273 2.27881 14.1888 2.27881 17.3196V52.8967C2.27881 56.0275 4.84036 58.5891 7.97115 58.5891H14.375C11.2442 58.5891 8.68269 56.0275 8.68269 52.8967Z" fill="#A1AAFF"/>
<path d="M20.0679 14.4735V8.78121H25.0487C25.0487 6.83727 26.0392 5.11249 27.5391 4.08503C26.6255 3.45887 25.524 3.08887 24.3372 3.08887C21.2064 3.08887 18.6449 5.65042 18.6449 8.78121H13.6641V14.4735C13.6641 16.0446 14.9391 17.3197 16.5102 17.3197H22.9141C21.343 17.3197 20.0679 16.0446 20.0679 14.4735Z" fill="#A1AAFF"/>
<path d="M39.9908 50.7622C39.9908 42.8214 45.649 36.2041 53.1543 34.7155C52.1183 34.5106 51.0482 34.3968 49.9524 34.3968C40.913 34.3968 33.5869 41.7228 33.5869 50.7622C33.5869 59.8017 40.913 67.1277 49.9524 67.1277C51.0482 67.1277 52.1183 67.0167 53.1543 66.8089C45.649 65.3204 39.9908 58.7031 39.9908 50.7622V50.7622Z" fill="#A1AAFF"/>
<path d="M49.9518 69.2622C39.7511 69.2622 31.4517 60.9628 31.4517 50.7621C31.4517 40.5615 39.7511 32.262 49.9518 32.262C60.1524 32.262 68.4519 40.5615 68.4519 50.7621C68.4519 60.9628 60.1524 69.2622 49.9518 69.2622ZM49.9518 36.5313C42.1049 36.5313 35.7209 42.9153 35.7209 50.7621C35.7209 58.609 42.1049 64.993 49.9518 64.993C57.7987 64.993 64.1826 58.609 64.1826 50.7621C64.1826 42.9153 57.7987 36.5313 49.9518 36.5313Z" fill="#332FC0"/>
<path d="M47.1061 58.5892C46.5397 58.5892 45.9961 58.3643 45.5976 57.963L39.9053 52.2707L42.9251 49.2509L47.0036 53.3294L55.4624 43.6638L58.6758 46.4759L48.7142 57.8605C48.3242 58.3045 47.7692 58.5692 47.1772 58.5892C47.1545 58.5892 47.1289 58.5892 47.1061 58.5892V58.5892Z" fill="#332FC0"/>
<path d="M26.3008 60.7238H7.9715C3.6567 60.7238 0.144531 57.2145 0.144531 52.8968V17.3197C0.144531 13.0021 3.6567 9.49275 7.9715 9.49275H13.3223V13.762H7.9715C6.01049 13.762 4.41379 15.3587 4.41379 17.3197V52.8968C4.41379 54.8578 6.01049 56.4545 7.9715 56.4545H26.3008V60.7238Z" fill="#332FC0"/>
<path d="M48.5297 26.1144H44.2604V17.3197C44.2604 15.3587 42.6637 13.762 40.7027 13.762H35.3804V9.49275H40.7027C45.0175 9.49275 48.5297 13.0021 48.5297 17.3197V26.1144Z" fill="#332FC0"/>
<path d="M32.164 19.4543H16.5101C13.7635 19.4543 11.5293 17.2201 11.5293 14.4735V8.78116C11.5293 7.60285 12.4856 6.64653 13.6639 6.64653H16.8061C17.7368 3.3649 20.7623 0.954193 24.3371 0.954193C27.9118 0.954193 30.9373 3.3649 31.868 6.64653H35.0102C36.1885 6.64653 37.1448 7.60285 37.1448 8.78116V14.4735C37.1448 17.2201 34.9106 19.4543 32.164 19.4543ZM15.7986 10.9158V14.4735C15.7986 14.8663 16.1173 15.185 16.5101 15.185H32.164C32.5568 15.185 32.8756 14.8663 32.8756 14.4735V10.9158H30.0294C28.8511 10.9158 27.8948 9.95947 27.8948 8.78116C27.8948 6.82015 26.2981 5.22345 24.3371 5.22345C22.376 5.22345 20.7793 6.82015 20.7793 8.78116C20.7793 9.95947 19.823 10.9158 18.6447 10.9158H15.7986Z" fill="#332FC0"/>
<rect x="10.4292" y="26.3841" width="25.6155" height="5.62242" fill="#332FC0"/>
<rect x="10.4292" y="37.2671" width="16.9906" height="5.62242" fill="#332FC0"/>
</svg>
