<svg width="35" height="36" viewBox="0 0 35 36" fill="none" xmlns="http://www.w3.org/2000/svg">
<path d="M8.89036 35.5609C6.8241 35.4669 5.70164 35.1228 4.95506 34.8314C3.96581 34.446 3.26054 33.9872 2.51809 33.2454C1.77563 32.5035 1.31612 31.7978 0.933019 30.8079C0.641821 30.0609 0.29796 28.9377 0.203992 26.8702C0.10073 24.6353 0.0800781 23.9647 0.0800781 18.3025C0.0800781 12.6402 0.102796 11.9707 0.202959 9.73369C0.296928 7.66615 0.642854 6.54507 0.931987 5.79596C1.31715 4.8061 1.77667 4.10039 2.51705 3.35645C3.25847 2.61457 3.96375 2.15374 4.95403 1.7704C5.70061 1.47903 6.82306 1.13495 8.88933 1.04093C11.1239 0.938634 11.7951 0.917969 17.4518 0.917969C23.1105 0.917969 23.7797 0.9407 26.0153 1.04093C28.0815 1.13495 29.2019 1.48109 29.9506 1.7704C30.9398 2.15374 31.6451 2.61457 32.3875 3.35645C33.13 4.09832 33.5874 4.80507 33.9726 5.79492C34.2638 6.54197 34.6077 7.66511 34.7016 9.73265C34.8039 11.9696 34.8245 12.6392 34.8245 18.3014C34.8245 23.9616 34.8039 24.6332 34.7016 26.8702C34.6077 28.9377 34.2617 30.0609 33.9726 30.8079C33.5874 31.7978 33.129 32.5035 32.3875 33.2454C31.6461 33.9872 30.9398 34.446 29.9506 34.8314C29.204 35.1228 28.0815 35.4669 26.0153 35.5609C23.7817 35.6632 23.1105 35.6838 17.4518 35.6838C11.7951 35.6838 11.1239 35.6642 8.89036 35.5609" fill="url(#paint0_radial_1098_160)"/>
<path d="M8.89036 35.5609C6.8241 35.4669 5.70164 35.1228 4.95506 34.8314C3.96581 34.446 3.26054 33.9872 2.51809 33.2454C1.77563 32.5035 1.31612 31.7978 0.933019 30.8079C0.641821 30.0609 0.29796 28.9377 0.203992 26.8702C0.10073 24.6353 0.0800781 23.9647 0.0800781 18.3025C0.0800781 12.6402 0.102796 11.9707 0.202959 9.73369C0.296928 7.66615 0.642854 6.54507 0.931987 5.79596C1.31715 4.8061 1.77667 4.10039 2.51705 3.35645C3.25847 2.61457 3.96375 2.15374 4.95403 1.7704C5.70061 1.47903 6.82306 1.13495 8.88933 1.04093C11.1239 0.938634 11.7951 0.917969 17.4518 0.917969C23.1105 0.917969 23.7797 0.9407 26.0153 1.04093C28.0815 1.13495 29.2019 1.48109 29.9506 1.7704C30.9398 2.15374 31.6451 2.61457 32.3875 3.35645C33.13 4.09832 33.5874 4.80507 33.9726 5.79492C34.2638 6.54197 34.6077 7.66511 34.7016 9.73265C34.8039 11.9696 34.8245 12.6392 34.8245 18.3014C34.8245 23.9616 34.8039 24.6332 34.7016 26.8702C34.6077 28.9377 34.2617 30.0609 33.9726 30.8079C33.5874 31.7978 33.129 32.5035 32.3875 33.2454C31.6461 33.9872 30.9398 34.446 29.9506 34.8314C29.204 35.1228 28.0815 35.4669 26.0153 35.5609C23.7817 35.6632 23.1105 35.6838 17.4518 35.6838C11.7951 35.6838 11.1239 35.6642 8.89036 35.5609" fill="white"/>
<path d="M13.1869 18.3756C13.1869 15.998 15.1126 14.0701 17.4888 14.0701C19.8649 14.0701 21.7917 15.998 21.7917 18.3756C21.7917 20.7533 19.8649 22.6812 17.4888 22.6812C15.1126 22.6812 13.1869 20.7533 13.1869 18.3756V18.3756ZM10.8608 18.3756C10.8608 22.0385 13.8281 25.0077 17.4888 25.0077C21.1494 25.0077 24.1167 22.0385 24.1167 18.3756C24.1167 14.7128 21.1494 11.7436 17.4888 11.7436C13.8281 11.7436 10.8609 14.7125 10.8609 18.3756H10.8608ZM22.8303 11.4806C22.8302 11.7872 22.9209 12.0869 23.091 12.3418C23.2611 12.5967 23.5029 12.7955 23.7859 12.9129C24.0689 13.0303 24.3803 13.0612 24.6808 13.0015C24.9813 12.9418 25.2573 12.7943 25.474 12.5776C25.6907 12.361 25.8384 12.0848 25.8983 11.7842C25.9581 11.4836 25.9276 11.172 25.8105 10.8887C25.6933 10.6055 25.4949 10.3633 25.2403 10.1929C24.9856 10.0225 24.6862 9.93149 24.3798 9.93137H24.3792C23.9686 9.93156 23.5748 10.0948 23.2844 10.3853C22.994 10.6758 22.8306 11.0697 22.8303 11.4806V11.4806ZM12.2741 28.8888C11.0156 28.8315 10.3316 28.6217 9.87704 28.4445C9.2744 28.2097 8.84442 27.9301 8.39234 27.4784C7.94026 27.0267 7.66042 26.5968 7.42684 25.9938C7.24965 25.5392 7.04003 24.8546 6.98282 23.5953C6.92024 22.2339 6.90775 21.825 6.90775 18.3758C6.90775 14.9267 6.92127 14.5189 6.98282 13.1564C7.04013 11.8971 7.2513 11.2138 7.42684 10.7579C7.66145 10.1549 7.94088 9.72462 8.39234 9.27226C8.8438 8.8199 9.27337 8.53989 9.87704 8.30616C10.3314 8.12886 11.0156 7.91911 12.2741 7.86186C13.6346 7.79925 14.0433 7.78675 17.4888 7.78675C20.9342 7.78675 21.3433 7.80008 22.705 7.86207C23.9635 7.91942 24.6464 8.13072 25.102 8.30637C25.7047 8.54009 26.1347 8.82072 26.5867 9.27246C27.0388 9.7242 27.3176 10.1551 27.5522 10.7581C27.7294 11.2127 27.9391 11.8973 27.9963 13.1566C28.0588 14.5191 28.0713 14.9269 28.0713 18.3761C28.0713 21.8252 28.0588 22.233 27.9963 23.5955C27.939 24.8548 27.7283 25.5392 27.5522 25.994C27.3176 26.597 27.0382 27.0273 26.5867 27.4786C26.1353 27.9299 25.7047 28.21 25.102 28.4447C24.6477 28.622 23.9635 28.8318 22.705 28.889C21.3445 28.9516 20.9357 28.9641 17.4888 28.9641C14.0418 28.9641 13.6342 28.9516 12.2741 28.889V28.8888ZM12.1672 5.53818C10.7931 5.60079 9.85411 5.81881 9.03411 6.13809C8.1854 6.4678 7.46598 6.91013 6.74759 7.62783C6.0292 8.34553 5.58827 9.0655 5.25876 9.91577C4.93968 10.7368 4.7218 11.6758 4.65922 13.0508C4.59561 14.4279 4.58105 14.8682 4.58105 18.3756C4.58105 21.8831 4.59561 22.3234 4.65922 23.7005C4.7218 25.0756 4.93968 26.0145 5.25876 26.8355C5.58827 27.6847 6.0293 28.4061 6.74759 29.1235C7.46588 29.8408 8.18437 30.2826 9.03411 30.6132C9.85566 30.9325 10.7931 31.1505 12.1672 31.2131C13.5442 31.2757 13.9834 31.2913 17.4888 31.2913C20.9941 31.2913 21.4341 31.2768 22.8104 31.2131C24.1846 31.1505 25.1229 30.9325 25.9434 30.6132C26.7921 30.2826 27.5116 29.8411 28.2299 29.1235C28.9483 28.4058 29.3883 27.6847 29.7188 26.8355C30.0379 26.0145 30.2568 25.0755 30.3183 23.7005C30.3809 22.3224 30.3954 21.8831 30.3954 18.3756C30.3954 14.8682 30.3809 14.4279 30.3183 13.0508C30.2557 11.6757 30.0379 10.7363 29.7188 9.91577C29.3883 9.06654 28.9472 8.34667 28.2299 7.62783C27.5127 6.909 26.7921 6.4678 25.9445 6.13809C25.1229 5.81881 24.1845 5.59976 22.8114 5.53818C21.4349 5.47525 20.9951 5.45996 17.4903 5.45996C13.9855 5.45996 13.5447 5.47453 12.1677 5.53818" fill="#0A0E30"/>
<defs>
<radialGradient id="paint0_radial_1098_160" cx="0" cy="0" r="1" gradientUnits="userSpaceOnUse" gradientTransform="translate(2.3287 34.9222) scale(44.1125 44.1397)">
<stop offset="0.09" stop-color="#FA8F21"/>
<stop offset="0.78" stop-color="#D82D7E"/>
</radialGradient>
</defs>
</svg>
