<svg width="179" height="180" viewBox="0 0 179 180" fill="none" xmlns="http://www.w3.org/2000/svg">
<path d="M145.45 162.906C109.667 162.238 84.7404 180.322 67.4983 179.996C50.2562 179.67 14.2196 169.075 15.7047 89.7328C17.1898 10.3905 66.127 -0.343796 85.0974 0.00814819C173.911 1.66953 208.83 164.091 145.45 162.906Z" fill="url(#paint0_linear_2052_4098)"/>
<path d="M168.518 27.6475H178.867V32.8231H168.518V27.6475Z" fill="#D4D8FF"/>
<path d="M138.764 27.6475H149.113V32.8231H138.764V27.6475Z" fill="#D4D8FF"/>
<path d="M156.875 9.53271H162.05V19.884H156.875V9.53271Z" fill="#D4D8FF"/>
<path d="M156.875 39.293H162.05V49.6442H156.875V39.293Z" fill="#D4D8FF"/>
<path d="M7.89682 157.038C3.61734 157.038 0.134766 153.554 0.134766 149.274C0.134766 144.994 3.61734 141.511 7.89682 141.511C12.1763 141.511 15.6589 144.994 15.6589 149.274C15.6589 153.554 12.1763 157.038 7.89682 157.038ZM7.89682 146.686C6.4686 146.686 5.30947 147.851 5.30947 149.274C5.30947 150.697 6.4686 151.862 7.89682 151.862C9.32503 151.862 10.4842 150.697 10.4842 149.274C10.4842 147.851 9.32503 146.686 7.89682 146.686Z" fill="#D4D8FF"/>
<path d="M91.5952 124.671L34.3965 94.4658V150.583C34.3965 156.633 39.3546 161.533 45.4761 161.533H147.963C154.085 161.533 159.043 156.633 159.043 150.583V94.4658L101.844 124.671C98.6308 126.33 94.8083 126.33 91.5952 124.671Z" fill="#F3F3F1"/>
<path d="M40.0083 77.5824C36.5404 79.526 34.3965 83.1667 34.3965 87.1032V94.4668L51.016 103.243V103.062V71.4067L40.0083 77.5824Z" fill="#F3F3F1"/>
<path d="M153.43 77.5824L142.422 71.4067V103.062V103.243L159.041 94.4668V87.1086C159.041 83.1667 156.897 79.5314 153.43 77.5824Z" fill="#F3F3F1"/>
<path d="M147.964 165.641H45.4767C37.0728 165.641 30.2422 158.891 30.2422 150.585V87.1045C30.2422 81.7008 33.1949 76.6858 37.9592 74.0086L48.9668 67.833L53.0663 74.9777L42.0586 81.1533C39.8926 82.3688 38.5519 84.6463 38.5519 87.1045V150.585C38.5519 154.358 41.6598 157.429 45.4767 157.429H147.964C151.781 157.429 154.888 154.358 154.888 150.585V87.1045C154.888 84.6463 153.548 82.3688 151.382 81.1533L140.374 74.9777L144.473 67.833L155.481 74.0086C160.245 76.6858 163.198 81.7008 163.198 87.1045V150.585C163.198 158.891 156.367 165.641 147.964 165.641Z" fill="#433ED1"/>
<path d="M96.7047 130.014C94.2838 130.014 91.874 129.445 89.6692 128.312L32.4316 98.0849L36.3483 90.8472L93.547 121.057C95.5081 122.059 97.9069 122.07 99.9123 121.036L157.072 90.8472L160.989 98.0849L103.79 128.295C101.569 129.445 99.1367 130.014 96.7047 130.014Z" fill="#433ED1"/>
<path d="M146.578 103.062H138.269V29.9947C138.269 24.868 135.161 20.6938 131.344 20.6938H62.0959C58.2789 20.6938 55.1711 24.868 55.1711 29.9947V103.062H46.8613V29.9947C46.8613 18.7071 53.6919 9.53271 62.0959 9.53271H131.344C139.748 9.53271 146.578 18.7071 146.578 29.9947V103.062Z" fill="#433ED1"/>
<path d="M67.9082 31.4565H125.538V38.5463H67.9082V31.4565Z" fill="#433ED1"/>
<path d="M67.9082 49.6436H125.538V56.7333H67.9082V49.6436Z" fill="#433ED1"/>
<path d="M67.9082 67.833H125.538V74.9228H67.9082V67.833Z" fill="#433ED1"/>
<path d="M67.9082 86.019H125.538V93.1088H67.9082V86.019Z" fill="#433ED1"/>
<defs>
<linearGradient id="paint0_linear_2052_4098" x1="96.7189" y1="180" x2="96.7189" y2="0" gradientUnits="userSpaceOnUse">
<stop stop-color="#F1F2FF"/>
<stop offset="1" stop-color="#F1F2FF" stop-opacity="0"/>
</linearGradient>
</defs>
</svg>
