<svg width="179" height="180" viewBox="0 0 179 180" fill="none" xmlns="http://www.w3.org/2000/svg">
<path d="M145.45 162.906C109.667 162.238 84.7404 180.322 67.4983 179.996C50.2562 179.67 14.2196 169.075 15.7047 89.7328C17.1898 10.3905 66.127 -0.343796 85.0974 0.00814819C173.911 1.66953 208.83 164.091 145.45 162.906Z" fill="url(#paint0_linear_2052_4514)"/>
<path d="M168.518 27.6475H178.867V32.8231H168.518V27.6475Z" fill="#D4D8FF"/>
<path d="M138.764 27.6475H149.113V32.8231H138.764V27.6475Z" fill="#D4D8FF"/>
<path d="M156.875 9.53271H162.05V19.884H156.875V9.53271Z" fill="#D4D8FF"/>
<path d="M156.875 39.293H162.05V49.6442H156.875V39.293Z" fill="#D4D8FF"/>
<path d="M7.89682 157.038C3.61734 157.038 0.134766 153.554 0.134766 149.274C0.134766 144.994 3.61734 141.511 7.89682 141.511C12.1763 141.511 15.6589 144.994 15.6589 149.274C15.6589 153.554 12.1763 157.038 7.89682 157.038ZM7.89682 146.686C6.4686 146.686 5.30947 147.851 5.30947 149.274C5.30947 150.697 6.4686 151.862 7.89682 151.862C9.32503 151.862 10.4842 150.697 10.4842 149.274C10.4842 147.851 9.32503 146.686 7.89682 146.686Z" fill="#D4D8FF"/>
<path d="M108.466 39.9999C101.67 39.9999 96.1426 34.3937 96.1426 27.5C96.1426 20.6062 101.67 15 108.466 15C115.262 15 120.79 20.6062 120.79 27.5C120.79 34.3937 115.262 39.9999 108.466 39.9999ZM108.466 24.375C106.765 24.375 105.385 25.7812 105.385 27.5C105.385 29.2187 106.765 30.6249 108.466 30.6249C110.167 30.6249 111.547 29.2187 111.547 27.5C111.547 25.7812 110.167 24.375 108.466 24.375Z" fill="#433ED1"/>
<path d="M108.466 90.0004C101.67 90.0004 96.1426 84.3942 96.1426 77.5005C96.1426 70.6067 101.67 65.0005 108.466 65.0005C115.262 65.0005 120.79 70.6067 120.79 77.5005C120.79 84.3942 115.262 90.0004 108.466 90.0004ZM108.466 74.3755C106.765 74.3755 105.385 75.7817 105.385 77.5005C105.385 79.2192 106.765 80.6254 108.466 80.6254C110.167 80.6254 111.547 79.2192 111.547 77.5005C111.547 75.7817 110.167 74.3755 108.466 74.3755Z" fill="#433ED1"/>
<path d="M65.3293 64.9994C58.5329 64.9994 53.0059 59.3932 53.0059 52.4995C53.0059 45.6057 58.5329 39.9995 65.3293 39.9995C72.1257 39.9995 77.6528 45.6057 77.6528 52.4995C77.6528 59.3932 72.1257 64.9994 65.3293 64.9994ZM65.3293 49.3745C63.6287 49.3745 62.2485 50.7807 62.2485 52.4995C62.2485 54.2182 63.6287 55.6245 65.3293 55.6245C67.03 55.6245 68.4102 54.2182 68.4102 52.4995C68.4102 50.7807 67.03 49.3745 65.3293 49.3745Z" fill="#433ED1"/>
<path d="M69.6836 60.5996L74.231 52.434L104.146 69.574L99.5985 77.7396L69.6836 60.5996Z" fill="#433ED1"/>
<path d="M69.7754 44.5305L99.5788 27.276L104.163 35.4228L74.3597 52.6774L69.7754 44.5305Z" fill="#433ED1"/>
<path d="M159.301 165H20.6623C18.1114 165 16.041 162.9 16.041 160.312V144.687C16.041 135.206 23.6384 127.5 32.9858 127.5H74.8855V136.875H32.9858C28.7403 136.875 25.2836 140.381 25.2836 144.687V155.625H154.68V144.687C154.68 140.381 151.223 136.875 146.978 136.875H105.078V127.5H146.978C156.325 127.5 163.923 135.206 163.923 144.687V160.312C163.923 162.9 161.852 165 159.301 165Z" fill="#433ED1"/>
<path d="M128.984 133.952L156.077 32.7355L164.996 35.1918L137.903 136.408L128.984 133.952Z" fill="#433ED1"/>
<path d="M15 35.1201L23.9191 32.6639L51.0115 133.88L42.0924 136.336L15 35.1201Z" fill="#433ED1"/>
<path d="M89.9774 146.25C79.7859 146.25 71.4922 137.837 71.4922 127.5C71.4922 117.162 79.7859 108.75 89.9774 108.75C100.169 108.75 108.463 117.162 108.463 127.5C108.463 137.837 100.169 146.25 89.9774 146.25ZM89.9774 118.125C84.8816 118.125 80.7348 122.331 80.7348 127.5C80.7348 132.669 84.8816 136.875 89.9774 136.875C95.0731 136.875 99.22 132.669 99.22 127.5C99.22 122.331 95.0731 118.125 89.9774 118.125Z" fill="#433ED1"/>
<defs>
<linearGradient id="paint0_linear_2052_4514" x1="96.7189" y1="180" x2="96.7189" y2="0" gradientUnits="userSpaceOnUse">
<stop stop-color="#F1F2FF"/>
<stop offset="1" stop-color="#F1F2FF" stop-opacity="0"/>
</linearGradient>
</defs>
</svg>
