<svg width="51" height="37" viewBox="0 0 51 37" fill="none" xmlns="http://www.w3.org/2000/svg">
<rect width="50" height="36" transform="translate(0.181641 0.571289)" fill="white"/>
<path d="M23.227 8.90461C21.9131 8.90461 20.8445 7.82073 20.8445 6.48795C20.8445 5.15516 21.9131 4.07129 23.227 4.07129C24.541 4.07129 25.6096 5.15516 25.6096 6.48795C25.6096 7.82073 24.541 8.90461 23.227 8.90461ZM23.227 5.88378C22.8982 5.88378 22.6314 6.15566 22.6314 6.48795C22.6314 6.82024 22.8982 7.09211 23.227 7.09211C23.5558 7.09211 23.8227 6.82024 23.8227 6.48795C23.8227 6.15566 23.5558 5.88378 23.227 5.88378Z" fill="#433ED1"/>
<path d="M23.227 18.5714C21.9131 18.5714 20.8445 17.4875 20.8445 16.1547C20.8445 14.8219 21.9131 13.738 23.227 13.738C24.541 13.738 25.6096 14.8219 25.6096 16.1547C25.6096 17.4875 24.541 18.5714 23.227 18.5714ZM23.227 15.5505C22.8982 15.5505 22.6314 15.8224 22.6314 16.1547C22.6314 16.487 22.8982 16.7589 23.227 16.7589C23.5558 16.7589 23.8227 16.487 23.8227 16.1547C23.8227 15.8224 23.5558 15.5505 23.227 15.5505Z" fill="#433ED1"/>
<path d="M14.8882 13.7379C13.5742 13.7379 12.5056 12.654 12.5056 11.3212C12.5056 9.98841 13.5742 8.90454 14.8882 8.90454C16.2021 8.90454 17.2707 9.98841 17.2707 11.3212C17.2707 12.654 16.2021 13.7379 14.8882 13.7379ZM14.8882 10.717C14.5594 10.717 14.2925 10.9889 14.2925 11.3212C14.2925 11.6535 14.5594 11.9254 14.8882 11.9254C15.2169 11.9254 15.4838 11.6535 15.4838 11.3212C15.4838 10.9889 15.2169 10.717 14.8882 10.717Z" fill="#433ED1"/>
<path d="M15.7292 12.8872L16.6084 11.3085L22.392 14.6223L21.5128 16.2009L15.7292 12.8872Z" fill="#433ED1"/>
<path d="M15.7468 9.78052L21.5088 6.44464L22.3951 8.0197L16.6331 11.3556L15.7468 9.78052Z" fill="#433ED1"/>
<path d="M33.0551 33.0713H6.25161C5.75842 33.0713 5.35815 32.6653 5.35815 32.165V29.1442C5.35815 27.3112 6.82699 25.8213 8.63414 25.8213H16.7348V27.6338H8.63414C7.81336 27.6338 7.14506 28.3117 7.14506 29.1442V31.2588H32.1617V29.1442C32.1617 28.3117 31.4934 27.6338 30.6726 27.6338H22.572V25.8213H30.6726C32.4797 25.8213 33.9486 27.3112 33.9486 29.1442V32.165C33.9486 32.6653 33.5483 33.0713 33.0551 33.0713Z" fill="#433ED1"/>
<path d="M27.1941 27.0686L32.432 7.50015L34.1563 7.97503L28.9185 27.5435L27.1941 27.0686Z" fill="#433ED1"/>
<path d="M5.15698 7.96118L6.88134 7.48631L12.1192 27.0548L10.3948 27.5296L5.15698 7.96118Z" fill="#433ED1"/>
<path d="M19.6527 29.4463C17.6823 29.4463 16.0789 27.8199 16.0789 25.8213C16.0789 23.8227 17.6823 22.1963 19.6527 22.1963C21.623 22.1963 23.2265 23.8227 23.2265 25.8213C23.2265 27.8199 21.623 29.4463 19.6527 29.4463ZM19.6527 24.0088C18.6675 24.0088 17.8658 24.822 17.8658 25.8213C17.8658 26.8206 18.6675 27.6338 19.6527 27.6338C20.6378 27.6338 21.4396 26.8206 21.4396 25.8213C21.4396 24.822 20.6378 24.0088 19.6527 24.0088Z" fill="#433ED1"/>
</svg>
