<svg width="281" height="63" viewBox="0 0 281 63" fill="none" xmlns="http://www.w3.org/2000/svg">
<path d="M103.767 52.98L99.5274 47.9C98.3541 48.1933 97.1541 48.34 95.9274 48.34C93.3141 48.34 90.9141 47.7266 88.7274 46.5C86.5408 45.2733 84.8074 43.58 83.5274 41.42C82.2474 39.2333 81.6074 36.7666 81.6074 34.02C81.6074 31.3 82.2474 28.86 83.5274 26.7C84.8074 24.5133 86.5408 22.8066 88.7274 21.58C90.9141 20.3533 93.3141 19.74 95.9274 19.74C98.5674 19.74 100.967 20.3533 103.127 21.58C105.314 22.8066 107.034 24.5133 108.287 26.7C109.567 28.86 110.207 31.3 110.207 34.02C110.207 36.5 109.674 38.7666 108.607 40.82C107.567 42.8466 106.141 44.5 104.327 45.78L110.727 52.98H103.767ZM87.3674 34.02C87.3674 35.8866 87.7274 37.5266 88.4474 38.94C89.1674 40.3533 90.1674 41.4466 91.4474 42.22C92.7541 42.9666 94.2474 43.34 95.9274 43.34C97.6074 43.34 99.0874 42.9666 100.367 42.22C101.647 41.4466 102.647 40.3533 103.367 38.94C104.087 37.5266 104.447 35.8866 104.447 34.02C104.447 32.1533 104.087 30.5266 103.367 29.14C102.647 27.7266 101.647 26.6466 100.367 25.9C99.0874 25.1533 97.6074 24.78 95.9274 24.78C94.2474 24.78 92.7541 25.1533 91.4474 25.9C90.1674 26.6466 89.1674 27.7266 88.4474 29.14C87.7274 30.5266 87.3674 32.1533 87.3674 34.02Z" fill="#433ED1"/>
<path d="M135.372 25.9V48.06H129.732V45.26C129.012 46.22 128.065 46.98 126.892 47.54C125.745 48.0733 124.492 48.34 123.132 48.34C121.398 48.34 119.865 47.98 118.532 47.26C117.198 46.5133 116.145 45.4333 115.372 44.02C114.625 42.58 114.252 40.8733 114.252 38.9V25.9H119.852V38.1C119.852 39.86 120.292 41.22 121.172 42.18C122.052 43.1133 123.252 43.58 124.772 43.58C126.318 43.58 127.532 43.1133 128.412 42.18C129.292 41.22 129.732 39.86 129.732 38.1V25.9H135.372Z" fill="#433ED1"/>
<path d="M139.457 36.9C139.457 34.66 139.897 32.6733 140.777 30.94C141.684 29.2066 142.897 27.8733 144.417 26.94C145.964 26.0066 147.684 25.54 149.577 25.54C151.23 25.54 152.67 25.8733 153.897 26.54C155.15 27.2066 156.15 28.0466 156.897 29.06V25.9H162.537V48.06H156.897V44.82C156.177 45.86 155.177 46.7266 153.897 47.42C152.644 48.0866 151.19 48.42 149.537 48.42C147.67 48.42 145.964 47.94 144.417 46.98C142.897 46.02 141.684 44.6733 140.777 42.94C139.897 41.18 139.457 39.1666 139.457 36.9ZM156.897 36.98C156.897 35.62 156.63 34.46 156.097 33.5C155.564 32.5133 154.844 31.7666 153.937 31.26C153.03 30.7266 152.057 30.46 151.017 30.46C149.977 30.46 149.017 30.7133 148.137 31.22C147.257 31.7266 146.537 32.4733 145.977 33.46C145.444 34.42 145.177 35.5666 145.177 36.9C145.177 38.2333 145.444 39.4066 145.977 40.42C146.537 41.4066 147.257 42.1666 148.137 42.7C149.044 43.2333 150.004 43.5 151.017 43.5C152.057 43.5 153.03 43.2466 153.937 42.74C154.844 42.2066 155.564 41.46 156.097 40.5C156.63 39.5133 156.897 38.34 156.897 36.98Z" fill="#433ED1"/>
<path d="M180.286 25.58C182.926 25.58 185.06 26.42 186.686 28.1C188.313 29.7533 189.126 32.0733 189.126 35.06V48.06H183.526V35.82C183.526 34.06 183.086 32.7133 182.206 31.78C181.326 30.82 180.126 30.34 178.606 30.34C177.06 30.34 175.833 30.82 174.926 31.78C174.046 32.7133 173.606 34.06 173.606 35.82V48.06H168.006V25.9H173.606V28.66C174.353 27.7 175.3 26.9533 176.446 26.42C177.62 25.86 178.9 25.58 180.286 25.58Z" fill="#433ED1"/>
<path d="M200.972 30.5V41.22C200.972 41.9666 201.145 42.5133 201.492 42.86C201.865 43.18 202.478 43.34 203.332 43.34H205.932V48.06H202.412C197.692 48.06 195.332 45.7666 195.332 41.18V30.5H192.692V25.9H195.332V20.42H200.972V25.9H205.932V30.5H200.972Z" fill="#433ED1"/>
<path d="M208.52 36.9C208.52 34.66 208.96 32.6733 209.84 30.94C210.746 29.2066 211.96 27.8733 213.48 26.94C215.026 26.0066 216.746 25.54 218.64 25.54C220.293 25.54 221.733 25.8733 222.96 26.54C224.213 27.2066 225.213 28.0466 225.96 29.06V25.9H231.6V48.06H225.96V44.82C225.24 45.86 224.24 46.7266 222.96 47.42C221.706 48.0866 220.253 48.42 218.6 48.42C216.733 48.42 215.026 47.94 213.48 46.98C211.96 46.02 210.746 44.6733 209.84 42.94C208.96 41.18 208.52 39.1666 208.52 36.9ZM225.96 36.98C225.96 35.62 225.693 34.46 225.16 33.5C224.626 32.5133 223.906 31.7666 223 31.26C222.093 30.7266 221.12 30.46 220.08 30.46C219.04 30.46 218.08 30.7133 217.2 31.22C216.32 31.7266 215.6 32.4733 215.04 33.46C214.506 34.42 214.24 35.5666 214.24 36.9C214.24 38.2333 214.506 39.4066 215.04 40.42C215.6 41.4066 216.32 42.1666 217.2 42.7C218.106 43.2333 219.066 43.5 220.08 43.5C221.12 43.5 222.093 43.2466 223 42.74C223.906 42.2066 224.626 41.46 225.16 40.5C225.693 39.5133 225.96 38.34 225.96 36.98Z" fill="#433ED1"/>
<path d="M242.669 18.46V48.06H237.069V18.46H242.669Z" fill="#433ED1"/>
<path d="M253.802 18.46V48.06H248.202V18.46H253.802Z" fill="#433ED1"/>
<path d="M280.535 25.9L266.815 58.54H260.855L265.655 47.5L256.775 25.9H263.055L268.775 41.38L274.575 25.9H280.535Z" fill="#433ED1"/>
<path fill-rule="evenodd" clip-rule="evenodd" d="M30.6591 22.1387C25.6769 22.1387 21.638 26.2002 21.638 31.2105C21.638 36.2207 25.6769 40.2822 30.6591 40.2822C35.6413 40.2822 39.6801 36.2207 39.6801 31.2105C39.6801 26.2002 35.6413 22.1387 30.6591 22.1387ZM15.624 31.2105C15.624 22.8601 22.3554 16.0908 30.6591 16.0908C38.9627 16.0908 45.6941 22.8601 45.6941 31.2105C45.6941 39.5608 38.9627 46.3301 30.6591 46.3301C22.3554 46.3301 15.624 39.5608 15.624 31.2105Z" fill="#433ED1"/>
<path d="M54.1136 59.2324C54.1136 59.2324 47.545 63.5632 30.6055 61.4464C36.419 60.7409 44.8921 59.2324 49.2022 56.9141C50.9061 57.922 52.2092 58.0228 54.1136 59.2324Z" fill="#433ED1"/>
<path fill-rule="evenodd" clip-rule="evenodd" d="M6.60289 31.2105C6.60289 17.8499 17.3732 7.01904 30.659 7.01904C43.9448 7.01904 54.7151 17.8499 54.7151 31.2105C54.7151 44.571 43.9448 55.4019 30.659 55.4019C17.3732 55.4019 6.60289 44.571 6.60289 31.2105ZM30.659 0.971191C14.0517 0.971191 0.588867 14.5098 0.588867 31.2105C0.588867 47.9111 14.0517 61.4497 30.659 61.4497C30.7912 61.4497 30.9231 61.4489 31.0549 61.4471V55.4019L47.7509 56.0932C55.5924 50.6358 60.7291 41.5264 60.7291 31.2105C60.7291 14.5098 47.2662 0.971191 30.659 0.971191Z" fill="#433ED1"/>
</svg>
