<svg width="51" height="37" viewBox="0 0 51 37" fill="none" xmlns="http://www.w3.org/2000/svg">
<rect width="50" height="36" transform="translate(0.181641 0.408936)" fill="white"/>
<path fill-rule="evenodd" clip-rule="evenodd" d="M18.4519 20.9633C19.5716 20.9633 20.4794 20.0449 20.4794 18.9119C20.4794 17.779 19.5716 16.8605 18.4519 16.8605C17.3321 16.8605 16.4243 17.779 16.4243 18.9119C16.4243 20.0449 17.3321 20.9633 18.4519 20.9633ZM18.4519 22.5094C20.4156 22.5094 22.0075 20.8987 22.0075 18.9119C22.0075 16.9251 20.4156 15.3145 18.4519 15.3145C16.4881 15.3145 14.8962 16.9251 14.8962 18.9119C14.8962 20.8987 16.4881 22.5094 18.4519 22.5094Z" fill="#433ED1"/>
<path fill-rule="evenodd" clip-rule="evenodd" d="M21.1136 22.7625L18.5592 20.4283L19.5834 19.2809L22.1378 21.6151L21.1136 22.7625Z" fill="#433ED1"/>
<path d="M18.7081 27.583C14.0451 27.583 10.2498 23.7888 10.2498 19.1246C10.2498 14.4604 14.0451 10.6663 18.7081 10.6663C23.371 10.6663 27.1664 14.4604 27.1664 19.1246C27.1664 23.7888 23.371 27.583 18.7081 27.583ZM18.7081 12.4788C15.0444 12.4788 12.0623 15.4597 12.0623 19.1246C12.0623 22.7895 15.0444 25.7705 18.7081 25.7705C22.3718 25.7705 25.3539 22.7895 25.3539 19.1246C25.3539 15.4597 22.3718 12.4788 18.7081 12.4788Z" fill="#433ED1"/>
<path d="M23.6189 25.3259L24.9005 24.0443L29.1179 28.2617L27.8363 29.5434L23.6189 25.3259Z" fill="#433ED1"/>
<path d="M8.28784 9.99097L9.56947 8.70933L13.7869 12.9268L12.5053 14.2084L8.28784 9.99097Z" fill="#433ED1"/>
<path d="M23.6208 12.9263L27.8383 8.70882L29.1199 9.99046L24.9025 14.2079L23.6208 12.9263Z" fill="#433ED1"/>
<path d="M8.28687 28.2576L12.5043 24.0401L13.7859 25.3218L9.5685 29.5392L8.28687 28.2576Z" fill="#433ED1"/>
<path d="M7.2286 33.6242C5.56231 33.6242 4.20776 32.2685 4.20776 30.6034C4.20776 28.9383 5.56231 27.5825 7.2286 27.5825C8.89489 27.5825 10.2494 28.9383 10.2494 30.6034C10.2494 32.2685 8.89489 33.6242 7.2286 33.6242ZM7.2286 29.395C6.5616 29.395 6.02026 29.9376 6.02026 30.6034C6.02026 31.2692 6.5616 31.8117 7.2286 31.8117C7.8956 31.8117 8.43693 31.2692 8.43693 30.6034C8.43693 29.9376 7.8956 29.395 7.2286 29.395Z" fill="#433ED1"/>
<path d="M7.2286 10.6662C5.56231 10.6662 4.20776 9.31046 4.20776 7.64536C4.20776 5.98027 5.56231 4.62451 7.2286 4.62451C8.89489 4.62451 10.2494 5.98027 10.2494 7.64536C10.2494 9.31046 8.89489 10.6662 7.2286 10.6662ZM7.2286 6.43702C6.5616 6.43702 6.02026 6.97957 6.02026 7.64536C6.02026 8.31116 6.5616 8.8537 7.2286 8.8537C7.8956 8.8537 8.43693 8.31116 8.43693 7.64536C8.43693 6.97957 7.8956 6.43702 7.2286 6.43702Z" fill="#433ED1"/>
<path d="M30.1873 10.666C28.521 10.666 27.1665 9.31021 27.1665 7.64512C27.1665 5.98003 28.521 4.62427 30.1873 4.62427C31.8536 4.62427 33.2082 5.98003 33.2082 7.64512C33.2082 9.31021 31.8536 10.666 30.1873 10.666ZM30.1873 6.43678C29.5203 6.43678 28.979 6.97932 28.979 7.64512C28.979 8.31092 29.5203 8.85346 30.1873 8.85346C30.8543 8.85346 31.3957 8.31092 31.3957 7.64512C31.3957 6.97932 30.8543 6.43678 30.1873 6.43678Z" fill="#433ED1"/>
<path d="M30.1876 33.6242C28.5213 33.6242 27.1667 32.2685 27.1667 30.6034C27.1667 28.9383 28.5213 27.5825 30.1876 27.5825C31.8539 27.5825 33.2084 28.9383 33.2084 30.6034C33.2084 32.2685 31.8539 33.6242 30.1876 33.6242ZM30.1876 29.395C29.5206 29.395 28.9792 29.9376 28.9792 30.6034C28.9792 31.2692 29.5206 31.8117 30.1876 31.8117C30.8546 31.8117 31.3959 31.2692 31.3959 30.6034C31.3959 29.9376 30.8546 29.395 30.1876 29.395Z" fill="#433ED1"/>
</svg>
