<svg width="193" height="180" viewBox="0 0 193 180" fill="none" xmlns="http://www.w3.org/2000/svg">
<path d="M150.641 147.99C157.447 116.331 178.525 98.1097 181.801 82.8537C185.077 67.5978 183.193 33.6642 113.006 18.5792C42.819 3.4942 23.252 44.3851 19.6417 61.1689C2.75155 139.748 138.587 204.067 150.641 147.99Z" fill="url(#paint0_linear_2052_4139)"/>
<path d="M161.465 33.592H170.829V38.2742H161.465V33.592Z" fill="#D4D8FF"/>
<path d="M134.541 33.592H143.905V38.2742H134.541V33.592Z" fill="#D4D8FF"/>
<path d="M150.928 17.2043H155.61V26.5686H150.928V17.2043Z" fill="#D4D8FF"/>
<path d="M150.928 44.1277H155.61V53.492H150.928V44.1277Z" fill="#D4D8FF"/>
<path d="M16.1326 150.646C12.2605 150.646 9.10938 147.495 9.10938 143.623C9.10938 139.75 12.2605 136.599 16.1326 136.599C20.0047 136.599 23.1558 139.75 23.1558 143.623C23.1558 147.495 20.0047 150.646 16.1326 150.646ZM16.1326 141.282C14.8403 141.282 13.7915 142.335 13.7915 143.623C13.7915 144.91 14.8403 145.964 16.1326 145.964C17.4249 145.964 18.4737 144.91 18.4737 143.623C18.4737 142.335 17.4249 141.282 16.1326 141.282Z" fill="#D4D8FF"/>
<path fill-rule="evenodd" clip-rule="evenodd" d="M95.2487 98.9559C100.702 98.9559 105.122 94.4833 105.122 88.966C105.122 83.4487 100.702 78.9761 95.2487 78.9761C89.7957 78.9761 85.3751 83.4487 85.3751 88.966C85.3751 94.4833 89.7957 98.9559 95.2487 98.9559ZM95.2487 106.485C104.812 106.485 112.564 98.6414 112.564 88.966C112.564 79.2905 104.812 71.447 95.2487 71.447C85.6859 71.447 77.9336 79.2905 77.9336 88.966C77.9336 98.6414 85.6859 106.485 95.2487 106.485Z" fill="#433ED1"/>
<path fill-rule="evenodd" clip-rule="evenodd" d="M108.206 107.717L95.7663 96.35L100.754 90.7624L113.194 102.13L108.206 107.717Z" fill="#433ED1"/>
<path d="M96.5069 131.193C73.7992 131.193 55.3164 112.716 55.3164 90.0027C55.3164 67.289 73.7992 48.812 96.5069 48.812C119.215 48.812 137.697 67.289 137.697 90.0027C137.697 112.716 119.215 131.193 96.5069 131.193ZM96.5069 57.6386C78.6655 57.6386 64.1429 72.1554 64.1429 90.0027C64.1429 107.85 78.6655 122.367 96.5069 122.367C114.348 122.367 128.871 107.85 128.871 90.0027C128.871 72.1554 114.348 57.6386 96.5069 57.6386Z" fill="#433ED1"/>
<path d="M120.412 120.202L126.653 113.96L147.191 134.498L140.95 140.74L120.412 120.202Z" fill="#433ED1"/>
<path d="M45.7559 45.5229L51.9972 39.2816L72.5352 59.8198L66.2939 66.0611L45.7559 45.5229Z" fill="#433ED1"/>
<path d="M120.43 59.8162L140.968 39.278L147.209 45.5193L126.671 66.0575L120.43 59.8162Z" fill="#433ED1"/>
<path d="M45.7461 134.478L66.2841 113.94L72.5254 120.181L51.9874 140.719L45.7461 134.478Z" fill="#433ED1"/>
<path d="M40.5976 160.611C32.4831 160.611 25.8867 154.009 25.8867 145.9C25.8867 137.791 32.4831 131.189 40.5976 131.189C48.7121 131.189 55.3085 137.791 55.3085 145.9C55.3085 154.009 48.7121 160.611 40.5976 160.611ZM40.5976 140.016C37.3494 140.016 34.7132 142.658 34.7132 145.9C34.7132 149.142 37.3494 151.785 40.5976 151.785C43.8458 151.785 46.482 149.142 46.482 145.9C46.482 142.658 43.8458 140.016 40.5976 140.016Z" fill="#433ED1"/>
<path d="M40.5976 48.8126C32.4831 48.8126 25.8867 42.2103 25.8867 34.1016C25.8867 25.9929 32.4831 19.3906 40.5976 19.3906C48.7121 19.3906 55.3085 25.9929 55.3085 34.1016C55.3085 42.2103 48.7121 48.8126 40.5976 48.8126ZM40.5976 28.2172C37.3494 28.2172 34.7132 30.8593 34.7132 34.1016C34.7132 37.3439 37.3494 39.986 40.5976 39.986C43.8458 39.986 46.482 37.3439 46.482 34.1016C46.482 30.8593 43.8458 28.2172 40.5976 28.2172Z" fill="#433ED1"/>
<path d="M152.4 48.8101C144.286 48.8101 137.689 42.2079 137.689 34.0992C137.689 25.9905 144.286 19.3882 152.4 19.3882C160.515 19.3882 167.111 25.9905 167.111 34.0992C167.111 42.2079 160.515 48.8101 152.4 48.8101ZM152.4 28.2148C149.152 28.2148 146.516 30.8569 146.516 34.0992C146.516 37.3415 149.152 39.9836 152.4 39.9836C155.649 39.9836 158.285 37.3415 158.285 34.0992C158.285 30.8569 155.649 28.2148 152.4 28.2148Z" fill="#433ED1"/>
<path d="M152.4 160.611C144.286 160.611 137.689 154.009 137.689 145.9C137.689 137.791 144.286 131.189 152.4 131.189C160.515 131.189 167.111 137.791 167.111 145.9C167.111 154.009 160.515 160.611 152.4 160.611ZM152.4 140.016C149.152 140.016 146.516 142.658 146.516 145.9C146.516 149.142 149.152 151.785 152.4 151.785C155.649 151.785 158.285 149.142 158.285 145.9C158.285 142.658 155.649 140.016 152.4 140.016Z" fill="#433ED1"/>
<defs>
<linearGradient id="paint0_linear_2052_4139" x1="175.767" y1="108.595" x2="17.2329" y2="71.4046" gradientUnits="userSpaceOnUse">
<stop stop-color="#F1F2FF"/>
<stop offset="1" stop-color="#F1F2FF" stop-opacity="0"/>
</linearGradient>
</defs>
</svg>
