<svg width="338" height="320" viewBox="0 0 338 320" fill="none" xmlns="http://www.w3.org/2000/svg">
<path fill-rule="evenodd" clip-rule="evenodd" d="M249.099 30.9601L249.015 31.0425C246.704 28.854 244.47 26.8603 242.157 24.8665C237.454 20.8958 232.403 17.357 227.065 14.2933C222.007 11.3941 216.715 8.92381 211.245 6.9083C203.718 4.08959 195.869 2.2189 187.88 1.3393C185.826 1.10789 183.751 0.980143 181.671 0.852034C180.849 0.801419 180.026 0.750747 179.203 0.693604H168.065C166.961 0.830252 165.844 0.958687 164.724 1.08747C161.543 1.45309 158.338 1.82149 155.353 2.38852C138.982 5.56934 123.642 12.7196 110.68 23.2119C108.763 24.7774 106.937 26.4332 105.105 28.0948C104.197 28.9174 103.289 29.7414 102.367 30.5565L101.882 30.9601H102.084L108.581 37.4977C109.792 38.7083 110.962 39.9593 112.133 41.2103C120.434 32.8717 130.301 26.2551 141.167 21.7402C152.033 17.2253 163.684 14.9012 175.45 14.9012C187.217 14.9012 198.867 17.2253 209.733 21.7402C220.599 26.2551 230.466 32.8717 238.768 41.2103L242.521 37.4573L249.015 31.0425L249.099 31.1215V30.9601ZM132.955 61.8723L122.584 51.5414C133.961 39.9882 148.85 32.5367 164.917 30.3548C176.415 28.6301 188.158 29.6385 199.193 33.2984C210.229 36.9582 220.247 43.1665 228.436 51.4203L218.024 61.7916C206.75 50.5297 191.466 44.2039 175.53 44.2039C159.595 44.2039 144.311 50.5297 133.036 61.7916L132.955 61.8723ZM197.202 82.5342L207.573 72.2032C203.373 67.95 198.37 64.5737 192.854 62.2706C187.338 59.9675 181.419 58.7834 175.442 58.7872C169.464 58.7909 163.547 59.9825 158.034 62.2925C152.521 64.6026 147.522 67.9851 143.327 72.2436L153.658 82.5342C159.433 76.7603 167.264 73.5166 175.43 73.5166C183.596 73.5166 191.427 76.7603 197.202 82.5342Z" fill="url(#paint0_linear_960_439)"/>
<path fill-rule="evenodd" clip-rule="evenodd" d="M36.1683 248.527C36.1857 248.457 36.2514 248.415 36.3152 248.434L58.3896 255.072L72.8584 258.187L72.8591 258.187L91.0247 261.983L107.954 269.978L120.214 273.228L139.954 279.864L156.309 281.567C156.375 281.574 156.423 281.639 156.417 281.712C156.411 281.784 156.352 281.838 156.287 281.831L139.907 280.124L120.151 273.483L107.879 270.23L90.9546 262.237L72.8139 258.446L72.8133 258.446L58.3352 255.329L36.2523 248.689C36.1886 248.67 36.1509 248.598 36.1683 248.527Z" fill="url(#paint1_radial_960_439)"/>
<path fill-rule="evenodd" clip-rule="evenodd" d="M55.1149 244.127C55.1362 244.058 55.2042 244.021 55.2668 244.044L64.0124 247.343L71.5763 250.991L85.5358 254.875L94.8 258.403L104.61 259.228L135.434 273.129C135.495 273.157 135.525 273.234 135.5 273.302C135.475 273.369 135.405 273.402 135.344 273.374L104.555 259.488L94.7511 258.664L85.4674 255.129L71.4986 251.242L63.9257 247.59L55.1894 244.295C55.1269 244.271 55.0935 244.196 55.1149 244.127Z" fill="url(#paint2_radial_960_439)"/>
<path fill-rule="evenodd" clip-rule="evenodd" d="M237.901 227.683C237.927 227.615 237.997 227.584 238.058 227.612L243.646 230.198L261.551 237.178L269.985 239.041L326.905 266.285C326.965 266.314 326.993 266.392 326.967 266.459C326.94 266.526 326.87 266.557 326.809 266.527L269.914 239.295L261.487 237.433L243.56 230.445L237.966 227.856C237.905 227.827 237.876 227.75 237.901 227.683Z" fill="url(#paint3_radial_960_439)"/>
<path fill-rule="evenodd" clip-rule="evenodd" d="M152.086 201.083C152.124 201.023 152.198 201.008 152.252 201.05L162.598 209.049L169.494 213.81L178.121 219.718L184.51 224.677L190.712 230.576L204.657 237.992L216.208 241.039L228.123 246.189L236.399 250.95L248.285 255.326L258.454 257.801L258.455 257.801L268.293 260.089L274.879 262.769L284.556 273.076C284.604 273.126 284.605 273.21 284.559 273.263C284.513 273.315 284.438 273.317 284.39 273.266L274.749 262.998L268.227 260.344L258.404 258.06L258.403 258.059L248.221 255.581L236.305 251.194L228.024 246.43L216.136 241.292L204.576 238.242L190.58 230.799L184.363 224.886L177.989 219.939L169.368 214.035L162.464 209.268L152.115 201.267C152.061 201.225 152.048 201.142 152.086 201.083Z" fill="url(#paint4_radial_960_439)"/>
<path fill-rule="evenodd" clip-rule="evenodd" d="M137.583 202.828C137.605 202.759 137.674 202.724 137.736 202.749L152.588 208.662L160.703 215.909L167.779 220.484L180.889 234.393L202.264 249.245L202.265 249.245L220.197 261.434L232.082 267.903L266.739 278.187C266.803 278.206 266.841 278.278 266.823 278.349C266.806 278.419 266.741 278.461 266.677 278.442L231.998 268.151L220.081 261.666L202.139 249.47L202.138 249.469L180.74 234.602L167.634 220.696L160.567 216.127L152.469 208.896L137.655 202.997C137.593 202.973 137.56 202.897 137.583 202.828Z" fill="url(#paint5_radial_960_439)"/>
<path fill-rule="evenodd" clip-rule="evenodd" d="M126.194 206.853C126.204 206.781 126.266 206.732 126.331 206.743L143.601 209.795L151.734 215.147L159.66 221.998L171.893 227.327L181.047 232.096L186.396 236.099L194.483 240.85L201.725 242.755L210.352 247.329L221.225 250.951L227.802 255.73L234.674 262.751H240.162L255.191 267.14L273.309 275.717C273.37 275.745 273.398 275.823 273.372 275.89C273.346 275.957 273.276 275.988 273.215 275.96L255.113 267.39L240.131 263.016H234.58L227.654 255.939L221.123 251.193L210.265 247.576L201.644 243.005L194.398 241.1L186.272 236.326L180.928 232.327L171.798 227.57L159.54 222.23L151.598 215.365L143.518 210.048L126.293 207.004C126.228 206.993 126.183 206.925 126.194 206.853Z" fill="url(#paint6_radial_960_439)"/>
<path fill-rule="evenodd" clip-rule="evenodd" d="M110.669 218.876C110.669 218.803 110.723 218.744 110.789 218.744H127.039L139.311 228.099L149.12 234.181L159.134 236.279L169.153 245.056L177.937 250.383L177.94 250.385L188.802 256.478L188.803 256.479L197.774 261.434L206.055 266.769L206.056 266.77L214.844 272.289L233.626 280.474L251.726 284.472C251.791 284.486 251.833 284.556 251.82 284.628C251.807 284.699 251.744 284.746 251.679 284.731L233.558 280.728L214.741 272.529L205.937 266.999L205.936 266.998L197.66 261.666L188.695 256.715L188.694 256.715L177.825 250.616L169.02 245.277L159.031 236.527L149.037 234.433L139.184 228.323L126.965 219.008H110.789C110.723 219.008 110.669 218.949 110.669 218.876Z" fill="url(#paint7_radial_960_439)"/>
<path fill-rule="evenodd" clip-rule="evenodd" d="M118.432 212.589C118.432 212.516 118.485 212.457 118.551 212.457H130.129L140.692 216.856L147.592 223.715L162.064 230.186L173.279 235.712L184.157 241.624L197.097 252.868L211.053 262.384L224.322 268.475L237.938 273.615L262.079 279.901C262.143 279.917 262.183 279.989 262.168 280.06C262.153 280.131 262.089 280.175 262.024 280.158L237.872 273.87L224.237 268.722L210.944 262.62L196.959 253.086L184.028 241.849L173.178 235.952L161.969 230.428L147.463 223.943L140.565 217.086L130.085 212.721H118.551C118.485 212.721 118.432 212.662 118.432 212.589Z" fill="url(#paint8_radial_960_439)"/>
<path fill-rule="evenodd" clip-rule="evenodd" d="M101.885 223.05C101.898 222.978 101.961 222.932 102.026 222.947L117.929 226.547L132.41 233.175L143.482 241.232L162.623 249.862L194.806 266.844L210.947 277.484L226.44 281.367L241.561 288.421C241.622 288.45 241.65 288.527 241.624 288.595C241.599 288.662 241.528 288.693 241.468 288.665L226.367 281.619L210.857 277.732L194.693 267.077L162.526 250.103L143.37 241.467L132.297 233.409L117.859 226.8L101.978 223.206C101.913 223.191 101.872 223.121 101.885 223.05Z" fill="url(#paint9_radial_960_439)"/>
<path fill-rule="evenodd" clip-rule="evenodd" d="M93.4512 227.642C93.4767 227.574 93.5468 227.543 93.6078 227.571L101.462 231.202H109.517L119.054 234.848L128.796 237.082L134.115 244.374L145.261 249.017L152.05 252.462L159.382 257.726L159.385 257.728L166.877 262.774L179.692 266.616L187.764 270.669L198.018 276.332L198.022 276.334L206.061 280.37L217.983 282.193L223.513 287.08L227.262 292.022C227.305 292.078 227.298 292.161 227.248 292.208C227.197 292.255 227.121 292.247 227.079 292.191L223.345 287.27L217.884 282.445L205.994 280.627L197.915 276.57L187.661 270.907L187.657 270.905L179.61 266.865L166.782 263.019L159.257 257.951L159.254 257.949L151.935 252.694L145.169 249.261L133.969 244.596L128.664 237.322L118.99 235.104L109.477 231.467H101.414L93.5154 227.815C93.4544 227.786 93.4257 227.709 93.4512 227.642Z" fill="url(#paint10_radial_960_439)"/>
<path fill-rule="evenodd" clip-rule="evenodd" d="M161.218 282.696C161.232 282.624 161.295 282.579 161.36 282.595L172.364 285.228L202.416 301.016C202.476 301.047 202.501 301.126 202.473 301.192C202.444 301.258 202.373 301.286 202.313 301.254L172.286 285.48L161.309 282.853C161.245 282.837 161.204 282.767 161.218 282.696Z" fill="url(#paint11_radial_960_439)"/>
<path fill-rule="evenodd" clip-rule="evenodd" d="M76.0459 236.557C76.0646 236.487 76.1311 236.447 76.1945 236.468L104.216 245.571L118.895 249.422L126.782 256.918L137.217 262.58L144.553 268.252L151.13 273.498L161.743 276.732L169.62 280.981L184.085 285.431L191.606 288.672L210.655 297.979C210.716 298.009 210.743 298.087 210.716 298.154C210.69 298.22 210.619 298.251 210.559 298.221L191.514 288.917L184.01 285.682L169.534 281.229L161.658 276.981L151.024 273.74L144.414 268.467L144.413 268.466L137.095 262.808L126.649 257.14L118.783 249.664L104.152 245.826L76.127 236.722C76.0635 236.701 76.0273 236.627 76.0459 236.557Z" fill="url(#paint12_radial_960_439)"/>
<path fill-rule="evenodd" clip-rule="evenodd" d="M69.2883 239.306C69.3099 239.237 69.378 239.2 69.4405 239.224L86.49 245.727L96.0537 249.384L109.562 253.453L127.486 267.284L127.488 267.286L137.655 274.863L151.002 280.408L160.943 282.577L165.748 285.163L194.212 306.303C194.267 306.344 194.282 306.426 194.245 306.487C194.208 306.547 194.133 306.564 194.079 306.523L165.629 285.392L160.866 282.83L150.937 280.663L137.544 275.099L127.352 267.503L127.35 267.502L109.459 253.696L95.983 249.636L86.4119 245.977L69.3624 239.474C69.2999 239.45 69.2668 239.375 69.2883 239.306Z" fill="url(#paint13_radial_960_439)"/>
<path fill-rule="evenodd" clip-rule="evenodd" d="M23.4303 251.194C23.4689 251.135 23.5437 251.122 23.5974 251.164L31.9321 257.798L38.4136 261.715L45.8575 263.872L58.4759 261.707H72.6159L86.9898 268.628L86.9909 268.628L102.31 276.209L114.564 278.645L130.625 282.166L143.504 283.385L152.602 284.744L162.939 290.86L169.691 297.912L185.999 311.32C186.052 311.364 186.063 311.446 186.024 311.505C185.984 311.564 185.909 311.576 185.856 311.532L169.537 298.115L162.797 291.076L152.527 284.999L143.478 283.648L130.592 282.428L114.519 278.905L114.517 278.904L102.239 276.463L86.8942 268.87L86.8931 268.869L72.566 261.971H58.4944L45.845 264.142L38.3245 261.963L31.8042 258.022L23.4574 251.379C23.4038 251.336 23.3917 251.253 23.4303 251.194Z" fill="url(#paint14_radial_960_439)"/>
<path fill-rule="evenodd" clip-rule="evenodd" d="M11.3979 256.499C11.4259 256.433 11.4971 256.405 11.557 256.435L24.1776 262.932L34.8232 265.229H55.0599L66.4738 267.263L75.3151 268.348L85.8831 272.284L103.188 281.502L112.495 287.319L121.664 289.023H145.125L160.606 301.848L160.61 301.851L177.605 314.65C177.66 314.691 177.674 314.773 177.636 314.833C177.599 314.894 177.525 314.909 177.47 314.868L160.467 302.063L145.045 289.287H121.644L112.414 287.572L103.077 281.737L85.7925 272.529L75.2631 268.608L66.4385 267.525L55.0408 265.494H34.8L24.103 263.185L11.4559 256.675C11.396 256.644 11.37 256.566 11.3979 256.499Z" fill="url(#paint15_radial_960_439)"/>
<path fill-rule="evenodd" clip-rule="evenodd" d="M45.4096 247.858C45.449 247.917 45.4379 248 45.3848 248.043L37.9168 254.171L15.951 267.716C15.8933 267.751 15.8204 267.728 15.7882 267.665C15.7559 267.601 15.7766 267.52 15.8343 267.485L37.7865 253.949L45.2421 247.831C45.2952 247.788 45.3701 247.8 45.4096 247.858Z" fill="url(#paint16_radial_960_439)"/>
<path fill-rule="evenodd" clip-rule="evenodd" d="M152.166 208.542H179.286C179.352 208.542 179.406 208.601 179.406 208.674C179.406 208.747 179.352 208.807 179.286 208.807H152.188L143.232 210.624L134.462 213.853L127.701 218.696L119.821 225.376L110.454 230.854L102.569 232.474L88.1114 238.134L80.4176 241.776L59.5333 249.668L59.532 249.668L45.0837 255.325L36.4977 263.396L28.81 272.898C28.7659 272.953 28.6903 272.957 28.641 272.909C28.5917 272.86 28.5875 272.776 28.6315 272.722L36.3301 263.206L44.9621 255.092L59.4533 249.419L59.4546 249.418L80.3317 241.529L88.0242 237.888L102.507 232.218L110.375 230.601L119.691 225.153L127.563 218.48L134.357 213.612L143.172 210.367L152.166 208.542Z" fill="url(#paint17_radial_960_439)"/>
<path fill-rule="evenodd" clip-rule="evenodd" d="M87.4255 245.032C87.4443 245.102 87.4082 245.176 87.3448 245.197L61.3721 253.712L46.0215 263.199L37.6114 276.527C37.5736 276.587 37.499 276.602 37.4448 276.56C37.3906 276.519 37.3773 276.436 37.4151 276.376L45.8566 262.998L61.2785 253.467L87.2767 244.943C87.3401 244.923 87.4067 244.962 87.4255 245.032Z" fill="url(#paint18_radial_960_439)"/>
<path fill-rule="evenodd" clip-rule="evenodd" d="M194.423 211.278C194.437 211.349 194.395 211.419 194.331 211.434L186.451 213.256L177.463 214.674H169.033L151.828 216.089L143.608 218.107L134.472 222.951L127.698 228.411L116.869 235.303L102.756 238.745L88.2937 244.811L88.2916 244.812L78.5836 248.656L78.5831 248.656L69.2605 252.291L61.951 258.75L55.5484 264.811L46.0294 276.943C45.9862 276.998 45.9106 277.004 45.8606 276.956C45.8107 276.909 45.8053 276.825 45.8486 276.77L55.3791 264.623L61.7999 258.544L69.1426 252.056L78.5028 248.407L78.5034 248.407L88.2087 244.564L88.2108 244.563L102.687 238.491L116.782 235.054L127.567 228.189L134.348 222.723L143.529 217.856L151.793 215.827L169.024 214.41H177.446L186.409 212.995L194.282 211.175C194.346 211.16 194.41 211.206 194.423 211.278Z" fill="url(#paint19_radial_960_439)"/>
<path fill-rule="evenodd" clip-rule="evenodd" d="M202.846 216.327C202.864 216.397 202.827 216.47 202.763 216.49L194.874 218.922L175.439 220.137L160.619 220.137L153.493 222.357L153.491 222.357L143.8 225.589L127.136 237.118L114.671 242.585L114.669 242.585L90.6783 252.7L74.3908 261.19L61.395 271.703C61.3417 271.746 61.2668 271.733 61.2277 271.674C61.1887 271.615 61.2002 271.533 61.2536 271.49L74.2679 260.961L90.5845 252.456L114.582 242.339L114.584 242.339L127.028 236.881L143.701 225.346L153.424 222.103L153.426 222.103L160.586 219.872H175.439L194.835 218.659L202.699 216.235C202.763 216.216 202.829 216.257 202.846 216.327Z" fill="url(#paint20_radial_960_439)"/>
<path fill-rule="evenodd" clip-rule="evenodd" d="M181.413 225.625C181.436 225.694 181.403 225.769 181.341 225.794L160.828 233.886L152.772 237.526L152.771 237.527L145.44 240.766L133.159 245.017L125.276 247.447L118.329 248.659L109.385 253.901L101.511 261.991L93.4244 267.269L82.4244 270.104L72.9073 274.147C72.8456 274.174 72.7764 274.14 72.7526 274.071C72.7289 274.003 72.7597 273.927 72.8214 273.901L82.3539 269.851L93.3343 267.021L101.367 261.778L109.245 253.683L118.252 248.405L125.225 247.188L133.095 244.763L145.359 240.517L152.681 237.282L152.682 237.281L160.745 233.638L181.26 225.545C181.323 225.52 181.391 225.556 181.413 225.625Z" fill="url(#paint21_radial_960_439)"/>
<path fill-rule="evenodd" clip-rule="evenodd" d="M212.004 219.156C212.023 219.226 211.988 219.3 211.925 219.322L195.793 224.789L180.771 226.003L169.785 229.238L160.264 231.463L145.432 236.115L135.17 239.353L121.627 242.992L113.218 247.434L103.518 253.903L96.0019 259.573L84.4291 265.254H76.0225L69.279 271.696C69.229 271.744 69.1535 271.738 69.1102 271.683C69.067 271.627 69.0725 271.544 69.1224 271.496L75.9334 264.99H84.3783L95.8849 259.341L103.391 253.679L113.104 247.201L121.547 242.742L135.109 239.098L135.113 239.096L145.366 235.861L160.207 231.206L169.733 228.98L180.731 225.741L195.748 224.527L211.854 219.069C211.918 219.047 211.985 219.087 212.004 219.156Z" fill="url(#paint22_radial_960_439)"/>
<path fill-rule="evenodd" clip-rule="evenodd" d="M220.278 222.221C220.296 222.291 220.26 222.364 220.196 222.385L210.453 225.531L210.45 225.532L200.707 228.346L200.705 228.347L194.56 230.002L194.558 230.003L187.37 231.822L178.234 235.462L178.232 235.463L169.532 238.776L161.294 240.762L152.612 245.226L152.61 245.227L143.753 249.538L134.623 251.191L127.286 257.145L117.849 260.62L110.06 268.562L102.973 272.059H90.2158L83.046 273.214L77.3654 276.021C77.305 276.051 77.2342 276.021 77.2072 275.954C77.1802 275.888 77.2073 275.81 77.2676 275.78L82.9786 272.958L90.1985 271.795H102.922L109.926 268.338L117.725 260.387L127.175 256.907L134.527 250.941L143.684 249.283L152.511 244.986L152.514 244.985L161.217 240.51L169.467 238.521L178.153 235.213L178.154 235.213L187.303 231.568L194.503 229.746L194.505 229.745L200.647 228.09L200.649 228.09L210.386 225.277L210.39 225.276L220.129 222.131C220.193 222.111 220.259 222.151 220.278 222.221Z" fill="url(#paint23_radial_960_439)"/>
<path fill-rule="evenodd" clip-rule="evenodd" d="M228.743 224.765C228.765 224.833 228.732 224.909 228.67 224.934L217.971 229.164L210.932 234.789L206.414 237.284L193.362 240.433L186.613 242.586L179.712 243.746L179.711 243.746L170.43 245.4L161.297 249.038L161.296 249.038L155.317 251.35L149.923 255.652L139.721 260.293L139.717 260.294L129.687 265.255L121.16 271.534L114.4 278.669L93.5339 284.307C93.4697 284.324 93.4049 284.281 93.3892 284.21C93.3735 284.139 93.4128 284.067 93.477 284.05L114.281 278.429L121.01 271.327L129.571 265.023L139.626 260.05L149.806 255.42L155.205 251.113L161.216 248.789L161.217 248.789L170.369 245.143L179.674 243.485L179.675 243.485L186.562 242.327L193.303 240.176L206.333 237.033L210.808 234.562L217.859 228.928L228.59 224.685C228.652 224.66 228.72 224.696 228.743 224.765Z" fill="url(#paint24_radial_960_439)"/>
<path fill-rule="evenodd" clip-rule="evenodd" d="M238.266 227.852C238.283 227.922 238.246 227.995 238.182 228.015L228.454 230.99L220.514 236.12L210.315 240.096L210.31 240.098L202.814 243.41L194.706 245.898L186.021 247.221L177.787 251.19L168.949 254.499L153.364 263.934L144.67 268.569L135.677 273.371L135.676 273.371L127.726 277.513L121.889 280.158L115.603 284.456L115.602 284.457L107.06 290.416C107.004 290.455 106.93 290.437 106.894 290.375C106.859 290.313 106.876 290.232 106.932 290.193L115.476 284.232L115.476 284.232L121.78 279.921L127.632 277.27L135.573 273.133L135.574 273.132L144.566 268.331L153.257 263.697L168.852 254.256L177.701 250.943L185.955 246.964L194.658 245.638L202.738 243.159L210.231 239.849L220.413 235.879L228.36 230.745L238.118 227.76C238.182 227.74 238.248 227.782 238.266 227.852Z" fill="url(#paint25_radial_960_439)"/>
<path fill-rule="evenodd" clip-rule="evenodd" d="M261.649 231.829C261.665 231.899 261.626 231.971 261.562 231.989L251.978 234.635L244.188 238.441L236.698 241.089L227.708 246.55L218.864 250.358L210.613 255.329L202.809 257.484L202.804 257.486L193.518 260.464L186.178 263.276L186.177 263.277L177.939 266.586L169.404 270.886L160.558 276.351L153.051 279.833L144.218 282.645L137.34 287.599L137.338 287.601L127.447 295.049C127.393 295.091 127.318 295.075 127.281 295.015C127.244 294.954 127.258 294.872 127.313 294.831L137.205 287.381L137.207 287.379L144.117 282.401L152.971 279.584L160.453 276.113L169.295 270.65L177.848 266.341L186.096 263.028L186.098 263.027L193.449 260.21L202.746 257.229L210.526 255.081L218.763 250.118L227.606 246.31L236.603 240.845L244.103 238.194L251.9 234.384L261.503 231.732C261.568 231.715 261.633 231.758 261.649 231.829Z" fill="url(#paint26_radial_960_439)"/>
<path fill-rule="evenodd" clip-rule="evenodd" d="M250.716 228.672C250.734 228.742 250.698 228.815 250.634 228.836L236.697 233.308L228.91 237.94L219.918 242.409L211.812 247.715L201.901 249.705L194.271 251.688L187.231 255.328L177.497 258.802L170.157 264.262L158.908 269.729L144.524 277.507L135.535 283.134L119.649 293.894C119.592 293.932 119.519 293.913 119.484 293.85C119.449 293.788 119.467 293.707 119.523 293.669L135.415 282.905L144.412 277.274L158.809 269.488L170.041 264.029L177.391 258.562L187.143 255.082L194.192 251.437L201.855 249.446L211.727 247.463L219.808 242.174L228.804 237.702L236.605 233.062L250.567 228.582C250.631 228.561 250.697 228.602 250.716 228.672Z" fill="url(#paint27_radial_960_439)"/>
<path fill-rule="evenodd" clip-rule="evenodd" d="M286.702 241.828H294.809C294.875 241.828 294.928 241.887 294.928 241.96C294.928 242.033 294.875 242.092 294.809 242.092H286.727L277.299 244.241L270.26 246.392L270.258 246.392L262.482 248.87L253.064 255.474L245.567 263.756L235.21 270.056C235.152 270.091 235.079 270.068 235.047 270.004C235.015 269.94 235.036 269.86 235.094 269.824L245.422 263.542L252.914 255.267L262.382 248.626L270.193 246.138L270.195 246.137L277.243 243.984L286.702 241.828Z" fill="url(#paint28_radial_960_439)"/>
<path fill-rule="evenodd" clip-rule="evenodd" d="M304.942 247.807C304.955 247.879 304.913 247.949 304.848 247.963L296.219 249.869L286.894 251.014H278.967L269.512 253.482L261.43 258.8L253.826 265.864L236.377 269.871L236.376 269.871L227.586 271.965L220.006 274.629L211.401 278.241L210.313 279.137C210.26 279.181 210.185 279.169 210.145 279.11C210.106 279.052 210.117 278.969 210.17 278.925L211.284 278.007L219.93 274.378L227.524 271.71L236.326 269.613L236.327 269.612L253.718 265.618L261.291 258.584L269.422 253.234L278.939 250.749H286.88L296.182 249.608L304.801 247.704C304.866 247.689 304.929 247.736 304.942 247.807Z" fill="url(#paint29_radial_960_439)"/>
<path fill-rule="evenodd" clip-rule="evenodd" d="M310.107 251.894C310.13 251.963 310.098 252.039 310.036 252.064L301.173 255.721L286.547 256.9H278.037L269.546 260.417L263.565 265.49L253.429 266.787L245.231 271.961L236.159 275.026L236.158 275.027L228.363 277.739L210.661 279.035L196.183 282.092L184.991 287.155L175.611 289.274L165.291 293.975L148.671 305.625C148.615 305.664 148.541 305.646 148.505 305.584C148.47 305.522 148.487 305.441 148.542 305.402L165.18 293.739L175.541 289.02L184.921 286.901L196.115 281.837L210.631 278.772L228.319 277.478L236.087 274.774L236.088 274.774L245.136 271.717L253.353 266.53L263.471 265.236L269.429 260.183L277.994 256.636H286.539L301.121 255.46L309.953 251.817C310.015 251.791 310.083 251.826 310.107 251.894Z" fill="url(#paint30_radial_960_439)"/>
<path fill-rule="evenodd" clip-rule="evenodd" d="M325.62 258.935C325.638 259.006 325.601 259.079 325.537 259.098L317.2 261.656L317.198 261.657L310.887 263.502L299.572 264.117L299.566 264.117H287.719L278.924 265.855L269.583 266.877L253.473 274.956L243.826 277.825L233.55 280.176L223.735 284.677L210.099 289.185L192.215 290.618L180.004 293.479L169.64 297.976L160.394 302.368L152.625 309.518C152.575 309.565 152.499 309.557 152.457 309.501C152.415 309.445 152.421 309.362 152.472 309.315L160.267 302.14L169.551 297.731L179.935 293.225L192.181 290.355L210.056 288.923L223.655 284.427L233.48 279.923L243.77 277.567L253.392 274.706L269.52 266.618L278.891 265.593L287.698 263.852H299.566L310.85 263.239L317.135 261.401L317.137 261.401L325.473 258.843C325.537 258.824 325.603 258.865 325.62 258.935Z" fill="url(#paint31_radial_960_439)"/>
<path fill-rule="evenodd" clip-rule="evenodd" d="M320.99 257.103C321.004 257.174 320.962 257.244 320.897 257.258L302.543 261.354H292.075L275.034 265.241L261.62 266.365L246.432 275.673L222.322 280.488L210.196 281.715L198.347 286.315L191.655 288.266L179.689 287.549H169.888L160.744 290.304L152.611 294.796L144.188 301.441C144.134 301.483 144.06 301.469 144.021 301.41C143.983 301.35 143.995 301.268 144.049 301.225L152.487 294.568L160.658 290.056L169.856 287.285H179.698L191.63 288L198.277 286.063L210.144 281.454L222.29 280.225L246.351 275.421L261.549 266.106L275 264.979L292.05 261.09H302.519L320.849 256.999C320.914 256.985 320.977 257.031 320.99 257.103Z" fill="url(#paint32_radial_960_439)"/>
<path fill-rule="evenodd" clip-rule="evenodd" d="M270.686 233.865C270.704 233.936 270.667 234.009 270.604 234.029L261.723 236.787L253.759 241.493L245.059 244.764L236.17 252.026L227.643 256.12L219.758 261.654L212.139 263.296L212.138 263.296L203.061 265.137L203.059 265.138L194.82 266.979L185.762 269.531L177.993 274.945L169.735 280.275L161.378 282.839L153.051 284.576L143.256 289.781L135.114 296.731C135.062 296.775 134.987 296.765 134.946 296.707C134.906 296.649 134.916 296.566 134.968 296.521L143.13 289.555L152.975 284.323L161.323 282.581L169.641 280.029L177.871 274.718L185.666 269.285L194.769 266.72L203.014 264.878L203.016 264.878L212.093 263.036L212.095 263.036L219.668 261.404L227.531 255.886L236.049 251.795L244.947 244.527L253.663 241.249L261.633 236.541L270.539 233.774C270.602 233.754 270.669 233.795 270.686 233.865Z" fill="url(#paint33_radial_960_439)"/>
<path fill-rule="evenodd" clip-rule="evenodd" d="M281.619 236.535C281.633 236.606 281.592 236.676 281.527 236.691L270.057 239.348L262.281 244.051L253.58 247.118L244.708 254.264L235.989 263.178L227.996 266.668L219.834 269.229L212.048 271.072L212.047 271.072L203.246 273.017L203.242 273.017L194.279 274.65L186.139 280.065L177.79 284.062L173.227 285.707H165.715L156.299 287.645L139.551 299.194C139.495 299.233 139.421 299.214 139.386 299.152C139.351 299.09 139.368 299.008 139.424 298.97L156.211 287.394L165.693 285.443H173.189L177.705 283.814L186.03 279.83L194.195 274.398L203.199 272.757L203.203 272.757L211.998 270.814L212 270.813L219.776 268.973L227.919 266.417L235.859 262.95L244.556 254.059L253.471 246.879L262.186 243.807L269.973 239.097L281.478 236.432C281.542 236.417 281.606 236.463 281.619 236.535Z" fill="url(#paint34_radial_960_439)"/>
<path fill-rule="evenodd" clip-rule="evenodd" d="M143.824 201.119H169.915L178.636 207.999L185.974 208.623L194.147 211.381L202.298 216.008L237.522 227.525H247.645L247.669 227.536C248.513 227.96 250.696 228.647 253.698 229.483C256.695 230.317 260.495 231.297 264.565 232.309C272.703 234.332 281.913 236.48 287.91 237.841L287.927 237.844L303.9 247.096L312.646 253.966L329.364 260.193L337.103 263.567L318.824 268.615L300.135 266.464H294.342L286.184 272.471L272.359 276.128L243.375 287.945L219.255 294.391L203.707 301.045L188.927 309.853L170.005 319.549L160.658 314.909L160.653 314.907L152.372 309.77L144.45 301.894L134.971 296.535L109.846 292.035L96.5848 286.526L96.5797 286.523L69.2087 271.782H61.1037L42.0642 278.291L10.5364 265.764L0.407227 256.762H10.5794L18.2476 254.396L26.069 249.513L45.0999 247.761L84.9209 233.516L94.0851 227.143L110.044 219.267L127.26 205.755L143.824 201.119ZM143.854 201.383L127.362 205.999L110.163 219.497L94.1983 227.376L85.0231 233.757L45.1473 248.022L26.1411 249.771L18.34 254.642L10.6122 257.027H1.08652L10.6552 265.53L42.0699 278.012L61.0675 271.517H69.264L96.6796 286.283L109.908 291.778L135.047 296.281L144.587 301.675L152.513 309.554L160.761 314.671L170.003 319.258L188.816 309.618L188.823 309.615L203.607 300.805L219.183 294.138L243.305 287.692L272.289 275.874L286.087 272.225L294.269 266.2H300.148L318.807 268.347L336.321 263.511L329.282 260.441L329.276 260.439L312.536 254.204L303.775 247.322L287.846 238.096C281.847 236.735 272.645 234.588 264.512 232.566C260.442 231.555 256.639 230.574 253.639 229.739C250.672 228.913 248.478 228.225 247.594 227.789H237.487L202.208 216.254L194.057 211.627L185.929 208.884L178.551 208.257L169.838 201.383H143.854Z" fill="url(#paint35_radial_960_439)"/>
<path fill-rule="evenodd" clip-rule="evenodd" d="M332.756 261.634C332.773 261.704 332.735 261.777 332.671 261.795L316.716 266.369L295.591 265.039L289.424 266.36L284.513 270.249L271.802 272.709L261.985 275.982L245.132 280.176L228.551 288.259L228.542 288.261C224.685 289.352 215.998 291.659 212.133 292.152L203.336 293.891L203.335 293.891L194.644 295.525L177.339 305.031L161.13 315.16C161.073 315.195 161 315.173 160.967 315.11C160.935 315.046 160.955 314.965 161.012 314.929L177.23 304.796L194.569 295.271L203.293 293.631L203.294 293.631L212.098 291.891L212.101 291.89C215.942 291.401 224.606 289.101 228.473 288.008L245.057 279.923L261.924 275.726L271.747 272.451L284.418 269.999L289.327 266.112L295.574 264.773L316.692 266.103L332.611 261.539C332.675 261.521 332.74 261.563 332.756 261.634Z" fill="url(#paint36_radial_960_439)"/>
<path fill-rule="evenodd" clip-rule="evenodd" d="M84.4724 233.318C84.4924 233.248 84.5597 233.209 84.6227 233.232L92.1326 235.862L101.836 239.097L113.926 242.335L119.052 243.953L128.413 246.385L143.636 257.933L150.407 263.188L159.544 268.638L169.251 270.863L184.276 279.364L193.978 282.801L201.311 285.636L218.078 294.465C218.138 294.497 218.163 294.576 218.134 294.642C218.106 294.707 218.035 294.735 217.975 294.704L201.22 285.881L193.902 283.052L193.899 283.051L184.185 279.609L169.17 271.115L159.461 268.889L150.281 263.414L143.499 258.15L143.498 258.149L128.315 246.631L118.989 244.208L113.863 242.59L101.77 239.352L92.0602 236.114L84.5503 233.484C84.4873 233.462 84.4524 233.387 84.4724 233.318Z" fill="url(#paint37_radial_960_439)"/>
<path fill-rule="evenodd" clip-rule="evenodd" d="M164.476 201.133C164.52 201.078 164.595 201.073 164.645 201.121L178.543 214.611L187.386 219.263L202.137 229.271L212.223 233.681H222.345L232.056 239.044L246.593 243.698L263.663 249.983L263.665 249.984L273.796 253.481L278.026 256.518L284.97 261.631L296.338 266.282C296.4 266.307 296.432 266.383 296.409 266.452C296.386 266.52 296.317 266.555 296.255 266.53L284.86 261.868L277.894 256.739L277.893 256.738L273.693 253.722L263.592 250.235L263.589 250.235L246.522 243.95L246.517 243.949L231.968 239.291L222.288 233.945H212.177L202.029 229.508L187.272 219.495L178.41 214.834L164.487 201.319C164.437 201.271 164.432 201.188 164.476 201.133Z" fill="url(#paint38_radial_960_439)"/>
<path fill-rule="evenodd" clip-rule="evenodd" d="M179.002 207.912C179.032 207.847 179.104 207.821 179.163 207.854L202.341 220.887L211.605 224.608L211.608 224.609L221.084 228.098L230.147 230.426L238.586 233.456L253.761 239.974L253.764 239.976L269.565 246.259L269.569 246.26L282.007 250.684L316.791 268.381C316.851 268.412 316.877 268.49 316.849 268.556C316.822 268.623 316.751 268.652 316.691 268.621L281.92 250.931L269.488 246.509L253.68 240.223L253.677 240.222L238.505 233.705L230.082 230.681L221.019 228.353L211.526 224.858L202.245 221.13L179.054 208.089C178.995 208.056 178.972 207.977 179.002 207.912Z" fill="url(#paint39_radial_960_439)"/>
<path d="M89.8286 251.297L84.0635 107.998L174.217 109.635L264.37 107.998L258.94 251.297H89.8286Z" fill="#D3D5FF"/>
<path d="M90.7717 100.421L84.1367 108.021H93.4174L90.7717 100.421Z" fill="#858585"/>
<path d="M84.1582 107.915L90.7934 100.347C140.553 97.7473 222.879 99.3771 257.822 100.517L264.289 107.915L174.003 109.568L84.1582 107.915Z" fill="#BBBEFF"/>
<path d="M104.757 240.19L100.012 122.244L174.215 123.592L248.417 122.244L243.948 240.19H104.757Z" fill="white"/>
<path d="M82.1421 251.297H264.213V254.857H82.1421V251.297Z" fill="#A5A8D8"/>
<path d="M75.6533 255.057C75.6533 254.947 75.7429 254.857 75.8533 254.857H270.491C270.601 254.857 270.691 254.947 270.691 255.057V259.9H75.6533V255.057Z" fill="#787BA7"/>
<path d="M134.032 138.293L134.032 133.348C134.032 132.243 133.137 131.348 132.032 131.348L131.513 131.348C130.408 131.348 129.513 132.243 129.513 133.348L129.513 138.293C129.513 139.397 130.408 140.293 131.513 140.293L132.032 140.293C133.137 140.293 134.032 139.397 134.032 138.293Z" fill="#383838"/>
<path d="M122.974 138.293L122.974 133.348C122.974 132.243 122.078 131.348 120.974 131.348L120.454 131.348C119.35 131.348 118.454 132.243 118.454 133.348L118.454 138.293C118.454 139.397 119.35 140.293 120.454 140.293L120.974 140.293C122.078 140.293 122.974 139.397 122.974 138.293Z" fill="#383838"/>
<path d="M111.917 138.293L111.917 133.348C111.917 132.243 111.022 131.348 109.917 131.348L109.397 131.348C108.293 131.348 107.397 132.243 107.397 133.348L107.397 138.293C107.397 139.397 108.293 140.293 109.397 140.293L109.917 140.293C111.022 140.293 111.917 139.397 111.917 138.293Z" fill="#383838"/>
<path d="M158.093 135.801C158.097 136.302 157.952 136.792 157.676 137.209C157.401 137.627 157.007 137.953 156.546 138.146C156.084 138.339 155.576 138.391 155.085 138.294C154.594 138.198 154.143 137.957 153.789 137.603C153.435 137.249 153.195 136.798 153.098 136.307C153.001 135.817 153.053 135.308 153.246 134.846C153.439 134.385 153.765 133.991 154.183 133.716C154.6 133.44 155.091 133.295 155.591 133.299C156.253 133.304 156.887 133.569 157.355 134.037C157.823 134.505 158.088 135.139 158.093 135.801V135.801Z" fill="#BCBCBC"/>
<path d="M171.067 135.801C171.071 136.301 170.926 136.79 170.651 137.207C170.377 137.624 169.984 137.951 169.524 138.144C169.063 138.338 168.556 138.391 168.065 138.296C167.575 138.201 167.124 137.962 166.769 137.61C166.415 137.258 166.173 136.809 166.074 136.319C165.975 135.83 166.024 135.322 166.214 134.86C166.404 134.398 166.727 134.003 167.143 133.725C167.558 133.447 168.046 133.299 168.545 133.299C169.211 133.299 169.849 133.562 170.322 134.03C170.794 134.499 171.062 135.136 171.067 135.801V135.801Z" fill="#BCBCBC"/>
<path d="M197.018 135.801C197.022 136.302 196.876 136.792 196.601 137.209C196.325 137.627 195.932 137.953 195.47 138.146C195.008 138.339 194.5 138.391 194.009 138.294C193.518 138.198 193.067 137.957 192.713 137.603C192.359 137.249 192.119 136.798 192.022 136.307C191.925 135.817 191.977 135.308 192.17 134.846C192.363 134.385 192.69 133.991 193.107 133.716C193.525 133.44 194.015 133.295 194.515 133.299C195.177 133.304 195.811 133.569 196.279 134.037C196.748 134.505 197.013 135.139 197.018 135.801V135.801Z" fill="#18FD73"/>
<path d="M209.992 135.801C209.996 136.301 209.851 136.79 209.576 137.207C209.301 137.624 208.909 137.951 208.449 138.144C207.988 138.338 207.481 138.391 206.99 138.296C206.5 138.201 206.049 137.962 205.694 137.61C205.34 137.258 205.097 136.809 204.999 136.319C204.9 135.83 204.949 135.322 205.139 134.86C205.329 134.398 205.652 134.003 206.067 133.725C206.482 133.447 206.971 133.299 207.47 133.299C208.136 133.299 208.774 133.562 209.247 134.03C209.719 134.499 209.987 135.136 209.992 135.801Z" fill="#18FD73"/>
<path d="M184.042 135.801C184.046 136.301 183.901 136.79 183.626 137.207C183.351 137.624 182.959 137.951 182.498 138.144C182.038 138.338 181.53 138.391 181.04 138.296C180.55 138.201 180.098 137.962 179.744 137.61C179.389 137.258 179.147 136.809 179.048 136.319C178.95 135.83 178.998 135.322 179.189 134.86C179.379 134.398 179.702 134.003 180.117 133.725C180.532 133.447 181.021 133.299 181.52 133.299C182.186 133.299 182.824 133.562 183.296 134.03C183.769 134.499 184.037 135.136 184.042 135.801Z" fill="#18FD73"/>
<path d="M222.968 135.801C222.971 136.301 222.827 136.79 222.552 137.207C222.277 137.624 221.885 137.951 221.424 138.144C220.964 138.338 220.456 138.391 219.966 138.296C219.475 138.201 219.024 137.962 218.67 137.61C218.315 137.258 218.073 136.809 217.974 136.319C217.875 135.83 217.924 135.322 218.114 134.86C218.305 134.398 218.628 134.003 219.043 133.725C219.458 133.447 219.946 133.299 220.446 133.299C221.111 133.299 221.75 133.562 222.222 134.03C222.695 134.499 222.962 135.136 222.968 135.801Z" fill="#18FD73"/>
<path d="M235.944 135.801C235.947 136.302 235.802 136.792 235.527 137.209C235.251 137.627 234.857 137.953 234.396 138.146C233.934 138.339 233.426 138.391 232.935 138.294C232.444 138.198 231.993 137.957 231.639 137.603C231.285 137.249 231.045 136.798 230.948 136.307C230.851 135.817 230.903 135.308 231.096 134.846C231.289 134.385 231.615 133.991 232.033 133.716C232.451 133.44 232.941 133.295 233.441 133.299C234.103 133.304 234.737 133.569 235.205 134.037C235.673 134.505 235.939 135.139 235.944 135.801V135.801Z" fill="#18FD73"/>
<path d="M124.682 20.9711V104.221H116.731V18.7295L124.682 20.9711Z" fill="#363A7A"/>
<path d="M116.702 18.864L114.415 15.905L122.35 18.1466L124.681 20.971L116.702 18.864Z" fill="#2C2F67"/>
<path d="M114.504 101.76V15.9498L116.791 18.9089V104.136L114.504 101.76Z" fill="#21255A"/>
<path d="M221.663 20.9711V104.221H229.613V18.7295L221.663 20.9711Z" fill="#363A7A"/>
<path d="M229.642 18.864L231.929 15.905L223.994 18.1466L221.663 20.971L229.642 18.864Z" fill="#2C2F67"/>
<path d="M231.84 101.76V15.9498L229.553 18.9089V104.136L231.84 101.76Z" fill="#21255A"/>
<path fill-rule="evenodd" clip-rule="evenodd" d="M174.214 171.057C171.096 171.057 168.568 173.595 168.568 176.725C168.568 179.855 171.096 182.393 174.214 182.393C177.333 182.393 179.861 179.855 179.861 176.725C179.861 173.595 177.333 171.057 174.214 171.057ZM164.804 176.725C164.804 171.508 169.017 167.278 174.214 167.278C179.411 167.278 183.625 171.508 183.625 176.725C183.625 181.942 179.411 186.172 174.214 186.172C169.017 186.172 164.804 181.942 164.804 176.725Z" fill="#433ED1"/>
<path fill-rule="evenodd" clip-rule="evenodd" d="M174.214 161.61C165.898 161.61 159.157 168.378 159.157 176.725C159.157 185.073 165.898 191.84 174.214 191.84C182.53 191.84 189.271 185.073 189.271 176.725C189.271 168.378 182.53 161.61 174.214 161.61ZM155.393 176.725C155.393 166.291 163.819 157.832 174.214 157.832C184.609 157.832 193.036 166.291 193.036 176.725C193.036 187.16 184.609 195.619 174.214 195.619C163.819 195.619 155.393 187.16 155.393 176.725Z" fill="#433ED1"/>
<path d="M174.277 191.84L184.942 192.281C184.942 192.281 182.872 193.793 179.798 194.8C176.724 195.808 174.277 195.619 174.277 195.619V191.84Z" fill="white"/>
<path d="M188.895 194.234C188.895 194.234 184.817 196.816 174.215 195.493C177.854 195.053 183.123 194.234 185.821 192.785C186.888 193.415 187.703 193.478 188.895 194.234Z" fill="#433ED1"/>
<path d="M147.72 215.467L146.266 213.729C145.864 213.829 145.453 213.879 145.033 213.879C144.137 213.879 143.314 213.669 142.565 213.25C141.815 212.83 141.221 212.251 140.783 211.512C140.344 210.763 140.125 209.92 140.125 208.98C140.125 208.049 140.344 207.214 140.783 206.475C141.221 205.727 141.815 205.143 142.565 204.724C143.314 204.304 144.137 204.094 145.033 204.094C145.937 204.094 146.76 204.304 147.5 204.724C148.25 205.143 148.839 205.727 149.269 206.475C149.708 207.214 149.927 208.049 149.927 208.98C149.927 209.828 149.744 210.604 149.379 211.306C149.022 212 148.533 212.565 147.912 213.003L150.105 215.467H147.72ZM142.099 208.98C142.099 209.618 142.222 210.18 142.469 210.663C142.716 211.147 143.058 211.521 143.497 211.785C143.945 212.041 144.457 212.168 145.033 212.168C145.608 212.168 146.116 212.041 146.554 211.785C146.993 211.521 147.336 211.147 147.583 210.663C147.829 210.18 147.953 209.618 147.953 208.98C147.953 208.341 147.829 207.785 147.583 207.31C147.336 206.827 146.993 206.457 146.554 206.202C146.116 205.946 145.608 205.819 145.033 205.819C144.457 205.819 143.945 205.946 143.497 206.202C143.058 206.457 142.716 206.827 142.469 207.31C142.222 207.785 142.099 208.341 142.099 208.98Z" fill="#433ED1"/>
<path d="M158.552 206.202V213.783H156.619V212.825C156.372 213.154 156.047 213.414 155.645 213.605C155.252 213.788 154.823 213.879 154.357 213.879C153.763 213.879 153.237 213.756 152.78 213.51C152.323 213.254 151.962 212.885 151.697 212.401C151.441 211.908 151.313 211.325 151.313 210.649V206.202H153.232V210.376C153.232 210.978 153.383 211.443 153.685 211.772C153.986 212.091 154.398 212.251 154.919 212.251C155.449 212.251 155.865 212.091 156.166 211.772C156.468 211.443 156.619 210.978 156.619 210.376V206.202H158.552Z" fill="#433ED1"/>
<path d="M159.952 209.965C159.952 209.199 160.103 208.519 160.404 207.926C160.715 207.333 161.131 206.877 161.652 206.558C162.182 206.238 162.772 206.079 163.42 206.079C163.987 206.079 164.481 206.193 164.901 206.421C165.331 206.649 165.673 206.936 165.929 207.283V206.202H167.862V213.783H165.929V212.675C165.683 213.031 165.34 213.327 164.901 213.564C164.472 213.792 163.973 213.907 163.407 213.907C162.767 213.907 162.182 213.742 161.652 213.414C161.131 213.085 160.715 212.625 160.404 212.032C160.103 211.429 159.952 210.741 159.952 209.965ZM165.929 209.993C165.929 209.527 165.838 209.13 165.655 208.802C165.472 208.464 165.226 208.209 164.915 208.036C164.604 207.853 164.27 207.762 163.914 207.762C163.558 207.762 163.229 207.848 162.927 208.022C162.625 208.195 162.379 208.451 162.187 208.788C162.004 209.117 161.912 209.509 161.912 209.965C161.912 210.421 162.004 210.823 162.187 211.169C162.379 211.507 162.625 211.767 162.927 211.95C163.238 212.132 163.567 212.223 163.914 212.223C164.27 212.223 164.604 212.137 164.915 211.963C165.226 211.781 165.472 211.525 165.655 211.197C165.838 210.859 165.929 210.458 165.929 209.993Z" fill="#433ED1"/>
<path d="M173.946 206.092C174.851 206.092 175.582 206.38 176.139 206.954C176.697 207.52 176.976 208.314 176.976 209.336V213.783H175.056V209.596C175.056 208.993 174.905 208.533 174.604 208.213C174.302 207.885 173.891 207.721 173.37 207.721C172.84 207.721 172.419 207.885 172.109 208.213C171.807 208.533 171.656 208.993 171.656 209.596V213.783H169.737V206.202H171.656V207.146C171.912 206.818 172.237 206.562 172.63 206.38C173.032 206.188 173.471 206.092 173.946 206.092Z" fill="#433ED1"/>
<path d="M181.036 207.776V211.443C181.036 211.699 181.095 211.886 181.214 212.004C181.342 212.114 181.552 212.168 181.844 212.168H182.735V213.783H181.529C179.911 213.783 179.102 212.999 179.102 211.429V207.776H178.198V206.202H179.102V204.327H181.036V206.202H182.735V207.776H181.036Z" fill="#433ED1"/>
<path d="M183.622 209.965C183.622 209.199 183.773 208.519 184.075 207.926C184.386 207.333 184.801 206.877 185.322 206.558C185.853 206.238 186.442 206.079 187.091 206.079C187.658 206.079 188.151 206.193 188.572 206.421C189.001 206.649 189.344 206.936 189.6 207.283V206.202H191.533V213.783H189.6V212.675C189.353 213.031 189.01 213.327 188.572 213.564C188.142 213.792 187.644 213.907 187.077 213.907C186.437 213.907 185.853 213.742 185.322 213.414C184.801 213.085 184.386 212.625 184.075 212.032C183.773 211.429 183.622 210.741 183.622 209.965ZM189.6 209.993C189.6 209.527 189.508 209.13 189.326 208.802C189.143 208.464 188.896 208.209 188.585 208.036C188.275 207.853 187.941 207.762 187.585 207.762C187.228 207.762 186.899 207.848 186.597 208.022C186.296 208.195 186.049 208.451 185.857 208.788C185.674 209.117 185.583 209.509 185.583 209.965C185.583 210.421 185.674 210.823 185.857 211.169C186.049 211.507 186.296 211.767 186.597 211.95C186.908 212.132 187.237 212.223 187.585 212.223C187.941 212.223 188.275 212.137 188.585 211.963C188.896 211.781 189.143 211.525 189.326 211.197C189.508 210.859 189.6 210.458 189.6 209.993Z" fill="#433ED1"/>
<path d="M195.327 203.656V213.783H193.407V203.656H195.327Z" fill="#433ED1"/>
<path d="M199.142 203.656V213.783H197.223V203.656H199.142Z" fill="#433ED1"/>
<path d="M208.305 206.202L203.603 217.369H201.56L203.205 213.592L200.161 206.202H202.314L204.274 211.498L206.262 206.202H208.305Z" fill="#433ED1"/>
<defs>
<linearGradient id="paint0_linear_960_439" x1="175.49" y1="0.693604" x2="175.49" y2="82.5342" gradientUnits="userSpaceOnUse">
<stop stop-color="#191A20"/>
<stop offset="0.0001" stop-color="#AAADFF"/>
<stop offset="0.903125" stop-color="#F2F3FF"/>
</linearGradient>
<radialGradient id="paint1_radial_960_439" cx="0" cy="0" r="1" gradientUnits="userSpaceOnUse" gradientTransform="translate(96.2907 265.13) rotate(90) scale(16.7009 60.1267)">
<stop offset="0.147917" stop-color="white"/>
<stop offset="1" stop-color="#0F1DA3"/>
</radialGradient>
<radialGradient id="paint2_radial_960_439" cx="0" cy="0" r="1" gradientUnits="userSpaceOnUse" gradientTransform="translate(95.3086 258.711) rotate(90) scale(14.6734 40.2002)">
<stop offset="0.147917" stop-color="white"/>
<stop offset="1" stop-color="#0F1DA3"/>
</radialGradient>
<radialGradient id="paint3_radial_960_439" cx="0" cy="0" r="1" gradientUnits="userSpaceOnUse" gradientTransform="translate(282.434 247.07) rotate(90) scale(19.4685 44.5423)">
<stop offset="0.147917" stop-color="white"/>
<stop offset="1" stop-color="#0F1DA3"/>
</radialGradient>
<radialGradient id="paint4_radial_960_439" cx="0" cy="0" r="1" gradientUnits="userSpaceOnUse" gradientTransform="translate(218.328 237.165) rotate(90) scale(36.1385 66.2644)">
<stop offset="0.147917" stop-color="white"/>
<stop offset="1" stop-color="#0F1DA3"/>
</radialGradient>
<radialGradient id="paint5_radial_960_439" cx="0" cy="0" r="1" gradientUnits="userSpaceOnUse" gradientTransform="translate(202.202 240.594) rotate(90) scale(37.8531 64.6259)">
<stop offset="0.147917" stop-color="white"/>
<stop offset="1" stop-color="#0F1DA3"/>
</radialGradient>
<radialGradient id="paint6_radial_960_439" cx="0" cy="0" r="1" gradientUnits="userSpaceOnUse" gradientTransform="translate(199.787 241.356) rotate(90) scale(34.6144 73.5947)">
<stop offset="0.147917" stop-color="white"/>
<stop offset="1" stop-color="#0F1DA3"/>
</radialGradient>
<radialGradient id="paint7_radial_960_439" cx="0" cy="0" r="1" gradientUnits="userSpaceOnUse" gradientTransform="translate(181.246 251.739) rotate(90) scale(32.9951 70.5763)">
<stop offset="0.147917" stop-color="white"/>
<stop offset="1" stop-color="#0F1DA3"/>
</radialGradient>
<radialGradient id="paint8_radial_960_439" cx="0" cy="0" r="1" gradientUnits="userSpaceOnUse" gradientTransform="translate(190.302 246.309) rotate(90) scale(33.8524 71.8699)">
<stop offset="0.147917" stop-color="white"/>
<stop offset="1" stop-color="#0F1DA3"/>
</radialGradient>
<radialGradient id="paint9_radial_960_439" cx="0" cy="0" r="1" gradientUnits="userSpaceOnUse" gradientTransform="translate(171.758 255.81) rotate(90) scale(32.8656 69.8758)">
<stop offset="0.147917" stop-color="white"/>
<stop offset="1" stop-color="#0F1DA3"/>
</radialGradient>
<radialGradient id="paint10_radial_960_439" cx="0" cy="0" r="1" gradientUnits="userSpaceOnUse" gradientTransform="translate(160.366 259.9) rotate(90) scale(32.3391 66.9242)">
<stop offset="0.147917" stop-color="white"/>
<stop offset="1" stop-color="#0F1DA3"/>
</radialGradient>
<radialGradient id="paint11_radial_960_439" cx="0" cy="0" r="1" gradientUnits="userSpaceOnUse" gradientTransform="translate(181.849 291.929) rotate(90) scale(9.3378 20.6346)">
<stop offset="0.147917" stop-color="white"/>
<stop offset="1" stop-color="#0F1DA3"/>
</radialGradient>
<radialGradient id="paint12_radial_960_439" cx="0" cy="0" r="1" gradientUnits="userSpaceOnUse" gradientTransform="translate(143.384 267.347) rotate(90) scale(30.8849 67.3428)">
<stop offset="0.147917" stop-color="white"/>
<stop offset="1" stop-color="#0F1DA3"/>
</radialGradient>
<radialGradient id="paint13_radial_960_439" cx="0" cy="0" r="1" gradientUnits="userSpaceOnUse" gradientTransform="translate(131.773 272.881) rotate(90) scale(33.6644 62.4917)">
<stop offset="0.147917" stop-color="white"/>
<stop offset="1" stop-color="#0F1DA3"/>
</radialGradient>
<radialGradient id="paint14_radial_960_439" cx="0" cy="0" r="1" gradientUnits="userSpaceOnUse" gradientTransform="translate(104.728 281.349) rotate(90) scale(30.2095 81.3199)">
<stop offset="0.147917" stop-color="white"/>
<stop offset="1" stop-color="#0F1DA3"/>
</radialGradient>
<radialGradient id="paint15_radial_960_439" cx="0" cy="0" r="1" gradientUnits="userSpaceOnUse" gradientTransform="translate(94.522 285.657) rotate(90) scale(29.2341 83.1353)">
<stop offset="0.147917" stop-color="white"/>
<stop offset="1" stop-color="#0F1DA3"/>
</radialGradient>
<radialGradient id="paint16_radial_960_439" cx="0" cy="0" r="1" gradientUnits="userSpaceOnUse" gradientTransform="translate(30.6031 257.769) rotate(90) scale(9.96368 14.8301)">
<stop offset="0.147917" stop-color="white"/>
<stop offset="1" stop-color="#0F1DA3"/>
</radialGradient>
<radialGradient id="paint17_radial_960_439" cx="0" cy="0" r="1" gradientUnits="userSpaceOnUse" gradientTransform="translate(104.003 240.742) rotate(90) scale(32.2 75.4023)">
<stop offset="0.147917" stop-color="white"/>
<stop offset="1" stop-color="#0F1DA3"/>
</radialGradient>
<radialGradient id="paint18_radial_960_439" cx="0" cy="0" r="1" gradientUnits="userSpaceOnUse" gradientTransform="translate(62.412 260.761) rotate(90) scale(15.8231 25.0184)">
<stop offset="0.147917" stop-color="white"/>
<stop offset="1" stop-color="#0F1DA3"/>
</radialGradient>
<radialGradient id="paint19_radial_960_439" cx="0" cy="0" r="1" gradientUnits="userSpaceOnUse" gradientTransform="translate(120.123 244.081) rotate(90) scale(32.9081 74.3033)">
<stop offset="0.147917" stop-color="white"/>
<stop offset="1" stop-color="#0F1DA3"/>
</radialGradient>
<radialGradient id="paint20_radial_960_439" cx="0" cy="0" r="1" gradientUnits="userSpaceOnUse" gradientTransform="translate(132.028 243.979) rotate(90) scale(27.7489 70.8231)">
<stop offset="0.147917" stop-color="white"/>
<stop offset="1" stop-color="#0F1DA3"/>
</radialGradient>
<radialGradient id="paint21_radial_960_439" cx="0" cy="0" r="1" gradientUnits="userSpaceOnUse" gradientTransform="translate(127.082 249.847) rotate(90) scale(24.3095 54.3378)">
<stop offset="0.147917" stop-color="white"/>
<stop offset="1" stop-color="#0F1DA3"/>
</radialGradient>
<radialGradient id="paint22_radial_960_439" cx="0" cy="0" r="1" gradientUnits="userSpaceOnUse" gradientTransform="translate(140.545 245.396) rotate(90) scale(26.3327 71.4641)">
<stop offset="0.147917" stop-color="white"/>
<stop offset="1" stop-color="#0F1DA3"/>
</radialGradient>
<radialGradient id="paint23_radial_960_439" cx="0" cy="0" r="1" gradientUnits="userSpaceOnUse" gradientTransform="translate(148.74 249.079) rotate(90) scale(26.9534 71.5429)">
<stop offset="0.147917" stop-color="white"/>
<stop offset="1" stop-color="#0F1DA3"/>
</radialGradient>
<radialGradient id="paint24_radial_960_439" cx="0" cy="0" r="1" gradientUnits="userSpaceOnUse" gradientTransform="translate(161.068 254.494) rotate(90) scale(29.8169 67.6819)">
<stop offset="0.147917" stop-color="white"/>
<stop offset="1" stop-color="#0F1DA3"/>
</radialGradient>
<radialGradient id="paint25_radial_960_439" cx="0" cy="0" r="1" gradientUnits="userSpaceOnUse" gradientTransform="translate(172.573 259.096) rotate(90) scale(31.3408 65.697)">
<stop offset="0.147917" stop-color="white"/>
<stop offset="1" stop-color="#0F1DA3"/>
</radialGradient>
<radialGradient id="paint26_radial_960_439" cx="0" cy="0" r="1" gradientUnits="userSpaceOnUse" gradientTransform="translate(194.456 263.4) rotate(90) scale(31.6719 67.196)">
<stop offset="0.147917" stop-color="white"/>
<stop offset="1" stop-color="#0F1DA3"/>
</radialGradient>
<radialGradient id="paint27_radial_960_439" cx="0" cy="0" r="1" gradientUnits="userSpaceOnUse" gradientTransform="translate(185.093 261.245) rotate(90) scale(32.6685 65.6271)">
<stop offset="0.147917" stop-color="white"/>
<stop offset="1" stop-color="#0F1DA3"/>
</radialGradient>
<radialGradient id="paint28_radial_960_439" cx="0" cy="0" r="1" gradientUnits="userSpaceOnUse" gradientTransform="translate(264.98 255.95) rotate(90) scale(14.1223 29.948)">
<stop offset="0.147917" stop-color="white"/>
<stop offset="1" stop-color="#0F1DA3"/>
</radialGradient>
<radialGradient id="paint29_radial_960_439" cx="0" cy="0" r="1" gradientUnits="userSpaceOnUse" gradientTransform="translate(257.533 263.432) rotate(90) scale(15.7313 47.4114)">
<stop offset="0.147917" stop-color="white"/>
<stop offset="1" stop-color="#0F1DA3"/>
</radialGradient>
<radialGradient id="paint30_radial_960_439" cx="0" cy="0" r="1" gradientUnits="userSpaceOnUse" gradientTransform="translate(229.3 278.727) rotate(90) scale(26.9186 80.8137)">
<stop offset="0.147917" stop-color="white"/>
<stop offset="1" stop-color="#0F1DA3"/>
</radialGradient>
<radialGradient id="paint31_radial_960_439" cx="0" cy="0" r="1" gradientUnits="userSpaceOnUse" gradientTransform="translate(239.027 284.194) rotate(90) scale(25.3552 86.5977)">
<stop offset="0.147917" stop-color="white"/>
<stop offset="1" stop-color="#0F1DA3"/>
</radialGradient>
<radialGradient id="paint32_radial_960_439" cx="0" cy="0" r="1" gradientUnits="userSpaceOnUse" gradientTransform="translate(232.496 279.231) rotate(90) scale(22.2342 88.4969)">
<stop offset="0.147917" stop-color="white"/>
<stop offset="1" stop-color="#0F1DA3"/>
</radialGradient>
<radialGradient id="paint33_radial_960_439" cx="0" cy="0" r="1" gradientUnits="userSpaceOnUse" gradientTransform="translate(202.806 265.264) rotate(90) scale(31.4946 67.8848)">
<stop offset="0.147917" stop-color="white"/>
<stop offset="1" stop-color="#0F1DA3"/>
</radialGradient>
<radialGradient id="paint34_radial_960_439" cx="0" cy="0" r="1" gradientUnits="userSpaceOnUse" gradientTransform="translate(210.495 267.822) rotate(90) scale(31.3923 71.1271)">
<stop offset="0.147917" stop-color="white"/>
<stop offset="1" stop-color="#0F1DA3"/>
</radialGradient>
<radialGradient id="paint35_radial_960_439" cx="0" cy="0" r="1" gradientUnits="userSpaceOnUse" gradientTransform="translate(168.755 260.334) rotate(90) scale(59.2151 168.348)">
<stop offset="0.147917" stop-color="white"/>
<stop offset="1" stop-color="#0F1DA3"/>
</radialGradient>
<radialGradient id="paint36_radial_960_439" cx="0" cy="0" r="1" gradientUnits="userSpaceOnUse" gradientTransform="translate(246.856 288.356) rotate(90) scale(26.821 85.9044)">
<stop offset="0.147917" stop-color="white"/>
<stop offset="1" stop-color="#0F1DA3"/>
</radialGradient>
<radialGradient id="paint37_radial_960_439" cx="0" cy="0" r="1" gradientUnits="userSpaceOnUse" gradientTransform="translate(151.306 263.971) rotate(90) scale(30.7458 66.8397)">
<stop offset="0.147917" stop-color="white"/>
<stop offset="1" stop-color="#0F1DA3"/>
</radialGradient>
<radialGradient id="paint38_radial_960_439" cx="0" cy="0" r="1" gradientUnits="userSpaceOnUse" gradientTransform="translate(230.431 233.813) rotate(90) scale(32.725 65.985)">
<stop offset="0.147917" stop-color="white"/>
<stop offset="1" stop-color="#0F1DA3"/>
</radialGradient>
<radialGradient id="paint39_radial_960_439" cx="0" cy="0" r="1" gradientUnits="userSpaceOnUse" gradientTransform="translate(247.925 238.236) rotate(90) scale(30.3969 68.9358)">
<stop offset="0.147917" stop-color="white"/>
<stop offset="1" stop-color="#0F1DA3"/>
</radialGradient>
</defs>
</svg>
