<svg width="197" height="180" viewBox="0 0 197 180" fill="none" xmlns="http://www.w3.org/2000/svg">
<g clip-path="url(#clip0_2052_4465)">
<rect width="196" height="180" transform="translate(0.5)" fill="white"/>
<path d="M41.6274 22.5802C77.6136 23.2486 102.682 5.14523 120.022 5.47165C137.362 5.79807 173.603 16.4041 172.11 95.8328C170.616 175.262 121.401 186.007 102.323 185.655C13.0049 183.992 -22.1123 21.3937 41.6274 22.5802Z" fill="url(#paint0_linear_2052_4465)"/>
<path d="M17.4707 21.689H9.35985V25.7266H17.4707V21.689Z" fill="#D4D8FF"/>
<path d="M40.791 21.689H32.6802V25.7266H40.791V21.689Z" fill="#D4D8FF"/>
<path d="M26.5996 7.55713H22.5442V15.6324H26.5996V7.55713Z" fill="#D4D8FF"/>
<path d="M26.5996 30.7739H22.5442V38.8492H26.5996V30.7739Z" fill="#D4D8FF"/>
<path d="M177.143 147.864C180.497 147.864 183.227 145.147 183.227 141.807C183.227 138.468 180.497 135.751 177.143 135.751C173.79 135.751 171.06 138.468 171.06 141.807C171.06 145.147 173.79 147.864 177.143 147.864ZM177.143 139.789C178.263 139.789 179.171 140.697 179.171 141.807C179.171 142.918 178.263 143.826 177.143 143.826C176.024 143.826 175.116 142.918 175.116 141.807C175.116 140.697 176.024 139.789 177.143 139.789Z" fill="#D4D8FF"/>
<path d="M182.607 92.1772H160.476L177.112 20.8788C177.765 18.0795 176.009 15.2841 173.19 14.6354C170.372 13.9868 167.556 15.7305 166.903 18.5297L149.719 92.1769H47.1267L29.9435 18.5301C29.2903 15.7309 26.4756 13.9871 23.6563 14.6358C20.8374 15.2844 19.0814 18.0795 19.7346 20.8791L36.3701 92.1776H14.2396C11.346 92.1776 9 94.5071 9 97.3806V150.024C9 152.898 11.346 155.227 14.2396 155.227H30.3305V159.297C30.3305 162.17 32.6765 164.5 35.5702 164.5C38.4639 164.5 40.8098 162.17 40.8098 159.297V155.227H156.036V159.297C156.036 162.17 158.382 164.5 161.276 164.5C164.169 164.5 166.515 162.17 166.515 159.297V155.227H182.607C185.5 155.227 187.846 152.898 187.846 150.024V97.3803C187.846 94.5068 185.5 92.1772 182.607 92.1772ZM177.367 144.821H19.4793V102.583H177.367V144.821Z" fill="#433ED1"/>
<path d="M35.9877 128.906H80.5682C83.4619 128.906 85.8079 126.576 85.8079 123.703C85.8079 120.829 83.4619 118.5 80.5682 118.5H35.9877C33.094 118.5 30.748 120.829 30.748 123.703C30.748 126.576 33.094 128.906 35.9877 128.906Z" fill="#433ED1"/>
<path d="M119.978 128.906H130.165C133.058 128.906 135.404 126.576 135.404 123.703C135.404 120.829 133.058 118.5 130.165 118.5H119.978C117.084 118.5 114.738 120.829 114.738 123.703C114.738 126.576 117.084 128.906 119.978 128.906Z" fill="#433ED1"/>
<path d="M150.685 128.906H160.872C163.766 128.906 166.111 126.576 166.111 123.703C166.111 120.829 163.766 118.5 160.872 118.5H150.685C147.791 118.5 145.445 120.829 145.445 123.703C145.445 126.576 147.791 128.906 150.685 128.906Z" fill="#433ED1"/>
<path d="M79.5855 70.9263C77.5392 72.9583 77.5392 76.2525 79.5855 78.2845C81.6314 80.3165 84.9491 80.3165 86.9954 78.2845C93.3021 72.0221 103.563 72.0221 109.87 78.2845C110.893 79.3005 112.234 79.8086 113.575 79.8086C114.915 79.8086 116.257 79.3008 117.279 78.2845C119.326 76.2525 119.326 72.9583 117.279 70.9263C106.888 60.6063 89.9778 60.6063 79.5855 70.9263Z" fill="#433ED1"/>
<path d="M128.371 65.1129C129.712 65.1129 131.053 64.6051 132.075 63.5888C134.122 61.5568 134.122 58.2626 132.075 56.2306C113.522 37.8063 83.3324 37.8063 64.7788 56.2306C62.7326 58.2626 62.7326 61.5568 64.7788 63.5888C66.8247 65.6207 70.1425 65.6207 72.1887 63.5888C86.6568 49.2221 110.198 49.2221 124.665 63.5888C125.689 64.6051 127.03 65.1129 128.371 65.1129Z" fill="#433ED1"/>
<path d="M55.7938 47.3032C79.3044 23.9571 117.558 23.9571 141.069 47.3032C142.092 48.3192 143.433 48.8274 144.774 48.8274C146.114 48.8274 147.456 48.3196 148.478 47.3032C150.525 45.2713 150.525 41.977 148.478 39.9451C135.111 26.67 117.337 19.3594 98.4315 19.3594C79.5259 19.3594 61.7524 26.67 48.3843 39.9451C46.338 41.977 46.338 45.2713 48.3843 47.3032C50.4302 49.3352 53.7479 49.3352 55.7938 47.3032Z" fill="#433ED1"/>
</g>
<defs>
<linearGradient id="paint0_linear_2052_4465" x1="90.6351" y1="5.46729" x2="90.6351" y2="185.663" gradientUnits="userSpaceOnUse">
<stop stop-color="#F1F2FF"/>
<stop offset="1" stop-color="#F1F2FF" stop-opacity="0"/>
</linearGradient>
<clipPath id="clip0_2052_4465">
<rect width="196" height="180" fill="white" transform="translate(0.5)"/>
</clipPath>
</defs>
</svg>
