<svg width="51" height="37" viewBox="0 0 51 37" fill="none" xmlns="http://www.w3.org/2000/svg">
<rect width="50" height="36" transform="translate(0.297119 0.490479)" fill="white"/>
<path d="M6.88762 30.6893C4.83026 30.6893 3.15601 29.0473 3.15601 27.0296C3.15601 25.0119 4.83026 23.3699 6.88762 23.3699C8.94498 23.3699 10.6192 25.0119 10.6192 27.0296C10.6192 29.0473 8.94498 30.6893 6.88762 30.6893ZM6.88762 25.1997C5.85894 25.1997 5.02181 26.0207 5.02181 27.0296C5.02181 28.0384 5.85894 28.8594 6.88762 28.8594C7.9163 28.8594 8.75342 28.0384 8.75342 27.0296C8.75342 26.0207 7.9163 25.1997 6.88762 25.1997Z" fill="#433ED1"/>
<path d="M19.3261 20.9302C17.2687 20.9302 15.5945 19.2882 15.5945 17.2705C15.5945 15.2528 17.2687 13.6108 19.3261 13.6108C21.3835 13.6108 23.0577 15.2528 23.0577 17.2705C23.0577 19.2882 21.3835 20.9302 19.3261 20.9302ZM19.3261 15.4407C18.2974 15.4407 17.4603 16.2617 17.4603 17.2705C17.4603 18.2794 18.2974 19.1004 19.3261 19.1004C20.3548 19.1004 21.1919 18.2794 21.1919 17.2705C21.1919 16.2617 20.3548 15.4407 19.3261 15.4407Z" fill="#433ED1"/>
<path d="M29.2773 11.171C27.2199 11.171 25.5457 9.52897 25.5457 7.51126C25.5457 5.49355 27.2199 3.85156 29.2773 3.85156C31.3346 3.85156 33.0089 5.49355 33.0089 7.51126C33.0089 9.52897 31.3346 11.171 29.2773 11.171ZM29.2773 5.68141C28.2486 5.68141 27.4115 6.5024 27.4115 7.51126C27.4115 8.52011 28.2486 9.3411 29.2773 9.3411C30.3059 9.3411 31.1431 8.52011 31.1431 7.51126C31.1431 6.5024 30.3059 5.68141 29.2773 5.68141Z" fill="#433ED1"/>
<path d="M8.73486 24.4233L16.323 18.468L17.4891 19.8971L9.90099 25.8524L8.73486 24.4233Z" fill="#433ED1"/>
<path d="M20.863 14.4656L26.4112 9.0243L27.7306 10.3182L22.1824 15.7595L20.863 14.4656Z" fill="#433ED1"/>
<path d="M8.13127 17.2706C6.07391 17.2706 4.39966 15.6286 4.39966 13.6109C4.39966 11.5932 6.07391 9.95117 8.13127 9.95117C10.1886 9.95117 11.8629 11.5932 11.8629 13.6109C11.8629 15.6286 10.1886 17.2706 8.13127 17.2706ZM8.13127 11.781C7.10259 11.781 6.26546 12.602 6.26546 13.6109C6.26546 14.6197 7.10259 15.4407 8.13127 15.4407C9.15995 15.4407 9.99708 14.6197 9.99708 13.6109C9.99708 12.602 9.15995 11.781 8.13127 11.781Z" fill="#433ED1"/>
<path d="M29.2773 23.3699C27.2199 23.3699 25.5457 21.7279 25.5457 19.7102C25.5457 17.6925 27.2199 16.0505 29.2773 16.0505C31.3346 16.0505 33.0089 17.6925 33.0089 19.7102C33.0089 21.7279 31.3346 23.3699 29.2773 23.3699ZM29.2773 17.8804C28.2486 17.8804 27.4115 18.7014 27.4115 19.7102C27.4115 20.7191 28.2486 21.5401 29.2773 21.5401C30.3059 21.5401 31.1431 20.7191 31.1431 19.7102C31.1431 18.7014 30.3059 17.8804 29.2773 17.8804Z" fill="#433ED1"/>
<path d="M18.0824 33.1292C16.0251 33.1292 14.3508 31.4872 14.3508 29.4695C14.3508 27.4518 16.0251 25.8098 18.0824 25.8098C20.1398 25.8098 21.8141 27.4518 21.8141 29.4695C21.8141 31.4872 20.1398 33.1292 18.0824 33.1292ZM18.0824 27.6397C17.0538 27.6397 16.2166 28.4607 16.2166 29.4695C16.2166 30.4784 17.0538 31.2994 18.0824 31.2994C19.1111 31.2994 19.9482 30.4784 19.9482 29.4695C19.9482 28.4607 19.1111 27.6397 18.0824 27.6397Z" fill="#433ED1"/>
<path d="M8.96802 16.7014L10.5577 15.7426L17.2476 26.4105L15.658 27.3693L8.96802 16.7014Z" fill="#433ED1"/>
<path d="M19.7915 26.7751L26.3416 21.0727L27.5805 22.4414L21.0304 28.1439L19.7915 26.7751Z" fill="#433ED1"/>
</svg>
