<svg width="197" height="180" viewBox="0 0 197 180" fill="none" xmlns="http://www.w3.org/2000/svg">
<g clip-path="url(#clip0_2052_4072)">
<rect width="196" height="180" transform="translate(0.5)" fill="white"/>
<path d="M41.6274 22.5802C77.6136 23.2486 102.682 5.14523 120.022 5.47165C137.362 5.79807 173.603 16.4041 172.11 95.8328C170.616 175.262 121.401 186.007 102.323 185.655C13.0049 183.992 -22.1123 21.3937 41.6274 22.5802Z" fill="url(#paint0_linear_2052_4072)"/>
<path d="M17.4707 21.689H9.35985V25.7266H17.4707V21.689Z" fill="#D4D8FF"/>
<path d="M40.791 21.689H32.6802V25.7266H40.791V21.689Z" fill="#D4D8FF"/>
<path d="M26.5996 7.55713H22.5442V15.6324H26.5996V7.55713Z" fill="#D4D8FF"/>
<path d="M26.5996 30.7739H22.5442V38.8492H26.5996V30.7739Z" fill="#D4D8FF"/>
<path d="M177.143 147.864C180.497 147.864 183.227 145.147 183.227 141.807C183.227 138.468 180.497 135.751 177.143 135.751C173.79 135.751 171.06 138.468 171.06 141.807C171.06 145.147 173.79 147.864 177.143 147.864ZM177.143 139.789C178.263 139.789 179.171 140.697 179.171 141.807C179.171 142.918 178.263 143.826 177.143 143.826C176.024 143.826 175.116 142.918 175.116 141.807C175.116 140.697 176.024 139.789 177.143 139.789Z" fill="#D4D8FF"/>
<path d="M42.7191 146.451C32.5031 146.451 24.1895 138.343 24.1895 128.38C24.1895 118.417 32.5031 110.309 42.7191 110.309C52.9351 110.309 61.2487 118.417 61.2487 128.38C61.2487 138.343 52.9351 146.451 42.7191 146.451ZM42.7191 119.344C37.6111 119.344 33.4543 123.398 33.4543 128.38C33.4543 133.361 37.6111 137.415 42.7191 137.415C47.8271 137.415 51.9839 133.361 51.9839 128.38C51.9839 123.398 47.8271 119.344 42.7191 119.344Z" fill="#433ED1"/>
<path d="M104.489 98.263C94.2726 98.263 85.959 90.1553 85.959 80.1923C85.959 70.2293 94.2726 62.1216 104.489 62.1216C114.705 62.1216 123.018 70.2293 123.018 80.1923C123.018 90.1553 114.705 98.263 104.489 98.263ZM104.489 71.1569C99.3806 71.1569 95.2238 75.2108 95.2238 80.1923C95.2238 85.1738 99.3806 89.2277 104.489 89.2277C109.597 89.2277 113.753 85.1738 113.753 80.1923C113.753 75.2108 109.597 71.1569 104.489 71.1569Z" fill="#433ED1"/>
<path d="M153.905 50.0726C143.689 50.0726 135.375 41.9649 135.375 32.0019C135.375 22.0389 143.689 13.9312 153.905 13.9312C164.121 13.9312 172.434 22.0389 172.434 32.0019C172.434 41.9649 164.121 50.0726 153.905 50.0726ZM153.905 22.9665C148.797 22.9665 144.64 27.0204 144.64 32.0019C144.64 36.9834 148.797 41.0373 153.905 41.0373C159.013 41.0373 163.169 36.9834 163.169 32.0019C163.169 27.0204 159.013 22.9665 153.905 22.9665Z" fill="#433ED1"/>
<path d="M51.8867 115.509L89.566 86.103L95.3565 93.1596L57.6772 122.566L51.8867 115.509Z" fill="#433ED1"/>
<path d="M112.115 66.3384L139.665 39.4706L146.216 45.8596L118.666 72.7274L112.115 66.3384Z" fill="#433ED1"/>
<path d="M48.8968 80.1913C38.6808 80.1913 30.3672 72.0835 30.3672 62.1205C30.3672 52.1575 38.6808 44.0498 48.8968 44.0498C59.1128 44.0498 67.4265 52.1575 67.4265 62.1205C67.4265 72.0835 59.1128 80.1913 48.8968 80.1913ZM48.8968 53.0852C43.7888 53.0852 39.632 57.139 39.632 62.1205C39.632 67.102 43.7888 71.1559 48.8968 71.1559C54.0048 71.1559 58.1616 67.102 58.1616 62.1205C58.1616 57.139 54.0048 53.0852 48.8968 53.0852Z" fill="#433ED1"/>
<path d="M153.905 110.309C143.689 110.309 135.375 102.202 135.375 92.2387C135.375 82.2757 143.689 74.168 153.905 74.168C164.121 74.168 172.434 82.2757 172.434 92.2387C172.434 102.202 164.121 110.309 153.905 110.309ZM153.905 83.2033C148.797 83.2033 144.64 87.2572 144.64 92.2387C144.64 97.2202 148.797 101.274 153.905 101.274C159.013 101.274 163.169 97.2202 163.169 92.2387C163.169 87.2572 159.013 83.2033 153.905 83.2033Z" fill="#433ED1"/>
<path d="M98.3128 158.5C88.0968 158.5 79.7832 150.392 79.7832 140.429C79.7832 130.466 88.0968 122.358 98.3128 122.358C108.529 122.358 116.842 130.466 116.842 140.429C116.842 150.392 108.529 158.5 98.3128 158.5ZM98.3128 131.394C93.2048 131.394 89.048 135.448 89.048 140.429C89.048 145.411 93.2048 149.464 98.3128 149.464C103.421 149.464 107.578 145.411 107.578 140.429C107.578 135.448 103.421 131.394 98.3128 131.394Z" fill="#433ED1"/>
<path d="M53.0508 77.3799L60.9444 72.6454L94.1639 125.321L86.2703 130.056L53.0508 77.3799Z" fill="#433ED1"/>
<path d="M106.787 127.122L139.312 98.964L145.464 105.722L112.939 133.88L106.787 127.122Z" fill="#433ED1"/>
</g>
<defs>
<linearGradient id="paint0_linear_2052_4072" x1="90.6351" y1="5.46729" x2="90.6351" y2="185.663" gradientUnits="userSpaceOnUse">
<stop stop-color="#F1F2FF"/>
<stop offset="1" stop-color="#F1F2FF" stop-opacity="0"/>
</linearGradient>
<clipPath id="clip0_2052_4072">
<rect width="196" height="180" fill="white" transform="translate(0.5)"/>
</clipPath>
</defs>
</svg>
