<svg width="51" height="37" viewBox="0 0 51 37" fill="none" xmlns="http://www.w3.org/2000/svg">
<rect width="50" height="36" transform="translate(0.181641 0.0388184)" fill="white"/>
<path fill-rule="evenodd" clip-rule="evenodd" d="M15.4762 25.8588C16.9439 25.8588 18.1337 24.6687 18.1337 23.2006C18.1337 21.7326 16.9439 20.5425 15.4762 20.5425C14.0085 20.5425 12.8188 21.7326 12.8188 23.2006C12.8188 24.6687 14.0085 25.8588 15.4762 25.8588ZM15.4762 27.8622C18.05 27.8622 20.1365 25.7752 20.1365 23.2006C20.1365 20.6261 18.05 18.5391 15.4762 18.5391C12.9024 18.5391 10.8159 20.6261 10.8159 23.2006C10.8159 25.7752 12.9024 27.8622 15.4762 27.8622Z" fill="#433ED1"/>
<path fill-rule="evenodd" clip-rule="evenodd" d="M18.966 28.1901L15.6179 25.1655L16.9604 23.6787L20.3084 26.7033L18.966 28.1901Z" fill="#433ED1"/>
<path d="M24.0635 32.5388H7.56348C6.0467 32.5388 4.81348 31.3196 4.81348 29.8201V17.1326C4.81348 15.633 6.0467 14.4138 7.56348 14.4138H24.0635C25.5803 14.4138 26.8135 15.633 26.8135 17.1326V29.8201C26.8135 31.3196 25.5803 32.5388 24.0635 32.5388ZM7.56348 16.2263C7.05748 16.2263 6.64681 16.6323 6.64681 17.1326V29.8201C6.64681 30.3203 7.05748 30.7263 7.56348 30.7263H24.0635C24.5695 30.7263 24.9801 30.3203 24.9801 29.8201V17.1326C24.9801 16.6323 24.5695 16.2263 24.0635 16.2263H7.56348Z" fill="#433ED1"/>
<path d="M23.1474 10.7888H21.314C21.314 7.79094 18.8464 5.35132 15.814 5.35132C12.7817 5.35132 10.314 7.79094 10.314 10.7888V15.3201H8.48071V10.7888C8.48071 6.79044 11.7697 3.53882 15.814 3.53882C19.8584 3.53882 23.1474 6.79044 23.1474 10.7888Z" fill="#433ED1"/>
</svg>
