<svg width="179" height="182" viewBox="0 0 179 182" fill="none" xmlns="http://www.w3.org/2000/svg">
<path d="M145.45 163.491C109.667 162.824 84.7404 180.907 67.4983 180.581C50.2562 180.255 14.2196 169.661 15.7047 90.3185C17.1898 10.9762 66.127 0.241898 85.0974 0.593842C173.911 2.25522 208.83 164.677 145.45 163.491Z" fill="url(#paint0_linear_2052_4194)"/>
<path d="M168.518 28.2332H178.867V33.4088H168.518V28.2332Z" fill="#D4D8FF"/>
<path d="M138.764 28.2332H149.113V33.4088H138.764V28.2332Z" fill="#D4D8FF"/>
<path d="M156.875 10.1184H162.05V20.4697H156.875V10.1184Z" fill="#D4D8FF"/>
<path d="M156.875 39.8787H162.05V50.2299H156.875V39.8787Z" fill="#D4D8FF"/>
<path d="M7.89682 157.623C3.61734 157.623 0.134766 154.14 0.134766 149.86C0.134766 145.58 3.61734 142.096 7.89682 142.096C12.1763 142.096 15.6589 145.58 15.6589 149.86C15.6589 154.14 12.1763 157.623 7.89682 157.623ZM7.89682 147.272C6.4686 147.272 5.30947 148.437 5.30947 149.86C5.30947 151.283 6.4686 152.448 7.89682 152.448C9.32503 152.448 10.4842 151.283 10.4842 149.86C10.4842 148.437 9.32503 147.272 7.89682 147.272Z" fill="#D4D8FF"/>
<path d="M134.164 78.5789H38.4647C26.1513 78.5789 16.1348 68.4876 16.1348 56.0823C16.1348 43.677 26.1513 33.5857 38.4647 33.5857H134.164C146.478 33.5857 156.494 43.677 156.494 56.0823C156.494 68.4876 146.478 78.5789 134.164 78.5789ZM38.4647 43.2271C31.4276 43.2271 25.7047 48.9927 25.7047 56.0823C25.7047 63.1719 31.4276 68.9375 38.4647 68.9375H134.164C141.201 68.9375 146.924 63.1719 146.924 56.0823C146.924 48.9927 141.201 43.2271 134.164 43.2271H38.4647Z" fill="#433ED1"/>
<path d="M48.0245 62.5019C51.5481 62.5019 54.4045 59.6242 54.4045 56.0743C54.4045 52.5245 51.5481 49.6467 48.0245 49.6467C44.5009 49.6467 41.6445 52.5245 41.6445 56.0743C41.6445 59.6242 44.5009 62.5019 48.0245 62.5019Z" fill="#433ED1"/>
<path d="M73.5597 62.5019C77.0832 62.5019 79.9396 59.6242 79.9396 56.0743C79.9396 52.5245 77.0832 49.6467 73.5597 49.6467C70.0361 49.6467 67.1797 52.5245 67.1797 56.0743C67.1797 59.6242 70.0361 62.5019 73.5597 62.5019Z" fill="#433ED1"/>
<path d="M75.1495 113.932H38.4647C26.1513 113.932 16.1348 103.841 16.1348 91.4353C16.1348 85.4641 18.54 79.6664 22.7317 75.5206C26.7829 71.3619 32.5377 68.9387 38.4647 68.9387H134.164C140.378 68.9387 146.293 71.5548 150.408 76.1119L143.32 82.591C140.984 80.0071 137.737 78.5801 134.164 78.5801H38.4647C35.045 78.5801 31.8614 79.9171 29.5008 82.3403C27.0318 84.7828 25.7047 87.9901 25.7047 91.4353C25.7047 98.525 31.4276 104.291 38.4647 104.291H75.1495V113.932Z" fill="#433ED1"/>
<path d="M48.0245 97.8545C51.5481 97.8545 54.4045 94.9767 54.4045 91.4269C54.4045 87.877 51.5481 84.9993 48.0245 84.9993C44.5009 84.9993 41.6445 87.877 41.6445 91.4269C41.6445 94.9767 44.5009 97.8545 48.0245 97.8545Z" fill="#433ED1"/>
<path d="M73.5597 97.8545C77.0832 97.8545 79.9396 94.9767 79.9396 91.4269C79.9396 87.877 77.0832 84.9993 73.5597 84.9993C70.0361 84.9993 67.1797 87.877 67.1797 91.4269C67.1797 94.9767 70.0361 97.8545 73.5597 97.8545Z" fill="#433ED1"/>
<path d="M75.1495 149.284H38.4647C26.1513 149.284 16.1348 139.192 16.1348 126.787C16.1348 120.816 18.54 115.018 22.7317 110.872C26.7829 106.713 32.5377 104.29 38.4647 104.29H71.9595V113.932H38.4647C35.045 113.932 31.8614 115.269 29.5008 117.692C27.0318 120.134 25.7047 123.342 25.7047 126.787C25.7047 133.877 31.4276 139.642 38.4647 139.642H75.1495V149.284Z" fill="#433ED1"/>
<path d="M48.0245 133.208C51.5481 133.208 54.4045 130.33 54.4045 126.78C54.4045 123.231 51.5481 120.353 48.0245 120.353C44.5009 120.353 41.6445 123.231 41.6445 126.78C41.6445 130.33 44.5009 133.208 48.0245 133.208Z" fill="#433ED1"/>
<path d="M73.5597 133.208C77.0832 133.208 79.9396 130.33 79.9396 126.78C79.9396 123.231 77.0832 120.353 73.5597 120.353C70.0361 120.353 67.1797 123.231 67.1797 126.78C67.1797 130.33 70.0361 133.208 73.5597 133.208Z" fill="#433ED1"/>
<path d="M130.969 181.414C130.306 181.414 129.649 181.279 129.03 181.003C127.55 180.341 92.6895 164.433 92.6895 131.832V106.578C92.6895 104.457 94.0612 102.586 96.0708 101.969L129.566 91.64C130.478 91.3508 131.461 91.3508 132.366 91.64L165.861 101.969C167.871 102.586 169.243 104.457 169.243 106.578V131.832C169.243 164.433 134.383 180.341 132.902 180.997C132.29 181.279 131.633 181.414 130.969 181.414ZM102.259 110.145V131.832C102.259 154.29 124.219 167.64 130.963 171.214C137.7 167.627 159.679 154.206 159.679 131.832V110.145L130.969 101.288L102.259 110.145Z" fill="#433ED1"/>
<path d="M127.781 149.282C126.511 149.282 125.293 148.774 124.399 147.868L113.234 136.619L120.004 129.8L127.66 137.506L145.013 118.674L152.031 125.236L131.296 147.733C130.409 148.684 129.178 149.243 127.876 149.269C127.838 149.282 127.813 149.282 127.781 149.282Z" fill="#433ED1"/>
<defs>
<linearGradient id="paint0_linear_2052_4194" x1="96.7189" y1="180.586" x2="96.7189" y2="0.585693" gradientUnits="userSpaceOnUse">
<stop stop-color="#F1F2FF"/>
<stop offset="1" stop-color="#F1F2FF" stop-opacity="0"/>
</linearGradient>
</defs>
</svg>
