<svg width="51" height="37" viewBox="0 0 51 37" fill="none" xmlns="http://www.w3.org/2000/svg">
<rect width="50" height="36" transform="translate(0.181641 0.408936)" fill="white"/>
<path d="M26.8242 12.9175H8.69855C6.36639 12.9175 4.46924 11.0062 4.46924 8.65663C4.46924 6.30706 6.36639 4.39575 8.69855 4.39575H26.8242C29.1563 4.39575 31.0535 6.30706 31.0535 8.65663C31.0535 11.0062 29.1563 12.9175 26.8242 12.9175ZM8.69855 6.22184C7.36571 6.22184 6.2818 7.31385 6.2818 8.65663C6.2818 9.99942 7.36571 11.0914 8.69855 11.0914H26.8242C28.157 11.0914 29.2409 9.99942 29.2409 8.65663C29.2409 7.31385 28.157 6.22184 26.8242 6.22184H8.69855Z" fill="#433ED1"/>
<path d="M10.5101 9.87253C11.1775 9.87253 11.7185 9.32749 11.7185 8.65514C11.7185 7.98279 11.1775 7.43774 10.5101 7.43774C9.84277 7.43774 9.30176 7.98279 9.30176 8.65514C9.30176 9.32749 9.84277 9.87253 10.5101 9.87253Z" fill="#433ED1"/>
<path d="M15.3441 9.87253C16.0115 9.87253 16.5525 9.32749 16.5525 8.65514C16.5525 7.98279 16.0115 7.43774 15.3441 7.43774C14.6767 7.43774 14.1357 7.98279 14.1357 8.65514C14.1357 9.32749 14.6767 9.87253 15.3441 9.87253Z" fill="#433ED1"/>
<path d="M15.6462 19.6133H8.69806C6.3659 19.6133 4.46875 17.702 4.46875 15.3524C4.46875 14.2215 4.92431 13.1234 5.71821 12.3382C6.48553 11.5505 7.57548 11.0916 8.69806 11.0916H26.8237C28.0006 11.0916 29.1208 11.587 29.9002 12.4502L28.5577 13.6773C28.1154 13.1879 27.5004 12.9176 26.8237 12.9176H8.69806C8.05037 12.9176 7.44739 13.1709 7.00029 13.6298C6.53265 14.0924 6.28131 14.6999 6.28131 15.3524C6.28131 16.6952 7.36522 17.7872 8.69806 17.7872H15.6462V19.6133Z" fill="#433ED1"/>
<path d="M10.5101 16.5683C11.1775 16.5683 11.7185 16.0233 11.7185 15.3509C11.7185 14.6786 11.1775 14.1335 10.5101 14.1335C9.84277 14.1335 9.30176 14.6786 9.30176 15.3509C9.30176 16.0233 9.84277 16.5683 10.5101 16.5683Z" fill="#433ED1"/>
<path d="M15.3441 16.5683C16.0115 16.5683 16.5525 16.0233 16.5525 15.3509C16.5525 14.6786 16.0115 14.1335 15.3441 14.1335C14.6767 14.1335 14.1357 14.6786 14.1357 15.3509C14.1357 16.0233 14.6767 16.5683 15.3441 16.5683Z" fill="#433ED1"/>
<path d="M15.6462 26.3091H8.69806C6.3659 26.3091 4.46875 24.3978 4.46875 22.0482C4.46875 20.9173 4.92431 19.8192 5.71821 19.034C6.48553 18.2463 7.57548 17.7874 8.69806 17.7874H15.042V19.6134H8.69806C8.05037 19.6134 7.44739 19.8667 7.00029 20.3256C6.53265 20.7882 6.28131 21.3957 6.28131 22.0482C6.28131 23.391 7.36522 24.483 8.69806 24.483H15.6462V26.3091Z" fill="#433ED1"/>
<path d="M10.5101 23.2641C11.1775 23.2641 11.7185 22.7191 11.7185 22.0467C11.7185 21.3744 11.1775 20.8293 10.5101 20.8293C9.84277 20.8293 9.30176 21.3744 9.30176 22.0467C9.30176 22.7191 9.84277 23.2641 10.5101 23.2641Z" fill="#433ED1"/>
<path d="M15.3441 23.2641C16.0115 23.2641 16.5525 22.7191 16.5525 22.0467C16.5525 21.3744 16.0115 20.8293 15.3441 20.8293C14.6767 20.8293 14.1357 21.3744 14.1357 22.0467C14.1357 22.7191 14.6767 23.2641 15.3441 23.2641Z" fill="#433ED1"/>
<path d="M26.22 32.3948C26.0943 32.3948 25.9698 32.3692 25.8526 32.3169C25.5723 32.1915 18.9697 29.1784 18.9697 23.0038V18.2207C18.9697 17.8189 19.2295 17.4646 19.6102 17.3478L25.9541 15.3914C26.1269 15.3366 26.313 15.3366 26.4846 15.3914L32.8286 17.3478C33.2092 17.4646 33.469 17.8189 33.469 18.2207V23.0038C33.469 29.1784 26.8664 32.1915 26.5861 32.3156C26.4701 32.3692 26.3456 32.3948 26.22 32.3948ZM20.7823 18.8963V23.0038C20.7823 27.2574 24.9415 29.7859 26.2188 30.4628C27.4948 29.7835 31.6576 27.2415 31.6576 23.0038V18.8963L26.22 17.2187L20.7823 18.8963Z" fill="#433ED1"/>
<path d="M25.6154 26.3087C25.375 26.3087 25.1442 26.2125 24.975 26.0409L22.8604 23.9104L24.1424 22.6188L25.5925 24.0784L28.8793 20.5115L30.2085 21.7544L26.2813 26.0153C26.1133 26.1955 25.8801 26.3014 25.6336 26.3063C25.6263 26.3087 25.6215 26.3087 25.6154 26.3087Z" fill="#433ED1"/>
</svg>
