<svg width="517" height="289" viewBox="0 0 517 289" fill="none" xmlns="http://www.w3.org/2000/svg">
<path d="M86.4484 105.393H9.1748V249.106H86.4484V105.393Z" fill="#EBEBEB"/>
<path d="M90.1855 101.426H5.42871V105.393H90.1855V101.426Z" fill="#DBDBDB"/>
<path d="M116.838 101.426H90.1851V105.393H116.838V101.426Z" fill="#EBEBEB"/>
<path d="M112.628 105.393H86.4482V249.106H112.628V105.393Z" fill="#DBDBDB"/>
<path d="M78.1272 154.93H17.4873V120.611H78.1272V154.93ZM17.6849 154.732H77.9297V120.809H17.6849V154.732Z" fill="#C7C7C7"/>
<path d="M51.1503 130.632H39.3447V137.42H51.1503V130.632Z" fill="#C7C7C7"/>
<path d="M54.7366 137.001H42.7729V131.043H54.7682L54.7366 137.001ZM42.9389 136.804H54.539V131.272H42.9389V136.804Z" fill="#C7C7C7"/>
<path d="M78.1272 197.941H17.4873V163.662H78.1272V197.941ZM17.6849 197.743H77.9297V163.86H17.6849V197.743Z" fill="#C7C7C7"/>
<path d="M51.1503 173.683H39.3447V180.47H51.1503V173.683Z" fill="#C7C7C7"/>
<path d="M54.7366 180.059H42.7729V174.093H54.7682L54.7366 180.059ZM42.9389 179.861H54.539V174.29H42.9389V179.861Z" fill="#C7C7C7"/>
<path d="M78.1272 240.991H17.4873V206.712H78.1272V240.991ZM17.6849 240.793H77.9297V206.909H17.6849V240.793Z" fill="#C7C7C7"/>
<path d="M51.1503 216.731H39.3447V223.519H51.1503V216.731Z" fill="#C7C7C7"/>
<path d="M54.7366 223.109H42.7729V217.15H54.7682L54.7366 223.109ZM42.9389 222.887H54.539V217.356H42.9389V222.887Z" fill="#C7C7C7"/>
<path d="M481.169 147.272H403.896V249.105H481.169V147.272Z" fill="#EBEBEB"/>
<path d="M484.906 143.307H400.149V147.273H484.906V143.307Z" fill="#DBDBDB"/>
<path d="M511.56 143.307H484.907V147.273H511.56V143.307Z" fill="#EBEBEB"/>
<path d="M507.348 147.272H481.169V249.105H507.348V147.272Z" fill="#DBDBDB"/>
<path d="M472.752 162.595H412.31V196.668H472.752V162.595Z" fill="#A6A6A6"/>
<path d="M466.866 153.871H420.853V187.225H466.866V153.871Z" fill="#C7C7C7"/>
<path d="M437.107 150.41H420.853V153.871H438.048L437.107 150.41Z" fill="#C7C7C7"/>
<path d="M466.739 187.217H420.734L417.186 156.637H463.191L466.739 187.217Z" fill="#A6A6A6"/>
<path d="M433.069 153.469H416.815L417.186 156.637H434.373L433.069 153.469Z" fill="#A6A6A6"/>
<path d="M443.634 162.595H383.192V196.668H443.634V162.595Z" fill="#EBEBEB"/>
<path d="M443.729 196.811H383.097V162.492H443.729V196.811ZM383.295 196.613H443.532V162.69H383.295V196.613Z" fill="#C7C7C7"/>
<path d="M416.758 172.512H404.953V179.3H416.758V172.512Z" fill="#C7C7C7"/>
<path d="M420.339 178.89H408.344V172.924H420.339V178.89ZM408.542 178.692H420.142V173.106H408.542V178.692Z" fill="#C7C7C7"/>
<path d="M472.753 167.7H443.784V196.669H472.753V167.7Z" fill="#DBDBDB"/>
<path d="M472.848 239.822H412.208V205.543H472.848V239.822ZM412.406 239.624H472.642V205.741H412.406V239.624Z" fill="#C7C7C7"/>
<path d="M445.87 215.562H434.064V222.35H445.87V215.562Z" fill="#C7C7C7"/>
<path d="M449.458 221.94H437.462V215.974H449.458V221.94ZM437.66 221.742H449.26V216.171H437.66V221.742Z" fill="#C7C7C7"/>
<path d="M0.916504 249.107L65.3178 248.917L129.711 248.846L258.498 248.712L387.285 248.846L451.678 248.917L516.079 249.107L451.678 249.305L387.285 249.368L258.498 249.502L129.711 249.368L65.3178 249.297L0.916504 249.107Z" fill="#263238"/>
<path d="M239.368 68.3643H147.973V185.693H239.368V68.3643Z" fill="#EBEBEB"/>
<path d="M239.368 185.693L193.742 185.851L147.974 185.938H147.721V185.685L147.586 68.3565V68.0088H147.974L239.368 68.1036H239.668V68.396L239.534 127.108L239.368 185.693ZM239.368 185.693L239.171 126.95L239.076 68.3644L239.368 68.6647L147.974 68.7516L148.361 68.3644L148.219 185.693L147.974 185.44L193.608 185.535L239.368 185.693Z" fill="#DBDBDB"/>
<path d="M157.969 93.4444L193.67 93.3496L229.372 93.4444L193.67 93.5314L157.969 93.4444Z" fill="#C7C7C7"/>
<path d="M157.969 96.3525L193.67 96.2656L229.372 96.3525L193.67 96.4474L157.969 96.3525Z" fill="#C7C7C7"/>
<path d="M157.969 99.2686L193.67 99.1738L229.372 99.2686L193.67 99.3556L157.969 99.2686Z" fill="#C7C7C7"/>
<path d="M157.969 102.176L193.67 102.089L229.372 102.176L193.67 102.263L157.969 102.176Z" fill="#C7C7C7"/>
<path d="M157.969 105.092L193.67 104.997L229.372 105.092L193.67 105.179L157.969 105.092Z" fill="#C7C7C7"/>
<path d="M157.969 108L193.67 107.913L229.372 108L193.67 108.087L157.969 108Z" fill="#C7C7C7"/>
<path d="M157.969 110.907L193.67 110.82L229.372 110.907L193.67 111.002L157.969 110.907Z" fill="#C7C7C7"/>
<path d="M157.969 113.824L193.67 113.737L229.372 113.824L193.67 113.911L157.969 113.824Z" fill="#C7C7C7"/>
<path d="M157.969 116.732L193.67 116.646L229.372 116.732L193.67 116.827L157.969 116.732Z" fill="#C7C7C7"/>
<path d="M157.969 119.648L193.67 119.553L229.372 119.648L193.67 119.734L157.969 119.648Z" fill="#C7C7C7"/>
<path d="M157.969 122.556L193.67 122.469L229.372 122.556L193.67 122.65L157.969 122.556Z" fill="#C7C7C7"/>
<path d="M157.969 125.471L193.67 125.376L229.372 125.471L193.67 125.558L157.969 125.471Z" fill="#C7C7C7"/>
<path d="M157.969 128.38L193.67 128.293L229.372 128.38L193.67 128.475L157.969 128.38Z" fill="#C7C7C7"/>
<path d="M157.969 131.295L193.67 131.2L229.372 131.295L193.67 131.382L157.969 131.295Z" fill="#C7C7C7"/>
<path d="M157.969 134.203L193.67 134.116L229.372 134.203L193.67 134.298L157.969 134.203Z" fill="#C7C7C7"/>
<path d="M170.937 125.376H165.524V137.592H170.937V125.376Z" fill="#433ED1"/>
<path d="M180.981 118.857H175.568V137.593H180.981V118.857Z" fill="#433ED1"/>
<path d="M191.024 111.563H185.611V137.601H191.024V111.563Z" fill="#433ED1"/>
<path d="M201.067 108.435H195.654V137.601H201.067V108.435Z" fill="#433ED1"/>
<path d="M211.11 102.849H205.697V137.602H211.11V102.849Z" fill="#433ED1"/>
<path d="M221.153 97.3242H215.74V137.593H221.153V97.3242Z" fill="#433ED1"/>
<path d="M159.906 91.3984L160.048 102.951L160.143 114.496C160.214 122.2 160.23 129.897 160.245 137.601L159.906 137.262H177.29L194.674 137.301L212.059 137.412L229.443 137.609L212.059 137.807L194.674 137.917H177.29H159.906H159.574V137.586C159.574 129.884 159.605 122.182 159.669 114.48L159.771 102.935L159.906 91.3984Z" fill="#C7C7C7"/>
<path d="M170.937 140.043H165.524V140.533H170.937V140.043Z" fill="#C7C7C7"/>
<path d="M180.981 140.043H175.568V140.533H180.981V140.043Z" fill="#C7C7C7"/>
<path d="M191.024 140.043H185.611V140.533H191.024V140.043Z" fill="#C7C7C7"/>
<path d="M201.067 140.043H195.654V140.533H201.067V140.043Z" fill="#C7C7C7"/>
<path d="M211.11 140.043H205.697V140.533H211.11V140.043Z" fill="#C7C7C7"/>
<path d="M221.153 140.043H215.74V140.533H221.153V140.043Z" fill="#C7C7C7"/>
<path d="M166.134 126.917C168.777 126.878 171.416 126.68 174.036 126.325C176.663 125.982 179.271 125.507 181.851 124.902C186.995 123.742 191.987 121.984 196.722 119.663C201.471 117.375 205.852 114.393 209.721 110.813L210.456 110.149L211.151 109.446L212.526 108.032C213.38 107.028 214.296 106.072 215.071 105.005C216.711 102.929 218.195 100.734 219.512 98.4385H219.551C215.954 105.62 210.596 111.772 203.976 116.321C201.785 117.841 199.482 119.194 197.086 120.367C187.448 124.974 176.852 127.219 166.173 126.917H166.134Z" fill="#263238"/>
<path d="M221.028 102.224L220.277 102.413L219.353 98.7153L215.734 99.9085L215.497 99.1736L219.906 97.7275L221.028 102.224Z" fill="#263238"/>
<path d="M156.445 158.771H230.897V155.76H156.445V158.771Z" fill="#DBDBDB"/>
<path d="M156.445 166.381H198.365V163.37H156.445V166.381Z" fill="#DBDBDB"/>
<path d="M172.707 84.3418H214.627V81.3311H172.707V84.3418Z" fill="#DBDBDB"/>
<path d="M222.094 214.298L132.565 232.694L108.954 117.767L175.425 104.112L202.979 121.275L222.094 214.298Z" fill="#433ED1"/>
<path opacity="0.8" d="M222.094 214.298L132.565 232.694L108.954 117.767L175.425 104.112L202.979 121.275L222.094 214.298Z" fill="white"/>
<path d="M175.425 104.112L202.979 121.275L179.921 126.009L175.425 104.112Z" fill="#433ED1"/>
<path d="M122.252 138.205L172.03 127.978L171.424 125.028L121.646 135.255L122.252 138.205Z" fill="#DBDBDB"/>
<path d="M123.78 145.651L173.558 135.424L172.952 132.475L123.174 142.702L123.78 145.651Z" fill="#DBDBDB"/>
<path d="M125.321 153.096L175.099 142.869L174.493 139.92L124.715 150.147L125.321 153.096Z" fill="#DBDBDB"/>
<path d="M126.85 160.547L199.78 145.563L199.174 142.614L126.245 157.598L126.85 160.547Z" fill="#DBDBDB"/>
<path d="M128.524 167.601L201.487 152.711L200.885 149.76L127.922 164.651L128.524 167.601Z" fill="#DBDBDB"/>
<path d="M129.911 175.44L202.84 160.456L202.234 157.507L129.305 172.491L129.911 175.44Z" fill="#DBDBDB"/>
<path d="M131.447 182.892L204.376 167.908L203.771 164.959L130.841 179.943L131.447 182.892Z" fill="#DBDBDB"/>
<path d="M132.974 190.338L205.904 175.354L205.298 172.405L132.369 187.389L132.974 190.338Z" fill="#DBDBDB"/>
<path d="M134.502 197.791L207.431 182.808L206.825 179.859L133.896 194.842L134.502 197.791Z" fill="#DBDBDB"/>
<path d="M136.028 205.238L208.958 190.255L208.352 187.306L135.422 202.289L136.028 205.238Z" fill="#DBDBDB"/>
<path d="M137.571 212.683L210.5 197.699L209.895 194.75L136.965 209.734L137.571 212.683Z" fill="#DBDBDB"/>
<path d="M139.099 220.138L212.029 205.154L211.423 202.205L138.494 217.189L139.099 220.138Z" fill="#DBDBDB"/>
<path d="M405.674 130.765L305.39 138.067C293.972 94.653 306.18 51.2394 297.306 7.82586L397.575 0.524414C409.001 43.938 396.784 87.3516 405.674 130.765Z" fill="#EBEBEB"/>
<path d="M405.674 130.766L305.453 138.336H305.216C305.19 138.256 305.169 138.174 305.152 138.091C293.671 94.6853 305.856 51.2718 296.918 7.8582C296.918 7.73177 296.863 7.59743 296.832 7.471H297.227L397.511 0.288086H397.787C397.809 0.38156 397.835 0.473871 397.866 0.564658C409.19 43.9229 396.855 87.3444 405.674 130.766ZM405.674 130.766C396.665 87.3602 408.834 43.9545 397.313 0.548853L397.661 0.801717L297.385 8.22169L297.693 7.79498C306.551 51.256 294.263 94.63 305.595 138.052L305.287 137.822L405.674 130.766Z" fill="#DBDBDB"/>
<path d="M309.412 26.4277L365.713 22.374C365.84 23.4856 365.95 24.5998 366.045 25.7166L309.672 29.7782C309.593 28.6561 309.506 27.5419 309.412 26.4277Z" fill="#DBDBDB"/>
<path d="M309.972 34.8751L366.448 30.8135C366.516 31.925 366.579 33.0392 366.637 34.156L310.106 38.2177C310.067 37.1035 310.02 35.9893 309.972 34.8751Z" fill="#DBDBDB"/>
<path d="M310.233 43.3146L366.843 39.2529C366.843 40.3671 366.898 41.4813 366.922 42.5955L310.265 46.6729C310.265 45.5429 310.249 44.4287 310.233 43.3146Z" fill="#DBDBDB"/>
<path d="M310.265 51.7538L393.338 45.8115C393.338 46.9257 393.338 48.0399 393.338 49.1541L310.217 55.0964C310.249 53.9822 310.265 52.868 310.265 51.7538Z" fill="#DBDBDB"/>
<path d="M310.154 60.1933L393.331 54.251L393.283 57.5935L310.083 63.5437L310.154 60.1933Z" fill="#DBDBDB"/>
<path d="M309.957 68.6406L393.18 62.6904C393.18 63.8046 393.133 64.9188 393.101 66.033L309.862 71.9595C309.901 70.869 309.933 69.7548 309.957 68.6406Z" fill="#DBDBDB"/>
<path d="M309.759 77.0806L392.975 71.1699C392.975 72.2841 392.928 73.4062 392.896 74.5204L309.696 80.4627C309.72 79.309 309.736 78.1948 309.759 77.0806Z" fill="#DBDBDB"/>
<path d="M309.632 85.5195L392.833 79.5771C392.833 80.6913 392.793 81.8055 392.777 82.9197L309.648 88.862C309.617 87.7636 309.617 86.6336 309.632 85.5195Z" fill="#DBDBDB"/>
<path d="M309.64 93.9589L392.69 88.0166C392.69 89.1308 392.69 90.245 392.69 91.3591L309.719 97.3093C309.671 96.1952 309.655 95.081 309.64 93.9589Z" fill="#DBDBDB"/>
<path d="M309.862 102.406L392.762 96.4561C392.762 97.5702 392.809 98.6844 392.849 99.8065L310.028 105.749C309.965 104.637 309.909 103.523 309.862 102.406Z" fill="#DBDBDB"/>
<path d="M310.376 110.845L393.062 104.895C393.118 106.017 393.189 107.131 393.26 108.245L310.653 114.187C310.558 113.049 310.463 111.959 310.376 110.845Z" fill="#DBDBDB"/>
<path d="M311.244 119.284L393.67 113.342C393.773 114.456 393.883 115.57 394.01 116.684L311.702 122.635C311.537 121.52 311.386 120.398 311.244 119.284Z" fill="#DBDBDB"/>
<path d="M391.411 177.238C356.832 171.375 322.645 165.519 288.851 159.672C293.268 116.772 314.92 73.9035 313.813 31.0352C348.393 36.8984 382.579 42.7617 416.373 48.625C411.988 91.4933 390.305 134.385 391.411 177.238Z" fill="#433ED1"/>
<path opacity="0.8" d="M391.411 177.238C356.832 171.375 322.645 165.519 288.851 159.672C293.268 116.772 314.92 73.9035 313.813 31.0352C348.393 36.8984 382.579 42.7617 416.373 48.625C411.988 91.4933 390.305 134.385 391.411 177.238Z" fill="white"/>
<path d="M322.315 51.6982C341.059 54.9591 359.716 58.22 378.285 61.4809C378.096 62.5872 377.898 63.6856 377.693 64.7839C359.16 61.5283 340.556 58.2674 321.881 55.0013C322.039 53.9029 322.181 52.8045 322.315 51.6982Z" fill="#DBDBDB"/>
<path d="M321.113 60.0352C339.704 63.296 358.229 66.5569 376.688 69.8178C376.451 70.9241 376.214 72.0225 375.969 73.1209C357.557 69.8652 339.08 66.6043 320.537 63.3382C320.734 62.2398 320.924 61.1414 321.113 60.0352Z" fill="#DBDBDB"/>
<path d="M319.565 68.3721L374.816 78.1547C374.547 79.2531 374.286 80.3594 374.025 81.4578C355.693 78.1916 337.313 74.9307 318.885 71.6751C319.107 70.5767 319.344 69.4784 319.565 68.3721Z" fill="#DBDBDB"/>
<path d="M317.763 76.7002C344.693 81.4835 371.534 86.2616 398.285 91.0344C397.992 92.1328 397.692 93.2312 397.392 94.3375C370.646 89.5647 343.84 84.7892 316.973 80.0111C317.21 78.9128 317.471 77.8144 317.763 76.7002Z" fill="#DBDBDB"/>
<path d="M315.686 85.0449C342.511 89.8283 369.28 94.6063 395.994 99.3791C395.694 100.478 395.394 101.576 395.086 102.682L314.833 88.348C315.117 87.2496 315.394 86.1828 315.686 85.0449Z" fill="#DBDBDB"/>
<path d="M313.49 93.3818L393.687 107.716C393.387 108.814 393.079 109.913 392.778 111.019L312.597 96.6849C312.897 95.5865 313.197 94.4802 313.49 93.3818Z" fill="#DBDBDB"/>
<path d="M311.213 101.718L391.418 116.052C391.118 117.15 390.826 118.249 390.533 119.347C363.751 114.574 337.005 109.799 310.296 105.021C310.605 103.922 310.905 102.816 311.213 101.718Z" fill="#DBDBDB"/>
<path d="M308.914 110.055C335.644 114.827 362.419 119.603 389.238 124.381C388.961 125.487 388.685 126.586 388.448 127.684C361.581 122.911 334.777 118.136 308.037 113.358C308.282 112.259 308.606 111.153 308.914 110.055Z" fill="#DBDBDB"/>
<path d="M306.702 118.392C333.474 123.164 360.325 127.94 387.255 132.718C387.002 133.824 386.757 134.923 386.512 136.021C359.519 131.248 332.626 126.473 305.833 121.695C306.077 120.588 306.37 119.49 306.702 118.392Z" fill="#DBDBDB"/>
<path d="M304.52 126.728C331.387 131.5 358.354 136.276 385.421 141.054C385.199 142.16 384.994 143.259 384.788 144.357C357.621 139.584 330.596 134.809 303.714 130.031C303.975 128.924 304.243 127.826 304.52 126.728Z" fill="#DBDBDB"/>
<path d="M302.552 135.057C329.535 139.84 356.665 144.618 383.943 149.391C383.761 150.489 383.595 151.596 383.437 152.694C356.065 147.921 328.866 143.135 301.841 138.336C302.07 137.261 302.308 136.163 302.552 135.057Z" fill="#DBDBDB"/>
<path d="M300.83 143.393C327.976 148.171 355.288 152.949 382.766 157.727C382.639 158.825 382.529 159.931 382.426 161.03C354.822 156.247 327.428 151.468 300.245 146.696C300.427 145.597 300.624 144.499 300.83 143.393Z" fill="#DBDBDB"/>
<path d="M349.577 159.664H172.343V288.135H349.577V159.664Z" fill="#433ED1"/>
<path d="M234.966 146.356H172.343V159.663H238.562L234.966 146.356Z" fill="#433ED1"/>
<g opacity="0.1">
<path opacity="0.1" d="M349.577 159.663H172.343V288.134H349.577V159.663Z" fill="black"/>
<path opacity="0.1" d="M234.966 146.356H172.343V159.663H238.562L234.966 146.356Z" fill="black"/>
</g>
<path d="M348.369 240.059C313.766 230.158 279.937 220.375 246.63 210.687C255.006 171.533 278.475 133.177 280.072 93.4453C314.643 102.778 348.448 112.11 381.77 121.482C373.244 161.252 349.807 199.972 348.369 240.059Z" fill="#EBEBEB"/>
<path d="M348.368 240.059C313.765 230.236 279.913 220.517 246.582 210.908L246.337 210.837L246.385 210.616C254.729 171.453 278.151 133.081 279.668 93.3342C279.668 93.2157 279.668 93.0892 279.668 92.9707L280.071 93.0813C314.666 102.437 348.487 111.817 381.77 121.228L382.046 121.307C382.046 121.386 382.046 121.473 381.991 121.56C373.409 161.323 349.901 200.035 348.368 240.059ZM348.368 240.059C349.711 199.972 373.078 161.252 381.462 121.402C381.533 121.513 381.604 121.623 381.683 121.734C348.4 112.402 314.603 103.093 280.055 93.8004L280.474 93.5476C278.791 133.271 255.282 171.611 246.867 210.75L246.677 210.466C279.953 220.224 313.813 230.086 348.368 240.059Z" fill="#DBDBDB"/>
<path d="M342.891 167.312C337.747 181.054 322.156 188.711 307.608 184.412C293.061 180.114 285.435 165.598 290.453 151.935C295.471 138.273 310.477 130.497 325.222 134.709C339.967 138.921 348.098 153.563 342.891 167.312Z" fill="#455A64"/>
<path d="M316.687 159.609C310.721 166.42 304.684 173.216 298.797 180.012C294.541 176.877 291.423 172.44 289.917 167.373C288.411 162.306 288.599 156.886 290.453 151.936C295.399 138.337 310.571 130.522 325.221 134.71C339.872 138.898 348.082 153.674 342.906 167.313C334.166 164.737 325.427 162.169 316.687 159.609Z" fill="#DBDBDB"/>
<path d="M316.689 159.608C321.888 166.601 327.033 173.594 332.287 180.611C328.702 183.011 324.634 184.596 320.371 185.252C316.107 185.909 311.75 185.622 307.609 184.412C293.086 180.153 285.484 165.511 290.454 151.935C295.425 138.359 310.573 130.521 325.223 134.709C339.873 138.897 348.083 153.673 342.908 167.312C334.168 164.736 325.428 162.168 316.689 159.608Z" fill="#DBDBDB"/>
<path d="M316.688 159.609L289.197 164.192C288.587 160.066 289.019 155.852 290.454 151.936C295.4 138.337 310.572 130.522 325.223 134.71C339.873 138.898 348.083 153.674 342.907 167.313C334.168 164.737 325.428 162.169 316.688 159.609Z" fill="#433ED1"/>
<path d="M287.894 110.68C301.944 114.583 315.891 118.489 329.735 122.398C329.49 123.418 329.245 124.429 328.985 125.441C315.182 121.526 301.296 117.618 287.325 113.714C287.523 112.703 287.736 111.691 287.894 110.68Z" fill="#DBDBDB"/>
<path d="M284.724 188.956C303.231 194.419 321.837 199.9 340.544 205.4C340.267 206.412 339.991 207.423 339.754 208.434C320.963 202.919 302.298 197.43 283.76 191.967C284.061 190.963 284.392 189.96 284.724 188.956Z" fill="#DBDBDB"/>
<path d="M282.307 196.551C300.934 202.03 319.691 207.535 338.577 213.066C338.34 214.077 338.11 215.097 337.889 216.108C318.924 210.561 300.099 205.045 281.414 199.561C281.706 198.558 281.998 197.554 282.307 196.551Z" fill="#DBDBDB"/>
<path d="M280.142 204.152C298.917 209.657 317.856 215.189 336.958 220.747C336.768 221.758 336.586 222.777 336.42 223.797C317.218 218.218 298.198 212.673 279.36 207.163C279.613 206.167 279.874 205.156 280.142 204.152Z" fill="#DBDBDB"/>
<path d="M273.78 189.035L267.048 187.059L268.067 184.057L274.792 186.04C274.452 187.036 274.112 188.039 273.78 189.035Z" fill="#433ED1"/>
<path d="M271.386 196.621L264.606 194.63C264.915 193.634 265.231 192.631 265.547 191.627L272.311 193.618C271.995 194.614 271.687 195.617 271.386 196.621Z" fill="#455A64"/>
<path d="M269.253 204.216L262.449 202.217C262.718 201.213 262.994 200.217 263.279 199.214L270.09 201.205C269.79 202.206 269.511 203.21 269.253 204.216Z" fill="#DBDBDB"/>
<path d="M349.11 288.134H171.877L158.206 170.323H335.44L349.11 288.134Z" fill="#433ED1"/>
<path d="M219.415 158.123H156.792L158.206 170.324H224.425L219.415 158.123Z" fill="#433ED1"/>
<path d="M279.407 80.1458C279.127 79.116 278.994 78.0519 279.012 76.985C278.99 75.9179 279.123 74.8532 279.407 73.8242C279.935 75.8983 279.935 78.0717 279.407 80.1458Z" fill="#263238"/>
<path d="M272.975 82.0033C272.222 81.25 271.576 80.3965 271.055 79.4668C270.509 78.5523 270.094 77.5654 269.822 76.5352C270.576 77.2879 271.223 78.1416 271.742 79.0717C272.289 79.9862 272.704 80.9731 272.975 82.0033Z" fill="#263238"/>
<path d="M268.344 86.8228C267.313 86.5516 266.327 86.1366 265.412 85.5901C264.479 85.0742 263.625 84.4276 262.875 83.6699C263.906 83.9412 264.893 84.3561 265.807 84.9026C266.736 85.4252 267.589 86.0711 268.344 86.8228Z" fill="#263238"/>
<path d="M266.739 93.2945C264.664 93.8226 262.491 93.8226 260.417 93.2945C262.492 92.7768 264.663 92.7768 266.739 93.2945Z" fill="#263238"/>
<path d="M268.597 99.7501C267.844 100.504 266.991 101.15 266.061 101.67C265.146 102.217 264.159 102.632 263.129 102.903C264.658 101.408 266.538 100.321 268.597 99.7422V99.7501Z" fill="#263238"/>
<path d="M273.416 104.357C273.143 105.387 272.728 106.374 272.183 107.289C271.665 108.218 271.019 109.069 270.263 109.818C270.534 108.79 270.949 107.806 271.496 106.894C272.014 105.963 272.661 105.109 273.416 104.357Z" fill="#263238"/>
<path d="M279.912 105.993C280.442 108.067 280.442 110.241 279.912 112.315C279.383 110.241 279.383 108.067 279.912 105.993Z" fill="#263238"/>
<path d="M286.345 104.128C287.096 104.883 287.742 105.736 288.265 106.664C288.811 107.579 289.226 108.566 289.498 109.596C288.74 108.846 288.093 107.992 287.577 107.06C287.031 106.145 286.616 105.158 286.345 104.128Z" fill="#263238"/>
<path d="M290.984 99.3087C292.011 99.5799 292.996 99.9949 293.907 100.541C294.833 101.061 295.681 101.707 296.428 102.462C294.37 101.886 292.492 100.799 290.968 99.3008L290.984 99.3087Z" fill="#263238"/>
<path d="M292.58 92.8124C293.61 92.5378 294.674 92.4049 295.74 92.4173C296.808 92.3958 297.872 92.5289 298.901 92.8124C297.872 93.0959 296.808 93.2289 295.74 93.2075C294.674 93.2199 293.61 93.0869 292.58 92.8124Z" fill="#263238"/>
<path d="M290.723 86.3883C291.475 85.6342 292.329 84.988 293.259 84.4682C294.171 83.9155 295.159 83.4976 296.191 83.2275C295.441 83.9852 294.587 84.6318 293.654 85.1477C292.738 85.6935 291.752 86.1109 290.723 86.3883Z" fill="#263238"/>
<path d="M285.902 81.7494C286.173 80.7192 286.588 79.7323 287.135 78.8178C287.65 77.8851 288.297 77.0309 289.055 76.2812C288.784 77.3115 288.369 78.2984 287.822 79.2129C287.302 80.143 286.656 80.9966 285.902 81.7494Z" fill="#263238"/>
<path d="M282.63 223.963H323.239C324.427 221.424 325.112 218.678 325.254 215.879V183.378H284.645V216.329C284.645 219.593 282.63 223.963 282.63 223.963Z" fill="#455A64"/>
<path d="M289.615 192.955C294.356 192.56 299.169 192.473 303.942 192.449C308.714 192.425 313.495 192.56 318.268 192.955C313.527 193.342 308.714 193.437 303.942 193.452C299.169 193.468 294.388 193.342 289.615 192.955Z" fill="white"/>
<path d="M289.615 198.305C293.914 197.918 298.205 197.823 302.503 197.799C306.802 197.776 311.093 197.91 315.384 198.305C311.093 198.7 306.794 198.787 302.503 198.811C298.213 198.835 293.914 198.7 289.615 198.305Z" fill="white"/>
<path d="M289.615 203.662C293.369 203.267 297.13 203.18 300.883 203.156C304.648 203.135 308.412 203.304 312.16 203.662C308.398 204.049 304.645 204.144 300.883 204.16C297.122 204.175 293.369 204.049 289.615 203.662Z" fill="white"/>
<path d="M289.615 209.012C294.356 208.625 299.169 208.53 303.942 208.507C308.714 208.483 313.495 208.617 318.268 209.012C313.527 209.407 308.714 209.494 303.942 209.518C299.169 209.542 294.388 209.407 289.615 209.012Z" fill="white"/>
</svg>
