<svg width="197" height="180" viewBox="0 0 197 180" fill="none" xmlns="http://www.w3.org/2000/svg">
<g clip-path="url(#clip0_2052_4196)">
<rect width="196" height="180" transform="translate(0.5)" fill="white"/>
<path d="M41.6274 22.5802C77.6136 23.2486 102.682 5.14523 120.022 5.47165C137.362 5.79807 173.603 16.4041 172.11 95.8328C170.616 175.262 121.401 186.007 102.323 185.655C13.0049 183.992 -22.1123 21.3937 41.6274 22.5802Z" fill="url(#paint0_linear_2052_4196)"/>
<path d="M17.4707 21.689H9.35985V25.7266H17.4707V21.689Z" fill="#D4D8FF"/>
<path d="M40.791 21.689H32.6802V25.7266H40.791V21.689Z" fill="#D4D8FF"/>
<path d="M26.5996 7.55713H22.5442V15.6324H26.5996V7.55713Z" fill="#D4D8FF"/>
<path d="M26.5996 30.7739H22.5442V38.8492H26.5996V30.7739Z" fill="#D4D8FF"/>
<path d="M177.143 147.864C180.497 147.864 183.227 145.147 183.227 141.807C183.227 138.468 180.497 135.751 177.143 135.751C173.79 135.751 171.06 138.468 171.06 141.807C171.06 145.147 173.79 147.864 177.143 147.864ZM177.143 139.789C178.263 139.789 179.171 140.697 179.171 141.807C179.171 142.918 178.263 143.826 177.143 143.826C176.024 143.826 175.116 142.918 175.116 141.807C175.116 140.697 176.024 139.789 177.143 139.789Z" fill="#D4D8FF"/>
<path d="M128.054 100.749H52.6797C50.0922 100.749 47.9922 98.6491 47.9922 96.0616V67.9367C47.9922 65.3493 50.0922 63.2493 52.6797 63.2493H143.304C145.892 63.2493 147.992 65.3493 147.992 67.9367V81.9992H138.617V72.6242H57.3671V91.3741H128.054V100.749Z" fill="#433ED1"/>
<path d="M48.3164 110.061H114.066V119.436H48.3164V110.061Z" fill="#433ED1"/>
<path d="M48.3164 128.811H95.4411V138.186H48.3164V128.811Z" fill="#433ED1"/>
<path d="M101.291 169.5C100.059 169.5 98.8593 169.012 97.978 168.125C96.8968 167.044 96.4093 165.5 96.678 164L99.9905 145.219C100.159 144.269 100.616 143.394 101.291 142.719L147.696 96.3128C149.671 94.3378 151.765 93.1066 153.921 92.6566C156.896 92.0316 159.79 92.9378 162.059 95.2128L169.79 102.944C174.053 107.213 174.053 114.144 169.79 118.413L123.39 164.819C122.709 165.494 121.834 165.956 120.89 166.119L102.109 169.431C101.834 169.475 101.566 169.5 101.291 169.5ZM108.965 148.3L107.072 159.031L117.803 157.137L163.159 111.775C163.765 111.163 163.765 110.175 163.159 109.563L155.484 101.888C155.421 102.007 154.953 102.3 154.321 102.932L108.965 148.3Z" fill="#433ED1"/>
<path d="M84.4371 156.999H40.1874C30.7062 156.999 23 149.293 23 139.812V36.6874C23 27.2062 30.7062 19.5 40.1874 19.5H155.812C165.293 19.5 172.999 27.2062 172.999 36.6874V82.2497H163.624V36.6874C163.624 32.3812 160.118 28.8749 155.812 28.8749H40.1874C35.8812 28.8749 32.3749 32.3812 32.3749 36.6874V139.812C32.3749 144.118 35.8812 147.624 40.1874 147.624H84.4371V156.999Z" fill="#433ED1"/>
<path d="M27.6875 41.374H168.312V50.749H27.6875V41.374Z" fill="#433ED1"/>
</g>
<defs>
<linearGradient id="paint0_linear_2052_4196" x1="90.6351" y1="5.46729" x2="90.6351" y2="185.663" gradientUnits="userSpaceOnUse">
<stop stop-color="#F1F2FF"/>
<stop offset="1" stop-color="#F1F2FF" stop-opacity="0"/>
</linearGradient>
<clipPath id="clip0_2052_4196">
<rect width="196" height="180" fill="white" transform="translate(0.5)"/>
</clipPath>
</defs>
</svg>
