<svg width="51" height="37" viewBox="0 0 51 37" fill="none" xmlns="http://www.w3.org/2000/svg">
<rect width="50" height="36" transform="translate(0.181641 0.408936)" fill="white"/>
<path d="M25.6252 19.5234H11.0527C10.5525 19.5234 10.1465 19.1174 10.1465 18.6172V13.1797C10.1465 12.6794 10.5525 12.2734 11.0527 12.2734H28.5736C29.0738 12.2734 29.4798 12.6794 29.4798 13.1797V15.8984H27.6673V14.0859H11.959V17.7109H25.6252V19.5234Z" fill="#433ED1"/>
<path d="M10.208 21.3237H22.9197V23.1362H10.208V21.3237Z" fill="#433ED1"/>
<path d="M10.208 24.9487H19.3188V26.7612H10.208V24.9487Z" fill="#433ED1"/>
<path d="M20.4507 32.8154C20.2127 32.8154 19.9807 32.7211 19.8103 32.5495C19.6012 32.3405 19.507 32.042 19.559 31.752L20.1994 28.121C20.232 27.9373 20.3202 27.7681 20.4507 27.6376L29.4226 18.6658C29.8044 18.2839 30.2092 18.0459 30.6261 17.9589C31.2012 17.8381 31.7607 18.0133 32.1993 18.4531L33.694 19.9478C34.5181 20.7731 34.5181 22.1131 33.694 22.9384L24.7234 31.9103C24.5917 32.0408 24.4225 32.1302 24.24 32.1617L20.609 32.8021C20.5558 32.8105 20.5039 32.8154 20.4507 32.8154ZM21.9345 28.7167L21.5684 30.7914L23.6431 30.4253L32.412 21.6552C32.5292 21.5368 32.5292 21.3459 32.412 21.2274L30.9282 19.7436C30.9161 19.7666 30.8255 19.8234 30.7034 19.9454L21.9345 28.7167Z" fill="#433ED1"/>
<path d="M17.1924 30.3985H8.63737C6.80433 30.3985 5.31445 28.9087 5.31445 27.0756V7.1381C5.31445 5.30506 6.80433 3.81519 8.63737 3.81519H30.9915C32.8246 3.81519 34.3145 5.30506 34.3145 7.1381V15.9469H32.502V7.1381C32.502 6.30556 31.8241 5.62769 30.9915 5.62769H8.63737C7.80483 5.62769 7.12695 6.30556 7.12695 7.1381V27.0756C7.12695 27.9082 7.80483 28.586 8.63737 28.586H17.1924V30.3985Z" fill="#433ED1"/>
<path d="M6.2207 8.04419H33.4082V9.85669H6.2207V8.04419Z" fill="#433ED1"/>
</svg>
