<svg width="51" height="37" viewBox="0 0 51 37" fill="none" xmlns="http://www.w3.org/2000/svg">
<rect width="50" height="36" transform="translate(0.297119 0.490479)" fill="#433ED1"/>
<path d="M28.0203 28.0718V7.37185C28.0203 5.617 29.4422 4.19507 31.1971 4.19507H12.1364C10.0308 4.19507 8.32422 5.90164 8.32422 8.00721V28.0743L28.0203 28.0718Z" fill="#433ED1"/>
<path d="M11.1833 8.00721C11.1833 5.90164 12.8899 4.19507 14.9955 4.19507H12.1364C10.0308 4.19507 8.32422 5.90164 8.32422 8.00721V26.4859H11.1833V8.00721Z" fill="#2621B8"/>
<path d="M27.0677 33.739C22.5135 33.739 18.8081 30.0336 18.8081 25.4794C18.8081 20.9251 22.5135 17.2197 27.0677 17.2197C31.622 17.2197 35.3274 20.9251 35.3274 25.4794C35.3274 30.0336 31.622 33.739 27.0677 33.739ZM27.0677 19.1258C23.5644 19.1258 20.7142 21.976 20.7142 25.4794C20.7142 28.9827 23.5644 31.8329 27.0677 31.8329C30.5711 31.8329 33.4213 28.9827 33.4213 25.4794C33.4213 21.976 30.5711 19.1258 27.0677 19.1258Z" fill="white"/>
<path d="M11.2471 19.1257H18.3122V21.0318H11.2471V19.1257Z" fill="white"/>
<path d="M11.2471 14.043H23.9669V15.949H11.2471V14.043Z" fill="white"/>
<path d="M11.2507 8.96021H25.1612V10.8663H11.2507V8.96021Z" fill="white"/>
<path d="M9.27765 26.4859H7.37158V8.00712C7.37158 5.37928 9.50892 3.24194 12.1368 3.24194H31.1975V5.14802H12.1368C10.5598 5.14802 9.27765 6.43017 9.27765 8.00712V26.4859Z" fill="white"/>
<path d="M34.3737 10.2309H28.0202C27.4941 10.2309 27.0671 9.80391 27.0671 9.27783V7.37176C27.0671 5.09464 28.9198 3.24194 31.197 3.24194C33.4741 3.24194 35.3268 5.09464 35.3268 7.37176V9.27783C35.3268 9.80391 34.8998 10.2309 34.3737 10.2309ZM28.9732 8.3248H33.4207V7.37176C33.4207 6.14552 32.4232 5.14801 31.197 5.14801C29.9707 5.14801 28.9732 6.14552 28.9732 7.37176V8.3248Z" fill="white"/>
<path d="M18.706 33.7391H8.3243C6.39662 33.7391 4.82983 32.1723 4.82983 30.2446V26.4833C4.82983 25.9572 5.25679 25.5303 5.78287 25.5303H15.9994V27.4363H6.73591V30.2446C6.73591 31.1201 7.44878 31.833 8.3243 31.833H18.706V33.7391Z" fill="white"/>
<path d="M27.0671 9.27783H28.9732V14.4115H27.0671V9.27783Z" fill="white"/>
<path fill-rule="evenodd" clip-rule="evenodd" d="M27.0876 27.3665C28.2189 27.3665 29.136 26.4494 29.136 25.3181C29.136 24.1868 28.2189 23.2697 27.0876 23.2697C25.9563 23.2697 25.0392 24.1868 25.0392 25.3181C25.0392 26.4494 25.9563 27.3665 27.0876 27.3665ZM27.0876 28.9103C29.0716 28.9103 30.6799 27.302 30.6799 25.3181C30.6799 23.3341 29.0716 21.7258 27.0876 21.7258C25.1037 21.7258 23.4954 23.3341 23.4954 25.3181C23.4954 27.302 25.1037 28.9103 27.0876 28.9103Z" fill="white"/>
<path fill-rule="evenodd" clip-rule="evenodd" d="M29.7757 29.1632L27.1949 26.8324L28.2297 25.6866L30.8104 28.0175L29.7757 29.1632Z" fill="white"/>
</svg>
