<svg width="197" height="180" viewBox="0 0 197 180" fill="none" xmlns="http://www.w3.org/2000/svg">
<g clip-path="url(#clip0_2052_4567)">
<rect width="196" height="180" transform="translate(0.5)" fill="white"/>
<path d="M41.6274 22.5802C77.6136 23.2486 102.682 5.14523 120.022 5.47165C137.362 5.79807 173.603 16.4041 172.11 95.8328C170.616 175.262 121.401 186.007 102.323 185.655C13.0049 183.992 -22.1123 21.3937 41.6274 22.5802Z" fill="url(#paint0_linear_2052_4567)"/>
<path d="M17.4707 21.689H9.35985V25.7266H17.4707V21.689Z" fill="#D4D8FF"/>
<path d="M40.791 21.689H32.6802V25.7266H40.791V21.689Z" fill="#D4D8FF"/>
<path d="M26.5996 7.55713H22.5442V15.6324H26.5996V7.55713Z" fill="#D4D8FF"/>
<path d="M26.5996 30.7739H22.5442V38.8492H26.5996V30.7739Z" fill="#D4D8FF"/>
<path d="M177.143 147.864C180.497 147.864 183.227 145.147 183.227 141.807C183.227 138.468 180.497 135.751 177.143 135.751C173.79 135.751 171.06 138.468 171.06 141.807C171.06 145.147 173.79 147.864 177.143 147.864ZM177.143 139.789C178.263 139.789 179.171 140.697 179.171 141.807C179.171 142.918 178.263 143.826 177.143 143.826C176.024 143.826 175.116 142.918 175.116 141.807C175.116 140.697 176.024 139.789 177.143 139.789Z" fill="#D4D8FF"/>
<path d="M137.06 137.125V35.313C137.06 26.6817 144.054 19.688 152.685 19.688H58.9355C48.5793 19.688 40.1855 28.0817 40.1855 38.438V137.138L137.06 137.125Z" fill="white"/>
<path d="M54.248 38.438C54.248 28.0817 62.6418 19.688 72.998 19.688H58.9355C48.5793 19.688 40.1855 28.0817 40.1855 38.438V129.325H54.248V38.438Z" fill="white"/>
<path d="M132.379 164.999C109.979 164.999 91.7539 146.774 91.7539 124.374C91.7539 101.974 109.979 83.7495 132.379 83.7495C154.779 83.7495 173.004 101.974 173.004 124.374C173.004 146.774 154.779 164.999 132.379 164.999ZM132.379 93.1245C115.148 93.1245 101.129 107.143 101.129 124.374C101.129 141.606 115.148 155.624 132.379 155.624C149.61 155.624 163.629 141.606 163.629 124.374C163.629 107.143 149.61 93.1245 132.379 93.1245Z" fill="#433ED1"/>
<path d="M54.5664 93.124H89.3164V102.499H54.5664V93.124Z" fill="#433ED1"/>
<path d="M54.5664 68.1245H117.129V77.4995H54.5664V68.1245Z" fill="#433ED1"/>
<path d="M54.5762 43.125H122.995V52.5H54.5762V43.125Z" fill="#433ED1"/>
<path d="M44.873 129.325H35.498V38.4375C35.498 25.5125 46.0105 15 58.9355 15H152.685V24.375H58.9355C51.1793 24.375 44.873 30.6812 44.873 38.4375V129.325Z" fill="#433ED1"/>
<path d="M168.316 49.3749H137.066C134.479 49.3749 132.379 47.2749 132.379 44.6874V35.3125C132.379 24.1125 141.491 15 152.691 15C163.891 15 173.004 24.1125 173.004 35.3125V44.6874C173.004 47.2749 170.904 49.3749 168.316 49.3749ZM141.754 40H163.629V35.3125C163.629 29.2812 158.723 24.375 152.691 24.375C146.66 24.375 141.754 29.2812 141.754 35.3125V40Z" fill="#433ED1"/>
<path d="M91.2499 165H40.1875C30.7062 165 23 157.294 23 147.812V129.312C23 126.725 25.1 124.625 27.6875 124.625H77.9374V134H32.375V147.812C32.375 152.119 35.8812 155.625 40.1875 155.625H91.2499V165Z" fill="#433ED1"/>
<path d="M132.379 44.6875H141.754V69.9375H132.379V44.6875Z" fill="#433ED1"/>
<path fill-rule="evenodd" clip-rule="evenodd" d="M132.477 133.656C138.041 133.656 142.552 129.145 142.552 123.581C142.552 118.017 138.041 113.506 132.477 113.506C126.913 113.506 122.402 118.017 122.402 123.581C122.402 129.145 126.913 133.656 132.477 133.656ZM132.477 141.25C142.235 141.25 150.146 133.339 150.146 123.581C150.146 113.823 142.235 105.913 132.477 105.913C122.719 105.913 114.809 113.823 114.809 123.581C114.809 133.339 122.719 141.25 132.477 141.25Z" fill="#433ED1"/>
<path fill-rule="evenodd" clip-rule="evenodd" d="M145.698 142.493L133.005 131.029L138.094 125.394L150.788 136.858L145.698 142.493Z" fill="#433ED1"/>
</g>
<defs>
<linearGradient id="paint0_linear_2052_4567" x1="90.6351" y1="5.46729" x2="90.6351" y2="185.663" gradientUnits="userSpaceOnUse">
<stop stop-color="#F1F2FF"/>
<stop offset="1" stop-color="#F1F2FF" stop-opacity="0"/>
</linearGradient>
<clipPath id="clip0_2052_4567">
<rect width="196" height="180" fill="white" transform="translate(0.5)"/>
</clipPath>
</defs>
</svg>
