<svg width="23" height="26" viewBox="0 0 23 26" fill="none" xmlns="http://www.w3.org/2000/svg">
<path d="M18.1478 25.7253L14.4878 21.7653C13.5878 22.0253 12.5978 22.1553 11.5178 22.1553C9.57781 22.1553 7.78781 21.7053 6.14781 20.8053C4.52781 19.8853 3.23781 18.6153 2.27781 16.9953C1.33781 15.3553 0.867813 13.5153 0.867813 11.4753C0.867813 9.43531 1.33781 7.60531 2.27781 5.98531C3.23781 4.36531 4.52781 3.10531 6.14781 2.20531C7.78781 1.28531 9.57781 0.825311 11.5178 0.825311C13.4778 0.825311 15.2678 1.28531 16.8878 2.20531C18.5278 3.10531 19.8178 4.36531 20.7578 5.98531C21.6978 7.60531 22.1678 9.43531 22.1678 11.4753C22.1678 13.3953 21.7478 15.1353 20.9078 16.6953C20.0878 18.2353 18.9478 19.4753 17.4878 20.4153L22.4978 25.7253H18.1478ZM4.37781 11.4753C4.37781 13.0153 4.67781 14.3753 5.27781 15.5553C5.89781 16.7153 6.74781 17.6153 7.82781 18.2553C8.90781 18.8753 10.1378 19.1853 11.5178 19.1853C12.8978 19.1853 14.1278 18.8753 15.2078 18.2553C16.2878 17.6153 17.1278 16.7153 17.7278 15.5553C18.3478 14.3753 18.6578 13.0153 18.6578 11.4753C18.6578 9.93531 18.3478 8.58531 17.7278 7.42531C17.1278 6.26531 16.2878 5.37531 15.2078 4.75531C14.1278 4.13531 12.8978 3.82531 11.5178 3.82531C10.1378 3.82531 8.90781 4.13531 7.82781 4.75531C6.74781 5.37531 5.89781 6.26531 5.27781 7.42531C4.67781 8.58531 4.37781 9.93531 4.37781 11.4753Z" fill="#433ED1"/>
</svg>
