<svg width="160" height="140" viewBox="0 0 160 140" fill="none" xmlns="http://www.w3.org/2000/svg">
<path fill-rule="evenodd" clip-rule="evenodd" d="M79.7098 31.1608C72.434 31.1608 66.5357 37.0853 66.5357 44.3936C66.5357 51.702 72.434 57.6265 79.7098 57.6265C86.9857 57.6265 92.884 51.702 92.884 44.3936C92.884 37.0853 86.9857 31.1608 79.7098 31.1608ZM57.7529 44.3936C57.7529 32.2131 67.5834 22.3389 79.7098 22.3389C91.8363 22.3389 101.667 32.2131 101.667 44.3936C101.667 56.5742 91.8363 66.4484 79.7098 66.4484C67.5834 66.4484 57.7529 56.5742 57.7529 44.3936Z" fill="white"/>
<path fill-rule="evenodd" clip-rule="evenodd" d="M79.7097 9.10609C60.3074 9.10609 44.5787 24.9049 44.5787 44.3937C44.5787 63.8826 60.3074 79.6814 79.7097 79.6814C99.1121 79.6814 114.841 63.8826 114.841 44.3937C114.841 24.9049 99.1121 9.10609 79.7097 9.10609ZM35.7959 44.3937C35.7959 20.0327 55.4568 0.28418 79.7097 0.28418C103.963 0.28418 123.624 20.0327 123.624 44.3937C123.624 68.7548 103.963 88.5033 79.7097 88.5033C55.4568 88.5033 35.7959 68.7548 35.7959 44.3937Z" fill="white"/>
<path d="M79.856 79.6816L104.74 80.7109C104.74 80.7109 99.9099 84.2396 92.7373 86.5921C85.5648 88.9446 79.856 88.5035 79.856 88.5035V79.6816Z" fill="#0A0E30"/>
<path d="M113.963 85.2685C113.963 85.2685 104.448 91.2968 79.71 88.2091C88.2 87.1799 100.496 85.2685 106.79 81.8867C109.279 83.357 111.182 83.5041 113.963 85.2685Z" fill="white"/>
<path d="M17.893 134.838L14.5024 130.78C13.5641 131.015 12.6045 131.132 11.6236 131.132C9.5338 131.132 7.6146 130.642 5.866 129.662C4.11739 128.682 2.7313 127.33 1.70772 125.605C0.68415 123.858 0.172363 121.888 0.172363 119.694C0.172363 117.521 0.68415 115.573 1.70772 113.847C2.7313 112.101 4.11739 110.737 5.866 109.758C7.6146 108.778 9.5338 108.288 11.6236 108.288C13.7347 108.288 15.6539 108.778 17.3812 109.758C19.1298 110.737 20.5052 112.101 21.5075 113.847C22.5311 115.573 23.0429 117.521 23.0429 119.694C23.0429 121.675 22.6164 123.485 21.7634 125.125C20.9317 126.744 19.7909 128.065 18.3408 129.087L23.4587 134.838H17.893ZM4.77845 119.694C4.77845 121.185 5.06633 122.495 5.64209 123.624C6.21785 124.753 7.01752 125.626 8.04109 126.244C9.08599 126.84 10.2802 127.138 11.6236 127.138C12.967 127.138 14.1505 126.84 15.1741 126.244C16.1977 125.626 16.9974 124.753 17.5731 123.624C18.1489 122.495 18.4368 121.185 18.4368 119.694C18.4368 118.203 18.1489 116.904 17.5731 115.796C16.9974 114.667 16.1977 113.805 15.1741 113.208C14.1505 112.612 12.967 112.314 11.6236 112.314C10.2802 112.314 9.08599 112.612 8.04109 113.208C7.01752 113.805 6.21785 114.667 5.64209 115.796C5.06633 116.904 4.77845 118.203 4.77845 119.694Z" fill="white"/>
<path d="M43.166 113.208V130.908H38.6559V128.672C38.0801 129.439 37.3231 130.046 36.3848 130.493C35.4678 130.919 34.4656 131.132 33.3781 131.132C31.992 131.132 30.7658 130.844 29.6996 130.269C28.6334 129.673 27.791 128.81 27.1726 127.681C26.5755 126.531 26.277 125.168 26.277 123.592V113.208H30.7551V122.953C30.7551 124.359 31.107 125.445 31.8107 126.212C32.5144 126.957 33.474 127.33 34.6895 127.33C35.9263 127.33 36.8966 126.957 37.6003 126.212C38.304 125.445 38.6559 124.359 38.6559 122.953V113.208H43.166Z" fill="white"/>
<path d="M46.4329 121.994C46.4329 120.205 46.7847 118.618 47.4884 117.234C48.2135 115.849 49.1837 114.784 50.3992 114.039C51.636 113.293 53.0115 112.921 54.5255 112.921C55.8476 112.921 56.9991 113.187 57.9801 113.719C58.9823 114.252 59.782 114.923 60.3791 115.732V113.208H64.8892V130.908H60.3791V128.32C59.8033 129.151 59.0036 129.843 57.9801 130.397C56.9778 130.93 55.8156 131.196 54.4935 131.196C53.0008 131.196 51.636 130.812 50.3992 130.046C49.1837 129.279 48.2135 128.203 47.4884 126.819C46.7847 125.413 46.4329 123.805 46.4329 121.994ZM60.3791 122.058C60.3791 120.972 60.1658 120.045 59.7393 119.279C59.3128 118.491 58.7371 117.894 58.0121 117.489C57.287 117.063 56.5087 116.85 55.677 116.85C54.8454 116.85 54.0777 117.053 53.374 117.458C52.6703 117.862 52.0945 118.459 51.6467 119.247C51.2202 120.013 51.007 120.929 51.007 121.994C51.007 123.059 51.2202 123.997 51.6467 124.806C52.0945 125.594 52.6703 126.201 53.374 126.627C54.099 127.053 54.8667 127.266 55.677 127.266C56.5087 127.266 57.287 127.064 58.0121 126.659C58.7371 126.233 59.3128 125.637 59.7393 124.87C60.1658 124.082 60.3791 123.145 60.3791 122.058Z" fill="white"/>
<path d="M79.0828 112.953C81.1939 112.953 82.8999 113.624 84.2007 114.965C85.5015 116.286 86.1518 118.139 86.1518 120.525V130.908H81.6737V121.132C81.6737 119.726 81.3219 118.65 80.6181 117.905C79.9144 117.138 78.9548 116.755 77.7393 116.755C76.5025 116.755 75.5216 117.138 74.7966 117.905C74.0929 118.65 73.741 119.726 73.741 121.132V130.908H69.2629V113.208H73.741V115.413C74.3381 114.646 75.0951 114.05 76.0121 113.624C76.9503 113.176 77.9739 112.953 79.0828 112.953Z" fill="white"/>
<path d="M95.6242 116.882V125.445C95.6242 126.041 95.7628 126.478 96.04 126.755C96.3385 127.01 96.829 127.138 97.5114 127.138H99.5905V130.908H96.7757C93.0012 130.908 91.114 129.077 91.114 125.413V116.882H89.0029V113.208H91.114V108.831H95.6242V113.208H99.5905V116.882H95.6242Z" fill="white"/>
<path d="M101.66 121.994C101.66 120.205 102.012 118.618 102.715 117.234C103.44 115.849 104.411 114.784 105.626 114.039C106.863 113.293 108.239 112.921 109.753 112.921C111.075 112.921 112.226 113.187 113.207 113.719C114.209 114.252 115.009 114.923 115.606 115.732V113.208H120.116V130.908H115.606V128.32C115.03 129.151 114.231 129.843 113.207 130.397C112.205 130.93 111.043 131.196 109.721 131.196C108.228 131.196 106.863 130.812 105.626 130.046C104.411 129.279 103.44 128.203 102.715 126.819C102.012 125.413 101.66 123.805 101.66 121.994ZM115.606 122.058C115.606 120.972 115.393 120.045 114.966 119.279C114.54 118.491 113.964 117.894 113.239 117.489C112.514 117.063 111.736 116.85 110.904 116.85C110.072 116.85 109.305 117.053 108.601 117.458C107.897 117.862 107.322 118.459 106.874 119.247C106.447 120.013 106.234 120.929 106.234 121.994C106.234 123.059 106.447 123.997 106.874 124.806C107.322 125.594 107.897 126.201 108.601 126.627C109.326 127.053 110.094 127.266 110.904 127.266C111.736 127.266 112.514 127.064 113.239 126.659C113.964 126.233 114.54 125.637 114.966 124.87C115.393 124.082 115.606 123.145 115.606 122.058Z" fill="white"/>
<path d="M128.968 107.266V130.908H124.49V107.266H128.968Z" fill="white"/>
<path d="M137.871 107.266V130.908H133.392V107.266H137.871Z" fill="white"/>
<path d="M159.248 113.208L148.277 139.279H143.51L147.349 130.461L140.248 113.208H145.27L149.844 125.573L154.482 113.208H159.248Z" fill="white"/>
</svg>
