<svg width="82" height="80" viewBox="0 0 82 80" fill="none" xmlns="http://www.w3.org/2000/svg">
<rect x="14.5918" y="10.4638" width="55.6692" height="53.3548" rx="10" transform="rotate(14.7136 14.5918 10.4638)" fill="#E5E7FF"/>
<path d="M15.7125 55.8434C16.5258 52.8082 14.7246 49.6884 11.6894 48.8751C8.65418 48.0618 5.53438 49.863 4.7211 52.8982C3.90783 55.9334 5.70904 59.0532 8.74423 59.8665C11.7794 60.6798 14.8992 58.8786 15.7125 55.8434Z" fill="#A1AAFF"/>
<path d="M39.0519 17.5927C39.8651 14.5575 38.0639 11.4377 35.0287 10.6244C31.9935 9.81117 28.8737 11.6124 28.0605 14.6476C27.2472 17.6828 29.0484 20.8026 32.0836 21.6158C35.1188 22.4291 38.2386 20.6279 39.0519 17.5927Z" fill="#A1AAFF"/>
<path d="M52.7022 44.8111C53.5155 41.7759 51.7143 38.6561 48.6791 37.8428C45.6439 37.0296 42.5241 38.8308 41.7108 41.866C40.8976 44.9012 42.6988 48.021 45.734 48.8342C48.7692 49.6475 51.889 47.8463 52.7022 44.8111Z" fill="#A1AAFF"/>
<path d="M10.2168 54.3708C8.18706 53.8269 6.73355 52.2463 6.21946 50.3546C5.53076 51.0392 4.99075 51.8919 4.7211 52.8982C3.90759 55.9343 5.70817 59.053 8.74423 59.8665C11.7803 60.68 14.899 58.8794 15.7125 55.8434C15.9821 54.8371 15.9408 53.8286 15.6867 52.8913C14.2956 54.2726 12.2465 54.9147 10.2168 54.3708Z" fill="#7B87FF"/>
<path d="M33.5562 16.1201C31.5264 15.5763 30.0729 13.9957 29.5588 12.1039C28.8701 12.7885 28.3301 13.6413 28.0605 14.6476C27.2469 17.6836 29.0475 20.8023 32.0836 21.6158C35.1197 22.4294 38.2383 20.6288 39.0519 17.5927C39.3215 16.5864 39.2802 15.5779 39.0261 14.6407C37.635 16.0219 35.5859 16.664 33.5562 16.1201Z" fill="#7B87FF"/>
<path d="M47.2065 43.3385C45.1768 42.7947 43.7233 41.2141 43.2092 39.3223C42.5205 40.0069 41.9805 40.8596 41.7108 41.866C40.8973 44.902 42.6979 48.0207 45.734 48.8342C48.77 49.6477 51.8887 47.8472 52.7022 44.8111C52.9719 43.8048 52.9306 42.7963 52.6765 41.8591C51.2854 43.2403 49.2363 43.8824 47.2065 43.3385Z" fill="#7B87FF"/>
<path d="M43.7578 65.9759C42.6753 70.0159 38.5067 72.4226 34.4668 71.3401C30.4268 70.2576 28.0201 66.089 29.1026 62.0491C30.1851 58.0091 34.3537 55.6024 38.3936 56.6849C42.4336 57.7674 44.8403 61.936 43.7578 65.9759ZM32.7664 63.0308C32.2251 65.0508 33.4285 67.135 35.4485 67.6763C37.4684 68.2175 39.5527 67.0142 40.094 64.9942C40.6352 62.9742 39.4319 60.8899 37.4119 60.3487C35.3919 59.8074 33.3076 61.0108 32.7664 63.0308Z" fill="#332FC0"/>
<path d="M30.7627 36.3147C29.6802 40.3547 25.5116 42.7614 21.4716 41.6789C17.4317 40.5964 15.025 36.4278 16.1075 32.3879C17.19 28.3479 21.3585 25.9412 25.3985 27.0237C29.4384 28.1062 31.8452 32.2748 30.7627 36.3147ZM19.7713 33.3696C19.23 35.3895 20.4334 37.4738 22.4534 38.0151C24.4733 38.5563 26.5576 37.353 27.0989 35.333C27.6401 33.313 26.4368 31.2287 24.4168 30.6875C22.3968 30.1462 20.3125 31.3496 19.7713 33.3696Z" fill="#332FC0"/>
<path d="M32.1846 58.9855L24.253 40.89L27.728 39.3669L35.6596 57.4624L32.1846 58.9855Z" fill="#332FC0"/>
<path d="M17.5444 56.3341C16.4619 60.374 12.2933 62.7807 8.25338 61.6982C4.21343 60.6157 1.8067 56.4472 2.88921 52.4072C3.97171 48.3673 8.14028 45.9605 12.1802 47.043C16.2202 48.1255 18.6269 52.2941 17.5444 56.3341ZM6.55301 53.3889C6.01176 55.4089 7.21512 57.4932 9.23509 58.0344C11.2551 58.5757 13.3394 57.3723 13.8806 55.3523C14.4219 53.3324 13.2185 51.2481 11.1985 50.7068C9.17854 50.1656 7.09426 51.3689 6.55301 53.3889Z" fill="#332FC0"/>
<path d="M40.8838 18.0835C39.8013 22.1234 35.6327 24.5301 31.5927 23.4476C27.5528 22.3651 25.1461 18.1966 26.2286 14.1566C27.3111 10.1167 31.4796 7.70993 35.5196 8.79243C39.5595 9.87493 41.9663 14.0435 40.8838 18.0835ZM29.8924 15.1383C29.3511 17.1583 30.5545 19.2426 32.5744 19.7838C34.5944 20.3251 36.6787 19.1217 37.22 17.1017C37.7612 15.0818 36.5578 12.9975 34.5379 12.4562C32.5179 11.915 30.4336 13.1183 29.8924 15.1383Z" fill="#332FC0"/>
<path d="M54.5337 45.3021C53.4512 49.342 49.2826 51.7487 45.2426 50.6662C41.2027 49.5837 38.796 45.4152 39.8785 41.3752C40.961 37.3353 45.1295 34.9285 49.1695 36.011C53.2094 37.0935 55.6162 41.2621 54.5337 45.3021ZM43.5423 42.3569C43.001 44.3769 44.2044 46.4612 46.2244 47.0024C48.2443 47.5437 50.3286 46.3403 50.8699 44.3203C51.4111 42.3004 50.2078 40.2161 48.1878 39.6748C46.1678 39.1336 44.0835 40.3369 43.5423 42.3569Z" fill="#332FC0"/>
<path d="M16.8457 54.3854L15.7623 50.7494L40.6421 43.336L41.7255 46.972L16.8457 54.3854Z" fill="#332FC0"/>
<path d="M42.71 38.537L34.7386 22.6154L38.131 20.917L46.1023 36.8385L42.71 38.537Z" fill="#332FC0"/>
<path d="M60.0783 31.3445C58.0139 28.9755 58.2607 25.3815 60.6297 23.3171C62.9987 21.2527 66.5926 21.4996 68.6571 23.8685C70.7215 26.2375 70.4746 29.8315 68.1056 31.8959C65.7367 33.9603 62.1427 33.7134 60.0783 31.3445Z" fill="#A1AAFF"/>
<path d="M66.0109 25.1617C66.3474 24.1775 66.3753 23.1704 66.1879 22.2201C66.1967 22.2225 66.2038 22.223 66.2126 22.2254C69.1841 23.245 70.7685 26.4796 69.7489 29.451C68.7293 32.4225 65.4947 34.0069 62.5233 32.9873C60.5341 32.3058 59.1923 30.6275 58.8101 28.7032C61.7756 29.7045 64.9954 28.1262 66.0109 25.1617V25.1617Z" fill="#7B87FF"/>
<path d="M58.6584 32.5983C59.504 33.5686 60.6039 34.3342 61.9066 34.7821C63.8221 35.4407 65.8795 35.3114 67.699 34.4201C69.5184 33.5289 70.8846 31.9828 71.5431 30.0673C72.8991 26.1117 70.7816 21.792 66.8282 20.4308C62.8726 19.0747 58.5496 21.1884 57.1917 25.1456C56.2817 27.8002 56.9356 30.6214 58.6584 32.5983ZM67.222 25.1088C68.0859 26.1001 68.4104 27.5078 67.9552 28.8369C67.626 29.7946 66.9455 30.5687 66.0333 31.0115C65.1227 31.4562 64.095 31.52 63.137 31.1943C61.1601 30.5154 60.1007 28.3529 60.7795 26.376C61.4584 24.3992 63.619 23.3414 65.5978 24.0186C66.2475 24.2407 66.8 24.6245 67.222 25.1088V25.1088Z" fill="#332FC0"/>
<path d="M60.6543 33.2105L58.1623 30.3509L50.7751 36.7885L53.267 39.6481L60.6543 33.2105Z" fill="#332FC0"/>
</svg>
