<svg width="51" height="37" viewBox="0 0 51 37" fill="none" xmlns="http://www.w3.org/2000/svg">
<rect width="50" height="36" transform="translate(0.297119 0.756592)" fill="white"/>
<path d="M17.4622 25.1707L7.56738 19.9465V29.6525C7.56738 30.6989 8.42509 31.5464 9.48405 31.5464H27.2132C28.2722 31.5464 29.1299 30.6989 29.1299 29.6525V19.9465L19.2351 25.1707C18.6793 25.4576 18.018 25.4576 17.4622 25.1707Z" fill="#F3F3F1"/>
<path d="M8.53817 17.0264C7.93826 17.3625 7.56738 17.9922 7.56738 18.6731V19.9467L10.4424 21.4646V21.4334V15.9583L8.53817 17.0264Z" fill="#F3F3F1"/>
<path d="M28.1581 17.0264L26.2539 15.9583V21.4334V21.4646L29.1289 19.9467V18.674C29.1289 17.9922 28.758 17.3635 28.1581 17.0264Z" fill="#F3F3F1"/>
<path d="M27.2122 32.2567H9.48307C8.02928 32.2567 6.84766 31.0891 6.84766 29.6526V18.673C6.84766 17.7384 7.35845 16.871 8.18261 16.408L10.0868 15.3398L10.796 16.5756L8.89178 17.6437C8.51707 17.8539 8.28516 18.2478 8.28516 18.673V29.6526C8.28516 30.305 8.82278 30.8363 9.48307 30.8363H27.2122C27.8725 30.8363 28.4102 30.305 28.4102 29.6526V18.673C28.4102 18.2478 28.1782 17.8539 27.8035 17.6437L25.8993 16.5756L26.6085 15.3398L28.5127 16.408C29.3369 16.871 29.8477 17.7384 29.8477 18.673V29.6526C29.8477 31.0891 28.666 32.2567 27.2122 32.2567Z" fill="#433ED1"/>
<path d="M18.3461 26.0949C17.9273 26.0949 17.5105 25.9964 17.129 25.8004L7.22754 20.5724L7.90508 19.3206L17.7999 24.5457C18.1391 24.719 18.5541 24.7209 18.901 24.5419L28.7891 19.3206L29.4666 20.5724L19.5718 25.7975C19.1875 25.9964 18.7668 26.0949 18.3461 26.0949Z" fill="#433ED1"/>
<path d="M26.9729 21.4334H25.5354V8.79567C25.5354 7.90897 24.9978 7.187 24.3375 7.187H12.3583C11.698 7.187 11.1604 7.90897 11.1604 8.79567V21.4334H9.7229V8.79567C9.7229 6.84338 10.9045 5.25659 12.3583 5.25659H24.3375C25.7913 5.25659 26.9729 6.84338 26.9729 8.79567V21.4334Z" fill="#433ED1"/>
<path d="M13.3633 9.04883H23.3326V10.2751H13.3633V9.04883Z" fill="#433ED1"/>
<path d="M13.3633 12.1943H23.3326V13.4206H13.3633V12.1943Z" fill="#433ED1"/>
<path d="M13.3633 15.3401H23.3326V16.5663H13.3633V15.3401Z" fill="#433ED1"/>
<path d="M13.3633 18.4854H23.3326V19.7116H13.3633V18.4854Z" fill="#433ED1"/>
</svg>
