<svg width="442" height="371" viewBox="0 0 442 371" fill="none" xmlns="http://www.w3.org/2000/svg">
<path d="M360.075 39.4677C330.715 19.9577 295.225 12.6477 257.015 29.1777C219.245 45.5177 199.865 84.1077 167.205 107.008C132.465 131.358 87.205 134.008 49.525 152.848C22.905 166.188 4.94497 190.848 1.09497 220.438C-6.43503 278.378 25.435 336.988 79.355 360.258C112.985 374.768 151.855 373.948 185.285 359.258C210.945 347.988 233.135 329.908 258.695 318.178C303.075 297.778 355.045 298.778 397.335 272.848C442.095 245.428 447.105 196.588 436.005 151.518C425.915 110.558 398.145 64.7777 360.075 39.4677Z" fill="#433ED1"/>
<path opacity="0.7" d="M360.075 39.4677C330.715 19.9577 295.225 12.6477 257.015 29.1777C219.245 45.5177 199.865 84.1077 167.205 107.008C132.465 131.358 87.205 134.008 49.525 152.848C22.905 166.188 4.94497 190.848 1.09497 220.438C-6.43503 278.378 25.435 336.988 79.355 360.258C112.985 374.768 151.855 373.948 185.285 359.258C210.945 347.988 233.135 329.908 258.695 318.178C303.075 297.778 355.045 298.778 397.335 272.848C442.095 245.428 447.105 196.588 436.005 151.518C425.915 110.558 398.145 64.7777 360.075 39.4677Z" fill="white"/>
<path d="M200.625 369.858C171.755 369.858 145.245 364.918 121.825 355.188C81.6949 338.498 47.3249 305.618 29.8949 267.188C28.6949 264.558 27.5249 261.738 26.4149 258.828C14.7149 228.318 11.7049 193.228 17.7149 157.338C26.5149 104.758 53.2049 59.1278 90.9149 32.1678C119.915 11.4378 156.295 0.0278334 193.395 0.0278334C204.699 0.0264203 215.979 1.08775 227.085 3.19783C258.945 9.26783 285.875 25.5278 302.925 48.9678C305.925 53.1578 308.855 57.4378 311.655 61.5878C317.865 70.7778 323.725 79.4678 331.345 87.5878C343.535 100.588 357.345 112.088 368.035 120.658C378.725 129.228 389.715 138.928 399.415 153.078C407.573 165.281 413.684 178.735 417.505 192.908C436.875 262.898 384.205 322.778 322.165 345.778C292.595 356.778 247.495 369.828 200.635 369.828L200.625 369.858Z" fill="#263238"/>
<path d="M184.435 34.2979C184.435 34.8794 184.262 35.4478 183.939 35.9313C183.616 36.4148 183.157 36.7916 182.62 37.0141C182.083 37.2366 181.491 37.2949 180.921 37.1814C180.351 37.068 179.827 36.788 179.416 36.3768C179.005 35.9656 178.725 35.4418 178.611 34.8715C178.498 34.3012 178.556 33.71 178.778 33.1728C179.001 32.6356 179.378 32.1764 179.861 31.8534C180.345 31.5303 180.913 31.3579 181.495 31.3579C182.274 31.3579 183.022 31.6677 183.574 32.219C184.125 32.7704 184.435 33.5182 184.435 34.2979Z" fill="white"/>
<path d="M364.325 148.918C364.325 149.502 364.151 150.072 363.826 150.556C363.5 151.041 363.038 151.418 362.498 151.639C361.958 151.86 361.364 151.915 360.793 151.797C360.221 151.68 359.697 151.395 359.288 150.979C358.879 150.562 358.603 150.034 358.495 149.46C358.388 148.887 358.453 148.294 358.683 147.758C358.913 147.222 359.298 146.766 359.788 146.449C360.278 146.132 360.851 145.968 361.435 145.978C362.207 145.988 362.943 146.303 363.484 146.854C364.026 147.404 364.328 148.146 364.325 148.918Z" fill="white"/>
<path d="M50.2847 171.378C51.9084 171.378 53.2247 170.062 53.2247 168.438C53.2247 166.814 51.9084 165.498 50.2847 165.498C48.661 165.498 47.3447 166.814 47.3447 168.438C47.3447 170.062 48.661 171.378 50.2847 171.378Z" fill="white"/>
<path d="M98.4449 75.0577C100.069 75.0577 101.385 73.7415 101.385 72.1177C101.385 70.494 100.069 69.1777 98.4449 69.1777C96.8212 69.1777 95.5049 70.494 95.5049 72.1177C95.5049 73.7415 96.8212 75.0577 98.4449 75.0577Z" fill="white"/>
<path d="M217.905 22.2579C217.903 22.5482 217.815 22.8314 217.652 23.0718C217.489 23.3122 217.259 23.4991 216.99 23.6088C216.722 23.7186 216.426 23.7462 216.142 23.6884C215.857 23.6305 215.596 23.4898 215.392 23.2838C215.187 23.0778 215.048 22.8159 214.992 22.531C214.936 22.2461 214.966 21.9511 215.078 21.683C215.189 21.415 215.378 21.186 215.619 21.0249C215.861 20.8638 216.144 20.7779 216.435 20.7779C216.629 20.7765 216.822 20.814 217.001 20.888C217.181 20.962 217.344 21.0711 217.481 21.209C217.618 21.3468 217.726 21.5106 217.799 21.6907C217.871 21.8708 217.907 22.0636 217.905 22.2579Z" fill="white"/>
<path d="M263.325 71.678C263.325 71.9692 263.238 72.2538 263.076 72.4958C262.914 72.7377 262.684 72.9261 262.415 73.0371C262.146 73.148 261.85 73.1766 261.564 73.119C261.279 73.0615 261.017 72.9205 260.812 72.7139C260.607 72.5073 260.467 72.2445 260.412 71.9587C260.356 71.6728 260.387 71.377 260.5 71.1085C260.612 70.8401 260.802 70.6112 261.045 70.4509C261.288 70.2906 261.574 70.2061 261.865 70.208C262.057 70.208 262.248 70.2461 262.426 70.3201C262.604 70.3941 262.765 70.5026 262.901 70.6392C263.036 70.7758 263.144 70.938 263.216 71.1163C263.289 71.2946 263.326 71.4855 263.325 71.678Z" fill="white"/>
<path d="M62.865 107.428C63.6769 107.428 64.335 106.77 64.335 105.958C64.335 105.146 63.6769 104.488 62.865 104.488C62.0532 104.488 61.395 105.146 61.395 105.958C61.395 106.77 62.0532 107.428 62.865 107.428Z" fill="white"/>
<path d="M112.765 67.3379C112.767 67.6291 112.682 67.9143 112.522 68.1573C112.362 68.4004 112.133 68.5903 111.864 68.7031C111.596 68.8159 111.3 68.8465 111.014 68.7909C110.728 68.7353 110.465 68.5961 110.259 68.3909C110.052 68.1857 109.911 67.9238 109.854 67.6384C109.796 67.353 109.825 67.0569 109.936 66.7877C110.047 66.5185 110.235 66.2883 110.477 66.1264C110.719 65.9644 111.004 65.8779 111.295 65.8779C111.683 65.8779 112.055 66.0314 112.331 66.3049C112.606 66.5785 112.762 66.9498 112.765 67.3379Z" fill="white"/>
<path d="M180.455 19.5079C181.267 19.5079 181.925 18.8497 181.925 18.0379C181.925 17.226 181.267 16.5679 180.455 16.5679C179.643 16.5679 178.985 17.226 178.985 18.0379C178.985 18.8497 179.643 19.5079 180.455 19.5079Z" fill="white"/>
<path d="M218.475 100.488C219.287 100.488 219.945 99.8297 219.945 99.0179C219.945 98.206 219.287 97.5479 218.475 97.5479C217.663 97.5479 217.005 98.206 217.005 99.0179C217.005 99.8297 217.663 100.488 218.475 100.488Z" fill="white"/>
<path d="M30.325 228.218C31.1368 228.218 31.795 227.56 31.795 226.748C31.795 225.936 31.1368 225.278 30.325 225.278C29.5131 225.278 28.855 225.936 28.855 226.748C28.855 227.56 29.5131 228.218 30.325 228.218Z" fill="white"/>
<path d="M54.7849 250.178C55.5968 250.178 56.2549 249.52 56.2549 248.708C56.2549 247.896 55.5968 247.238 54.7849 247.238C53.9731 247.238 53.3149 247.896 53.3149 248.708C53.3149 249.52 53.9731 250.178 54.7849 250.178Z" fill="white"/>
<path d="M45.075 259.128C45.8868 259.128 46.545 258.47 46.545 257.658C46.545 256.846 45.8868 256.188 45.075 256.188C44.2631 256.188 43.605 256.846 43.605 257.658C43.605 258.47 44.2631 259.128 45.075 259.128Z" fill="white"/>
<path d="M144.875 24.9879C145.687 24.9879 146.345 24.3297 146.345 23.5179C146.345 22.706 145.687 22.0479 144.875 22.0479C144.063 22.0479 143.405 22.706 143.405 23.5179C143.405 24.3297 144.063 24.9879 144.875 24.9879Z" fill="white"/>
<path d="M170.905 95.2779C171.717 95.2779 172.375 94.6198 172.375 93.8079C172.375 92.996 171.717 92.3379 170.905 92.3379C170.093 92.3379 169.435 92.996 169.435 93.8079C169.435 94.6198 170.093 95.2779 170.905 95.2779Z" fill="white"/>
<path d="M192.692 90.5855C196.574 89.9568 199.211 86.3004 198.582 82.4187C197.953 78.537 194.297 75.8999 190.415 76.5286C186.533 77.1573 183.896 80.8137 184.525 84.6954C185.154 88.5771 188.81 91.2142 192.692 90.5855Z" fill="white"/>
<path d="M39.4349 145.188C43.3672 145.188 46.5549 142 46.5549 138.068C46.5549 134.135 43.3672 130.948 39.4349 130.948C35.5027 130.948 32.3149 134.135 32.3149 138.068C32.3149 142 35.5027 145.188 39.4349 145.188Z" fill="white"/>
<path d="M88.3748 114.638C90.8214 114.638 92.8048 112.654 92.8048 110.208C92.8048 107.761 90.8214 105.778 88.3748 105.778C85.9282 105.778 83.9448 107.761 83.9448 110.208C83.9448 112.654 85.9282 114.638 88.3748 114.638Z" fill="white"/>
<path d="M255.435 151.958C257.881 151.958 259.865 149.974 259.865 147.528C259.865 145.081 257.881 143.098 255.435 143.098C252.988 143.098 251.005 145.081 251.005 147.528C251.005 149.974 252.988 151.958 255.435 151.958Z" fill="white"/>
<path d="M262.115 33.0677C258.565 32.5777 258.175 32.1877 257.685 28.6377C257.205 32.1877 256.815 32.5777 253.265 33.0677C256.815 33.5477 257.205 33.9377 257.685 37.4877C258.175 33.9377 258.565 33.5477 262.115 33.0677Z" fill="white"/>
<path d="M293.145 190.428H272.245L277.935 144.718V136.528H287.455V144.718L293.145 190.428Z" fill="white" stroke="#263238" stroke-width="1.07731" stroke-linecap="round" stroke-linejoin="round"/>
<path d="M329.865 190.428H310.075L315.215 144.918V136.528H324.725V144.718L329.865 190.428Z" fill="white" stroke="#263238" stroke-width="1.07731" stroke-linecap="round" stroke-linejoin="round"/>
<path d="M283.925 38.2078C283.842 37.9771 283.69 37.7776 283.49 37.6366C283.289 37.4956 283.05 37.4199 282.805 37.4199C282.56 37.4199 282.321 37.4956 282.12 37.6366C281.92 37.7776 281.768 37.9771 281.685 38.2078L280.105 42.7778C278.396 47.6977 277.524 52.8694 277.525 58.0778V141.778H288.085V58.0778C288.086 52.8694 287.214 47.6977 285.505 42.7778L283.925 38.2078Z" fill="white" stroke="#263238" stroke-width="1.07731" stroke-linecap="round" stroke-linejoin="round"/>
<path d="M289.715 141.098H275.905V147.608H289.715V141.098Z" fill="#263238" stroke="white" stroke-width="1.07731" stroke-linecap="round" stroke-linejoin="round"/>
<path d="M321.255 38.2078C321.175 37.976 321.024 37.775 320.824 37.6328C320.624 37.4905 320.385 37.4141 320.14 37.4141C319.895 37.4141 319.655 37.4905 319.456 37.6328C319.256 37.775 319.105 37.976 319.025 38.2078L317.435 42.7778C315.726 47.6978 314.854 52.8695 314.855 58.0778V141.778H325.435V58.0778C325.435 52.8704 324.566 47.6996 322.865 42.7778L321.255 38.2078Z" fill="white" stroke="#263238" stroke-width="1.07731" stroke-linecap="round" stroke-linejoin="round"/>
<path d="M302.625 14.8379C302.517 14.6707 302.369 14.5332 302.194 14.438C302.02 14.3429 301.824 14.293 301.625 14.293C301.426 14.293 301.23 14.3429 301.055 14.438C300.881 14.5332 300.733 14.6707 300.625 14.8379L297.155 20.6679C293.24 27.2266 291.167 34.7198 291.155 42.3579V122.258H311.975V42.3579C311.962 34.7198 309.889 27.2266 305.975 20.6679L302.625 14.8379Z" fill="#263238" stroke="white" stroke-width="1.07731" stroke-linecap="round" stroke-linejoin="round"/>
<path d="M327.045 141.098H313.235V147.608H327.045V141.098Z" fill="#263238" stroke="white" stroke-width="1.07731" stroke-linecap="round" stroke-linejoin="round"/>
<path d="M295.215 65.258C295.215 65.258 289.605 93.548 278.645 104.508C275.056 107.938 271.814 111.713 268.965 115.778C267.79 117.558 267.168 119.645 267.175 121.778V132.588H297.505V62.208L295.215 65.258Z" fill="white" stroke="#263238" stroke-width="1.07731" stroke-linecap="round" stroke-linejoin="round"/>
<path d="M267.435 128.208H294.705" stroke="#263238" stroke-width="1.07731" stroke-linecap="round" stroke-linejoin="round"/>
<path d="M308.075 65.6479C308.075 65.6479 313.685 93.9279 324.645 104.888C328.232 108.312 331.474 112.08 334.325 116.138C335.497 117.919 336.12 120.006 336.115 122.138V132.948H305.785V62.5879L308.075 65.6479Z" fill="white" stroke="#263238" stroke-width="1.07731" stroke-linecap="round" stroke-linejoin="round"/>
<path d="M308.465 128.208H335.725" stroke="#263238" stroke-width="1.07731" stroke-linecap="round" stroke-linejoin="round"/>
<path d="M302.295 45.1677C301.913 45.1277 301.527 45.1277 301.145 45.1677C300.01 45.3184 298.957 45.844 298.155 46.6611C297.352 47.4781 296.845 48.5398 296.715 49.6777V49.9277C295.715 54.8277 294.475 61.1877 294.475 66.7477V134.178H309.075V66.7777C309.075 61.2177 307.835 54.8577 306.825 49.9577V49.7077C306.696 48.5495 306.178 47.4694 305.355 46.6445C304.532 45.8196 303.453 45.2988 302.295 45.1677Z" fill="white" stroke="#263238" stroke-width="1.07731" stroke-linecap="round" stroke-linejoin="round"/>
<path d="M296.435 120.308H297.175C298.053 120.308 298.895 120.657 299.515 121.278C300.136 121.898 300.485 122.74 300.485 123.618V133.618H293.115V123.618C293.115 123.183 293.201 122.751 293.368 122.349C293.535 121.947 293.779 121.582 294.088 121.274C294.396 120.967 294.762 120.723 295.165 120.557C295.568 120.391 295.999 120.307 296.435 120.308Z" fill="white" stroke="#263238" stroke-width="1.07731" stroke-linecap="round" stroke-linejoin="round"/>
<path d="M301.585 132.948H291.935V139.458H301.585V132.948Z" fill="#263238" stroke="#263238" stroke-width="1.07731" stroke-linecap="round" stroke-linejoin="round"/>
<path d="M306.325 120.308H307.065C307.943 120.308 308.785 120.657 309.405 121.278C310.026 121.898 310.375 122.74 310.375 123.618V133.618H303.005V123.618C303.005 123.183 303.091 122.751 303.258 122.349C303.425 121.947 303.669 121.582 303.978 121.274C304.286 120.967 304.652 120.723 305.055 120.557C305.458 120.391 305.889 120.307 306.325 120.308Z" fill="white" stroke="#263238" stroke-width="1.07731" stroke-linecap="round" stroke-linejoin="round"/>
<path d="M311.525 132.948H301.875V139.458H311.525V132.948Z" fill="#263238" stroke="#263238" stroke-width="1.07731" stroke-linecap="round" stroke-linejoin="round"/>
<path d="M302.295 45.1677C301.913 45.1277 301.527 45.1277 301.145 45.1677C300.098 45.3042 299.119 45.7622 298.343 46.4787C297.568 47.1952 297.034 48.1347 296.815 49.1677H306.625C306.407 48.1341 305.874 47.1938 305.098 46.4771C304.322 45.7603 303.342 45.3027 302.295 45.1677Z" fill="#263238" stroke="#263238" stroke-width="1.07731" stroke-linecap="round" stroke-linejoin="round"/>
<path d="M298.775 57.248C297.716 57.9696 296.855 58.9457 296.271 60.0867C295.688 61.2276 295.4 62.497 295.435 63.778C295.435 63.948 295.435 64.118 295.435 64.288C295.474 63.1 295.793 61.9379 296.364 60.8957C296.936 59.8534 297.745 58.9601 298.725 58.288L298.775 57.248Z" fill="#263238"/>
<path d="M304.125 56.8481C303.407 56.5184 302.625 56.3477 301.835 56.3477C301.044 56.3477 300.263 56.5184 299.545 56.8481V57.8481C300.265 57.5253 301.046 57.3584 301.835 57.3584C302.624 57.3584 303.405 57.5253 304.125 57.8481V56.8481Z" fill="#263238"/>
<path d="M304.895 57.248V58.248C305.877 58.9184 306.687 59.8113 307.259 60.8539C307.831 61.8966 308.148 63.0595 308.185 64.248C308.185 64.078 308.185 63.908 308.185 63.738C308.219 62.4682 307.935 61.2099 307.361 60.0768C306.787 58.9438 305.939 57.9716 304.895 57.248Z" fill="#263238"/>
<path d="M306.315 48.2477C305.981 47.4256 305.435 46.707 304.732 46.1658C304.029 45.6245 303.195 45.28 302.315 45.1677C301.933 45.1277 301.547 45.1277 301.165 45.1677C300.294 45.2727 299.465 45.6052 298.763 46.1318C298.061 46.6584 297.51 47.3605 297.165 48.1677" stroke="white" stroke-width="0.538656" stroke-linecap="round" stroke-linejoin="round"/>
<path d="M416.065 193.358C415.775 192.358 415.475 191.288 415.165 190.258C410.655 191.671 406.505 194.043 402.997 197.21C399.49 200.377 396.709 204.265 394.845 208.608C394.765 208.788 394.705 208.968 394.625 209.148C393.918 208.914 393.192 208.744 392.455 208.638C391.962 204.268 390.06 200.177 387.038 196.982C384.016 193.787 380.036 191.662 375.7 190.927C371.364 190.192 366.907 190.887 363 192.908C359.094 194.928 355.951 198.164 354.045 202.128C353.04 200.989 351.782 200.101 350.372 199.535C348.962 198.969 347.439 198.74 345.925 198.868C346.375 196.058 346.024 193.178 344.912 190.558C343.799 187.939 341.97 185.686 339.635 184.059C337.3 182.432 334.554 181.497 331.711 181.361C328.869 181.224 326.045 181.892 323.565 183.288C322.654 181.842 321.404 180.639 319.923 179.784C318.443 178.929 316.777 178.447 315.069 178.38C313.361 178.313 311.662 178.663 310.12 179.4C308.577 180.136 307.237 181.238 306.215 182.608C304.917 184.344 304.19 186.441 304.135 188.608C302.93 187.999 301.62 187.629 300.275 187.518C300.013 185.427 299.112 183.468 297.695 181.908C296.616 180.682 295.265 179.726 293.751 179.114C292.237 178.503 290.601 178.253 288.974 178.385C287.346 178.517 285.772 179.027 284.376 179.875C282.981 180.723 281.802 181.884 280.935 183.268C278.455 181.869 275.63 181.199 272.786 181.334C269.941 181.469 267.193 182.404 264.856 184.031C262.52 185.659 260.69 187.913 259.577 190.534C258.464 193.155 258.113 196.036 258.565 198.848C257.052 198.719 255.531 198.946 254.122 199.513C252.713 200.079 251.457 200.968 250.455 202.108C248.551 198.14 245.408 194.899 241.5 192.875C237.592 190.851 233.132 190.154 228.793 190.89C224.453 191.625 220.471 193.752 217.448 196.951C214.425 200.149 212.525 204.244 212.035 208.618C211.298 208.726 210.573 208.897 209.865 209.128L209.655 208.588C206.831 202.038 201.955 196.583 195.761 193.046C189.567 189.509 182.391 188.082 175.315 188.979C168.239 189.876 161.646 193.05 156.531 198.021C151.415 202.991 148.054 209.49 146.955 216.538C139.24 221.045 133.522 228.31 130.955 236.868C130.235 236.828 129.515 236.808 128.795 236.808C120.101 236.808 111.591 239.304 104.275 244C96.9585 248.696 91.1449 255.394 87.525 263.298C78.3519 263.9 69.6347 267.516 62.7284 273.583C55.8221 279.65 51.1137 287.829 49.335 296.848C53.7955 302.763 58.6251 308.391 63.795 313.698H309.795C342.705 313.698 374.625 301.518 398.555 278.928C405.415 272.458 410.925 265.688 413.505 258.648C417.501 247.835 419.697 236.441 420.005 224.918C420.253 214.261 418.925 203.626 416.065 193.358Z" fill="white"/>
<path opacity="0.5" d="M416.965 224.778C410.784 224.777 404.72 226.472 399.435 229.678C396.202 224.954 391.254 221.677 385.644 220.542C380.033 219.406 374.201 220.503 369.385 223.598C366.857 219.221 363.219 215.588 358.839 213.065C354.458 210.542 349.49 209.218 344.435 209.228C343.505 209.228 342.575 209.278 341.665 209.368C339.956 206.792 337.311 204.982 334.291 204.323C331.27 203.664 328.112 204.207 325.485 205.838C325.485 205.588 325.485 205.338 325.485 205.088C325.486 202.853 324.858 200.662 323.673 198.767C322.488 196.872 320.794 195.348 318.783 194.371C316.773 193.393 314.528 193.001 312.306 193.24C310.083 193.478 307.973 194.337 306.215 195.718C304.907 194.596 303.345 193.81 301.664 193.428C299.984 193.046 298.235 193.08 296.57 193.526C294.906 193.972 293.375 194.818 292.111 195.989C290.846 197.16 289.887 198.622 289.315 200.248C287.808 199.2 286.056 198.56 284.228 198.392C282.4 198.224 280.56 198.533 278.888 199.289C277.215 200.045 275.767 201.221 274.685 202.704C273.603 204.187 272.924 205.925 272.715 207.748C270.755 206.925 268.636 206.552 266.513 206.656C264.389 206.76 262.316 207.338 260.446 208.348C258.576 209.358 256.955 210.774 255.704 212.493C254.453 214.211 253.602 216.188 253.215 218.278C251.625 217.184 249.79 216.497 247.872 216.278C245.954 216.058 244.012 216.312 242.215 217.018H241.825C240.329 217.019 238.838 217.2 237.385 217.558C235.822 216.679 234.059 216.218 232.265 216.218C230.069 216.218 227.928 216.901 226.136 218.171C224.345 219.441 222.992 221.236 222.265 223.308C220.831 222.313 219.175 221.685 217.441 221.481C215.708 221.277 213.951 221.503 212.325 222.138C204.795 220.308 196.867 221.094 189.841 224.364C182.816 227.635 177.112 233.198 173.665 240.138C170.264 240.342 166.981 241.461 164.165 243.378C161.348 245.295 159.102 247.939 157.665 251.028C151.751 246.618 144.569 244.239 137.192 244.247C129.814 244.254 122.637 246.648 116.732 251.07C110.827 255.493 106.511 261.706 104.428 268.784C102.345 275.861 102.607 283.422 105.175 290.338C99.3198 286.858 92.5542 285.217 85.7552 285.628C79.5148 286.01 73.4972 288.089 68.3515 291.64C63.2057 295.191 59.127 300.079 56.5552 305.778C74.5214 326.643 97.0686 343.07 122.435 353.778C145.665 363.438 171.985 368.338 200.655 368.338C247.295 368.338 292.205 355.338 321.655 344.338C373.455 325.128 418.655 279.988 420.055 224.858C419.025 224.828 418.005 224.778 416.965 224.778Z" fill="#263238"/>
<path d="M403.975 260.428C400.741 255.704 395.794 252.427 390.183 251.292C384.573 250.156 378.74 251.253 373.925 254.348C371.404 249.978 367.776 246.348 363.407 243.826C359.037 241.303 354.08 239.976 349.035 239.978C348.095 239.978 347.175 240.028 346.265 240.118C344.556 237.542 341.912 235.732 338.892 235.071C335.872 234.411 332.713 234.951 330.085 236.578C330.085 236.338 330.085 236.088 330.085 235.828C330.084 233.594 329.455 231.404 328.269 229.511C327.083 227.617 325.388 226.095 323.378 225.119C321.369 224.142 319.125 223.751 316.903 223.99C314.681 224.228 312.572 225.087 310.815 226.468C309.507 225.346 307.944 224.56 306.264 224.178C304.583 223.796 302.835 223.83 301.17 224.276C299.505 224.722 297.975 225.568 296.71 226.739C295.446 227.91 294.487 229.372 293.915 230.998C292.408 229.95 290.655 229.31 288.828 229.142C287 228.974 285.16 229.283 283.487 230.039C281.814 230.795 280.367 231.971 279.285 233.454C278.203 234.937 277.524 236.675 277.315 238.498C275.167 237.597 272.832 237.236 270.513 237.447C268.193 237.658 265.961 238.434 264.012 239.709C262.062 240.983 260.455 242.716 259.331 244.756C258.207 246.795 257.601 249.079 257.565 251.408C255.312 249.754 252.721 248.621 249.977 248.091C247.233 247.561 244.405 247.648 241.699 248.344C238.993 249.041 236.475 250.33 234.328 252.119C232.181 253.908 230.458 256.152 229.285 258.688C224.827 255.356 219.623 253.163 214.124 252.301C208.626 251.439 203 251.933 197.736 253.741C192.473 255.549 187.73 258.615 183.922 262.674C180.114 266.732 177.354 271.66 175.885 277.028C172.764 277.727 169.969 279.455 167.948 281.935C165.928 284.414 164.8 287.5 164.745 290.698C162.493 289.044 159.902 287.911 157.159 287.381C154.416 286.851 151.589 286.938 148.884 287.635C146.178 288.331 143.661 289.621 141.515 291.41C139.369 293.199 137.647 295.442 136.475 297.978C131.393 294.183 125.355 291.877 119.037 291.318C112.719 290.759 106.37 291.969 100.701 294.813C95.0316 297.656 90.2652 302.021 86.9351 307.419C83.605 312.817 81.8425 319.036 81.8448 325.378C81.8448 325.568 81.8448 325.748 81.8448 325.938H81.6948V329.838C94.1273 339.627 107.833 347.681 122.435 353.778C145.665 363.438 171.985 368.338 200.655 368.338C247.295 368.338 292.205 355.338 321.655 344.338C363.215 328.918 400.535 296.808 414.375 256.248C410.699 257.049 407.183 258.462 403.975 260.428Z" fill="#263238"/>
<path opacity="0.5" d="M207.725 136.528C199.296 131.01 189.449 128.05 179.375 128.008H179.215C166.834 128.004 154.645 131.073 143.742 136.94C132.839 142.806 123.563 151.287 116.744 161.621C109.925 171.955 105.777 183.82 104.672 196.152C103.568 208.484 105.541 220.897 110.414 232.279C115.288 243.66 122.909 253.655 132.596 261.365C142.283 269.076 153.732 274.263 165.916 276.46C178.101 278.657 190.64 277.797 202.41 273.955C214.18 270.113 224.813 263.41 233.355 254.448C245.463 235.376 249.563 212.298 244.765 190.222C239.967 168.147 226.658 148.853 207.725 136.528Z" fill="white" stroke="#263238" stroke-width="1.07731" stroke-miterlimit="10"/>
<path d="M201.335 136.528C201.205 136.438 201.075 136.368 200.955 136.278C220.625 153.668 233.245 180.428 233.245 210.448C233.309 228.022 228.831 245.314 220.245 260.648C222.602 258.715 224.843 256.645 226.955 254.448C239.064 235.377 243.166 212.3 238.37 190.225C233.573 168.149 220.266 148.855 201.335 136.528Z" fill="white"/>
<path d="M233.355 254.448C224.813 263.405 214.181 270.103 202.414 273.941C190.646 277.778 178.111 278.637 165.93 276.438C153.749 274.24 142.304 269.053 132.621 261.344C122.938 253.634 115.319 243.643 110.446 232.264C105.574 220.886 103.602 208.477 104.705 196.149C105.809 183.82 109.954 171.959 116.769 161.626C123.584 151.294 132.856 142.814 143.755 136.947C154.653 131.08 166.837 128.008 179.215 128.008H179.375C189.449 128.05 199.296 131.009 207.725 136.528C222.707 146.295 234.276 160.485 240.825 177.128C232.806 156.025 217.189 138.682 197.038 128.504C176.888 118.326 153.661 116.048 131.917 122.118C110.173 128.188 91.4841 142.167 79.519 161.31C67.5539 180.453 63.1772 203.378 67.2483 225.583C71.3195 247.788 83.5443 267.668 101.522 281.322C119.501 294.975 141.933 301.415 164.416 299.376C186.899 297.337 207.807 286.968 223.036 270.303C238.265 253.638 246.714 231.883 246.725 209.308C246.725 209.138 246.725 208.968 246.725 208.798C246.68 224.973 242.043 240.804 233.355 254.448Z" fill="#433ED1" stroke="#263238" stroke-width="1.07731" stroke-miterlimit="10"/>
<path d="M79.4347 171.258C72.0638 187.186 69.4818 204.913 72.0029 222.282C74.524 239.651 82.0395 255.913 93.6347 269.088" fill="#433ED1"/>
<path d="M79.4347 171.258C72.0638 187.186 69.4818 204.913 72.0029 222.282C74.524 239.651 82.0395 255.913 93.6347 269.088" stroke="#263238" stroke-width="2.15462" stroke-linecap="round" stroke-linejoin="round"/>
<path d="M90.6948 153.018C88.3445 155.974 86.1803 159.073 84.2148 162.298L90.6948 153.018Z" fill="#433ED1"/>
<path d="M90.6948 153.018C88.3445 155.974 86.1803 159.073 84.2148 162.298" stroke="#263238" stroke-width="2.15462" stroke-linecap="round" stroke-linejoin="round"/>
<path d="M108.275 152.178C122.275 138.738 141.815 132.878 161.035 135.408C163.865 135.778 166.865 136.288 170.035 136.978C188.795 141.108 199.675 160.618 201.175 161.748C202.675 162.878 198.925 173.748 198.925 173.748C198.925 173.748 213.925 217.648 212.055 224.408C210.185 231.168 186.915 238.668 186.915 238.668L190.295 252.548L119.005 266.428C119.005 266.428 113.005 239.428 105.115 228.538C97.2251 217.648 91.1852 205.388 93.1152 182.758C94.1952 169.528 100.655 159.518 108.275 152.178Z" fill="white"/>
<path opacity="0.5" d="M188.835 235.347C177.525 236.027 155.945 225.067 147.725 207.937C142.668 197.581 134.372 189.155 124.095 183.937C114.074 181.082 103.597 180.179 93.2352 181.277C93.1752 181.757 93.1152 182.277 93.0752 182.727C91.1452 205.357 97.1952 217.617 105.075 228.507C112.955 239.397 118.965 266.397 118.965 266.397L190.255 252.517L186.875 238.637C192.88 236.665 198.713 234.204 204.315 231.277C199.575 233.217 193.895 235.037 188.835 235.347Z" fill="black"/>
<path d="M108.275 152.178C122.275 138.738 141.815 132.878 161.035 135.408C163.865 135.778 166.865 136.288 170.035 136.978C188.795 141.108 199.675 160.618 201.175 161.748C202.675 162.878 198.925 173.748 198.925 173.748C198.925 173.748 213.925 217.648 212.055 224.408C210.185 231.168 186.915 238.668 186.915 238.668L190.295 252.548L119.005 266.428C119.005 266.428 113.005 239.428 105.115 228.538C97.2251 217.648 91.1852 205.388 93.1152 182.758C94.1952 169.528 100.655 159.518 108.275 152.178Z" stroke="#263238" stroke-width="1.07731" stroke-miterlimit="10"/>
<path d="M181.245 156.487C181.245 156.487 181.995 157.237 175.245 157.237C168.495 157.237 156.855 156.117 153.105 159.497C149.355 162.877 143.345 172.627 145.605 172.627C147.865 172.627 150.855 169.247 153.105 169.247C154.876 169.173 156.635 168.921 158.355 168.497C158.355 168.497 148.975 174.127 152.355 174.497C155.735 174.867 170.745 172.627 174.865 169.997C178.985 167.367 181.995 165.497 182.375 163.247C182.755 160.997 183.875 159.497 181.245 156.487Z" fill="#263238" stroke="#263238" stroke-width="1.07731" stroke-miterlimit="10"/>
<path d="M196.945 156.237C196.655 156.827 195.175 159.447 192.505 159.117C190.783 158.935 189.184 158.136 188.005 156.867C188.317 158.221 188.442 159.61 188.375 160.997C188.375 163.997 188.755 166.247 190.625 168.497C192.495 170.747 198.885 173.747 198.885 173.747C198.885 173.747 201.135 166.997 201.135 161.747C200.655 161.387 199.245 159.197 196.945 156.237Z" fill="#263238" stroke="#263238" stroke-width="1.07731" stroke-miterlimit="10"/>
<path d="M186.875 167.377C186.875 167.377 201.875 174.497 202.635 176.757C203.395 179.017 198.885 187.637 198.885 187.637" fill="white"/>
<path d="M186.875 167.377C186.875 167.377 201.875 174.497 202.635 176.757C203.395 179.017 198.885 187.637 198.885 187.637" stroke="#263238" stroke-width="1.07731" stroke-miterlimit="10"/>
<path d="M202.635 176.777C202.635 176.777 180.125 190.657 183.125 192.527C186.125 194.397 194.375 191.407 196.635 189.527C198.895 187.647 203.005 181.627 202.635 176.777Z" fill="#263238" stroke="#263238" stroke-width="1.07731" stroke-miterlimit="10"/>
<path d="M199.545 196.678C199.545 196.678 191.415 198.838 188.775 199.118C186.135 199.398 181.125 202.958 183.375 203.038C185.625 203.118 194.025 199.318 196.275 199.398C198.525 199.478 202.275 199.578 202.515 198.618C202.995 196.778 199.545 196.678 199.545 196.678Z" fill="#263238" stroke="#263238" stroke-width="1.07731" stroke-miterlimit="10"/>
<path d="M187.195 239.968C186.285 240.048 185.455 240.108 184.725 240.138C176.505 240.488 165.725 239.868 155.265 234.658C150.519 232.058 146.289 228.611 142.785 224.488C153.684 218.562 165.342 214.155 177.435 211.388C178.894 211.044 180.156 210.135 180.945 208.861C181.734 207.587 181.984 206.051 181.64 204.593C181.297 203.134 180.388 201.871 179.114 201.083C177.839 200.294 176.304 200.044 174.845 200.388C161.22 203.495 148.112 208.547 135.925 215.388C127.685 202.148 123.035 184.488 130.925 167.908C141.815 144.998 164.775 139.178 172.925 137.808C171.975 137.508 171.005 137.238 170.015 137.018C166.885 136.328 163.885 135.818 161.015 135.448C141.795 132.918 122.225 138.778 108.255 152.218C100.635 159.558 94.1752 169.568 93.0552 182.798C91.1252 205.428 97.1752 217.688 105.055 228.578C112.935 239.468 118.945 266.468 118.945 266.468L190.235 252.588L187.195 239.968Z" fill="#263238"/>
<path d="M207.725 136.528C199.296 131.01 189.449 128.05 179.375 128.008H179.215C166.834 128.004 154.645 131.073 143.742 136.94C132.839 142.806 123.563 151.287 116.744 161.621C109.925 171.955 105.777 183.82 104.672 196.152C103.568 208.484 105.541 220.897 110.414 232.279C115.288 243.66 122.909 253.655 132.596 261.365C142.283 269.076 153.732 274.263 165.916 276.46C178.101 278.657 190.64 277.797 202.41 273.955C214.18 270.113 224.813 263.41 233.355 254.448C245.463 235.376 249.563 212.298 244.765 190.222C239.967 168.147 226.658 148.853 207.725 136.528V136.528Z" stroke="#263238" stroke-width="1.07731" stroke-miterlimit="10"/>
<path d="M95.215 225.229C102.59 225.004 108.309 216.314 107.988 205.82C107.668 195.326 101.429 187.001 94.054 187.227C86.6789 187.452 80.9601 196.142 81.2807 206.636C81.6014 217.13 87.84 225.454 95.215 225.229Z" fill="#263238"/>
<path d="M254.435 290.498C254.435 290.498 246.725 285.868 246.215 278.168C245.705 270.468 246.725 267.378 246.725 267.378C246.725 267.378 197.915 236.028 96.1747 270.968C96.1747 270.968 83.8447 272.508 85.3847 278.168C86.9247 283.828 89.4947 286.388 89.4947 291.008C89.4947 295.628 79.7347 301.778 75.6147 302.828C74.1247 303.198 68.0947 306.288 60.6147 310.318C77.875 329.06 98.9563 343.88 122.435 353.778C145.665 363.438 171.985 368.338 200.655 368.338C235.985 368.338 270.315 360.858 297.655 352.488L297.055 305.888L254.435 290.498Z" fill="#433ED1"/>
<path d="M106.805 346.328C94.8849 321.328 79.5149 299.038 65.3449 298.718C63.4349 298.718 59.3449 300.118 53.7949 302.508C68.4867 320.383 86.4846 335.261 106.805 346.328Z" fill="#433ED1"/>
<path d="M96.1751 270.968C96.1751 270.968 83.8451 272.508 85.3851 278.168C86.9251 283.828 89.4951 286.388 89.4951 291.008C89.4437 291.96 89.1324 292.88 88.5951 293.668C113.045 286.298 186.505 266.938 246.435 279.778C246.325 279.243 246.251 278.702 246.215 278.158C245.695 270.448 246.725 267.368 246.725 267.368C246.725 267.368 197.915 236.028 96.1751 270.968Z" fill="#263238" stroke="#263238" stroke-width="1.07731" stroke-linejoin="round"/>
<path d="M84.8048 286.778C83.0646 286.781 81.3683 286.232 79.96 285.21C78.5518 284.188 77.5043 282.745 76.9684 281.089C76.4325 279.434 76.4358 277.651 76.9778 275.997C77.5199 274.344 78.5727 272.905 79.9848 271.888C94.2248 261.598 126.155 252.888 163.305 249.158C199.985 245.478 232.815 247.568 248.975 254.628C250.788 255.606 252.169 257.23 252.842 259.177C253.515 261.125 253.432 263.255 252.609 265.144C251.786 267.033 250.284 268.545 248.4 269.379C246.515 270.213 244.386 270.309 242.435 269.648C231.355 264.808 203.115 261.648 164.995 265.468C126.415 269.348 99.3548 278.158 89.6448 285.168C88.2443 286.207 86.5485 286.771 84.8048 286.778Z" fill="#433ED1" stroke="#263238" stroke-width="1.07731" stroke-miterlimit="10"/>
<path d="M147.985 263.707C150.985 263.427 154.095 263.227 157.205 263.147" stroke="#263238" stroke-width="2.15462" stroke-linecap="round" stroke-linejoin="round"/>
<path d="M82.2949 283.308C100.198 274.159 119.436 267.901 139.295 264.768" stroke="#263238" stroke-width="2.15462" stroke-linecap="round" stroke-linejoin="round"/>
<path d="M85.7549 296.888C82.9038 299.429 79.5949 301.404 76.0049 302.708C86.9049 310.248 97.8349 327.538 106.805 346.328C111.883 349.079 117.1 351.565 122.435 353.778C122.755 353.918 123.085 354.038 123.435 354.168C110.055 321.488 93.2849 303.708 85.7549 296.888Z" fill="#263238"/>
<path d="M273.595 297.638C273.584 297.56 273.568 297.483 273.545 297.408L260.015 292.518C266.178 314.322 271.168 336.44 274.965 358.778C276.685 358.358 278.385 357.938 280.075 357.498L272.545 301.658C272.442 300.951 272.481 300.231 272.661 299.541C272.842 298.85 273.159 298.203 273.595 297.638Z" fill="#263238"/>
<path d="M333.375 322.778C326.905 317.968 309.015 305.938 279.705 295.778C278.83 295.475 277.892 295.401 276.981 295.562C276.069 295.724 275.214 296.116 274.496 296.701C273.779 297.286 273.223 298.045 272.882 298.906C272.54 299.766 272.424 300.7 272.545 301.618L280.075 357.458C294.145 353.809 308.019 349.447 321.645 344.388C325.498 342.968 329.302 341.401 333.055 339.688L335.435 328.228C335.646 327.218 335.565 326.168 335.2 325.202C334.835 324.237 334.202 323.396 333.375 322.778Z" fill="#433ED1"/>
<path d="M224.625 303.338L234.395 348.558L282.235 351.318L277.045 311.048L224.625 303.338Z" fill="#433ED1" stroke="#263238" stroke-width="1.07731" stroke-linecap="round" stroke-linejoin="round"/>
<path d="M224.625 303.338L218.465 312.588L227.715 358.318L234.395 348.558L224.625 303.338Z" fill="#263238" stroke="#263238" stroke-width="1.07731" stroke-linecap="round" stroke-linejoin="round"/>
<path d="M234.435 348.558L227.735 358.848L270.855 359.738C272.908 359.271 274.932 358.784 276.925 358.278L282.735 351.638L234.435 348.558Z" fill="#263238"/>
<path d="M139.315 337.128C146.125 337.128 151.645 332.221 151.645 326.168C151.645 320.115 146.125 315.208 139.315 315.208C132.505 315.208 126.985 320.115 126.985 326.168C126.985 332.221 132.505 337.128 139.315 337.128Z" fill="#263238"/>
<path d="M169.455 333.018C176.265 333.018 181.785 328.111 181.785 322.058C181.785 316.005 176.265 311.098 169.455 311.098C162.645 311.098 157.125 316.005 157.125 322.058C157.125 328.111 162.645 333.018 169.455 333.018Z" fill="#263238"/>
</svg>
