<svg width="38" height="37" viewBox="0 0 38 37" fill="none" xmlns="http://www.w3.org/2000/svg">
<path d="M18.9581 36.3973C28.9459 36.3973 37.0426 28.2956 37.0426 18.3017C37.0426 8.30776 28.9459 0.206055 18.9581 0.206055C8.97027 0.206055 0.873535 8.30776 0.873535 18.3017C0.873535 28.2956 8.97027 36.3973 18.9581 36.3973Z" fill="white"/>
<path d="M8.39992 18.1449C8.39992 18.1449 17.4422 14.4317 20.5782 13.1242C21.7804 12.6013 25.8572 10.9276 25.8572 10.9276C25.8572 10.9276 27.7389 10.1955 27.582 11.9736C27.5297 12.7059 27.1116 15.2685 26.6935 18.0403C26.0663 21.9628 25.3868 26.2513 25.3868 26.2513C25.3868 26.2513 25.2823 27.4542 24.3937 27.6634C23.5052 27.8726 22.0417 26.9313 21.7804 26.722C21.5712 26.5652 17.8603 24.2117 16.5014 23.0611C16.1355 22.7473 15.7174 22.1197 16.5536 21.3875C18.4352 19.6616 20.6827 17.5174 22.0417 16.1576C22.6689 15.53 23.2961 14.0656 20.6827 15.8438C16.9718 18.4065 13.3131 20.8122 13.3131 20.8122C13.3131 20.8122 12.4768 21.3352 10.9088 20.8645C9.34068 20.3939 7.51132 19.7662 7.51132 19.7662C7.51132 19.7662 6.25698 18.9818 8.39992 18.1449V18.1449Z" fill="#0A0E30"/>
</svg>
