<svg width="338" height="309" viewBox="0 0 338 309" fill="none" xmlns="http://www.w3.org/2000/svg">
<path d="M39.7058 290.307C40.347 287.772 38.6739 285.237 36.8018 283.409C34.9298 281.581 32.6892 279.952 31.7089 277.512C30.1169 273.584 32.1954 268.469 29.4978 265.204C27.9131 263.28 25.0755 262.646 23.6752 260.59C23.0236 259.451 22.5888 258.202 22.3927 256.905C20.8661 250.377 17.6128 244.379 12.9734 239.54C12.6978 245.369 13.9935 251.165 16.7249 256.322C17.8231 258.386 19.1645 260.391 19.5404 262.69C20.1447 266.435 18.0663 270.297 19.0171 273.967C20.0932 278.168 24.8323 280.954 25.0829 285.281C25.2893 288.966 22.1348 292.165 22.378 295.82C22.5737 297.383 23.1397 298.876 24.0289 300.176C26.8887 304.864 31.0603 308.077 37.3546 307.937L45.0714 308.166L39.7058 290.307Z" fill="#F5F5F5"/>
<path d="M46.6338 308.329C47.3393 308.434 48.0579 308.414 48.7565 308.27C49.6108 308.139 50.4502 307.924 51.2624 307.628C52.3796 307.23 53.4231 306.65 54.3506 305.911C54.9025 305.454 55.335 304.87 55.611 304.209C55.8405 303.461 55.9572 302.684 55.9574 301.902C55.9676 301.066 56.0242 300.232 56.1269 299.403C56.2731 298.523 56.5885 297.679 57.0556 296.919C57.9548 295.312 59.4583 293.794 59.93 291.62C60.4017 289.446 60.0553 287.198 59.6868 284.861C59.3183 282.525 58.9498 280.034 59.8268 277.616C60.7039 275.199 62.318 273.01 63.1435 270.283C63.969 267.556 63.5636 264.585 63.7258 261.667C63.772 260.187 64.1049 258.73 64.706 257.377C65.3252 256.006 66.1801 254.716 66.8508 253.279C68.1996 250.331 68.4207 247.066 68.7819 243.838C68.9538 242.211 69.1283 240.568 69.3052 238.907C69.4118 237.236 69.6909 235.582 70.138 233.969C70.6468 232.34 71.2522 230.742 71.9511 229.185C72.315 228.379 72.6109 227.543 72.8356 226.687C72.9607 225.807 73.0394 224.921 73.0714 224.033C73.1437 222.249 73.0648 220.461 72.8356 218.69C72.6145 216.914 72.2828 215.152 72.0985 213.368C72.0985 213.258 72.0985 213.155 72.0985 213.059L72.0543 212.705L71.7374 212.867C70.1068 213.708 68.6919 214.914 67.6026 216.39C66.546 217.837 65.6975 219.425 65.0819 221.107C63.8142 224.431 63.3646 227.903 62.7381 231.227C62.1117 234.551 61.2641 237.809 59.6205 240.573C58.7802 241.951 57.7705 243.211 56.8787 244.553C55.9291 245.868 55.2845 247.379 54.9919 248.975C54.5496 252.24 56.3701 255.1 56.009 257.989C55.8378 259.409 55.3654 260.776 54.6233 261.998C53.9305 263.237 53.1493 264.386 52.3385 265.536C51.5475 266.662 50.8617 267.859 50.2895 269.111C49.7528 270.335 49.4383 271.645 49.3609 272.98C49.1914 275.582 49.5746 278.051 49.3977 280.351C49.1949 282.57 48.5588 284.729 47.5256 286.704C46.6043 288.605 45.5799 290.323 44.7175 291.996C44.2896 292.796 43.9034 293.618 43.5604 294.458C43.2568 295.249 43.0345 296.068 42.897 296.904C42.6854 298.371 42.6854 299.86 42.897 301.327C43.1046 303.362 43.8697 305.3 45.1082 306.928C45.2946 307.172 45.5044 307.396 45.7346 307.599C45.8875 307.76 46.0581 307.904 46.2432 308.026C46.5306 308.24 46.6854 308.336 46.6854 308.336C46.1446 307.897 45.6506 307.403 45.2113 306.862C44.0147 305.233 43.2812 303.31 43.0887 301.297C42.9049 299.854 42.9298 298.392 43.1624 296.956C43.2974 296.138 43.5223 295.337 43.8331 294.568C44.1762 293.738 44.5624 292.926 44.9902 292.136C45.8599 290.485 46.8992 288.768 47.8426 286.851C48.9066 284.845 49.5629 282.648 49.7736 280.387C49.9652 278.007 49.5894 275.538 49.7736 273.017C49.8209 271.713 50.1004 270.427 50.5991 269.221C51.1695 267.996 51.8478 266.825 52.626 265.72C53.3998 264.578 54.2253 263.428 54.9403 262.16C55.7241 260.891 56.2268 259.469 56.4143 257.989C56.7681 254.908 54.9403 252.034 55.412 248.997C55.6995 247.473 56.324 246.033 57.2398 244.781C58.1095 243.462 59.134 242.201 59.9964 240.786C61.7284 237.941 62.5613 234.617 63.1804 231.286C63.7995 227.954 64.2638 224.505 65.5094 221.255C66.1095 219.616 66.9382 218.07 67.9711 216.663C69.0095 215.243 70.3647 214.085 71.929 213.28L71.5753 213.081C71.5753 213.184 71.5753 213.287 71.5753 213.398C71.7743 215.196 72.1059 216.965 72.3123 218.719C72.5412 220.464 72.6201 222.224 72.5481 223.982C72.5039 224.837 72.4523 225.743 72.327 226.554C72.107 227.379 71.8211 228.185 71.4721 228.964C70.7673 230.539 70.1545 232.153 69.6368 233.799C69.186 235.439 68.9045 237.121 68.7966 238.818C68.6271 240.484 68.4502 242.128 68.2807 243.757C67.9269 247 67.7058 250.243 66.4012 253.058C65.76 254.458 64.9272 255.756 64.2712 257.163C63.6532 258.559 63.3103 260.06 63.2614 261.586C63.1067 264.534 63.512 267.482 62.7234 270.113C61.9348 272.744 60.2691 274.941 59.4288 277.432C58.5886 279.923 58.9276 282.554 59.3109 284.861C59.6942 287.168 60.0848 289.438 59.5984 291.495C59.1119 293.551 57.7042 295.077 56.7829 296.72C56.304 297.532 55.9932 298.432 55.8689 299.366C55.7682 300.205 55.7165 301.049 55.7142 301.894C55.718 302.642 55.6137 303.387 55.4046 304.105C55.1482 304.739 54.7378 305.299 54.2106 305.734C53.3088 306.469 52.2931 307.052 51.2035 307.459C50.4033 307.763 49.5767 307.992 48.7344 308.144C48.2163 308.239 47.6912 308.291 47.1645 308.299L46.6338 308.329Z" fill="#E0E0E0"/>
<path d="M70.4922 217.318C70.4539 217.389 70.4289 217.467 70.4184 217.547C70.3742 217.731 70.3226 217.96 70.2489 218.247C70.1015 218.851 69.9246 219.773 69.6446 220.915C69.3645 222.058 68.6569 223.362 68.0673 224.954C67.4777 226.546 66.8291 228.374 66.2615 230.438C65.694 232.501 65.1781 234.786 64.6474 237.233C64.1897 239.848 63.3737 242.388 62.2226 244.78C61.5961 246.041 60.8885 247.316 60.3357 248.702C59.7891 250.124 59.4227 251.61 59.2449 253.124C58.8747 256.263 58.3383 259.38 57.6382 262.462L53.3781 280.313C52.0367 285.782 50.8206 290.713 49.8034 294.87C48.7863 299.027 48.0051 302.388 47.4375 304.709C47.1722 305.844 46.9658 306.736 46.8184 307.385C46.7595 307.672 46.7079 307.901 46.671 308.122C46.663 308.203 46.663 308.284 46.671 308.365C46.7085 308.293 46.7358 308.216 46.7521 308.136L46.9511 307.444C47.1206 306.802 47.3638 305.918 47.6881 304.79C48.2925 302.439 49.1622 299.108 50.2088 295.002C51.2554 290.897 52.5084 285.937 53.894 280.475C55.2797 275.014 56.6063 268.919 58.1246 262.587C58.8249 259.493 59.3612 256.363 59.7314 253.212C59.8934 251.732 60.2426 250.278 60.7706 248.886C61.3086 247.53 62.0015 246.262 62.6279 244.994C63.7895 242.565 64.6033 239.985 65.0454 237.329C65.5614 234.875 66.0478 232.59 66.6006 230.541C67.1534 228.492 67.7356 226.649 68.3253 225.065C68.9149 223.48 69.5561 222.161 69.7993 220.974C70.0426 219.787 70.2047 218.888 70.3226 218.269C70.3669 217.989 70.4037 217.753 70.4406 217.569C70.4682 217.488 70.4856 217.404 70.4922 217.318Z" fill="#E0E0E0"/>
<path d="M47.9974 308.343C53.0166 305.321 54.4096 296.219 52.2796 290.764C50.1495 285.31 46.4422 280.321 45.8378 274.491C45.3735 270.009 46.8181 265.403 45.7494 261.025C44.2753 255.129 38.5043 250.566 38.5411 244.486C38.5411 241.073 40.4795 237.852 40.3027 234.447C40.0889 230.268 36.8607 226.966 34.8559 223.296C31.7825 217.68 31.5466 210.995 30.4705 204.7C29.3945 198.406 26.9475 191.625 21.3239 188.552C20.5279 193.925 19.1128 197.61 19.6213 204.877C19.7982 207.486 22.8569 212.469 23.3065 218.188C23.5719 221.601 23.7635 225.028 23.992 228.448C24.2204 231.868 24.4416 235.17 25.6503 238.265C26.579 240.646 28.0604 242.805 28.7532 245.267C30.0578 249.896 28.4068 254.93 29.4903 259.625C30.3895 263.597 33.1755 266.995 33.7504 271.041C34.5759 276.709 30.9349 282.62 32.8438 287.993C33.7946 290.669 36.0131 292.813 36.6543 295.577C37.1555 297.729 36.6543 300 37.0892 302.166C37.8262 305.645 44.4596 308.306 48.0195 308.063" fill="#E0E0E0"/>
<path d="M22.7461 193.873C22.7363 193.974 22.7363 194.075 22.7461 194.175C22.7461 194.404 22.8125 194.691 22.8641 195.06C22.982 195.834 23.122 196.969 23.3874 198.435C23.6527 199.902 24.4487 201.575 25.0752 203.595C25.7017 205.614 26.3797 207.906 26.962 210.486C27.5443 213.066 28.0454 215.925 28.5687 219.006C29.092 222.087 29.6596 225.433 31.2073 228.632C31.9444 230.239 32.7256 231.845 33.33 233.555C33.9272 235.317 34.301 237.147 34.4429 239.002C34.742 242.928 35.2513 246.835 35.9686 250.706C37.5533 258.651 39.0716 266.184 40.4425 273.105C41.8133 280.026 43.2211 286.173 44.3193 291.332C45.4175 296.491 46.3314 300.685 46.9579 303.618L47.6949 306.957C47.7834 307.311 47.8497 307.598 47.9013 307.819C47.9203 307.918 47.9499 308.015 47.9897 308.107C47.9979 308.006 47.9979 307.905 47.9897 307.805C47.9455 307.584 47.8939 307.296 47.8276 306.935C47.6728 306.132 47.4591 305.011 47.179 303.581C46.5894 300.633 45.7049 296.44 44.6952 291.258C43.6854 286.077 42.3514 279.871 40.9436 273.002C39.5359 266.132 38.0839 258.556 36.5214 250.618C35.8 246.751 35.2833 242.849 34.9736 238.928C34.8313 237.038 34.4499 235.173 33.8386 233.378C33.2195 231.624 32.4087 230.01 31.6864 228.418C30.1534 225.271 29.6006 221.976 29.0404 218.91C28.4803 215.844 27.9791 212.97 27.3674 210.383C26.8275 208.054 26.1707 205.754 25.3995 203.491C24.7509 201.479 23.9254 199.806 23.6453 198.391C23.3652 196.976 23.181 195.797 23.0262 195.03C22.9599 194.669 22.9009 194.382 22.8641 194.161C22.8329 194.062 22.7934 193.965 22.7461 193.873Z" fill="#EBEBEB"/>
<path d="M137.909 2.58193C142.213 -2.43731 153.387 0.71722 161.067 4.79305C161.067 4.79305 166.344 7.28425 168.304 8.57407H168.371L186.296 6.36295C187.753 6.17567 189.232 6.43255 190.541 7.09999L192.015 7.83703C192.181 7.92267 192.32 8.05368 192.414 8.21484C192.509 8.37601 192.556 8.5607 192.55 8.74749C192.543 8.93427 192.484 9.11547 192.379 9.27003C192.274 9.42459 192.127 9.54618 191.956 9.62066L178.756 15.259V15.4212L191.787 23.9856L191.986 24.1109C194.443 25.6866 197.404 26.2763 200.277 25.7618L207.257 24.5089C207.61 24.4416 207.974 24.4722 208.311 24.5973C208.593 24.7122 208.841 24.898 209.03 25.1368C209.22 25.3756 209.344 25.6593 209.392 25.9603C209.439 26.2614 209.408 26.5696 209.301 26.855C209.195 27.1405 209.016 27.3936 208.783 27.5897L200.675 34.341C200.056 34.8607 199.302 35.1936 198.5 35.3006C197.699 35.4076 196.884 35.2844 196.15 34.9454L192.361 33.2059L173.198 24.0888L175.41 34.9896C175.424 35.0947 175.416 35.2017 175.386 35.3034C175.356 35.4051 175.304 35.4991 175.234 35.5788C175.164 35.6586 175.077 35.7223 174.981 35.7656C174.884 35.809 174.779 35.8308 174.672 35.8298H173.773C173.17 35.8041 172.583 35.6257 172.067 35.3111C171.551 34.9966 171.124 34.5563 170.825 34.0314L163.108 19.2906L140.496 8.53721C137.481 7.15158 136.405 4.56457 137.909 2.58193Z" fill="#E0E0E0"/>
<path d="M12.3838 50.8437L69.2169 49.5833C69.2169 49.5833 63.9766 40.5251 49.3832 42.2129C35.4384 43.7976 34.5982 38.0413 27.471 37.4959C20.3438 36.9505 14.5507 42.5004 12.3838 50.8437Z" fill="#F5F5F5"/>
<path d="M278.146 81.5857H331.691C331.691 81.5857 326.96 72.9623 313.177 74.2153C300.006 75.4093 299.343 69.9699 292.643 69.3066C285.943 68.6433 280.371 73.773 278.146 81.5857Z" fill="#F5F5F5"/>
<path d="M44.7471 22.6369H85.5938C85.5938 22.6369 81.9823 16.0625 71.4648 17.0206C61.4263 17.9346 60.9177 13.785 55.81 13.2691C50.7023 12.7532 46.4496 16.6742 44.7471 22.6369Z" fill="#F5F5F5"/>
<path d="M278.197 108.605H304.915C304.915 108.605 302.556 104.301 295.68 104.92C289.105 105.517 288.774 102.805 285.435 102.473C282.096 102.141 279.31 104.706 278.197 108.605Z" fill="#F5F5F5"/>
<path d="M264.834 34.6356H291.56C291.56 34.6356 289.194 30.3313 282.317 30.9504C275.743 31.5474 275.411 28.8351 272.072 28.5034C268.733 28.1717 265.925 30.7366 264.834 34.6356Z" fill="#FAFAFA"/>
<path d="M332.576 308.388C332.576 308.491 258.187 308.58 166.433 308.58C74.6786 308.58 0.274414 308.491 0.274414 308.388C0.274414 308.285 74.6491 308.196 166.433 308.196C258.216 308.196 332.576 308.285 332.576 308.388Z" fill="#263238"/>
<path d="M281.661 178.418C281.608 177.903 281.365 177.425 280.98 177.079C280.594 176.733 280.094 176.543 279.576 176.546H263.84C263.533 176.547 263.23 176.615 262.953 176.747C262.675 176.878 262.431 177.07 262.236 177.307C262.042 177.545 261.902 177.823 261.828 178.12C261.753 178.418 261.746 178.729 261.806 179.03C261.898 179.511 262.159 179.943 262.541 180.25C262.923 180.556 263.402 180.717 263.891 180.703H279.583C279.873 180.702 280.161 180.641 280.426 180.523C280.692 180.405 280.93 180.233 281.125 180.018C281.321 179.803 281.469 179.55 281.562 179.274C281.654 178.999 281.688 178.707 281.661 178.418Z" fill="#263238"/>
<path d="M315.985 303.228C315.841 304.21 315.991 305.213 316.417 306.11C316.843 307.007 317.526 307.758 318.378 308.267C319.231 308.775 320.215 309.02 321.207 308.969C322.198 308.919 323.153 308.575 323.949 307.982C324.745 307.389 325.348 306.573 325.68 305.637C326.013 304.702 326.06 303.689 325.817 302.726C325.573 301.763 325.05 300.895 324.313 300.23C323.575 299.565 322.657 299.133 321.675 298.99C320.358 298.798 319.02 299.137 317.953 299.931C316.886 300.726 316.178 301.912 315.985 303.228Z" fill="#263238"/>
<path d="M319.906 303.987L316.847 297.663L318.454 296.639L321.417 303.243L319.906 303.987Z" fill="#455A64"/>
<path d="M291.56 226.134L272.552 176.538L268.94 178.351L287.359 227.497L291.56 226.134Z" fill="#263238"/>
<path d="M335.449 291.643L307.366 302.801C306.865 303.001 306.305 302.992 305.81 302.779C305.314 302.565 304.924 302.163 304.725 301.662L276.793 231.366C275.738 228.71 275.781 225.743 276.913 223.119C278.044 220.495 280.172 218.428 282.828 217.373L294.664 212.67C297.32 211.614 300.286 211.657 302.91 212.789C305.535 213.921 307.602 216.049 308.657 218.705L336.589 289.001C336.788 289.503 336.78 290.063 336.566 290.558C336.352 291.053 335.951 291.444 335.449 291.643Z" fill="#433ED1"/>
<path d="M304.694 301.982C304.694 301.982 304.65 301.835 304.547 301.555L304.082 300.309L302.254 295.526L295.452 277.977C292.555 270.569 289.12 261.762 285.303 251.967L279.296 236.614C278.78 235.287 278.249 233.946 277.726 232.59C277.171 231.264 276.968 229.816 277.136 228.389C277.317 226.934 277.888 225.554 278.787 224.396C279.687 223.238 280.882 222.344 282.247 221.809C283.612 221.273 285.096 221.115 286.543 221.352C287.99 221.589 289.347 222.212 290.469 223.156C291.559 224.092 292.393 225.289 292.894 226.635L294.471 230.666C296.564 235.988 298.584 241.117 300.5 246.011L310.738 271.985C313.686 279.355 316.022 285.332 317.673 289.482L319.575 294.236C319.796 294.759 319.958 295.172 320.083 295.467C320.209 295.761 320.268 295.879 320.268 295.879C320.268 295.879 320.223 295.732 320.12 295.445L319.656 294.199C319.236 293.093 318.617 291.487 317.828 289.423L311.025 271.874L300.876 245.864C298.967 240.97 296.955 235.833 294.869 230.511C294.353 229.177 293.823 227.836 293.292 226.48C292.777 225.053 291.901 223.783 290.749 222.795C289.567 221.8 288.138 221.143 286.613 220.893C285.088 220.642 283.524 220.808 282.085 221.373C280.647 221.937 279.388 222.879 278.44 224.1C277.492 225.321 276.892 226.774 276.701 228.308C276.523 229.81 276.736 231.334 277.32 232.73L278.898 236.791C280.991 242.105 283.01 247.242 284.927 252.129C288.774 261.887 292.245 270.695 295.157 278.065L302.092 295.57L304.001 300.316C304.215 300.847 304.384 301.252 304.51 301.547C304.562 301.696 304.624 301.841 304.694 301.982Z" fill="#263238"/>
<path d="M302.881 252.026C302.94 252.218 306.61 250.766 311.084 248.798C315.558 246.83 319.132 245.068 319.073 244.884C319.014 244.7 315.337 246.137 310.87 248.112C306.404 250.088 302.822 251.834 302.881 252.026Z" fill="#263238"/>
<path d="M278.043 176.539L274.763 170.053C274.395 169.328 273.781 168.758 273.031 168.446L267.872 166.294L253.971 147.44L252.659 161.879L261.504 171.011C261.504 171.011 267.054 182.7 271.586 182.103C271.474 181.05 271.164 180.027 270.672 179.089C269.198 176.539 270.768 176.539 270.975 176.553H274.77L278.043 176.539Z" fill="#FFBE9D"/>
<path d="M255.349 166.567C255.769 167.193 259.204 171.851 259.204 171.851L268.94 164.768L265.402 161.312L255.349 166.567Z" fill="#433ED1"/>
<path d="M270.702 179.089C270.702 179.089 273.237 180.563 273.554 181.757V182.494L270.518 182.052L270.702 179.089Z" fill="#FFBE9D"/>
<path d="M274.099 180.475C273.65 180.123 273.299 179.661 273.082 179.134C272.984 178.867 272.989 178.574 273.095 178.311C273.202 178.049 273.402 177.835 273.657 177.711C274.18 177.534 274.719 177.91 275.131 178.286C275.649 178.75 276.141 179.242 276.605 179.76C276.825 179.949 276.997 180.186 277.107 180.454C277.217 180.722 277.263 181.012 277.239 181.3C277.171 181.524 277.035 181.722 276.851 181.866C276.666 182.009 276.441 182.093 276.207 182.104C275.972 182.109 275.738 182.066 275.52 181.977C275.302 181.888 275.105 181.756 274.94 181.588C274.611 181.257 274.349 180.867 274.166 180.438" fill="#FFBE9D"/>
<path d="M276.672 180.253C276.222 179.902 275.872 179.44 275.655 178.912C275.557 178.646 275.561 178.353 275.668 178.09C275.774 177.827 275.974 177.613 276.229 177.489C276.753 177.312 277.291 177.688 277.704 178.064C278.222 178.528 278.714 179.02 279.178 179.538C279.397 179.727 279.569 179.965 279.679 180.232C279.79 180.5 279.835 180.79 279.811 181.079C279.743 181.303 279.608 181.5 279.423 181.644C279.238 181.788 279.013 181.871 278.78 181.882C278.544 181.887 278.311 181.843 278.093 181.755C277.875 181.666 277.677 181.534 277.512 181.366C277.184 181.035 276.921 180.645 276.738 180.216" fill="#FFBE9D"/>
<path d="M268.94 169.183C268.94 169.094 269.596 169.124 270.356 169.78C270.709 170.211 271.004 170.687 271.233 171.195C271.576 171.812 271.749 172.509 271.734 173.214C271.628 173.908 271.355 174.566 270.938 175.131C270.656 175.585 270.451 176.083 270.333 176.605C270.227 177.088 270.192 177.585 270.23 178.079C270.102 177.848 270.022 177.595 269.994 177.332C269.967 177.07 269.992 176.805 270.068 176.553C270.157 175.994 270.349 175.457 270.636 174.969C271.01 174.441 271.262 173.837 271.373 173.2C271.381 172.559 271.232 171.926 270.938 171.357C270.744 170.867 270.497 170.4 270.201 169.964C269.947 169.713 269.66 169.5 269.346 169.33C269.214 169.274 269.078 169.224 268.94 169.183Z" fill="#EB996E"/>
<path d="M164.052 102.657L153.719 135.691L184.114 167.436L211.967 160.198L164.052 102.657Z" fill="#F5F5F5"/>
<path d="M164.045 102.65L164.281 102.923L164.981 103.749L167.693 106.977L177.798 119.027L212.122 160.081L212.314 160.309L212.026 160.383L196.327 164.466L184.173 167.62H184.063L183.989 167.539L153.608 135.817L153.549 135.751V135.67C156.748 125.55 159.372 117.288 161.192 111.539C162.092 108.694 162.799 106.476 163.286 104.957L163.831 103.247C163.956 102.872 164.015 102.68 164.015 102.68C163.662 103.837 160.028 115.652 153.837 135.758L153.8 135.611L184.218 167.304L184.033 167.252L196.187 164.09L211.886 160.007L211.79 160.316L177.776 119.278L167.708 107.117L164.996 103.822L164.259 102.967L164.045 102.65Z" fill="#263238"/>
<path d="M164.996 124.444C165.382 123.844 165.885 123.328 166.475 122.927C167.065 122.526 167.73 122.249 168.43 122.111C169.13 121.974 169.85 121.979 170.548 122.126C171.246 122.274 171.907 122.561 172.491 122.97C174.393 124.444 175.27 127.222 177.555 127.959C179.206 128.49 181.026 127.716 182.714 128.018C184.711 128.38 186.2 130.23 186.775 132.146C187.35 134.062 187.195 136.177 187.033 138.204L177.149 138.337L164.996 124.444Z" fill="#E0E0E0"/>
<path d="M146.717 105.672L210.766 171.674L184.667 169.028L148.161 130.488L146.717 105.672Z" fill="#F5F5F5"/>
<path d="M146.725 105.672C146.784 106.637 147.314 115.128 148.287 130.481V130.4C157.625 140.232 170.398 153.668 184.837 168.903L184.719 168.844L204.744 170.863L210.818 171.482L210.663 171.806C175.049 134.954 148.169 107.139 146.761 105.672L210.936 171.541L211.304 171.917L210.781 171.865L204.7 171.246L184.682 169.212H184.616L184.564 169.168C170.148 153.904 157.412 140.423 148.103 130.584V130.54C147.218 115.135 146.769 106.637 146.725 105.672Z" fill="#263238"/>
<path d="M171.784 131.903C169.809 134.181 170.096 137.8 171.784 140.313C173.472 142.826 176.258 144.345 179.073 145.428C181.351 146.305 184.159 146.858 186.046 145.31" fill="#E0E0E0"/>
<path d="M168.452 128.314C168.57 128.866 167.877 129.279 167.317 129.228C166.757 129.176 166.241 128.859 165.674 128.83C164.133 128.741 163.293 130.569 162.04 131.461C161.284 131.954 160.366 132.134 159.48 131.962C158.594 131.79 157.81 131.28 157.294 130.539C156.453 129.235 156.475 127.304 155.149 126.5C154.367 126.119 153.473 126.037 152.635 126.272C151.806 126.503 150.944 126.592 150.085 126.537C149.657 126.498 149.256 126.312 148.948 126.011C148.641 125.711 148.446 125.314 148.397 124.886L147.933 124.149L146.842 105.93L168.452 128.314Z" fill="#E0E0E0"/>
<path d="M199.666 170.34C199.994 170.424 200.336 170.439 200.671 170.385C201.006 170.331 201.326 170.209 201.612 170.027C201.898 169.845 202.143 169.606 202.333 169.325C202.523 169.045 202.654 168.728 202.717 168.395C202.799 167.663 202.598 166.928 202.155 166.34C201.713 165.753 201.062 165.356 200.336 165.233C199.032 165.063 197.683 165.822 196.43 165.432C195 164.982 194.411 163.324 194.049 161.872C193.688 160.42 193.18 158.762 191.794 158.187C189.502 157.258 187.084 160.199 184.689 159.55C182.913 159.071 182.227 156.934 180.834 155.732C180.271 155.255 179.594 154.93 178.869 154.788C178.144 154.646 177.394 154.692 176.692 154.922C176.054 155.078 175.476 155.416 175.027 155.895C174.578 156.374 174.278 156.973 174.164 157.619L184.741 168.771L199.666 170.34Z" fill="#E0E0E0"/>
<path d="M182.154 281.883L179.522 297.051C179.522 297.051 163.219 299.469 162.46 302.21L191.691 308.372L196.762 284.905L182.154 281.883Z" fill="#433ED1"/>
<g opacity="0.6">
<path opacity="0.6" d="M188.831 297.694C189.094 297.838 189.294 298.074 189.394 298.357C189.493 298.64 189.484 298.95 189.369 299.227C189.234 299.495 189.001 299.701 188.719 299.802C188.436 299.904 188.126 299.893 187.851 299.772C187.572 299.619 187.36 299.367 187.257 299.066C187.153 298.765 187.165 298.436 187.291 298.143C187.461 297.878 187.727 297.689 188.034 297.616C188.34 297.543 188.663 297.592 188.934 297.753" fill="white"/>
</g>
<path opacity="0.6" d="M191.691 308.388L192.222 306.074L163.949 301.018C163.949 301.018 162.534 301.312 162.475 302.256L191.691 308.388Z" fill="white"/>
<path d="M179.08 296.802C179.08 296.949 179.758 297.163 180.363 297.767C180.967 298.372 181.217 299.057 181.358 299.028C181.498 298.998 181.461 298.129 180.716 297.406C179.972 296.684 179.08 296.669 179.08 296.802Z" fill="#263238"/>
<path d="M175.749 297.428C175.69 297.561 176.257 297.929 176.611 298.637C176.965 299.344 176.972 300.008 177.12 300.037C177.267 300.067 177.525 299.3 177.061 298.401C176.596 297.502 175.778 297.288 175.749 297.428Z" fill="#263238"/>
<path d="M173.235 300.729C173.36 300.788 173.707 300.117 173.508 299.255C173.309 298.393 172.705 297.943 172.616 298.054C172.528 298.164 172.852 298.665 173.014 299.373C173.176 300.08 173.095 300.685 173.235 300.729Z" fill="#263238"/>
<path d="M180.068 293.411C180.068 293.559 180.805 293.5 181.594 293.721C182.382 293.942 182.957 294.333 183.068 294.229C183.178 294.126 182.67 293.492 181.734 293.234C180.798 292.977 180.016 293.286 180.068 293.411Z" fill="#263238"/>
<path opacity="0.3" d="M181.638 284.891L181.166 287.588L195.56 290.485L196.091 288.075L181.638 284.891Z" fill="black"/>
<path d="M180.65 290.36C181.106 290.59 181.614 290.695 182.124 290.662C182.673 290.684 183.223 290.635 183.76 290.515C184.075 290.445 184.385 290.357 184.689 290.25C184.873 290.194 185.047 290.109 185.205 289.999C185.318 289.918 185.401 289.802 185.442 289.669C185.484 289.536 185.48 289.393 185.433 289.262C185.381 289.148 185.304 289.048 185.206 288.968C185.109 288.889 184.995 288.833 184.873 288.805C184.689 288.765 184.501 288.753 184.313 288.768C183.426 288.794 182.56 289.048 181.8 289.505C180.989 289.992 180.643 290.471 180.687 290.515C180.731 290.559 181.166 290.198 181.962 289.822C182.702 289.48 183.505 289.295 184.32 289.277C184.645 289.277 184.91 289.314 184.962 289.468C185.013 289.623 184.962 289.55 184.895 289.631C184.778 289.707 184.651 289.768 184.519 289.815C184.234 289.92 183.944 290.011 183.65 290.088C183.148 290.219 182.634 290.303 182.117 290.338C181.628 290.312 181.138 290.32 180.65 290.36Z" fill="#263238"/>
<path d="M180.797 290.595C180.842 290.632 181.232 290.183 181.483 289.269C181.618 288.732 181.663 288.176 181.616 287.625C181.592 287.295 181.53 286.968 181.431 286.652C181.393 286.443 181.302 286.247 181.166 286.083C181.031 285.92 180.856 285.793 180.657 285.716C180.526 285.695 180.392 285.71 180.269 285.76C180.146 285.809 180.038 285.891 179.957 285.996C179.846 286.153 179.757 286.324 179.692 286.505C179.572 286.819 179.502 287.149 179.486 287.485C179.451 288.052 179.555 288.618 179.788 289.136C180.2 290.013 180.761 290.308 180.783 290.264C180.805 290.219 180.407 289.821 180.127 288.996C179.96 288.523 179.9 288.02 179.95 287.522C179.981 287.234 180.05 286.951 180.156 286.682C180.267 286.387 180.436 286.158 180.547 286.217C180.657 286.276 180.893 286.527 180.96 286.799C181.054 287.075 181.123 287.359 181.166 287.647C181.237 288.153 181.237 288.667 181.166 289.173C180.989 290.065 180.724 290.595 180.797 290.595Z" fill="#263238"/>
<path d="M278.204 282.804L271.888 274.55L271.556 274.122L260.766 282.134L270.738 293.086L270.377 304.179C264.82 305.608 263.987 308.387 263.987 308.387H275.529L286.017 288.192L278.204 282.804Z" fill="#433ED1"/>
<path opacity="0.6" d="M286.039 288.177L275.551 308.371L264.009 308.386L265.306 306.647L274.696 306.124L284.374 287.034L286.039 288.177Z" fill="white"/>
<path d="M270.465 299.093C270.554 299.211 271.202 298.835 272.109 298.857C273.016 298.879 273.657 299.255 273.745 299.137C273.834 299.019 273.207 298.4 272.116 298.348C271.026 298.297 270.347 299.004 270.465 299.093Z" fill="#263238"/>
<path d="M270.65 296.344C270.768 296.425 271.276 295.747 272.198 295.563C273.119 295.378 273.856 295.806 273.93 295.688C274.003 295.57 273.841 295.437 273.517 295.261C273.079 295.045 272.582 294.979 272.104 295.075C271.625 295.171 271.192 295.423 270.871 295.791C270.643 296.086 270.591 296.315 270.65 296.344Z" fill="#263238"/>
<path d="M270.576 292.806C270.702 292.873 271.092 292.202 271.896 291.922C272.699 291.642 273.421 291.922 273.48 291.775C273.539 291.627 273.37 291.561 273.046 291.443C272.619 291.29 272.153 291.29 271.726 291.443C271.303 291.597 270.942 291.887 270.702 292.268C270.525 292.571 270.51 292.806 270.576 292.806Z" fill="#263238"/>
<path d="M267.481 290.079C267.621 290.123 267.945 289.467 268.66 289.003C269.375 288.539 270.09 288.472 270.134 288.325C270.178 288.177 269.272 287.993 268.409 288.583C267.547 289.172 267.341 290.064 267.481 290.079Z" fill="#263238"/>
<path d="M265.977 287.707C266.036 287.743 266.412 287.279 266.98 286.498L267.96 285.112C268.181 284.827 268.359 284.512 268.491 284.176C268.53 284.055 268.545 283.928 268.533 283.801C268.522 283.674 268.485 283.551 268.424 283.439C268.354 283.319 268.25 283.221 268.127 283.157C268.003 283.093 267.863 283.066 267.724 283.078C267.318 283.156 266.944 283.35 266.648 283.638C266.364 283.866 266.116 284.134 265.911 284.434C265.583 284.938 265.376 285.51 265.307 286.107C265.186 286.644 265.278 287.207 265.565 287.677C265.568 287.17 265.6 286.663 265.66 286.159C265.77 285.63 265.986 285.128 266.294 284.685C266.476 284.43 266.689 284.2 266.928 283.999C267.155 283.793 267.428 283.643 267.724 283.564C267.768 283.559 267.812 283.566 267.852 283.586C267.891 283.606 267.924 283.637 267.945 283.675C267.984 283.78 267.984 283.895 267.945 283.999C267.826 284.283 267.675 284.553 267.496 284.803C267.201 285.297 266.906 285.776 266.611 286.277C266.325 286.717 266.111 287.199 265.977 287.707Z" fill="#263238"/>
<path d="M265.565 288.052C265.616 288.052 265.565 287.441 264.945 286.748C264.52 286.288 263.956 285.978 263.339 285.867C262.722 285.755 262.086 285.847 261.526 286.129C261.467 286.18 261.42 286.243 261.388 286.315C261.356 286.386 261.34 286.463 261.341 286.541C261.349 286.676 261.398 286.805 261.481 286.91C261.601 287.049 261.74 287.171 261.894 287.271C262.15 287.453 262.424 287.609 262.712 287.735C263.193 287.956 263.705 288.1 264.231 288.163C264.71 288.265 265.208 288.219 265.66 288.03C265.66 287.949 265.115 287.986 264.29 287.809C263.813 287.704 263.352 287.538 262.919 287.315C262.661 287.186 262.414 287.036 262.182 286.866C262.069 286.795 261.967 286.708 261.879 286.608C261.828 286.505 261.879 286.534 261.879 286.505C261.983 286.441 262.098 286.398 262.218 286.379C262.36 286.349 262.502 286.327 262.646 286.313C262.92 286.295 263.195 286.315 263.464 286.372C263.925 286.476 264.354 286.694 264.71 287.006C265.314 287.551 265.484 288.082 265.565 288.052Z" fill="#263238"/>
<path opacity="0.6" d="M276.826 287.831C276.826 288.102 276.907 288.367 277.057 288.592C277.208 288.818 277.422 288.994 277.672 289.097C277.923 289.201 278.199 289.228 278.465 289.175C278.73 289.122 278.975 288.992 279.166 288.8C279.358 288.608 279.489 288.364 279.542 288.098C279.595 287.832 279.567 287.557 279.464 287.306C279.36 287.056 279.184 286.842 278.959 286.691C278.733 286.54 278.468 286.46 278.197 286.46C277.833 286.46 277.485 286.604 277.228 286.861C276.971 287.119 276.826 287.467 276.826 287.831Z" fill="white"/>
<path opacity="0.3" d="M261.791 283.231L264.009 285.671L273.333 276.436L272.035 274.748L261.791 283.231Z" fill="black"/>
<path d="M233.09 91.0125C239.258 88.8693 245.917 88.5671 252.254 90.1428C255.062 90.843 257.914 92.0075 259.712 94.2776C261.842 96.9604 262.108 100.616 262.439 104.029C263.106 110.97 264.383 117.839 266.257 124.555C267.82 130.142 269.795 135.611 270.643 141.382C271.49 147.153 271.1 153.263 268.174 158.275C263.663 165.999 254.074 169.411 245.134 169.566C240.431 169.64 235.611 168.954 231.44 166.773C227.268 164.591 223.796 160.781 222.779 156.189" fill="#433ED1"/>
<g opacity="0.5">
<path opacity="0.5" d="M233.09 91.0125C239.258 88.8693 245.917 88.5671 252.254 90.1428C255.062 90.843 257.914 92.0075 259.712 94.2776C261.842 96.9604 262.108 100.616 262.439 104.029C263.106 110.97 264.383 117.839 266.257 124.555C267.82 130.142 269.795 135.611 270.643 141.382C271.49 147.153 271.1 153.263 268.174 158.275C263.663 165.999 254.074 169.411 245.134 169.566C240.431 169.64 235.611 168.954 231.44 166.773C227.268 164.591 223.796 160.781 222.779 156.189" fill="black"/>
</g>
<path d="M245.385 98.0879C246.353 98.9337 247.212 99.8968 247.942 100.955C248.701 102.129 249.366 103.362 249.932 104.64C250.625 106.228 251.421 107.769 252.313 109.254C253.23 110.759 254.494 112.022 255.998 112.939C257.256 113.691 258.736 113.98 260.185 113.757C261.155 113.619 262.063 113.201 262.801 112.556C262.997 112.379 263.17 112.179 263.317 111.959C263.42 111.812 263.464 111.73 263.45 111.723C263.435 111.716 263.199 112.003 262.713 112.409C261.972 112.97 261.094 113.322 260.17 113.426C258.802 113.588 257.42 113.282 256.249 112.556C254.816 111.652 253.613 110.429 252.733 108.981C251.853 107.513 251.058 105.994 250.352 104.434C249.758 103.145 249.05 101.912 248.237 100.749C247.685 99.9605 247.028 99.2513 246.284 98.6407C246.018 98.4062 245.714 98.2192 245.385 98.0879Z" fill="#E0E0E0"/>
<path d="M258.334 167.126C258.353 166.933 258.353 166.738 258.334 166.544C258.334 166.117 258.334 165.571 258.334 164.893C258.334 163.463 258.231 161.385 258.12 158.827C257.892 153.668 257.494 146.622 256.875 138.824C256.255 131.026 255.555 123.965 254.98 118.872C254.686 116.322 254.435 114.259 254.243 112.843C254.155 112.173 254.074 111.627 254.015 111.207C253.997 111.015 253.96 110.825 253.904 110.64C253.882 110.831 253.882 111.024 253.904 111.215C253.941 111.642 253.993 112.187 254.044 112.858C254.192 114.332 254.391 116.396 254.627 118.902C255.12 124.01 255.776 131.063 256.388 138.861C257 146.659 257.457 153.727 257.766 158.842C257.921 161.355 258.046 163.412 258.135 164.901L258.253 166.552C258.263 166.745 258.29 166.938 258.334 167.126Z" fill="#E0E0E0"/>
<path d="M256.499 135.817C256.499 135.942 259.322 135.913 262.771 135.478C266.221 135.043 268.962 134.395 268.94 134.277C268.918 134.159 266.147 134.586 262.712 135.014C259.278 135.441 256.492 135.655 256.499 135.817Z" fill="#E0E0E0"/>
<path d="M258.776 135.721C258.552 136.134 258.421 136.592 258.393 137.062C258.308 137.562 258.256 138.067 258.238 138.573C258.213 138.903 258.269 139.235 258.401 139.539C258.483 139.723 258.616 139.881 258.784 139.993C258.952 140.105 259.149 140.168 259.351 140.172C259.466 140.177 259.581 140.155 259.686 140.108C259.791 140.061 259.883 139.989 259.956 139.9C260.083 139.74 260.158 139.544 260.169 139.34C260.179 139.02 260.134 138.701 260.037 138.396C259.913 137.891 259.746 137.398 259.536 136.922C259.174 136.133 258.835 135.713 258.799 135.743C258.903 136.191 259.051 136.628 259.241 137.047C259.396 137.512 259.526 137.984 259.631 138.462C259.7 138.725 259.729 138.995 259.72 139.266C259.72 139.516 259.572 139.671 259.366 139.671C258.872 139.671 258.673 139.074 258.695 138.544C258.717 138.013 258.695 137.49 258.74 137.069C258.808 136.623 258.821 136.17 258.776 135.721Z" fill="#E0E0E0"/>
<path d="M227.011 93.6798L256.624 90.2221C260.501 89.7694 263.277 86.2591 262.824 82.3818L262.182 76.884C261.73 73.0067 258.219 70.2305 254.342 70.6832L224.73 74.1409C220.853 74.5936 218.076 78.1039 218.529 81.9812L219.171 87.479C219.624 91.3563 223.134 94.1325 227.011 93.6798Z" fill="#455A64"/>
<path d="M253.845 71.1559C253.845 71.1559 253.757 71.0969 253.565 71.0379C253.282 70.9571 252.99 70.9125 252.696 70.9053C251.595 70.9098 250.526 71.2806 249.659 71.9592C248.332 72.8936 247.278 74.1659 246.608 75.6444C245.858 77.4726 245.57 79.457 245.767 81.4228C245.874 83.4062 246.57 85.3127 247.765 86.899C248.746 88.1946 250.094 89.1652 251.634 89.6851C252.659 90.038 253.749 90.1588 254.826 90.0388C255.118 90.0066 255.407 89.9474 255.688 89.8619C255.88 89.803 255.975 89.7661 255.968 89.7514C255.961 89.7366 255.555 89.8104 254.811 89.8546C253.767 89.9 252.724 89.7345 251.745 89.3681C250.292 88.8317 249.029 87.881 248.111 86.6337C246.994 85.1021 246.346 83.279 246.247 81.386C246.044 79.4988 246.297 77.5907 246.984 75.8213C247.613 74.4053 248.595 73.1744 249.836 72.2467C250.638 71.5831 251.628 71.1864 252.666 71.1117C253.433 71.0601 253.838 71.2001 253.845 71.1559Z" fill="#263238"/>
<path d="M236.923 72.6527L241.493 72.2031C240.271 72.5767 239.225 73.3772 238.545 74.4585C237.882 75.5335 237.455 76.7367 237.292 77.9889C236.474 83.244 239.267 88.8897 243.756 91.7347L240.07 92.2211C240.07 92.2211 229.531 82.8091 236.894 72.6527" fill="#263238"/>
<path d="M231.749 82.323C232.927 82.6489 234.164 82.6947 235.363 82.4565C236.561 82.2183 237.687 81.7029 238.651 80.9514C239.614 80.1999 240.389 79.2333 240.912 78.1289C241.434 77.0245 241.692 75.813 241.662 74.5914C241.611 72.3287 240.579 70.0144 241.286 67.8549C241.773 66.3808 243.011 65.2163 243.431 63.7201C244.05 61.4721 242.694 59.2094 241.404 57.2784C240.636 55.9953 239.68 54.835 238.567 53.8364C238.006 53.3389 237.344 52.9708 236.625 52.758C235.907 52.5453 235.15 52.4933 234.41 52.6055" fill="#263238"/>
<path d="M210.817 52.8047C210.943 54.5146 209.815 56.0477 208.672 57.3301C207.53 58.6126 206.27 59.9613 206.019 61.6565C205.584 64.671 208.532 67.4644 207.928 70.4494C207.596 72.0488 206.292 73.3312 206.056 74.9454C205.82 76.5595 206.668 78.0409 207.707 79.2276C208.746 80.4142 210.006 81.4387 210.928 82.6916C211.803 84.1082 212.543 85.6036 213.139 87.1581C213.734 88.7241 214.817 90.0574 216.227 90.9612C218.438 92.1552 221.504 91.5951 223.185 93.4451C224.865 95.295 226.811 95.5088 228.816 96.8576" fill="#263238"/>
<path d="M237.181 55.4202C237.226 53.8724 235.788 52.671 234.344 52.1035C232.899 51.536 231.285 51.3149 229.995 50.4452C228.853 49.7081 228.086 48.4846 227.121 47.497C225.927 46.2929 224.435 45.4273 222.797 44.9885C221.159 44.5497 219.434 44.5534 217.798 44.9993C216.161 45.4453 214.673 46.3174 213.484 47.5266C212.296 48.7359 211.449 50.239 211.031 51.8824C210.478 54.0935 210.854 56.71 212.601 58.1841C214.628 59.8866 217.628 59.5108 220.222 58.9801C222.816 58.4494 225.75 57.9261 227.917 59.4518C229.221 60.3657 229.966 61.8619 230.769 63.2475C231.572 64.6332 232.567 66.0409 234.078 66.5569C235.589 67.0728 237.638 66.181 237.697 64.589" fill="#263238"/>
<path d="M231.026 55.7451C231.673 55.8134 232.27 56.1229 232.699 56.6119C233.128 57.1009 233.357 57.7335 233.34 58.3837L231.793 93.4962C231.726 97.6458 225.668 99.9748 221.224 99.8716C216.742 99.7685 216.595 97.5647 216.543 93.6215C216.447 87.0324 216.455 84.556 216.455 84.5928C216.455 84.6297 210.787 83.642 209.63 76.2495C209.055 72.5643 209.254 66.5427 209.578 61.6193C209.866 57.197 212.814 51.7503 217.236 52.222L231.026 55.7451Z" fill="#FFBE9D"/>
<path d="M210.979 65.8428C210.975 66.0906 211.069 66.3299 211.24 66.5092C211.411 66.6885 211.645 66.7933 211.893 66.801C212.013 66.809 212.133 66.7931 212.246 66.7544C212.36 66.7156 212.465 66.6547 212.554 66.5752C212.644 66.4956 212.717 66.3991 212.77 66.2911C212.822 66.1831 212.852 66.0658 212.859 65.946C212.863 65.6995 212.77 65.4613 212.601 65.2822C212.431 65.1031 212.198 64.9975 211.952 64.9879C211.832 64.9789 211.711 64.994 211.596 65.0323C211.482 65.0706 211.377 65.1313 211.286 65.2109C211.195 65.2906 211.122 65.3875 211.069 65.496C211.016 65.6045 210.986 65.7224 210.979 65.8428Z" fill="#263238"/>
<path d="M210.876 64.7513C210.994 64.8766 211.717 64.3459 212.734 64.3533C213.751 64.3607 214.503 64.8692 214.613 64.7439C214.724 64.6186 214.547 64.4639 214.223 64.228C213.789 63.9296 213.275 63.7679 212.748 63.7637C212.22 63.7624 211.704 63.9275 211.274 64.2354C210.928 64.4786 210.817 64.6997 210.876 64.7513Z" fill="#263238"/>
<path d="M221.136 66.1007C221.132 66.3484 221.225 66.5877 221.396 66.767C221.567 66.9463 221.802 67.0511 222.05 67.0588C222.17 67.0689 222.29 67.0547 222.405 67.0173C222.519 66.9798 222.625 66.9198 222.715 66.8407C222.806 66.7617 222.88 66.6653 222.933 66.5571C222.986 66.449 223.016 66.3314 223.023 66.2112C223.027 65.964 222.934 65.7249 222.765 65.5447C222.596 65.3644 222.363 65.2572 222.116 65.2457C221.995 65.2367 221.874 65.2517 221.759 65.2899C221.645 65.3282 221.539 65.3888 221.447 65.4683C221.356 65.5479 221.282 65.6447 221.228 65.7533C221.175 65.8618 221.143 65.9799 221.136 66.1007Z" fill="#263238"/>
<path d="M220.907 64.9653C221.025 65.0906 221.74 64.56 222.764 64.5674C223.789 64.5747 224.526 65.0833 224.637 64.958C224.747 64.8327 224.578 64.6779 224.246 64.4421C223.814 64.1385 223.299 63.9763 222.772 63.9777C222.242 63.9713 221.725 64.1368 221.298 64.4494C220.966 64.6853 220.848 64.9138 220.907 64.9653Z" fill="#263238"/>
<path d="M217.185 72.5274C216.648 72.3554 216.091 72.2514 215.527 72.2178C215.269 72.2178 215.026 72.1441 214.982 71.9672C214.955 71.6978 215.014 71.4269 215.151 71.1933L215.932 69.2107C216.647 67.5392 217.228 65.8141 217.672 64.0514C217.554 64.0072 216.588 66.2625 215.52 69.078C215.254 69.8151 215.011 70.4416 214.783 71.0754C214.616 71.3867 214.566 71.7477 214.643 72.0925C214.681 72.1843 214.739 72.2665 214.813 72.3328C214.887 72.3991 214.975 72.448 215.07 72.4758C215.214 72.5163 215.363 72.5386 215.512 72.5421C216.069 72.6037 216.63 72.5987 217.185 72.5274Z" fill="#263238"/>
<path d="M216.456 84.5923C219.932 84.664 223.361 83.7711 226.361 82.0127C226.361 82.0127 223.914 87.0467 216.544 86.3391L216.456 84.5923Z" fill="#EB996E"/>
<path d="M217.613 74.9816C217.809 74.739 218.063 74.5498 218.351 74.4313C218.64 74.3128 218.954 74.2688 219.264 74.3035C219.489 74.326 219.707 74.3929 219.905 74.5005C220.104 74.608 220.279 74.754 220.421 74.93C220.557 75.1006 220.636 75.3089 220.65 75.5264C220.663 75.744 220.609 75.9604 220.495 76.1461C220.33 76.3278 220.116 76.4565 219.878 76.5155C219.641 76.5746 219.391 76.5615 219.161 76.4778C218.678 76.3073 218.234 76.0416 217.856 75.6965C217.74 75.6167 217.642 75.5139 217.569 75.3943C217.528 75.3399 217.507 75.274 217.507 75.2064C217.507 75.1388 217.528 75.0729 217.569 75.0185" fill="#EB996E"/>
<path d="M220.185 73.2355C220.023 73.2355 220.016 74.3337 219.065 75.1149C218.114 75.8962 216.935 75.7783 216.927 75.9331C216.92 76.0878 217.193 76.1468 217.664 76.1615C218.314 76.1748 218.947 75.9552 219.448 75.5424C219.934 75.1514 220.246 74.5848 220.318 73.9652C220.384 73.5082 220.229 73.2281 220.185 73.2355Z" fill="#263238"/>
<path d="M220.45 63.1813C220.546 63.454 221.57 63.3288 222.764 63.4762C223.958 63.6236 224.931 63.9479 225.086 63.7046C225.16 63.5793 224.99 63.3214 224.599 63.0487C224.083 62.7148 223.494 62.5077 222.882 62.4443C222.27 62.3706 221.649 62.4413 221.069 62.6507C220.627 62.8497 220.406 63.0487 220.45 63.1813Z" fill="#263238"/>
<path d="M211.259 61.8028C211.436 62.0313 212.144 61.8028 212.984 61.8028C213.824 61.8028 214.546 61.9576 214.708 61.7143C214.782 61.6038 214.672 61.3679 214.362 61.1468C213.942 60.882 213.453 60.7483 212.957 60.7628C212.46 60.7772 211.98 60.9391 211.576 61.2279C211.281 61.449 211.178 61.6922 211.259 61.8028Z" fill="#263238"/>
<path d="M236.186 80.0594C235.165 80.2653 234.109 80.2251 233.106 79.9422C232.103 79.6593 231.182 79.1418 230.419 78.4325C229.655 77.7232 229.072 76.8424 228.716 75.8629C228.361 74.8834 228.243 73.8334 228.374 72.7996C228.609 70.9865 229.582 69.1144 228.956 67.4192C228.123 65.1491 224.939 64.4711 224.091 62.1862C223.605 60.8669 224.047 59.3265 223.487 58.0367C222.927 56.7469 221.689 56.1204 220.443 55.6708C219.162 55.3403 217.941 54.8106 216.824 54.1009C215.778 53.2901 215.129 51.7571 215.8 50.6221C221.322 51.2799 226.746 52.5962 231.956 54.5431C233.157 54.9927 234.425 55.5381 235.14 56.6068C235.855 57.6755 235.877 59.2086 235.796 60.5721L234.867 80.4722" fill="#263238"/>
<path d="M240.166 86.2067C240.163 85.5731 240.032 84.9465 239.783 84.3641C239.477 83.69 239.05 83.0778 238.522 82.5584C237.814 81.8813 237.009 81.3126 236.134 80.8706C235.169 80.3473 234.056 79.8682 232.921 79.2196C231.67 78.5547 230.616 77.5738 229.862 76.3746C229.467 75.704 229.254 74.9419 229.243 74.1635C229.276 73.3732 229.387 72.588 229.575 71.8197C229.78 71.0638 229.833 70.2745 229.73 69.498C229.649 69.1161 229.486 68.7567 229.25 68.4457C229.014 68.1347 228.712 67.8799 228.366 67.6997C227.629 67.2869 226.892 67.029 226.118 66.6752C225.326 66.3543 224.657 65.7888 224.209 65.0611C223.836 64.339 223.644 63.5373 223.649 62.7246C223.649 61.9508 223.649 61.2063 223.649 60.5135C223.667 59.8212 223.567 59.131 223.354 58.4719C223.139 57.868 222.749 57.3419 222.234 56.961C221.236 56.3201 220.121 55.8819 218.954 55.6712C217.966 55.4745 217.022 55.0999 216.168 54.5656C215.524 54.1275 215.052 53.4785 214.834 52.7304C214.684 52.2656 214.684 51.7653 214.834 51.3005C214.891 51.1443 214.976 50.9995 215.085 50.873C215.085 50.873 215.004 51.0278 214.908 51.33C214.783 51.7784 214.799 52.2541 214.952 52.6935C215.183 53.3896 215.643 53.987 216.256 54.3887C217.102 54.8865 218.027 55.2332 218.991 55.4132C220.2 55.615 221.357 56.0533 222.396 56.703C222.965 57.1183 223.399 57.6927 223.642 58.354C223.87 59.0482 223.982 59.7754 223.973 60.5062C223.973 61.2432 223.973 61.9802 223.973 62.7173C223.972 63.4702 224.148 64.2128 224.489 64.8842C224.901 65.5482 225.512 66.0644 226.236 66.3582C226.973 66.7047 227.762 66.9553 228.521 67.3975C228.902 67.6222 229.241 67.9115 229.523 68.2524C229.793 68.6029 229.978 69.0119 230.061 69.4464C230.172 70.2745 230.117 71.1164 229.899 71.9229C229.713 72.664 229.601 73.4221 229.567 74.1856C229.57 74.906 229.764 75.6128 230.128 76.2346C230.844 77.387 231.847 78.3342 233.039 78.9837C234.144 79.6323 235.25 80.1262 236.223 80.6716C237.112 81.1371 237.925 81.7362 238.633 82.4478C239.167 82.9927 239.59 83.636 239.879 84.342C240.06 84.7871 240.157 85.2619 240.166 85.7424C240.175 85.8675 240.175 85.9932 240.166 86.1183C240.181 86.1625 240.173 86.2067 240.166 86.2067Z" fill="#263238"/>
<path d="M218.622 91.2774C218.509 91.3338 218.387 91.3712 218.261 91.388C218.111 91.4245 217.958 91.4491 217.804 91.4617C217.597 91.493 217.387 91.5077 217.177 91.5059C215.817 91.5072 214.49 91.0904 213.374 90.3119C212.595 89.7847 211.941 89.0928 211.458 88.285C210.943 87.3428 210.609 86.3131 210.47 85.2484C210.337 84.1139 210.013 83.0099 209.512 81.9834C208.937 80.9589 207.869 80.2808 206.903 79.4037C205.917 78.5484 205.273 77.3652 205.09 76.0723C204.918 74.8709 205.16 73.6468 205.775 72.6008C206.376 71.7487 206.891 70.8404 207.316 69.8885C207.605 69.0383 207.713 68.137 207.633 67.2426C207.487 65.9326 207.172 64.6469 206.697 63.4173C206.512 62.9672 206.352 62.507 206.218 62.0391C206.294 62.1404 206.356 62.2521 206.402 62.3707C206.505 62.5992 206.66 62.9309 206.837 63.3657C207.374 64.5935 207.734 65.8914 207.906 67.2205C208.005 68.1566 207.907 69.1032 207.618 69.9991C207.201 70.9741 206.687 71.9049 206.085 72.7777C205.514 73.7563 205.296 74.9007 205.466 76.0207C205.636 77.2264 206.238 78.3292 207.161 79.1237C208.082 79.9639 209.203 80.6714 209.837 81.7917C210.359 82.856 210.69 84.0034 210.817 85.1821C210.939 86.2124 211.249 87.2116 211.731 88.1303C212.181 88.9086 212.794 89.5801 213.529 90.0982C214.593 90.8706 215.863 91.3093 217.177 91.3585C218.106 91.3806 218.615 91.2332 218.622 91.2774Z" fill="#263238"/>
<path d="M240.129 56.0474C240.201 56.1329 240.244 56.2384 240.254 56.3496C240.27 56.5089 240.253 56.6697 240.203 56.822C240.154 56.9742 240.073 57.1145 239.967 57.234C239.803 57.4305 239.601 57.5914 239.373 57.7067C239.145 57.8221 238.895 57.8894 238.64 57.9047C237.981 57.8645 237.341 57.6728 236.768 57.3446C236.107 56.9753 235.372 56.7587 234.616 56.7107C233.738 56.6875 232.859 56.7667 231.999 56.9466C231.029 57.1567 230.043 57.2824 229.051 57.3225C227.935 57.3667 226.847 56.9695 226.022 56.2169C225.281 55.4322 224.692 54.5177 224.283 53.5193C223.906 52.6247 223.431 51.7744 222.867 50.9839C222.386 50.3373 221.727 49.845 220.97 49.5674C220.214 49.2899 219.393 49.2391 218.607 49.4214C217.538 49.7059 216.617 50.3889 216.035 51.3303C215.831 51.6821 215.648 52.0464 215.49 52.4212C215.49 52.4212 215.49 52.3106 215.549 52.1042C215.63 51.8053 215.749 51.518 215.902 51.2493C216.372 50.381 217.128 49.7028 218.043 49.3304C218.957 48.958 219.972 48.9146 220.914 49.2077C221.796 49.4825 222.569 50.0263 223.125 50.7628C223.711 51.5703 224.206 52.4405 224.6 53.3572C224.995 54.3105 225.559 55.1844 226.265 55.9368C227.016 56.6264 228.01 56.9895 229.029 56.9466C230 56.9091 230.967 56.7908 231.918 56.5928C232.806 56.4168 233.712 56.3475 234.616 56.3864C235.41 56.4649 236.177 56.7165 236.864 57.1235C237.398 57.4473 237.997 57.6487 238.618 57.7131C238.847 57.7061 239.073 57.6536 239.282 57.5587C239.49 57.4638 239.678 57.3284 239.834 57.1603C239.937 57.0579 240.017 56.936 240.072 56.8018C240.126 56.6676 240.153 56.5239 240.151 56.3791C240.129 56.1506 240.07 56.0548 240.129 56.0474Z" fill="#455A64"/>
<path d="M235.95 53.917C234.731 53.6371 233.646 52.9444 232.879 51.9562C232.112 50.9681 231.71 49.7451 231.741 48.4946C231.772 47.244 232.235 46.0427 233.05 45.094C233.865 44.1453 234.984 43.5076 236.215 43.2889C236.797 43.1461 237.407 43.1653 237.979 43.3446C238.551 43.524 239.062 43.8565 239.458 44.306C240.136 45.2273 240.092 46.6056 240.932 47.3574C241.773 48.1092 243.276 47.8143 244.47 48.0944C245.385 48.3554 246.178 48.9329 246.707 49.7238C247.236 50.5148 247.468 51.468 247.359 52.4135C247.209 53.3533 246.815 54.2373 246.216 54.9771C245.617 55.7169 244.835 56.2866 243.947 56.6293C242.148 57.2857 240.182 57.322 238.36 56.7325C236.554 56.1469 234.837 55.3134 233.26 54.2561" fill="#263238"/>
<path d="M244.831 48.573C244.761 49.061 244.577 49.5257 244.293 49.9291C243.68 50.9522 242.831 51.8139 241.817 52.4424C240.803 53.0751 239.654 53.459 238.463 53.5627C237.97 53.639 237.466 53.6012 236.989 53.4522C236.989 53.3858 237.549 53.4522 238.412 53.29C239.539 53.1188 240.62 52.7201 241.588 52.1181C242.554 51.5109 243.389 50.7165 244.043 49.7817C244.551 49.0668 244.772 48.5508 244.831 48.573Z" fill="#455A64"/>
<path d="M240.925 56.7468C239.976 55.4953 238.784 54.4473 237.422 53.6649C236.06 52.8824 234.554 52.3815 232.995 52.1919C233.46 52.1014 233.937 52.1014 234.402 52.1919C236.685 52.5265 238.755 53.7144 240.196 55.5159C240.522 55.8711 240.77 56.2903 240.925 56.7468Z" fill="#433ED1"/>
<path d="M187.217 137.018L175.27 134.704L177.422 137.763L172.322 140.313L168.054 138.316C168.386 139.188 168.803 140.024 169.3 140.814C170.236 142.369 171.511 143.622 172.292 143.681C172.554 144.758 173.099 145.745 173.869 146.541C174.563 147.232 175.424 147.732 176.369 147.99C177.313 148.248 178.308 148.257 179.257 148.015L187.284 145.111L187.217 137.018Z" fill="#FFBE9D"/>
<path d="M175.166 143.01C174.969 143.258 174.719 143.458 174.435 143.597C174.15 143.736 173.839 143.81 173.522 143.814C173.212 143.878 172.892 143.876 172.583 143.806C172.274 143.736 171.984 143.6 171.731 143.408C171.776 143.298 172.535 143.548 173.478 143.408C174.422 143.268 175.107 142.915 175.166 143.01Z" fill="#EB996E"/>
<path d="M176.744 145.553C176.818 145.627 176.302 146.202 175.417 146.43C175.161 146.529 174.886 146.57 174.612 146.55C174.337 146.53 174.071 146.448 173.833 146.312C173.833 146.202 174.57 146.268 175.307 146.062C176.044 145.855 176.655 145.472 176.744 145.553Z" fill="#EB996E"/>
<path d="M179.744 136.554C179.417 136.789 179.069 136.994 178.704 137.165C178.063 137.527 177.23 138.131 176.294 138.78C175.493 139.361 174.601 139.806 173.656 140.099C173.265 140.246 172.842 140.284 172.432 140.209C172.432 140.15 172.889 140.099 173.575 139.841C174.46 139.478 175.3 139.016 176.08 138.463C176.873 137.886 177.708 137.371 178.579 136.922C178.934 136.712 179.332 136.586 179.744 136.554Z" fill="#EB996E"/>
<path d="M252.216 156.853C252.216 156.853 252.622 157.11 253.639 158.916C256.757 164.481 258.017 177.814 246.269 189.717C231.071 205.092 213.271 230.254 213.271 230.254L199.268 289.335L178.159 284.758L189.037 223.356L218.865 168.019L252.216 156.853Z" fill="#263238"/>
<path d="M275.5 271.196L242.981 221.431L233.12 178.477L208.001 190.822L220.597 234.418L260.788 284.478L275.5 271.196Z" fill="#263238"/>
<path d="M199.282 289.335C199.287 289.235 199.305 289.136 199.334 289.04C199.378 288.834 199.437 288.554 199.511 288.192C199.688 287.455 199.931 286.342 200.248 284.942L203.012 273.017C205.378 262.934 208.643 249.041 212.254 233.696C212.534 232.502 212.814 231.315 213.08 230.21V230.158C222.293 218.365 230.688 207.936 236.864 200.529C239.959 196.844 242.488 193.896 244.279 191.876C245.156 190.866 245.878 190.115 246.357 189.599L246.902 189.016C247.028 188.884 247.094 188.817 247.101 188.825C247.051 188.901 246.994 188.972 246.932 189.038L246.409 189.643C245.952 190.181 245.251 190.947 244.382 191.972C242.628 193.999 240.136 196.976 237.07 200.698C230.945 208.15 222.587 218.609 213.382 230.394V230.32C213.124 231.426 212.844 232.612 212.556 233.806L203.277 273.083C202.061 278.088 201.066 282.149 200.395 284.979C200.049 286.365 199.783 287.455 199.592 288.207C199.503 288.568 199.43 288.841 199.378 289.047C199.355 289.146 199.323 289.242 199.282 289.335Z" fill="#455A64"/>
<path d="M237.417 172.559C237.267 172.684 237.094 172.779 236.909 172.839C236.421 173.05 235.915 173.215 235.398 173.333C233.674 173.726 231.879 173.673 230.182 173.179C228.485 172.685 226.941 171.767 225.698 170.51C225.324 170.133 224.984 169.723 224.681 169.287C224.475 168.97 224.379 168.785 224.401 168.771C224.423 168.756 224.917 169.419 225.875 170.311C227.128 171.476 228.635 172.331 230.277 172.81C231.918 173.288 233.649 173.377 235.331 173.068C236.636 172.832 237.395 172.5 237.417 172.559Z" fill="#455A64"/>
<path d="M255.349 159.403C242.628 166.102 221.983 170.104 215.379 167.385L215.151 142.878C215.151 142.878 206.107 127.968 206.071 122.33C206.019 114.222 216.138 95.6708 216.138 95.6708L231.329 91.595C234.388 91.5298 237.414 92.2344 240.129 93.6439C242.97 95.2182 245.282 97.5979 246.773 100.483C248.264 103.369 248.868 106.631 248.509 109.859L244.684 134.24L255.349 159.403Z" fill="#433ED1"/>
<g opacity="0.3">
<path opacity="0.3" d="M239.046 93.6208C239.93 93.4881 240.255 94.9253 239.628 95.5592C239.002 96.193 238.007 96.2225 237.13 96.3552C233.172 96.9743 230.113 100.365 228.676 104.101C227.238 107.838 227.098 111.921 226.863 115.894C226.627 119.867 226.236 124.002 224.357 127.547C222.602 124.436 221.562 120.973 221.312 117.41C221.062 113.847 221.609 110.273 222.912 106.948C224.216 103.622 226.243 100.629 228.848 98.1848C231.452 95.7407 234.568 93.9072 237.97 92.8174" fill="black"/>
</g>
<path d="M240.129 93.6433C240.129 93.6433 237.918 90.0392 230.606 91.6017C225.712 92.6483 215.011 102.93 217.996 119.447C220.981 135.964 228.985 141.816 228.985 141.816C228.985 141.816 221.614 116.528 225.712 105.495C226.785 102.38 228.7 99.6233 231.245 97.5312C233.79 95.439 236.865 94.0933 240.129 93.6433Z" fill="#263238"/>
<g opacity="0.3">
<path opacity="0.3" d="M215.431 148.081C218.46 149.054 221.364 150.292 224.518 150.69C227.675 151.208 230.912 150.87 233.894 149.71C237.94 147.985 240.947 144.3 242.495 140.18C244.043 136.06 244.256 131.549 243.844 127.164C241.08 130.584 241.411 135.647 239.06 139.369C237.586 141.691 235.191 143.276 232.729 144.529C227.343 147.119 221.402 148.346 215.431 148.103" fill="black"/>
</g>
<path d="M224.541 123.044C224.541 123.044 223.553 141.647 246.247 137.947L248.532 143.327C248.532 143.327 224.674 148.369 221.261 128.586L224.541 123.044Z" fill="#263238"/>
<path d="M245.222 99.9233C246.177 101.342 246.82 102.948 247.11 104.634C247.4 106.319 247.329 108.047 246.902 109.704L241.249 135.006C238.824 142.126 231.904 146.453 227.599 147.028L187.291 151.295V136.252L224.71 130.695L226.464 110.205C226.619 107.448 227.975 102.496 229.729 100.358C231.69 97.9775 234.704 94.7345 239.628 95.56C242.642 96.0612 243.925 98.0733 245.222 99.9233Z" fill="#433ED1"/>
<path d="M246.387 110.691C246.393 110.881 246.38 111.071 246.35 111.259C246.306 111.635 246.239 112.18 246.144 112.888C245.952 114.303 245.657 116.337 245.207 118.843C244.758 121.349 244.183 124.334 243.424 127.614C243.048 129.25 242.643 130.975 242.149 132.773C241.666 134.614 241.005 136.404 240.173 138.117C239.334 139.839 238.179 141.389 236.768 142.686C235.453 143.889 233.962 144.883 232.346 145.634C229.605 146.863 226.678 147.622 223.686 147.882C221.143 148.14 219.079 148.155 217.657 148.17H216.013C215.825 148.187 215.635 148.187 215.446 148.17C215.633 148.137 215.823 148.122 216.013 148.126L217.65 148.059C219.072 148 221.136 147.941 223.656 147.647C226.609 147.355 229.492 146.578 232.191 145.347C233.776 144.615 235.24 143.645 236.532 142.473C237.903 141.197 239.027 139.681 239.849 137.999C240.667 136.308 241.321 134.544 241.802 132.729C242.296 130.975 242.709 129.257 243.1 127.621C243.837 124.349 244.485 121.386 244.957 118.887C245.429 116.389 245.775 114.362 246.011 112.991C246.129 112.32 246.217 111.782 246.284 111.377C246.301 111.146 246.335 110.917 246.387 110.691Z" fill="#263238"/>
<path d="M225.793 135.006C225.374 134.323 225.067 133.576 224.887 132.795C224.58 132.061 224.396 131.282 224.341 130.488C225.069 131.896 225.567 133.412 225.815 134.977L225.793 135.006Z" fill="#263238"/>
<path d="M228.086 134.431C227.289 134.058 226.587 133.512 226.029 132.832C225.382 132.241 224.878 131.51 224.555 130.694C225.185 131.282 225.776 131.91 226.324 132.574C226.953 133.152 227.542 133.772 228.086 134.431Z" fill="#263238"/>
<path d="M190.799 135.736L190.969 135.691L191.47 135.596L193.401 135.279L200.572 134.151L224.652 130.51L224.489 130.68C224.622 129.279 224.762 127.805 224.91 126.302C225.389 120.988 225.897 115.924 226.148 111.303C226.322 109.106 226.742 106.935 227.401 104.832C227.929 102.97 228.827 101.233 230.039 99.7239C232.427 97.1222 235.103 95.7439 237.071 95.4933C237.822 95.3863 238.586 95.4013 239.333 95.5376C239.584 95.5892 239.776 95.6481 239.901 95.685L240.093 95.7513C239.109 95.5254 238.091 95.4879 237.093 95.6407C235.176 95.9282 232.567 97.3212 230.246 99.9082C229.071 101.393 228.209 103.101 227.71 104.927C227.068 107.01 226.662 109.159 226.502 111.332C226.273 115.954 225.764 121.024 225.285 126.338C225.145 127.813 225.005 129.287 224.865 130.716V130.864H224.718L200.587 134.387L193.401 135.389L191.455 135.647L190.954 135.706L190.799 135.736Z" fill="#263238"/>
<path d="M213.869 147.993C213.766 147.993 213.338 144.595 212.918 140.386C212.498 136.178 212.24 132.743 212.343 132.729C212.794 135.248 213.114 137.789 213.301 140.342C213.621 142.881 213.811 145.434 213.869 147.993Z" fill="#FAFAFA"/>
<path d="M243.38 125.152C242.527 125.225 241.669 125.238 240.815 125.189C239.23 125.189 237.048 125.1 234.631 125.012C232.213 124.924 230.032 124.82 228.454 124.725C227.6 124.711 226.748 124.634 225.904 124.496C226.757 124.412 227.614 124.398 228.469 124.452C230.046 124.452 232.235 124.54 234.646 124.629C237.056 124.717 239.237 124.82 240.822 124.916C241.679 124.926 242.535 125.005 243.38 125.152Z" fill="#FAFAFA"/>
<path d="M217.789 120.339C217.243 120.48 216.681 120.554 216.116 120.56C215.085 120.634 213.647 120.686 212.063 120.656C210.478 120.627 209.041 120.516 208.009 120.398C207.446 120.373 206.889 120.277 206.351 120.111C206.909 120.056 207.472 120.056 208.031 120.111C209.063 120.162 210.493 120.221 212.07 120.251C213.647 120.28 215.077 120.251 216.109 120.251C216.671 120.218 217.234 120.248 217.789 120.339Z" fill="#FAFAFA"/>
<path d="M221.121 102.856C221.062 102.952 219.514 102.119 217.509 101.382C215.505 100.645 213.824 100.196 213.824 100.085C216.445 100.405 218.949 101.356 221.121 102.856Z" fill="#FAFAFA"/>
<path d="M250.396 148.841C250.294 148.913 250.183 148.97 250.064 149.01L249.092 149.408C248.251 149.755 247.013 150.212 245.473 150.75C241.453 152.134 237.361 153.3 233.216 154.243C229.07 155.209 224.875 155.947 220.649 156.454C219.028 156.639 217.701 156.764 216.802 156.823L215.755 156.882C215.633 156.901 215.509 156.901 215.387 156.882C215.503 156.841 215.625 156.817 215.748 156.808L216.787 156.676C217.694 156.572 218.998 156.41 220.62 156.189C223.841 155.747 228.285 155.017 233.149 153.912C238.014 152.806 242.311 151.524 245.406 150.514C246.954 150.013 248.207 149.593 249.092 149.29L250.087 148.959C250.186 148.91 250.29 148.871 250.396 148.841Z" fill="#FAFAFA"/>
<path d="M247.993 104.765C247.993 104.869 243.645 104.817 238.286 104.64C232.928 104.463 228.594 104.242 228.594 104.139C228.594 104.036 232.943 104.087 238.301 104.257C243.659 104.426 247.993 104.655 247.993 104.765Z" fill="#FAFAFA"/>
<path d="M196.054 150.181C195.771 147.734 195.613 145.274 195.583 142.811C195.423 140.357 195.393 137.897 195.494 135.44C195.778 137.887 195.936 140.348 195.966 142.811C196.126 145.264 196.156 147.725 196.054 150.181Z" fill="#FAFAFA"/>
<path d="M113.601 74.804C120.163 73.5859 126.938 74.2976 133.103 76.853C135.838 77.9954 138.55 79.6095 140.024 82.1818C141.778 85.2184 141.498 88.9625 141.299 92.4635C140.914 99.596 141.16 106.749 142.036 113.838C142.773 119.734 143.93 125.63 143.908 131.527C143.886 137.423 142.559 143.629 138.837 148.257C133.096 155.385 122.873 157.389 113.778 156.173C109.002 155.539 104.233 154.109 100.334 151.265C96.4354 148.42 93.5167 144.034 93.1851 139.229" fill="#455A64"/>
<path d="M124.966 83.8398C125.816 84.8453 126.539 85.9519 127.118 87.1344C127.717 88.4368 128.21 89.785 128.593 91.166C129.053 92.8784 129.621 94.5598 130.295 96.2C130.997 97.8686 132.089 99.3446 133.479 100.504C134.638 101.457 136.092 101.978 137.592 101.978C138.588 101.988 139.566 101.709 140.407 101.175C140.632 101.027 140.838 100.851 141.019 100.652C141.144 100.519 141.203 100.438 141.189 100.431C141.174 100.423 140.894 100.674 140.304 101.013C139.47 101.469 138.527 101.688 137.577 101.647C136.167 101.603 134.814 101.084 133.737 100.173C132.426 99.0417 131.397 97.621 130.73 96.0231C130.06 94.4018 129.484 92.7432 129.005 91.0555C128.599 89.6609 128.071 88.3045 127.428 87.0018C126.986 86.1229 126.428 85.3073 125.77 84.5769C125.546 84.2872 125.274 84.038 124.966 83.8398Z" fill="#263238"/>
<path d="M127.568 155.716C127.624 155.529 127.661 155.336 127.678 155.141C127.737 154.709 127.811 154.149 127.899 153.461C128.084 151.987 128.327 149.893 128.636 147.284C129.189 142.059 129.853 134.836 130.427 126.846C131.002 118.857 131.349 111.604 131.54 106.349C131.636 103.725 131.695 101.603 131.717 100.136C131.717 99.443 131.717 98.8829 131.717 98.448C131.74 98.2521 131.74 98.0543 131.717 97.8584C131.676 98.0498 131.654 98.2448 131.651 98.4407C131.651 98.8829 131.585 99.4357 131.54 100.128C131.459 101.654 131.349 103.762 131.209 106.334C130.929 111.582 130.516 118.82 129.956 126.809C129.396 134.799 128.769 142.022 128.305 147.247C128.076 149.82 127.892 151.92 127.759 153.439C127.7 154.131 127.656 154.692 127.627 155.126C127.584 155.32 127.564 155.518 127.568 155.716Z" fill="#263238"/>
<path d="M130.479 123.707C130.479 123.832 133.324 124.23 136.884 124.318C140.444 124.407 143.319 124.171 143.311 124.038C143.304 123.906 140.437 123.928 136.899 123.832C133.361 123.736 130.494 123.567 130.479 123.707Z" fill="#263238"/>
<path d="M132.794 124.023C132.506 124.408 132.305 124.851 132.204 125.321C132.044 125.803 131.916 126.296 131.821 126.795C131.74 127.124 131.74 127.468 131.821 127.797C131.877 127.998 131.988 128.179 132.142 128.32C132.295 128.46 132.486 128.555 132.691 128.593C132.806 128.611 132.924 128.603 133.036 128.57C133.148 128.536 133.252 128.479 133.339 128.401C133.497 128.261 133.603 128.071 133.641 127.863C133.693 127.541 133.693 127.213 133.641 126.891C133.59 126.372 133.491 125.858 133.347 125.357C133.26 124.881 133.063 124.432 132.772 124.046C132.801 124.518 132.882 124.985 133.015 125.439C133.103 125.926 133.162 126.418 133.192 126.913C133.233 127.186 133.233 127.464 133.192 127.738C133.133 127.989 132.978 128.129 132.779 128.099C132.271 128.011 132.16 127.362 132.263 126.854C132.366 126.345 132.447 125.785 132.536 125.38C132.679 124.94 132.765 124.485 132.794 124.023Z" fill="#263238"/>
<path d="M106.864 76.5938L137.707 77.6116C141.608 77.7404 144.875 74.6819 145.004 70.7804L145.202 64.7841C145.331 60.8826 142.272 57.6154 138.371 57.4866L107.528 56.4688C103.626 56.3401 100.359 59.3986 100.23 63.3001L100.032 69.2963C99.9036 73.1979 102.962 76.4651 106.864 76.5938Z" fill="#263238"/>
<path d="M137.636 57.8676C137.636 57.8676 137.555 57.7939 137.371 57.7055C137.097 57.5773 136.807 57.488 136.509 57.4401C135.395 57.2733 134.258 57.4862 133.28 58.0445C131.796 58.7802 130.537 59.9 129.632 61.2875C128.592 63.0222 127.997 64.9869 127.9 67.0069C127.706 69.0321 128.119 71.0694 129.087 72.859C129.882 74.3211 131.1 75.5101 132.58 76.2715C133.564 76.7828 134.649 77.0698 135.757 77.1117C136.057 77.1242 136.358 77.1094 136.656 77.0675C136.761 77.0647 136.864 77.0396 136.958 76.9938C136.958 76.9496 136.531 76.9938 135.771 76.9201C134.707 76.8111 133.676 76.485 132.742 75.9619C131.353 75.1992 130.218 74.0462 129.477 72.6452C128.577 70.9236 128.198 68.9772 128.386 67.0437C128.481 65.1009 129.036 63.2085 130.008 61.5233C130.862 60.1876 132.044 59.0937 133.442 58.3467C134.355 57.7883 135.42 57.5305 136.486 57.6096C137.238 57.6907 137.621 57.9118 137.636 57.8676Z" fill="#455A64"/>
<path d="M120.279 56.8057L124.966 57.0415C123.678 57.2388 122.503 57.8928 121.657 58.8841C120.822 59.8708 120.206 61.024 119.851 62.2671C118.222 67.4264 120.19 73.6028 124.273 77.1627L120.478 77.1037C120.478 77.1037 111.243 65.9597 120.249 56.8057" fill="#455A64"/>
<path d="M97.3718 47.976C95.4555 43.34 95.3523 35.2915 98.2783 31.0241C101.204 26.7566 106.688 23.9927 111.722 22.9166C112.55 22.6619 113.436 22.6619 114.265 22.9166C114.668 23.0684 115 23.3665 115.194 23.7515C115.388 24.1366 115.43 24.5805 115.311 24.9951C116.29 24.3235 117.373 23.8203 118.517 23.5062C119.093 23.3438 119.699 23.326 120.283 23.4546C120.867 23.5832 121.41 23.8541 121.864 24.2433C122.082 24.4434 122.259 24.6856 122.382 24.9552C122.505 25.2248 122.573 25.5165 122.581 25.8129C122.589 26.1092 122.538 26.4042 122.43 26.6803C122.322 26.9564 122.159 27.2079 121.952 27.4199C122.661 27.1569 123.432 27.1084 124.169 27.2804C124.906 27.4525 125.576 27.8376 126.095 28.3876C126.614 28.9377 126.961 29.6284 127.09 30.3737C127.22 31.1191 127.127 31.8861 126.824 32.5792C126.135 33.9986 125.179 35.2723 124.008 36.3307C122.954 37.3036 122.778 38.306 122.954 39.7285" fill="#263238"/>
<path d="M98.5732 39.4776L97.2466 67.8389C97.1916 68.982 97.3697 70.1244 97.77 71.1965C98.1704 72.2686 98.7846 73.2481 99.5754 74.0754C100.366 74.9027 101.317 75.5606 102.37 76.0089C103.423 76.4572 104.556 76.6867 105.7 76.6834C107.867 76.6724 109.946 75.8294 111.509 74.3287C113.071 72.828 113.997 70.7844 114.095 68.6202C114.191 66.4828 114.28 64.6991 114.302 64.4854C114.302 64.4854 121.554 64.1464 122.409 57.0266C122.822 53.5846 123.102 46.4279 123.271 39.9493C123.361 36.5938 122.184 33.3276 119.974 30.8009C117.764 28.2742 114.684 26.6723 111.346 26.3141L110.661 26.2404C103.217 25.8719 98.7354 32.004 98.5732 39.4776Z" fill="#FFBE9D"/>
<path d="M114.345 64.3822C111.048 64.0909 107.912 62.8232 105.339 60.7412C105.339 60.7412 106.761 65.2003 113.94 65.3256L114.345 64.3822Z" fill="#EB996E"/>
<path d="M120.728 44.4972C120.702 44.7639 120.573 45.0097 120.367 45.1819C120.162 45.3542 119.897 45.4391 119.63 45.4185C119.5 45.4148 119.372 45.3849 119.253 45.3306C119.134 45.2764 119.028 45.1988 118.94 45.1025C118.852 45.0062 118.784 44.8933 118.741 44.7703C118.697 44.6473 118.679 44.5169 118.687 44.3867C118.713 44.1214 118.842 43.8767 119.045 43.7047C119.249 43.5327 119.512 43.4468 119.778 43.4654C119.908 43.4701 120.036 43.5006 120.155 43.5552C120.273 43.6097 120.38 43.6872 120.468 43.7831C120.557 43.8791 120.625 43.9916 120.67 44.1141C120.714 44.2367 120.734 44.3669 120.728 44.4972Z" fill="#263238"/>
<path d="M121.384 43.2807C121.244 43.3986 120.537 42.75 119.438 42.6321C118.34 42.5142 117.485 42.9785 117.382 42.8311C117.279 42.6837 117.478 42.5363 117.861 42.3226C118.37 42.0466 118.951 41.9334 119.527 41.9983C120.098 42.0583 120.634 42.2984 121.06 42.6837C121.369 42.949 121.465 43.2291 121.384 43.2807Z" fill="#263238"/>
<path d="M109.916 43.6862C109.889 43.9515 109.761 44.1962 109.557 44.3682C109.354 44.5402 109.091 44.6261 108.825 44.6075C108.694 44.6028 108.566 44.5723 108.448 44.5177C108.329 44.4632 108.223 44.3857 108.134 44.2898C108.046 44.1938 107.977 44.0813 107.933 43.9588C107.888 43.8362 107.868 43.706 107.874 43.5757C107.898 43.3096 108.027 43.0638 108.231 42.8914C108.435 42.719 108.698 42.6339 108.965 42.6544C109.096 42.6571 109.225 42.6863 109.344 42.7401C109.464 42.794 109.571 42.8714 109.66 42.9678C109.749 43.0641 109.817 43.1775 109.861 43.3009C109.905 43.4244 109.924 43.5554 109.916 43.6862Z" fill="#263238"/>
<path d="M110.594 42.3233C110.454 42.4412 109.746 41.7926 108.648 41.6747C107.55 41.5568 106.688 42.0211 106.585 41.8737C106.481 41.7263 106.688 41.5863 107.064 41.3652C107.576 41.09 108.159 40.9769 108.737 41.0409C109.307 41.1043 109.843 41.3439 110.27 41.7263C110.572 42.0211 110.66 42.2717 110.594 42.3233Z" fill="#263238"/>
<path d="M113.697 50.88C114.293 50.7565 114.902 50.7119 115.51 50.7473C115.79 50.7473 116.063 50.7473 116.129 50.5409C116.186 50.2553 116.153 49.9589 116.033 49.6933L115.436 47.4822C114.611 44.3277 114.051 41.7407 114.176 41.7112C114.301 41.6817 115.075 44.2098 115.901 47.3717C116.092 48.1087 116.284 48.89 116.461 49.5828C116.591 49.9424 116.591 50.3361 116.461 50.6957C116.411 50.7909 116.34 50.8732 116.253 50.9359C116.166 50.9987 116.065 51.0401 115.959 51.0569C115.801 51.0783 115.639 51.0783 115.48 51.0569C114.881 51.076 114.281 51.0165 113.697 50.88Z" fill="#263238"/>
<path d="M110.41 51.2925C110.586 51.2925 110.461 52.4865 111.39 53.4447C112.319 54.4029 113.601 54.4029 113.601 54.5724C113.601 54.7419 113.299 54.7714 112.761 54.7272C112.062 54.6635 111.408 54.3525 110.918 53.8501C110.448 53.3723 110.183 52.7294 110.181 52.0591C110.144 51.5579 110.306 51.2778 110.41 51.2925Z" fill="#263238"/>
<path d="M111.338 38.0624C111.198 38.3499 110.122 38.0624 108.818 38.1066C107.513 38.1509 106.437 38.3572 106.297 38.1066C106.238 37.9666 106.444 37.7086 106.894 37.4654C107.49 37.164 108.15 37.0098 108.818 37.0158C109.484 37.0094 110.143 37.1583 110.741 37.4507C111.191 37.6644 111.405 37.9224 111.338 38.0624Z" fill="#263238"/>
<path d="M121.325 40.0675C121.104 40.296 120.382 39.957 119.475 39.8464C118.569 39.7358 117.78 39.8464 117.633 39.5516C117.566 39.4189 117.714 39.1831 118.075 38.9841C118.553 38.7579 119.087 38.6765 119.611 38.7498C120.134 38.8232 120.625 39.048 121.023 39.3968C121.347 39.6843 121.421 39.957 121.325 40.0675Z" fill="#263238"/>
<path d="M98.6172 44.8214C98.4993 44.7551 93.878 42.8462 93.5021 47.7327C93.1262 52.6193 98.1234 51.9928 98.1381 51.8528C98.1529 51.7127 98.6172 44.8214 98.6172 44.8214Z" fill="#FFBE9D"/>
<path d="M96.7595 49.8848C96.7595 49.8848 96.6711 49.9363 96.5163 49.9953C96.3124 50.0743 96.0864 50.0743 95.8825 49.9953C95.5815 49.7708 95.3457 49.4701 95.1993 49.1243C95.0529 48.7784 95.0013 48.3998 95.0496 48.0274C95.0703 47.6074 95.1835 47.1972 95.3813 46.826C95.4389 46.6779 95.5313 46.5457 95.6505 46.4405C95.7698 46.3354 95.9125 46.2603 96.0667 46.2217C96.1669 46.2029 96.2705 46.2199 96.3594 46.2698C96.4483 46.3196 96.5169 46.3991 96.5532 46.4944C96.6121 46.6344 96.5532 46.7302 96.5974 46.7376C96.6416 46.745 96.708 46.6639 96.6858 46.4649C96.6657 46.3414 96.6062 46.2277 96.5163 46.1406C96.3888 46.0277 96.2221 45.9694 96.052 45.9784C95.8485 46.0032 95.6548 46.08 95.4896 46.2013C95.3243 46.3227 95.1931 46.4845 95.1086 46.6713C94.866 47.0782 94.7292 47.5393 94.7106 48.0127C94.6509 48.4464 94.7213 48.888 94.9129 49.2816C95.1045 49.6753 95.4086 50.0032 95.7867 50.2238C95.9159 50.2727 96.0545 50.2921 96.1922 50.2806C96.3299 50.2691 96.4633 50.227 96.5827 50.1575C96.7374 50.0027 96.7743 49.8921 96.7595 49.8848Z" fill="#EB996E"/>
<path d="M127.118 30.9576C127.207 37.3404 119.195 39.3893 116.063 35.5862C114.589 33.8247 113.373 31.6651 111.272 30.766C110.553 30.4867 109.786 30.3539 109.015 30.3754C108.244 30.3969 107.485 30.5723 106.783 30.8912H106.739C104.646 31.7831 103.275 34.0237 102.789 36.2495C102.118 39.3525 102.405 42.1458 101.374 44.9687C101.267 45.3919 101.024 45.7678 100.681 46.0374C100.062 46.4133 99.2066 45.9785 98.7865 45.3962C98.1423 44.4076 97.8015 43.2521 97.8063 42.0721C97.579 39.4049 97.8846 36.7191 98.7055 34.1711C99.5383 31.6163 101.101 29.3615 103.201 27.6851C105.909 25.6872 109.285 24.8179 112.621 25.2603C115.945 25.7247 119.039 27.2227 121.465 29.5425C122.638 30.5632 123.537 31.8602 124.082 33.3161" fill="#263238"/>
<path d="M122.202 27.0736C122.431 27.043 122.665 27.0709 122.88 27.1547C123.48 27.3554 124.011 27.7206 124.413 28.2086C125.035 28.9182 125.398 29.8168 125.445 30.7588C125.454 31.9209 125.031 33.0449 124.259 33.9133C123.516 34.7814 122.546 35.4248 121.458 35.7707C120.582 36.0512 119.665 36.1832 118.745 36.1613C118.132 36.1502 117.52 36.086 116.918 35.9697C116.691 35.9479 116.471 35.8828 116.269 35.778C116.269 35.7117 117.22 35.9254 118.738 35.8959C119.626 35.8789 120.505 35.7273 121.347 35.4464C122.364 35.0982 123.27 34.485 123.971 33.6701C124.682 32.8718 125.08 31.8427 125.091 30.7735C125.069 29.9007 124.761 29.0593 124.214 28.3781C123.85 27.9117 123.369 27.5484 122.821 27.3242C122.445 27.1325 122.202 27.1104 122.202 27.0736Z" fill="#455A64"/>
<path d="M119.107 24.5817C119.107 24.5817 119.291 24.5375 119.571 24.6996C119.759 24.8228 119.917 24.9857 120.034 25.1767C120.151 25.3678 120.225 25.5824 120.249 25.8052C120.297 26.4607 120.115 27.1124 119.734 27.6478C119.331 28.3058 118.834 28.9017 118.259 29.4167C117.212 30.3613 115.945 31.0301 114.574 31.3624C114.019 31.5349 113.434 31.5901 112.857 31.5246C112.857 31.4509 113.506 31.4214 114.501 31.1045C115.792 30.71 116.982 30.0384 117.987 29.1366C118.539 28.6451 119.027 28.0853 119.439 27.4709C119.794 27.0021 119.985 26.43 119.984 25.842C119.972 25.6478 119.921 25.4579 119.835 25.2833C119.749 25.1088 119.629 24.953 119.483 24.8249C119.254 24.648 119.1 24.6112 119.107 24.5817Z" fill="#455A64"/>
<path d="M98.3813 94.2249L100.673 77.4646L67.7351 84.098L37.7597 73.6836L29.6597 82.0121L61.5588 98.4408C64.4039 99.7995 67.6097 100.21 70.7054 99.6127L98.3813 94.2249Z" fill="#FFBE9D"/>
<path d="M37.7597 73.6842C37.7597 73.6842 26.2987 68.2007 25.5617 68.009C24.9942 67.8616 16.3413 67.4047 12.3981 67.1983C12.0891 67.1957 11.7902 67.3087 11.5603 67.5152C11.3303 67.7218 11.1859 68.0068 11.1555 68.3144C11.125 68.6219 11.2106 68.9298 11.3956 69.1774C11.5805 69.425 11.8514 69.5945 12.1549 69.6526H12.3023C14.5134 69.8369 19.3484 70.9425 19.3484 70.9425L17.1373 76.1017C17.0301 76.3574 17.0118 76.6415 17.0853 76.9088C17.1588 77.1761 17.3199 77.4109 17.5427 77.5758L24.2129 82.5066C25.0863 82.9037 26.0488 83.0637 27.0037 82.9706C27.9586 82.8774 28.8721 82.5344 29.6522 81.9759L32.6004 82.5803L37.7597 73.6842Z" fill="#FFBE9D"/>
<path d="M17.1152 76.426C17.3216 77.3915 19.6212 79.3742 21.368 79.3742C21.7532 79.3805 22.1277 79.247 22.4219 78.9983C22.5616 78.8676 22.6593 78.6983 22.7026 78.512C22.7459 78.3256 22.7328 78.1306 22.6651 77.9517C22.5421 77.7315 22.3676 77.5444 22.1566 77.4063L18.2798 74.3623" fill="#FFBE9D"/>
<path d="M18.2798 74.3623C18.8575 74.6712 19.4031 75.0366 19.9087 75.4531L21.6112 76.7282C21.9355 76.9788 22.2598 77.1925 22.6136 77.5168C22.7153 77.6113 22.7971 77.7252 22.854 77.8518C22.911 77.9784 22.942 78.1151 22.9453 78.2539C22.9461 78.5218 22.855 78.7819 22.6873 78.9909C22.5179 79.1818 22.3067 79.3309 22.0702 79.4268C21.8337 79.5227 21.5783 79.5627 21.3238 79.5437C20.8831 79.5213 20.4506 79.4163 20.0487 79.2341C19.3814 78.9467 18.7662 78.5507 18.2282 78.0622C17.8612 77.7384 17.5456 77.3607 17.2922 76.9419C17.1227 76.6324 17.1153 76.426 17.1374 76.426C17.1595 76.426 17.2185 76.5955 17.4175 76.8609C17.7055 77.231 18.0371 77.5651 18.4051 77.8559C18.9424 78.2923 19.5409 78.6474 20.1814 78.9098C20.5487 79.0639 20.9406 79.1512 21.3385 79.1678C21.5328 79.1825 21.7279 79.153 21.9092 79.0816C22.0905 79.0101 22.2532 78.8985 22.3851 78.7551C22.5033 78.6206 22.5685 78.4477 22.5685 78.2686C22.5685 78.0896 22.5033 77.9167 22.3851 77.7822C22.1051 77.5168 21.7292 77.2589 21.4344 77.0451L19.7539 75.6669C19.2172 75.2862 18.7229 74.8488 18.2798 74.3623Z" fill="#EB996E"/>
<path d="M26.3871 79.4033C26.3871 79.4033 26.1292 79.2706 25.8933 78.9021C25.5853 78.4129 25.4124 77.8509 25.3921 77.2732C25.3624 76.6998 25.4818 76.1285 25.7386 75.6149C25.9449 75.2242 26.1513 75.04 26.1881 75.0695C25.9393 75.7813 25.8001 76.5269 25.7754 77.2806C25.8689 78.0154 26.0753 78.7314 26.3871 79.4033Z" fill="#EB996E"/>
<path d="M21.788 76.7573C21.9471 77.0569 22.2046 77.2926 22.5172 77.4244C22.8298 77.5563 23.1784 77.5763 23.504 77.481C23.8296 77.3857 24.1124 77.1811 24.3047 76.9015C24.4969 76.622 24.5868 76.2847 24.5593 75.9465C24.4936 75.5358 24.3447 75.1428 24.1216 74.7917C23.8986 74.4406 23.6061 74.1388 23.2621 73.9049L20.395 71.3105" fill="#FFBE9D"/>
<path d="M20.395 71.2812C20.8298 71.5351 21.233 71.8394 21.5964 72.1878L22.8273 73.2418C23.364 73.6665 23.8577 74.143 24.3013 74.6643C24.5295 74.9621 24.6813 75.3113 24.7436 75.6814C24.8017 76.0395 24.734 76.4068 24.5519 76.7206C24.4104 76.9864 24.1974 77.2074 23.9369 77.3585C23.6764 77.5096 23.3788 77.5847 23.0778 77.5756C22.6833 77.5566 22.31 77.391 22.0312 77.1112C21.8396 76.9122 21.7954 76.7648 21.8101 76.7575C21.8249 76.7501 21.9281 76.8533 22.1271 77.0007C22.4057 77.2017 22.7417 77.3077 23.0852 77.3029C23.3264 77.2948 23.561 77.2221 23.7645 77.0925C23.968 76.9628 24.1331 76.781 24.2424 76.5658C24.3668 76.2938 24.4094 75.9915 24.3649 75.6957C24.3204 75.3999 24.1908 75.1235 23.9918 74.9001C23.568 74.4063 23.1073 73.9456 22.6135 73.5218L21.4342 72.4016C21.0385 72.0771 20.6889 71.7002 20.395 71.2812Z" fill="#EB996E"/>
<path d="M26.7045 70.8457C24.3919 71.3982 22.1842 72.3216 20.1669 73.5801C20.0379 73.643 19.9359 73.7503 19.8795 73.8823C19.8205 74.0739 19.9679 74.2582 20.1227 74.3835C20.7578 74.8133 21.531 74.9895 22.2896 74.8773C23.0366 74.7583 23.7895 74.6795 24.545 74.6415C25.8569 74.6415 27.0656 75.2974 28.3333 75.6512C29.6011 76.005 31.1341 75.9902 32.0185 75.0026" fill="#FFBE9D"/>
<path d="M32.003 75.0026C32.003 75.0026 32.003 75.0763 31.8851 75.1795C31.7454 75.3304 31.5839 75.4596 31.406 75.5628C30.7311 75.9301 29.9548 76.0673 29.1949 75.9534C28.1128 75.7668 27.0514 75.4755 26.0256 75.0837C25.4321 74.8986 24.8118 74.8139 24.1904 74.8331C23.5418 74.8699 22.8711 75.0321 22.1341 75.0763C21.399 75.1624 20.6572 74.9848 20.0409 74.5751C19.8619 74.461 19.7308 74.2854 19.6723 74.0813C19.6434 73.9531 19.6645 73.8186 19.7313 73.7054C19.7895 73.6177 19.8647 73.5425 19.9524 73.4843C20.2399 73.3 20.5052 73.1526 20.7779 72.9979C21.7212 72.4584 22.7072 71.9974 23.7261 71.6196C24.4171 71.3618 25.1236 71.1477 25.8414 70.9784C26.102 70.8983 26.3722 70.8537 26.6447 70.8457C26.6447 70.912 25.5318 71.17 23.8219 71.8702C22.8231 72.2816 21.853 72.7593 20.9179 73.3C20.66 73.4548 20.3799 73.6243 20.1293 73.7865C20.0114 73.8749 19.9745 73.9265 19.9966 74.0002C20.0397 74.1144 20.1202 74.2106 20.2251 74.2729C20.7746 74.6228 21.4284 74.7712 22.0751 74.6931C22.7605 74.6488 23.446 74.494 24.1314 74.4646C24.7961 74.4451 25.4593 74.5399 26.092 74.7446C27.0957 75.1448 28.1312 75.4604 29.1875 75.688C29.8924 75.8087 30.6171 75.7216 31.2733 75.4375C31.5246 75.3064 31.7682 75.1612 32.003 75.0026Z" fill="#EB996E"/>
<path d="M68.2435 89.8768C67.6013 87.972 67.5423 85.919 68.0739 83.9805C68.1845 83.9805 68.0739 85.3219 68.0739 86.9286C68.0739 88.5354 68.354 89.8547 68.2435 89.8768Z" fill="#EB996E"/>
<path d="M97.0693 69.6888L87.7236 80.2211C87.7236 80.2211 82.7265 116.594 82.3727 119.454C82.0189 122.313 81.0682 131.438 81.0682 133.937C81.0682 136.435 78.9971 154.294 78.9971 154.294C78.9971 154.294 118.657 162.534 125.298 154.294L123.227 139L125.025 101.065C125.025 101.065 127.973 74.7301 114.117 68.6348C114.095 68.6201 105.339 73.9046 97.0693 69.6888Z" fill="#433ED1"/>
<path d="M120.485 72.3497C120.485 72.3497 117.751 69.6521 109.009 71.9148C99.8037 74.2955 94.9466 82.9115 97.2167 107.293C99.1035 127.414 107.056 130.303 107.056 130.303C107.056 130.303 102.7 99.9592 103.452 87.2674C104.395 71.2368 120.47 75.2241 120.47 75.2241C122.77 74.5018 120.485 72.3497 120.485 72.3497Z" fill="#263238"/>
<path d="M97.0693 69.6895L88.9913 71.9153L70.8159 83.0446L75.9899 99.4806L86.6623 98.3087L97.0693 69.6895Z" fill="#433ED1"/>
<path d="M86.5518 81.0986C86.6623 81.0986 86.198 86.995 85.5273 94.218C84.8566 101.441 84.2227 107.323 84.1195 107.308C84.0163 107.293 84.4733 101.411 85.144 94.1885C85.8147 86.9655 86.4486 81.0913 86.5518 81.0986Z" fill="#263238"/>
<path d="M123.551 132.183C123.551 132.183 120.971 140.475 111.854 126.781C102.737 113.086 104.012 119.211 104.012 119.211L102.147 121.422C102.147 121.422 112.179 144.013 123.433 140.475L123.551 132.183Z" fill="#263238"/>
<path opacity="0.3" d="M86.1832 85.0488L78.9971 99.1484L84.9376 98.4998L86.1832 85.0488Z" fill="black"/>
<g opacity="0.3">
<path opacity="0.3" d="M82.8887 122.483C88.1775 128.239 94.4243 133.034 101.352 136.656C104.248 138.174 107.454 139.508 110.697 139.088C114.264 138.631 117.331 136.052 119.004 132.875C120.677 129.698 120.478 128.165 120.854 124.598C121.296 120.662 121.296 115.407 121.502 111.818C121.502 111.184 121.546 110.447 121.546 109.747C121.546 108.988 121.791 108.25 122.244 107.642C122.696 107.034 123.333 106.588 124.06 106.371C124.06 106.371 121.849 105.346 120.426 105.553C119.004 105.759 117.869 106.975 117.109 108.228C113.063 114.899 114.825 124.679 107.108 128.865C104.557 130.169 101.649 130.596 98.8308 130.082C92.5144 129.05 87.6794 124.922 83.0213 120.854" fill="black"/>
</g>
<path d="M91.6152 108.679C93.5487 108.679 95.1161 103.967 95.1161 98.1538C95.1161 92.3411 93.5487 87.6289 91.6152 87.6289C89.6817 87.6289 88.1143 92.3411 88.1143 98.1538C88.1143 103.967 89.6817 108.679 91.6152 108.679Z" fill="#FAFAFA"/>
<path d="M93.4577 281.205L94.2611 298.533C94.2611 298.533 76.9185 305.166 76.749 308.387L110.402 308.041L110.262 280.991L93.4577 281.205Z" fill="#433ED1"/>
<g opacity="0.6">
<path opacity="0.6" d="M104.683 296.971C105.007 297.067 105.283 297.278 105.461 297.565C105.639 297.852 105.706 298.193 105.649 298.526C105.565 298.854 105.358 299.138 105.072 299.319C104.786 299.5 104.441 299.564 104.108 299.499C103.766 299.393 103.475 299.166 103.287 298.861C103.1 298.556 103.03 298.193 103.091 297.84C103.216 297.508 103.464 297.236 103.784 297.081C104.103 296.926 104.47 296.9 104.808 297.008" fill="white"/>
</g>
<path opacity="0.6" d="M110.41 308.04V305.343L78.0832 306.669C78.0832 306.669 76.6091 307.333 76.7712 308.387L110.41 308.04Z" fill="white"/>
<path d="M93.7378 298.37C93.7378 298.533 94.5707 298.599 95.3814 299.107C96.1922 299.616 96.6344 300.309 96.7892 300.242C96.9439 300.176 96.686 299.233 95.6836 298.621C94.6812 298.009 93.701 298.216 93.7378 298.37Z" fill="#263238"/>
<path d="M90.2299 299.867C90.193 300.029 90.908 300.302 91.4681 300.987C92.0283 301.673 92.2052 302.41 92.3673 302.402C92.5295 302.395 92.6253 301.459 91.9103 300.619C91.1954 299.779 90.2299 299.712 90.2299 299.867Z" fill="#263238"/>
<path d="M88.2988 304.112C88.4462 304.112 88.6673 303.323 88.2324 302.424C87.7976 301.524 87.031 301.178 86.9647 301.318C86.8984 301.458 87.3775 301.93 87.7018 302.674C88.0261 303.419 88.0998 304.097 88.2988 304.112Z" fill="#263238"/>
<path d="M93.9957 294.397C94.0694 294.552 94.8212 294.316 95.7498 294.397C96.6785 294.478 97.4008 294.736 97.4892 294.596C97.5777 294.456 96.8701 293.859 95.7719 293.822C94.6738 293.785 93.9146 294.279 93.9957 294.397Z" fill="#263238"/>
<path opacity="0.3" d="M93.6489 284.639L93.789 287.727L110.328 287.403L110.321 284.617L93.6489 284.639Z" fill="black"/>
<path d="M93.8999 290.904C94.4522 291.056 95.0354 291.056 95.5877 290.904C96.1925 290.787 96.7813 290.599 97.3419 290.344C97.6749 290.191 97.9974 290.016 98.3074 289.82C98.4911 289.71 98.6596 289.576 98.8086 289.422C98.9124 289.303 98.975 289.153 98.9869 288.995C98.9989 288.837 98.9596 288.679 98.8749 288.545C98.7908 288.429 98.6798 288.335 98.5515 288.271C98.4232 288.207 98.2813 288.174 98.1379 288.177C97.9228 288.175 97.7088 288.207 97.504 288.273C97.1459 288.36 96.7977 288.483 96.4648 288.641C95.8969 288.9 95.3743 289.248 94.917 289.673C94.1431 290.41 93.8852 291.022 93.9441 291.059C94.0031 291.096 94.3937 290.587 95.1823 289.983C95.6364 289.636 96.1315 289.346 96.6564 289.12C96.9708 288.995 97.2934 288.892 97.6219 288.811C97.9757 288.715 98.2853 288.715 98.359 288.87C98.4327 289.024 98.359 288.951 98.3221 289.061C98.2154 289.176 98.091 289.273 97.9536 289.349C97.6687 289.539 97.3734 289.714 97.0692 289.872C96.5494 290.135 96.0066 290.35 95.4477 290.513C94.9233 290.607 94.4061 290.738 93.8999 290.904Z" fill="#263238"/>
<path d="M94.1135 291.134C94.4316 290.653 94.5819 290.08 94.541 289.505C94.5651 288.881 94.4803 288.257 94.2904 287.662C94.1815 287.309 94.0357 286.968 93.8556 286.645C93.7628 286.423 93.6142 286.23 93.4244 286.082C93.2345 285.935 93.0098 285.84 92.7721 285.805C92.6211 285.802 92.473 285.846 92.3478 285.93C92.2226 286.015 92.1263 286.136 92.0719 286.277C91.9856 286.474 91.9285 286.682 91.9024 286.896C91.8431 287.272 91.8431 287.655 91.9024 288.031C92.0015 288.662 92.2546 289.26 92.6395 289.77C93.3028 290.632 93.9956 290.824 94.003 290.765C94.0104 290.706 93.487 290.374 92.9711 289.542C92.677 289.062 92.4909 288.523 92.4257 287.964C92.3821 287.639 92.3821 287.309 92.4257 286.984C92.4773 286.63 92.61 286.335 92.7426 286.372C92.8753 286.409 93.1996 286.638 93.3396 286.918C93.5091 287.209 93.6522 287.515 93.7671 287.832C93.9569 288.371 94.071 288.934 94.1062 289.505C94.1946 290.492 94.0251 291.111 94.1135 291.134Z" fill="#263238"/>
<path d="M126.094 270.695L139.7 281.448C139.7 281.448 133.339 298.894 135.661 301.127L157.462 275.493L136.943 257.855L126.094 270.695Z" fill="#433ED1"/>
<g opacity="0.6">
<path opacity="0.6" d="M145.331 272.575C145.615 272.391 145.957 272.319 146.292 272.372C146.626 272.425 146.929 272.6 147.144 272.862C147.336 273.14 147.415 273.481 147.364 273.815C147.313 274.149 147.137 274.452 146.871 274.66C146.567 274.849 146.206 274.92 145.853 274.862C145.501 274.804 145.181 274.62 144.955 274.343C144.782 274.032 144.736 273.666 144.828 273.322C144.921 272.978 145.143 272.684 145.448 272.501" fill="white"/>
</g>
<path opacity="0.6" d="M157.462 275.485L155.421 273.724L135.218 299.004C135.218 299.004 134.747 300.567 135.661 301.119L157.462 275.485Z" fill="white"/>
<path d="M139.213 281.751C139.346 281.854 139.95 281.272 140.864 281.014C141.778 280.756 142.596 280.859 142.64 280.704C142.685 280.549 141.808 280.114 140.695 280.468C139.582 280.822 139.081 281.677 139.213 281.751Z" fill="#263238"/>
<path d="M138.041 285.384C138.137 285.517 138.778 285.156 139.707 285.178C140.636 285.2 141.262 285.561 141.358 285.429C141.454 285.296 140.82 284.618 139.715 284.61C138.609 284.603 137.924 285.281 138.041 285.384Z" fill="#263238"/>
<path d="M139.957 289.643C140.083 289.555 139.604 288.847 138.645 288.589C137.687 288.331 136.921 288.677 136.98 288.817C137.039 288.958 137.717 288.913 138.498 289.142C139.279 289.37 139.839 289.761 139.957 289.643Z" fill="#263238"/>
<path d="M136.39 278.949C136.545 278.993 136.862 278.278 137.511 277.608C138.159 276.937 138.852 276.583 138.8 276.421C138.749 276.259 137.85 276.421 137.098 277.217C136.346 278.013 136.206 278.927 136.39 278.949Z" fill="#263238"/>
<path opacity="0.3" d="M128.792 272.81L131.216 274.734L141.815 262.034L139.707 260.214L128.792 272.81Z" fill="black"/>
<path d="M133.686 276.732C133.73 276.776 134.231 276.348 134.769 275.442C135.082 274.909 135.33 274.339 135.506 273.747C135.607 273.396 135.686 273.039 135.742 272.678C135.773 272.465 135.773 272.249 135.742 272.037C135.72 271.879 135.648 271.734 135.536 271.621C135.425 271.508 135.28 271.434 135.123 271.41C134.985 271.401 134.847 271.424 134.719 271.476C134.592 271.528 134.478 271.609 134.386 271.712C134.245 271.874 134.129 272.056 134.039 272.25C133.877 272.583 133.741 272.928 133.634 273.282C133.462 273.883 133.384 274.507 133.406 275.132C133.368 275.705 133.507 276.277 133.804 276.768C133.899 276.768 133.752 276.127 133.804 275.132C133.86 274.215 134.112 273.321 134.541 272.508C134.703 272.177 134.894 271.948 135.071 271.978C135.248 272.007 135.16 271.978 135.197 272.125C135.217 272.284 135.217 272.445 135.197 272.604C135.15 272.941 135.086 273.276 135.005 273.607C134.863 274.174 134.668 274.727 134.423 275.258C134.138 275.728 133.891 276.221 133.686 276.732Z" fill="#263238"/>
<path d="M133.995 276.724C134.046 276.724 133.811 276.06 133.044 275.331C132.587 274.904 132.062 274.557 131.489 274.306C131.147 274.158 130.792 274.045 130.428 273.967C130.199 273.893 129.956 273.88 129.721 273.927C129.486 273.975 129.267 274.083 129.086 274.24C128.992 274.356 128.932 274.496 128.914 274.645C128.895 274.794 128.919 274.944 128.983 275.08C129.078 275.273 129.2 275.452 129.344 275.611C129.593 275.898 129.884 276.146 130.206 276.348C130.748 276.683 131.362 276.883 131.997 276.93C133.088 276.989 133.685 276.598 133.648 276.547C133.116 276.584 132.582 276.584 132.049 276.547C131.493 276.453 130.962 276.242 130.494 275.928C130.219 275.744 129.971 275.524 129.757 275.272C129.521 274.999 129.388 274.712 129.499 274.63C129.619 274.56 129.753 274.516 129.891 274.5C130.03 274.485 130.17 274.499 130.302 274.542C130.631 274.605 130.954 274.697 131.268 274.815C131.795 275.027 132.291 275.31 132.742 275.655C133.567 276.237 133.921 276.775 133.995 276.724Z" fill="#263238"/>
<path d="M88.3649 207.899C88.3649 207.899 89.2641 166.507 88.3649 166.507C87.4657 166.507 81.083 162.866 81.083 162.866L73.1082 224.372C73.1082 224.372 72.3711 231.278 80.9355 236.165C89.4999 241.051 127.686 274.999 127.686 274.999L140.628 259.234C140.628 259.234 115.488 233.032 105.25 224.372C97.1431 217.628 88.3649 207.899 88.3649 207.899Z" fill="#263238"/>
<path d="M111.781 198.252L112.658 191.699C112.658 191.699 118.952 178.433 119.851 172.787C120.75 167.141 120.161 154.906 120.161 154.906H80.3975C80.3975 154.906 80.567 199.799 85.3651 212.395C85.3651 212.395 87.7973 236.497 88.1585 238.516C88.8955 242.806 91.571 286.689 91.571 286.689L111.618 285.952C111.618 285.952 113.358 245.606 111.965 234.153C111.279 228.478 110.955 222.434 110.8 217.437C110.611 211.026 110.939 204.61 111.781 198.252Z" fill="#263238"/>
<path d="M81.4809 168.003C81.4884 168.067 81.4884 168.131 81.4809 168.195C81.4809 168.349 81.4809 168.541 81.5178 168.777C81.5178 169.315 81.5768 170.067 81.621 170.988C81.6947 172.926 81.8421 175.734 82.0411 179.199C82.4391 186.127 83.1835 195.686 84.2522 206.218C85.3209 216.751 86.5223 226.266 87.3699 233.157C87.79 236.577 88.1069 239.356 88.3649 241.316C88.4754 242.26 88.5639 242.997 88.6229 243.527C88.6229 243.763 88.6671 243.955 88.6818 244.11C88.6966 244.264 88.6818 244.309 88.6818 244.309C88.6577 244.247 88.6404 244.183 88.6302 244.117L88.5418 243.542L88.2101 241.331C87.9448 239.378 87.5615 236.599 87.0898 233.187C86.1759 226.303 84.9598 216.788 83.8616 206.248C82.7634 195.708 82.0706 186.141 81.7389 179.206C81.5694 175.734 81.4736 172.926 81.4441 170.988C81.4441 170.037 81.4441 169.293 81.4072 168.777V168.202C81.4248 168.133 81.4495 168.067 81.4809 168.003Z" fill="#455A64"/>
<path d="M110.764 221.137C110.82 221.349 110.86 221.566 110.881 221.785C110.94 222.242 111.029 222.869 111.139 223.657C111.338 225.294 111.589 227.66 111.817 230.586C112.289 236.445 112.643 244.589 112.776 253.522C112.908 262.455 112.776 270.614 112.422 276.481C112.274 279.429 112.083 281.788 111.928 283.424C111.84 284.213 111.766 284.839 111.714 285.303C111.699 285.524 111.667 285.743 111.618 285.959C111.599 285.739 111.599 285.517 111.618 285.296C111.655 284.832 111.7 284.205 111.759 283.409C111.869 281.773 112.016 279.4 112.134 276.466C112.378 270.607 112.481 262.463 112.37 253.53C112.26 244.597 111.928 236.46 111.523 230.608C111.331 227.66 111.125 225.308 110.97 223.672C110.889 222.884 110.822 222.257 110.778 221.793C110.755 221.575 110.75 221.355 110.764 221.137Z" fill="#455A64"/>
<path d="M118.584 71.4287C118.584 71.4287 125.092 73.1608 126.477 82.8602C127.863 92.5596 125.298 95.3309 125.298 95.3309C125.298 95.3309 126.352 77.2734 118.267 74.8117L118.584 71.7825" fill="#263238"/>
<path d="M74.2432 103.106L40.6489 102.45L41.0396 104.079L74.0811 104.566L74.2432 103.106Z" fill="#263238"/>
<path d="M114.98 74.4728C113.719 74.1653 112.393 74.2819 111.206 74.8045C108.486 75.9469 103.504 79.2267 103.15 88.5429L102.575 103.556L124.06 106.372C124.06 106.372 125.888 77.3767 114.98 74.4728Z" fill="#433ED1"/>
<path d="M75.4371 106.283L102.708 114.479L103.113 103.512L119.431 105.885L118.517 123.721C118.424 126.267 117.498 128.711 115.88 130.678C114.262 132.645 112.042 134.026 109.562 134.607C106.71 135.274 103.712 134.84 101.167 133.391L72.2236 116.933L75.4371 106.283Z" fill="#FFBE9D"/>
<path d="M124.06 106.371C124.06 106.371 124.06 106.275 124.06 106.113C124.06 105.951 124.06 105.686 124.023 105.376C124.023 104.72 123.971 103.799 123.927 102.62C123.853 100.224 123.743 96.8045 123.61 92.5812C123.544 90.4733 123.477 88.159 123.411 85.6825C123.411 85.0634 123.374 84.4296 123.352 83.7883C123.352 83.4788 123.293 83.1618 123.256 82.8376C123.219 82.5133 123.146 82.2037 123.057 81.8868C122.514 79.8308 121.327 78.0024 119.671 76.6685C118.015 75.3346 115.976 74.565 113.852 74.4722C112.326 74.4575 110.828 74.885 109.54 75.703C108.209 76.5508 107.074 77.6712 106.208 78.9902C104.972 80.887 104.137 83.0164 103.754 85.2477C103.377 87.3861 103.153 89.5486 103.083 91.7189C102.965 95.9495 102.855 99.9295 102.752 103.548L102.612 103.379L118.141 105.502L122.504 106.113L123.676 106.334L124.082 106.408L123.676 106.334L122.549 106.209L118.207 105.678L102.545 103.718H102.405V103.57C102.494 99.9443 102.56 95.9716 102.7 91.7336C102.759 89.5438 102.978 87.3612 103.356 85.2035C103.746 82.9212 104.602 80.7436 105.869 78.8059C106.765 77.4411 107.941 76.2827 109.319 75.4082C110.668 74.5499 112.238 74.1042 113.837 74.1257C115.334 74.1895 116.8 74.5801 118.13 75.2702C119.461 75.9603 120.624 76.9331 121.539 78.1205C122.394 79.2107 123.016 80.465 123.367 81.8057C123.448 82.13 123.499 82.4617 123.566 82.7933C123.632 83.125 123.632 83.4493 123.661 83.781C123.661 84.4222 123.661 85.0634 123.706 85.6899C123.757 88.1958 123.802 90.5322 123.846 92.6623C123.919 96.8929 123.978 100.32 124.023 102.716C124.023 103.873 124.023 104.787 124.06 105.428V106.165C124.066 106.233 124.066 106.303 124.06 106.371Z" fill="#263238"/>
<path d="M75.9902 106.607L69.4453 101.765C68.2513 100.88 66.394 101.028 64.9125 100.932C61.9644 100.666 57.1515 102.406 56.9672 102.745L58.9425 104.322L46.2212 103.931C46.6577 104.797 47.3206 105.529 48.1395 106.048C48.9584 106.567 49.9027 106.854 50.8719 106.88C50.8719 106.88 51.2773 109.754 54.9699 110.299C54.9699 110.299 55.928 112.629 57.9843 113.307C57.9843 113.307 58.3897 115.908 61.6695 115.768L72.821 117.014L75.9902 106.607Z" fill="#FFBE9D"/>
<path d="M58.8169 107.33C57.4748 107.447 56.1245 107.432 54.7853 107.286C53.4404 107.277 52.0998 107.134 50.7832 106.859C52.1231 106.75 53.4702 106.765 54.8074 106.903C56.1542 106.922 57.4964 107.065 58.8169 107.33Z" fill="#EB996E"/>
<path d="M62.0451 110.396C60.8809 110.586 59.6999 110.65 58.5221 110.588C57.3442 110.65 56.1632 110.586 54.999 110.396C56.1627 110.203 57.3442 110.139 58.5221 110.205C59.6999 110.139 60.8814 110.203 62.0451 110.396Z" fill="#EB996E"/>
<path d="M65.5021 113.285C64.3384 113.478 63.1569 113.543 61.9791 113.476C60.8037 113.543 59.6246 113.478 58.4634 113.285C59.6251 113.095 60.8037 113.031 61.9791 113.093C63.1569 113.031 64.3379 113.096 65.5021 113.285Z" fill="#EB996E"/>
<path d="M104.513 120.044C103.975 119.219 103.568 118.317 103.304 117.368C102.909 116.465 102.66 115.505 102.567 114.523C103.017 115.391 103.375 116.302 103.636 117.243C104.027 118.143 104.321 119.082 104.513 120.044Z" fill="#EB996E"/>
<path d="M106.452 118.982C105.694 118.281 105.006 117.508 104.395 116.675C103.685 115.929 103.051 115.114 102.501 114.243C103.347 114.862 104.093 115.608 104.712 116.454C105.412 117.207 105.998 118.059 106.452 118.982Z" fill="#EB996E"/>
</svg>
