<svg width="38" height="37" viewBox="0 0 38 37" fill="none" xmlns="http://www.w3.org/2000/svg">
<circle cx="18.9989" cy="18.4838" r="18.2611" fill="white"/>
<path d="M16.1484 27.5685C24.0783 27.5685 28.4148 20.987 28.4148 15.2798C28.4148 15.0929 28.411 14.9068 28.4026 14.7215C29.2464 14.1099 29.9746 13.3525 30.5531 12.485C29.7806 12.8291 28.9494 13.0606 28.0773 13.165C28.9674 12.6303 29.6507 11.7845 29.9731 10.7762C29.1269 11.2791 28.201 11.6337 27.2356 11.8245C26.4488 10.985 25.3288 10.46 24.0886 10.46C21.7078 10.46 19.7772 12.3942 19.7772 14.7784C19.7772 15.1173 19.8151 15.4469 19.8891 15.7632C16.3059 15.5826 13.1287 13.8639 11.0023 11.2506C10.6193 11.9098 10.4179 12.6589 10.4186 13.4214C10.4186 14.9199 11.1797 16.2427 12.3371 17.0166C11.6525 16.9956 10.9828 16.8104 10.3846 16.4764C10.3839 16.4945 10.3839 16.5122 10.3839 16.5316C10.3839 18.6232 11.87 20.3696 13.8426 20.7653C13.4721 20.8664 13.0898 20.9175 12.7058 20.9173C12.4285 20.9173 12.1583 20.89 11.8956 20.8394C12.4445 22.5555 14.036 23.8043 15.9229 23.8392C14.4474 24.9978 12.5886 25.688 10.5684 25.688C10.2247 25.6882 9.88135 25.6683 9.54004 25.6281C11.448 26.8533 13.7136 27.5682 16.1486 27.5682" fill="#0A0E30"/>
</svg>
