<svg width="446" height="515" viewBox="0 0 446 515" fill="none" xmlns="http://www.w3.org/2000/svg">
<path opacity="0.3" d="M204.999 244.218C205.052 244.218 205.052 244.165 204.999 244.218C205.052 244.165 205.052 244.218 204.999 244.218Z" fill="#662D91"/>
<g filter="url(#filter0_d_997_257)">
<path d="M232.725 385.672C232.725 420.391 204.569 448.548 169.85 448.548C135.13 448.548 106.974 420.391 106.974 385.672C106.974 350.952 135.13 322.796 169.85 322.796C204.569 322.849 232.725 350.952 232.725 385.672Z" fill="white"/>
</g>
<path d="M216.529 378.844C212.771 353.069 188.796 335.233 163.021 338.991L167.52 369.847C168.261 369.741 169.055 369.635 169.848 369.635C178.687 369.635 185.885 376.833 185.885 385.672C185.885 394.51 178.687 401.708 169.848 401.708C168.684 401.708 167.573 401.602 166.514 401.338L160.057 431.823C165.403 432.934 171.013 433.199 176.676 432.352C202.451 428.595 220.34 404.619 216.529 378.844Z" fill="#5868FE"/>
<g filter="url(#filter1_d_997_257)">
<path d="M181.017 385.46C181.017 391.705 175.936 396.786 169.691 396.786C163.446 396.786 158.365 391.705 158.365 385.46C158.365 379.215 163.446 374.134 169.691 374.134C175.936 374.134 181.017 379.215 181.017 385.46Z" fill="white"/>
</g>
<path d="M169.638 375.775C164.293 375.775 159.953 380.115 159.953 385.46C159.953 390.806 164.293 395.146 169.638 395.146C174.984 395.146 179.323 390.806 179.323 385.46C179.323 380.115 174.984 375.775 169.638 375.775ZM168.103 387.577C168.474 388.107 169.056 388.371 169.85 388.371C170.379 388.371 170.802 388.212 171.173 387.948C171.49 387.683 171.702 387.313 171.861 386.731H173.608C173.502 387.736 173.131 388.53 172.496 389.059C171.808 389.589 170.908 389.906 169.797 389.906C168.474 389.906 167.521 389.536 166.833 388.742C166.145 388.001 165.827 386.889 165.827 385.407C165.827 383.925 166.198 382.814 166.886 382.02C167.627 381.226 168.632 380.856 169.956 380.856C171.067 380.856 171.914 381.12 172.549 381.703C173.184 382.232 173.502 382.973 173.608 383.925H172.549C172.126 383.925 171.861 383.767 171.702 383.396C171.596 383.185 171.438 382.973 171.279 382.814C170.961 382.549 170.485 382.444 169.956 382.444C169.215 382.444 168.58 382.708 168.209 383.185C167.786 383.661 167.627 384.402 167.627 385.354C167.521 386.36 167.68 387.048 168.103 387.577Z" fill="#5868FE"/>
<circle cx="169.638" cy="385.671" r="8.70643" fill="#5868FE"/>
<g filter="url(#filter2_d_997_257)">
<path d="M191.964 270.619C191.964 305.338 163.807 333.495 129.088 333.495C94.3685 333.495 66.2119 305.338 66.2119 270.619C66.2119 235.9 94.3685 207.743 129.088 207.743C163.807 207.796 191.964 235.9 191.964 270.619Z" fill="white"/>
</g>
<path d="M175.768 263.791C172.011 238.017 148.035 220.181 122.26 223.938L126.759 254.794C127.5 254.688 128.294 254.582 129.088 254.582C137.926 254.582 145.124 261.78 145.124 270.619C145.124 279.458 137.926 286.655 129.088 286.655C127.923 286.655 126.812 286.55 125.753 286.285L119.296 316.77C124.642 317.882 130.252 318.146 135.915 317.3C161.69 313.542 179.579 289.566 175.768 263.791Z" fill="#5868FE"/>
<g filter="url(#filter3_d_997_257)">
<path d="M140.255 270.407C140.255 276.652 135.174 281.733 128.929 281.733C122.684 281.733 117.603 276.652 117.603 270.407C117.603 264.162 122.684 259.081 128.929 259.081C135.174 259.081 140.255 264.162 140.255 270.407Z" fill="white"/>
</g>
<path d="M128.877 260.722C123.531 260.722 119.191 265.062 119.191 270.407C119.191 275.753 123.531 280.093 128.877 280.093C134.222 280.093 138.562 275.753 138.562 270.407C138.562 265.062 134.222 260.722 128.877 260.722ZM127.342 272.524C127.712 273.053 128.295 273.318 129.089 273.318C129.618 273.318 130.041 273.159 130.412 272.895C130.729 272.63 130.941 272.26 131.1 271.677H132.846C132.74 272.683 132.37 273.477 131.735 274.006C131.047 274.535 130.147 274.853 129.036 274.853C127.712 274.853 126.76 274.482 126.072 273.689C125.384 272.948 125.066 271.836 125.066 270.354C125.066 268.872 125.437 267.761 126.125 266.967C126.866 266.173 127.871 265.803 129.194 265.803C130.306 265.803 131.153 266.067 131.788 266.649C132.423 267.179 132.74 267.92 132.846 268.872H131.788C131.364 268.872 131.1 268.713 130.941 268.343C130.835 268.131 130.676 267.92 130.518 267.761C130.2 267.496 129.724 267.39 129.194 267.39C128.453 267.39 127.818 267.655 127.448 268.131C127.024 268.608 126.866 269.349 126.866 270.301C126.76 271.307 126.919 271.995 127.342 272.524Z" fill="#5868FE"/>
<circle cx="128.877" cy="270.408" r="8.70643" fill="#5868FE"/>
<g filter="url(#filter4_d_997_257)">
<path d="M261.809 144.896C261.809 188.296 226.666 223.438 183.267 223.438C139.867 223.438 104.725 188.243 104.725 144.896C104.672 101.55 139.867 66.3545 183.267 66.3545C226.613 66.3545 261.809 101.55 261.809 144.896Z" fill="white"/>
</g>
<path d="M240.003 129.442C231.059 98.11 198.403 80.0094 167.071 88.9539C163.419 90.0124 159.979 91.3885 156.698 93.0292L173.846 126.796C176.651 125.314 179.826 124.52 183.214 124.52C194.487 124.52 203.59 133.676 203.59 144.896C203.59 146.855 203.325 148.76 202.796 150.612L240.479 160.033C242.967 150.295 242.967 139.816 240.003 129.442Z" fill="#433ED1"/>
<g filter="url(#filter5_d_997_257)">
<path d="M196.234 144.738C196.234 151.512 190.729 157.07 183.902 157.07C177.128 157.07 171.57 151.565 171.57 144.738C171.57 137.963 177.075 132.406 183.902 132.406C190.729 132.406 196.234 137.911 196.234 144.738Z" fill="white"/>
</g>
<path d="M183.954 134.206C178.132 134.206 173.422 138.916 173.422 144.738C173.422 150.56 178.132 155.271 183.954 155.271C189.776 155.271 194.486 150.56 194.486 144.738C194.486 138.916 189.776 134.206 183.954 134.206ZM187.5 148.39C186.918 148.867 186.071 149.131 184.96 149.131H180.726V140.822C180.726 140.557 180.832 140.345 180.99 140.134C181.202 139.922 181.414 139.869 181.678 139.869H185.066C186.018 139.869 186.759 140.081 187.236 140.451C187.765 140.875 187.976 141.457 187.976 142.198C187.976 142.674 187.871 143.045 187.659 143.362C187.447 143.68 187.183 143.891 186.812 144.103C187.288 144.315 187.659 144.58 187.871 144.95C188.082 145.268 188.241 145.744 188.241 146.326C188.347 147.173 188.082 147.914 187.5 148.39Z" fill="#433ED1"/>
<circle cx="183.954" cy="144.738" r="8.70643" fill="#433ED1"/>
<g filter="url(#filter6_d_997_257)">
<path d="M379.565 279.654C379.565 334.492 335.107 378.904 280.268 378.904C225.429 378.904 181.018 334.445 181.018 279.654C181.018 224.815 225.476 180.403 280.268 180.403C335.107 180.403 379.565 224.862 379.565 279.654Z" fill="white"/>
</g>
<path d="M301.502 281.692C300.459 292.546 291.359 301.03 280.268 301.03C268.466 301.03 258.939 291.456 258.939 279.701C258.939 267.899 268.513 258.372 280.268 258.372C284.534 258.372 288.515 259.652 291.88 261.832L317.617 217.279C306.621 210.927 293.871 207.278 280.268 207.278C239.127 207.278 205.759 240.646 205.759 281.787C205.759 322.975 239.127 356.295 280.268 356.295C321.409 356.295 354.777 322.928 354.777 281.787H301.502V281.692Z" fill="#1610A7"/>
<g filter="url(#filter7_d_997_257)">
<path d="M294.914 279.464C294.914 286.953 288.847 293.067 281.311 293.067C273.822 293.067 267.708 287 267.708 279.464C267.708 271.975 273.774 265.861 281.311 265.861C288.799 265.861 294.914 271.928 294.914 279.464Z" fill="white"/>
</g>
<path d="M279.842 280.081H282.733L281.311 275.72L279.842 280.081Z" fill="#1610A7"/>
<path d="M281.311 267.852C274.912 267.852 269.699 273.065 269.699 279.464C269.699 285.863 274.912 291.076 281.311 291.076C287.71 291.076 292.923 285.863 292.923 279.464C292.923 273.065 287.71 267.852 281.311 267.852ZM283.965 283.967L283.254 281.834H279.273L278.609 283.967H276.382L279.794 274.392C279.984 273.918 280.316 273.681 280.79 273.681H282.449L286.193 283.967H283.965Z" fill="#1610A7"/>
<circle cx="281.311" cy="279.464" r="8.70643" fill="#1610A7"/>
<defs>
<filter id="filter0_d_997_257" x="40.9736" y="256.796" width="257.752" height="257.752" filterUnits="userSpaceOnUse" color-interpolation-filters="sRGB">
<feFlood flood-opacity="0" result="BackgroundImageFix"/>
<feColorMatrix in="SourceAlpha" type="matrix" values="0 0 0 0 0 0 0 0 0 0 0 0 0 0 0 0 0 0 127 0" result="hardAlpha"/>
<feOffset/>
<feGaussianBlur stdDeviation="33"/>
<feComposite in2="hardAlpha" operator="out"/>
<feColorMatrix type="matrix" values="0 0 0 0 0 0 0 0 0 0 0 0 0 0 0 0 0 0 0.1 0"/>
<feBlend mode="normal" in2="BackgroundImageFix" result="effect1_dropShadow_997_257"/>
<feBlend mode="normal" in="SourceGraphic" in2="effect1_dropShadow_997_257" result="shape"/>
</filter>
<filter id="filter1_d_997_257" x="136.365" y="352.134" width="66.6523" height="66.6523" filterUnits="userSpaceOnUse" color-interpolation-filters="sRGB">
<feFlood flood-opacity="0" result="BackgroundImageFix"/>
<feColorMatrix in="SourceAlpha" type="matrix" values="0 0 0 0 0 0 0 0 0 0 0 0 0 0 0 0 0 0 127 0" result="hardAlpha"/>
<feOffset/>
<feGaussianBlur stdDeviation="11"/>
<feComposite in2="hardAlpha" operator="out"/>
<feColorMatrix type="matrix" values="0 0 0 0 0 0 0 0 0 0 0 0 0 0 0 0 0 0 0.18 0"/>
<feBlend mode="normal" in2="BackgroundImageFix" result="effect1_dropShadow_997_257"/>
<feBlend mode="normal" in="SourceGraphic" in2="effect1_dropShadow_997_257" result="shape"/>
</filter>
<filter id="filter2_d_997_257" x="0.211914" y="141.743" width="257.752" height="257.752" filterUnits="userSpaceOnUse" color-interpolation-filters="sRGB">
<feFlood flood-opacity="0" result="BackgroundImageFix"/>
<feColorMatrix in="SourceAlpha" type="matrix" values="0 0 0 0 0 0 0 0 0 0 0 0 0 0 0 0 0 0 127 0" result="hardAlpha"/>
<feOffset/>
<feGaussianBlur stdDeviation="33"/>
<feComposite in2="hardAlpha" operator="out"/>
<feColorMatrix type="matrix" values="0 0 0 0 0 0 0 0 0 0 0 0 0 0 0 0 0 0 0.1 0"/>
<feBlend mode="normal" in2="BackgroundImageFix" result="effect1_dropShadow_997_257"/>
<feBlend mode="normal" in="SourceGraphic" in2="effect1_dropShadow_997_257" result="shape"/>
</filter>
<filter id="filter3_d_997_257" x="95.603" y="237.081" width="66.6523" height="66.6523" filterUnits="userSpaceOnUse" color-interpolation-filters="sRGB">
<feFlood flood-opacity="0" result="BackgroundImageFix"/>
<feColorMatrix in="SourceAlpha" type="matrix" values="0 0 0 0 0 0 0 0 0 0 0 0 0 0 0 0 0 0 127 0" result="hardAlpha"/>
<feOffset/>
<feGaussianBlur stdDeviation="11"/>
<feComposite in2="hardAlpha" operator="out"/>
<feColorMatrix type="matrix" values="0 0 0 0 0 0 0 0 0 0 0 0 0 0 0 0 0 0 0.18 0"/>
<feBlend mode="normal" in2="BackgroundImageFix" result="effect1_dropShadow_997_257"/>
<feBlend mode="normal" in="SourceGraphic" in2="effect1_dropShadow_997_257" result="shape"/>
</filter>
<filter id="filter4_d_997_257" x="38.7246" y="0.354492" width="289.084" height="289.084" filterUnits="userSpaceOnUse" color-interpolation-filters="sRGB">
<feFlood flood-opacity="0" result="BackgroundImageFix"/>
<feColorMatrix in="SourceAlpha" type="matrix" values="0 0 0 0 0 0 0 0 0 0 0 0 0 0 0 0 0 0 127 0" result="hardAlpha"/>
<feOffset/>
<feGaussianBlur stdDeviation="33"/>
<feComposite in2="hardAlpha" operator="out"/>
<feColorMatrix type="matrix" values="0 0 0 0 0 0 0 0 0 0 0 0 0 0 0 0 0 0 0.1 0"/>
<feBlend mode="normal" in2="BackgroundImageFix" result="effect1_dropShadow_997_257"/>
<feBlend mode="normal" in="SourceGraphic" in2="effect1_dropShadow_997_257" result="shape"/>
</filter>
<filter id="filter5_d_997_257" x="149.57" y="110.406" width="68.6636" height="68.6636" filterUnits="userSpaceOnUse" color-interpolation-filters="sRGB">
<feFlood flood-opacity="0" result="BackgroundImageFix"/>
<feColorMatrix in="SourceAlpha" type="matrix" values="0 0 0 0 0 0 0 0 0 0 0 0 0 0 0 0 0 0 127 0" result="hardAlpha"/>
<feOffset/>
<feGaussianBlur stdDeviation="11"/>
<feComposite in2="hardAlpha" operator="out"/>
<feColorMatrix type="matrix" values="0 0 0 0 0 0 0 0 0 0 0 0 0 0 0 0 0 0 0.18 0"/>
<feBlend mode="normal" in2="BackgroundImageFix" result="effect1_dropShadow_997_257"/>
<feBlend mode="normal" in="SourceGraphic" in2="effect1_dropShadow_997_257" result="shape"/>
</filter>
<filter id="filter6_d_997_257" x="115.018" y="114.403" width="330.548" height="330.5" filterUnits="userSpaceOnUse" color-interpolation-filters="sRGB">
<feFlood flood-opacity="0" result="BackgroundImageFix"/>
<feColorMatrix in="SourceAlpha" type="matrix" values="0 0 0 0 0 0 0 0 0 0 0 0 0 0 0 0 0 0 127 0" result="hardAlpha"/>
<feOffset/>
<feGaussianBlur stdDeviation="33"/>
<feComposite in2="hardAlpha" operator="out"/>
<feColorMatrix type="matrix" values="0 0 0 0 0 0 0 0 0 0 0 0 0 0 0 0 0 0 0.1 0"/>
<feBlend mode="normal" in2="BackgroundImageFix" result="effect1_dropShadow_997_257"/>
<feBlend mode="normal" in="SourceGraphic" in2="effect1_dropShadow_997_257" result="shape"/>
</filter>
<filter id="filter7_d_997_257" x="245.708" y="243.861" width="71.2061" height="71.2061" filterUnits="userSpaceOnUse" color-interpolation-filters="sRGB">
<feFlood flood-opacity="0" result="BackgroundImageFix"/>
<feColorMatrix in="SourceAlpha" type="matrix" values="0 0 0 0 0 0 0 0 0 0 0 0 0 0 0 0 0 0 127 0" result="hardAlpha"/>
<feOffset/>
<feGaussianBlur stdDeviation="11"/>
<feComposite in2="hardAlpha" operator="out"/>
<feColorMatrix type="matrix" values="0 0 0 0 0 0 0 0 0 0 0 0 0 0 0 0 0 0 0.18 0"/>
<feBlend mode="normal" in2="BackgroundImageFix" result="effect1_dropShadow_997_257"/>
<feBlend mode="normal" in="SourceGraphic" in2="effect1_dropShadow_997_257" result="shape"/>
</filter>
</defs>
</svg>
