<svg width="308" height="214" viewBox="0 0 308 214" fill="none" xmlns="http://www.w3.org/2000/svg">
<path d="M16.706 23.4993H292.343C293.308 23.4993 294.233 23.8824 294.915 24.5644C295.597 25.2464 295.98 26.1714 295.98 27.1359V203.123C295.98 205.208 295.152 207.207 293.677 208.681C292.203 210.156 290.204 210.984 288.119 210.984H20.4073C19.3731 210.987 18.3486 210.786 17.3923 210.392C16.436 209.998 15.5668 209.419 14.8346 208.689C14.1023 207.959 13.5213 207.091 13.1249 206.136C12.7285 205.181 12.5244 204.157 12.5244 203.123V27.6862C12.5237 27.1366 12.6313 26.5923 12.8412 26.0844C13.051 25.5764 13.3589 25.1148 13.7473 24.7259C14.1356 24.3371 14.5968 24.0286 15.1045 23.8181C15.6122 23.6076 16.1564 23.4993 16.706 23.4993Z" fill="#242334"/>
<path d="M0.671021 197.096H307.791V206.09C307.791 208.053 307.011 209.936 305.623 211.325C304.235 212.713 302.352 213.493 300.389 213.493H8.07372C6.1104 213.493 4.2275 212.713 2.83922 211.325C1.45095 209.936 0.671021 208.053 0.671021 206.09V197.096Z" fill="#2D2C49"/>
<path d="M126.317 197.096L130.126 203.155H183.753L187.292 197.096H126.317Z" fill="#232235"/>
<path d="M289.228 30.259H19.1423V194.534H289.228V30.259Z" fill="white"/>
<path d="M229.43 68.2935H226.459V69.3793H229.43V68.2935Z" fill="#EBEBEB"/>
<path d="M272.029 67.7461H187.509V175.676H272.029V67.7461Z" fill="white"/>
<path d="M272.246 175.893H187.292V67.5291H272.246V175.893ZM187.727 175.459H271.838V67.9634H187.753L187.727 175.459Z" fill="#EBEBEB"/>
<path d="M272.029 67.7461H187.509V75.8245H272.029V67.7461Z" fill="#433ED1"/>
<path d="M272.246 76.0418H187.292V67.5291H272.246V76.0418ZM187.727 75.6075H271.838V67.9634H187.753L187.727 75.6075Z" fill="#EBEBEB"/>
<path d="M195.092 71.8461C195.092 72.2481 194.973 72.6411 194.75 72.9754C194.527 73.3097 194.209 73.5702 193.838 73.724C193.466 73.8779 193.058 73.9181 192.663 73.8397C192.269 73.7613 191.907 73.5677 191.623 73.2834C191.338 72.9991 191.145 72.637 191.066 72.2427C190.988 71.8484 191.028 71.4397 191.182 71.0683C191.336 70.6968 191.596 70.3794 191.931 70.156C192.265 69.9327 192.658 69.8135 193.06 69.8135C193.599 69.8135 194.116 70.0276 194.497 70.4088C194.878 70.79 195.092 71.307 195.092 71.8461Z" fill="#263238"/>
<path d="M203.397 71.8461C203.397 72.2481 203.278 72.6411 203.054 72.9754C202.831 73.3097 202.513 73.5702 202.142 73.724C201.771 73.8779 201.362 73.9181 200.968 73.8397C200.573 73.7613 200.211 73.5677 199.927 73.2834C199.643 72.9991 199.449 72.637 199.371 72.2427C199.292 71.8484 199.332 71.4397 199.486 71.0683C199.64 70.6968 199.901 70.3794 200.235 70.156C200.569 69.9327 200.962 69.8135 201.364 69.8135C201.903 69.8135 202.42 70.0276 202.801 70.4088C203.183 70.79 203.397 71.307 203.397 71.8461Z" fill="#EBEBEB"/>
<path d="M211.701 71.8461C211.701 72.2481 211.582 72.6411 211.359 72.9754C211.135 73.3097 210.818 73.5702 210.446 73.724C210.075 73.8779 209.666 73.9181 209.272 73.8397C208.878 73.7613 208.515 73.5677 208.231 73.2834C207.947 72.9991 207.753 72.637 207.675 72.2427C207.596 71.8484 207.637 71.4397 207.791 71.0683C207.944 70.6968 208.205 70.3794 208.539 70.156C208.874 69.9327 209.266 69.8135 209.669 69.8135C210.208 69.8135 210.725 70.0276 211.106 70.4088C211.487 70.79 211.701 71.307 211.701 71.8461Z" fill="#455A64"/>
<path d="M272.029 75.3901H187.509V76.2588H272.029V75.3901Z" fill="#EBEBEB"/>
<path d="M234.859 151.128H193.399V155.002H234.859V151.128Z" fill="#C7C7C7"/>
<path d="M266.139 158.65H193.399V160.987H266.139V158.65Z" fill="#EBEBEB"/>
<path d="M266.139 163.107H193.399V165.443H266.139V163.107Z" fill="#EBEBEB"/>
<path d="M266.139 167.554H193.399V169.891H266.139V167.554Z" fill="#EBEBEB"/>
<path d="M193.468 146.35H266.078V80.6458L193.468 80.6458V146.35Z" fill="white"/>
<path d="M266.296 146.576H193.242V80.437H266.296V146.576ZM193.677 146.142H265.862V80.8713H193.659L193.677 146.142Z" fill="#EBEBEB"/>
<path d="M193.608 80.498L193.316 80.8201L265.927 146.521L266.218 146.199L193.608 80.498Z" fill="#EBEBEB"/>
<path d="M265.923 80.5095L193.324 146.223L193.615 146.545L266.214 80.8315L265.923 80.5095Z" fill="#EBEBEB"/>
<path d="M289.228 30.259H19.1423V41.5135H289.228V30.259Z" fill="#433ED1"/>
<path d="M28.1226 35.8864C28.1226 36.3492 27.9854 36.8016 27.7283 37.1864C27.4711 37.5712 27.1057 37.8712 26.6781 38.0483C26.2505 38.2254 25.78 38.2717 25.3261 38.1814C24.8722 38.0911 24.4553 37.8683 24.128 37.541C23.8007 37.2138 23.5779 36.7968 23.4876 36.3429C23.3973 35.889 23.4436 35.4185 23.6208 34.9909C23.7979 34.5633 24.0978 34.1979 24.4826 33.9407C24.8674 33.6836 25.3198 33.5464 25.7826 33.5464C26.4032 33.5464 26.9984 33.7929 27.4373 34.2318C27.8761 34.6706 28.1226 35.2658 28.1226 35.8864Z" fill="#263238"/>
<path d="M37.6827 35.8864C37.6827 36.3492 37.5454 36.8016 37.2883 37.1864C37.0312 37.5712 36.6657 37.8712 36.2382 38.0483C35.8106 38.2254 35.3401 38.2717 34.8862 38.1814C34.4323 38.0911 34.0153 37.8683 33.6881 37.541C33.3608 37.2138 33.1379 36.7968 33.0476 36.3429C32.9574 35.889 33.0037 35.4185 33.1808 34.9909C33.3579 34.5633 33.6578 34.1979 34.0427 33.9407C34.4275 33.6836 34.8799 33.5464 35.3427 33.5464C35.9633 33.5464 36.5585 33.7929 36.9973 34.2318C37.4362 34.6706 37.6827 35.2658 37.6827 35.8864Z" fill="#EBEBEB"/>
<path d="M47.2325 35.8864C47.2325 36.3492 47.0953 36.8016 46.8381 37.1864C46.581 37.5712 46.2156 37.8712 45.788 38.0483C45.3604 38.2254 44.8899 38.2717 44.436 38.1814C43.9821 38.0911 43.5651 37.8683 43.2379 37.541C42.9106 37.2138 42.6877 36.7968 42.5975 36.3429C42.5072 35.889 42.5535 35.4185 42.7306 34.9909C42.9077 34.5633 43.2077 34.1979 43.5925 33.9407C43.9773 33.6836 44.4297 33.5464 44.8925 33.5464C45.5131 33.5464 46.1083 33.7929 46.5471 34.2318C46.986 34.6706 47.2325 35.2658 47.2325 35.8864Z" fill="#455A64"/>
<g opacity="0.7">
<path opacity="0.7" d="M149.694 172.006V110.436L29.834 110.436V172.006H149.694Z" fill="white"/>
<path opacity="0.7" d="M149.944 172.256H29.584V110.186H149.944V172.256ZM30.084 171.756H149.424V110.686H30.084V171.756Z" fill="#DBDBDB"/>
<path opacity="0.7" d="M37.084 163.996H87.434V118.436H37.084L37.084 163.996Z" fill="#433ED1"/>
<path opacity="0.1" d="M43.584 128.406C43.3598 129.54 43.5063 130.717 44.0019 131.762C44.4976 132.806 45.3161 133.664 46.3365 134.208C47.357 134.752 48.5253 134.953 49.6689 134.782C50.8125 134.611 51.8708 134.077 52.6875 133.258C53.5042 132.439 54.036 131.38 54.2043 130.236C54.3726 129.092 54.1685 127.924 53.6223 126.905C53.076 125.886 52.2164 125.069 51.1705 124.576C50.1246 124.083 48.9479 123.939 47.814 124.166C46.7687 124.375 45.8088 124.89 45.0559 125.644C44.3029 126.399 43.7907 127.36 43.584 128.406Z" fill="black"/>
<path opacity="0.2" d="M51.254 154.186H87.434L69.344 129.666L51.254 154.186Z" fill="black"/>
<path opacity="0.7" d="M37.084 154.206H66.954L52.014 138.236L37.084 154.206Z" fill="#433ED1"/>
<path opacity="0.1" d="M37.084 154.206H66.954L52.014 138.236L37.084 154.206Z" fill="black"/>
<path opacity="0.7" d="M87.434 154.186H37.084V164.006H87.434V154.186Z" fill="#433ED1"/>
<path opacity="0.1" d="M87.434 154.186H37.084V164.006H87.434V154.186Z" fill="black"/>
<path opacity="0.7" d="M138.754 118.446H95.864V121.566H138.754V118.446Z" fill="#EBEBEB"/>
<path opacity="0.7" d="M138.754 124.906H95.864V128.026H138.754V124.906Z" fill="#EBEBEB"/>
<path opacity="0.7" d="M138.754 131.366H95.864V134.486H138.754V131.366Z" fill="#EBEBEB"/>
<path opacity="0.7" d="M138.754 137.826H95.864V140.946H138.754V137.826Z" fill="#EBEBEB"/>
<path opacity="0.7" d="M138.754 144.286H95.864V147.406H138.754V144.286Z" fill="#EBEBEB"/>
</g>
<path d="M226.493 29.6124V149.698L204.183 169.696H115.992C115.08 169.694 114.207 169.367 113.563 168.789C112.92 168.21 112.559 167.426 112.559 166.609V29.6124C112.559 28.7953 112.92 28.0116 113.563 27.4329C114.207 26.8543 115.08 26.5279 115.992 26.5254H223.05C223.963 26.5254 224.839 26.8506 225.485 27.4295C226.131 28.0085 226.493 28.7937 226.493 29.6124Z" fill="#9490FF"/>
<g filter="url(#filter0_d_420_5153)">
<path d="M226.493 34.8564V149.698L204.183 169.696H115.991C115.08 169.694 114.207 169.367 113.563 168.789C112.92 168.21 112.558 167.426 112.558 166.609V34.8564H226.493Z" fill="white"/>
</g>
<path opacity="0.6" d="M221.852 32.4398C222.767 32.4398 223.509 31.6976 223.509 30.782C223.509 29.8665 222.767 29.1243 221.852 29.1243C220.936 29.1243 220.194 29.8665 220.194 30.782C220.194 31.6976 220.936 32.4398 221.852 32.4398Z" fill="white"/>
<path opacity="0.6" d="M215.499 32.4398C216.414 32.4398 217.156 31.6976 217.156 30.782C217.156 29.8665 216.414 29.1243 215.499 29.1243C214.583 29.1243 213.841 29.8665 213.841 30.782C213.841 31.6976 214.583 32.4398 215.499 32.4398Z" fill="white"/>
<path opacity="0.6" d="M210.814 30.782C210.816 31.1129 210.72 31.437 210.537 31.713C210.355 31.989 210.094 32.2045 209.789 32.3321C209.484 32.4597 209.148 32.4936 208.823 32.4296C208.498 32.3656 208.2 32.2064 207.966 31.9725C207.732 31.7385 207.573 31.4402 207.509 31.1156C207.445 30.791 207.479 30.4546 207.606 30.1493C207.734 29.844 207.95 29.5835 208.226 29.401C208.502 29.2185 208.826 29.1222 209.156 29.1243C209.375 29.1229 209.591 29.1648 209.793 29.2476C209.994 29.3304 210.178 29.4525 210.332 29.6067C210.486 29.7609 210.608 29.9442 210.691 30.146C210.774 30.3477 210.816 30.564 210.814 30.782Z" fill="white"/>
<path d="M177.199 46.7606H155.414C155.13 46.7606 154.858 46.6479 154.657 46.4474C154.457 46.2468 154.344 45.9747 154.344 45.6911C154.344 45.4074 154.457 45.1354 154.657 44.9348C154.858 44.7343 155.13 44.6216 155.414 44.6216H177.199C177.483 44.6216 177.755 44.7343 177.956 44.9348C178.156 45.1354 178.269 45.4074 178.269 45.6911C178.269 45.9747 178.156 46.2468 177.956 46.4474C177.755 46.6479 177.483 46.7606 177.199 46.7606Z" fill="#9490FF"/>
<path d="M186.162 52.5572H146.483C146.2 52.5572 145.928 52.4446 145.727 52.244C145.526 52.0434 145.414 51.7714 145.414 51.4877C145.414 51.2041 145.526 50.932 145.727 50.7315C145.928 50.5309 146.2 50.4182 146.483 50.4182H186.162C186.446 50.4182 186.718 50.5309 186.918 50.7315C187.119 50.932 187.232 51.2041 187.232 51.4877C187.232 51.7714 187.119 52.0434 186.918 52.244C186.718 52.4446 186.446 52.5572 186.162 52.5572Z" fill="#9490FF"/>
<path d="M177.52 58.4073H155.146C154.862 58.4073 154.59 58.2947 154.39 58.0941C154.189 57.8935 154.077 57.6215 154.077 57.3378C154.077 57.0542 154.189 56.7821 154.39 56.5816C154.59 56.381 154.862 56.2683 155.146 56.2683H177.606C177.889 56.2683 178.161 56.381 178.362 56.5816C178.563 56.7821 178.675 57.0542 178.675 57.3378C178.675 57.6215 178.563 57.8935 178.362 58.0941C178.161 58.2947 177.889 58.4073 177.606 58.4073H177.52Z" fill="#9490FF"/>
<path d="M212.167 79.712H145.215C145.006 79.712 144.807 79.5993 144.659 79.3988C144.512 79.1982 144.429 78.9262 144.429 78.6425C144.429 78.3589 144.512 78.0868 144.659 77.8862C144.807 77.6857 145.006 77.573 145.215 77.573H212.167C212.376 77.573 212.576 77.6857 212.723 77.8862C212.87 78.0868 212.953 78.3589 212.953 78.6425C212.953 78.9262 212.87 79.1982 212.723 79.3988C212.576 79.5993 212.376 79.712 212.167 79.712Z" fill="#9490FF"/>
<path d="M212.167 87.1988H145.215C145.006 87.1988 144.806 87.0862 144.659 86.8856C144.512 86.685 144.429 86.413 144.429 86.1293C144.429 85.8457 144.512 85.5736 144.659 85.3731C144.806 85.1725 145.006 85.0598 145.215 85.0598H212.167C212.376 85.0598 212.575 85.1725 212.723 85.3731C212.87 85.5736 212.953 85.8457 212.953 86.1293C212.953 86.413 212.87 86.685 212.723 86.8856C212.575 87.0862 212.376 87.1988 212.167 87.1988Z" fill="#9490FF"/>
<path d="M212.167 94.6852H145.215C145.006 94.6852 144.806 94.5725 144.659 94.3719C144.512 94.1713 144.429 93.8993 144.429 93.6157C144.429 93.332 144.512 93.06 144.659 92.8594C144.806 92.6588 145.006 92.5461 145.215 92.5461H212.167C212.376 92.5461 212.575 92.6588 212.723 92.8594C212.87 93.06 212.953 93.332 212.953 93.6157C212.953 93.8993 212.87 94.1713 212.723 94.3719C212.575 94.5725 212.376 94.6852 212.167 94.6852Z" fill="#9490FF"/>
<path d="M212.167 102.172H145.215C145.006 102.172 144.806 102.059 144.659 101.858C144.512 101.658 144.429 101.386 144.429 101.102C144.429 100.819 144.512 100.547 144.659 100.346C144.806 100.145 145.006 100.033 145.215 100.033H212.167C212.376 100.033 212.575 100.145 212.723 100.346C212.87 100.547 212.953 100.819 212.953 101.102C212.953 101.386 212.87 101.658 212.723 101.858C212.575 102.059 212.376 102.172 212.167 102.172Z" fill="#9490FF"/>
<path d="M212.167 109.658H145.215C145.006 109.658 144.806 109.546 144.659 109.345C144.512 109.144 144.429 108.872 144.429 108.589C144.429 108.305 144.512 108.033 144.659 107.833C144.806 107.632 145.006 107.519 145.215 107.519H212.167C212.376 107.519 212.575 107.632 212.723 107.833C212.87 108.033 212.953 108.305 212.953 108.589C212.953 108.872 212.87 109.144 212.723 109.345C212.575 109.546 212.376 109.658 212.167 109.658Z" fill="#9490FF"/>
<path d="M212.167 117.145H145.215C145.006 117.145 144.806 117.032 144.659 116.832C144.512 116.631 144.429 116.359 144.429 116.075C144.429 115.792 144.512 115.52 144.659 115.319C144.806 115.119 145.006 115.006 145.215 115.006H212.167C212.376 115.006 212.575 115.119 212.723 115.319C212.87 115.52 212.953 115.792 212.953 116.075C212.953 116.359 212.87 116.631 212.723 116.832C212.575 117.032 212.376 117.145 212.167 117.145Z" fill="#9490FF"/>
<path d="M212.167 124.631H145.215C145.006 124.631 144.806 124.519 144.659 124.318C144.512 124.118 144.429 123.846 144.429 123.562C144.429 123.278 144.512 123.006 144.659 122.806C144.806 122.605 145.006 122.492 145.215 122.492H212.167C212.376 122.492 212.575 122.605 212.723 122.806C212.87 123.006 212.953 123.278 212.953 123.562C212.953 123.846 212.87 124.118 212.723 124.318C212.575 124.519 212.376 124.631 212.167 124.631Z" fill="#9490FF"/>
<path d="M212.167 132.118H145.215C145.006 132.118 144.806 132.005 144.659 131.805C144.512 131.604 144.429 131.332 144.429 131.049C144.429 130.765 144.512 130.493 144.659 130.292C144.806 130.092 145.006 129.979 145.215 129.979H212.167C212.376 129.979 212.575 130.092 212.723 130.292C212.87 130.493 212.953 130.765 212.953 131.049C212.953 131.332 212.87 131.604 212.723 131.805C212.575 132.005 212.376 132.118 212.167 132.118Z" fill="#9490FF"/>
<path d="M212.167 139.605H145.215C145.006 139.605 144.806 139.492 144.659 139.291C144.512 139.091 144.429 138.819 144.429 138.535C144.429 138.251 144.512 137.979 144.659 137.779C144.806 137.578 145.006 137.466 145.215 137.466H212.167C212.376 137.466 212.575 137.578 212.723 137.779C212.87 137.979 212.953 138.251 212.953 138.535C212.953 138.819 212.87 139.091 212.723 139.291C212.575 139.492 212.376 139.605 212.167 139.605Z" fill="#9490FF"/>
<path d="M212.167 147.091H145.215C145.006 147.091 144.806 146.978 144.659 146.778C144.512 146.577 144.429 146.305 144.429 146.022C144.429 145.738 144.512 145.466 144.659 145.265C144.806 145.065 145.006 144.952 145.215 144.952H212.167C212.376 144.952 212.575 145.065 212.723 145.265C212.87 145.466 212.953 145.738 212.953 146.022C212.953 146.305 212.87 146.577 212.723 146.778C212.575 146.978 212.376 147.091 212.167 147.091Z" fill="#9490FF"/>
<path d="M212.167 154.578H145.215C145.006 154.578 144.806 154.465 144.659 154.264C144.512 154.064 144.429 153.792 144.429 153.508C144.429 153.225 144.512 152.953 144.659 152.752C144.806 152.551 145.006 152.439 145.215 152.439H212.167C212.376 152.439 212.575 152.551 212.723 152.752C212.87 152.953 212.953 153.225 212.953 153.508C212.953 153.792 212.87 154.064 212.723 154.264C212.575 154.465 212.376 154.578 212.167 154.578Z" fill="#9490FF"/>
<path d="M212.168 71.4072H145.215C145.007 71.4072 144.807 71.2382 144.66 70.9375C144.512 70.6367 144.43 70.2287 144.43 69.8033C144.43 69.378 144.512 68.97 144.66 68.6692C144.807 68.3684 145.007 68.1995 145.215 68.1995H212.168C212.376 68.1995 212.576 68.3684 212.723 68.6692C212.871 68.97 212.953 69.378 212.953 69.8033C212.953 70.2287 212.871 70.6367 212.723 70.9375C212.576 71.2382 212.376 71.4072 212.168 71.4072Z" fill="#9490FF"/>
<path d="M135.14 71.4072H120.907C120.863 71.4072 120.82 71.2382 120.789 70.9375C120.758 70.6367 120.74 70.2287 120.74 69.8033C120.74 69.378 120.758 68.97 120.789 68.6692C120.82 68.3684 120.863 68.1995 120.907 68.1995H135.14C135.184 68.1995 135.227 68.3684 135.258 68.6692C135.289 68.97 135.307 69.378 135.307 69.8033C135.307 70.2287 135.289 70.6367 135.258 70.9375C135.227 71.2382 135.184 71.4072 135.14 71.4072Z" fill="#9490FF"/>
<path d="M135.14 79.712H120.907C120.863 79.712 120.82 79.5993 120.789 79.3988C120.758 79.1982 120.74 78.9262 120.74 78.6425C120.74 78.3589 120.758 78.0868 120.789 77.8862C120.82 77.6857 120.863 77.573 120.907 77.573H135.14C135.184 77.573 135.227 77.6857 135.258 77.8862C135.289 78.0868 135.307 78.3589 135.307 78.6425C135.307 78.9262 135.289 79.1982 135.258 79.3988C135.227 79.5993 135.184 79.712 135.14 79.712Z" fill="#9490FF"/>
<path d="M135.14 87.1988H120.907C120.863 87.1988 120.821 87.0862 120.789 86.8856C120.758 86.685 120.74 86.413 120.74 86.1293C120.74 85.8457 120.758 85.5736 120.789 85.3731C120.821 85.1725 120.863 85.0598 120.907 85.0598H135.14C135.184 85.0598 135.227 85.1725 135.258 85.3731C135.289 85.5736 135.307 85.8457 135.307 86.1293C135.307 86.413 135.289 86.685 135.258 86.8856C135.227 87.0862 135.184 87.1988 135.14 87.1988Z" fill="#9490FF"/>
<path d="M135.14 94.6852H120.907C120.863 94.6852 120.821 94.5725 120.789 94.3719C120.758 94.1713 120.74 93.8993 120.74 93.6157C120.74 93.332 120.758 93.06 120.789 92.8594C120.821 92.6588 120.863 92.5461 120.907 92.5461H135.14C135.184 92.5461 135.227 92.6588 135.258 92.8594C135.289 93.06 135.307 93.332 135.307 93.6157C135.307 93.8993 135.289 94.1713 135.258 94.3719C135.227 94.5725 135.184 94.6852 135.14 94.6852Z" fill="#9490FF"/>
<path d="M135.14 102.172H120.907C120.863 102.172 120.821 102.059 120.789 101.858C120.758 101.658 120.74 101.386 120.74 101.102C120.74 100.819 120.758 100.547 120.789 100.346C120.821 100.145 120.863 100.033 120.907 100.033H135.14C135.184 100.033 135.227 100.145 135.258 100.346C135.289 100.547 135.307 100.819 135.307 101.102C135.307 101.386 135.289 101.658 135.258 101.858C135.227 102.059 135.184 102.172 135.14 102.172Z" fill="#9490FF"/>
<path d="M135.14 109.658H120.907C120.863 109.658 120.821 109.546 120.789 109.345C120.758 109.144 120.74 108.872 120.74 108.589C120.74 108.305 120.758 108.033 120.789 107.833C120.821 107.632 120.863 107.519 120.907 107.519H135.14C135.184 107.519 135.227 107.632 135.258 107.833C135.289 108.033 135.307 108.305 135.307 108.589C135.307 108.872 135.289 109.144 135.258 109.345C135.227 109.546 135.184 109.658 135.14 109.658Z" fill="#9490FF"/>
<path d="M135.14 117.145H120.907C120.863 117.145 120.821 117.032 120.789 116.832C120.758 116.631 120.74 116.359 120.74 116.075C120.74 115.792 120.758 115.52 120.789 115.319C120.821 115.119 120.863 115.006 120.907 115.006H135.14C135.184 115.006 135.227 115.119 135.258 115.319C135.289 115.52 135.307 115.792 135.307 116.075C135.307 116.359 135.289 116.631 135.258 116.832C135.227 117.032 135.184 117.145 135.14 117.145Z" fill="#9490FF"/>
<path d="M135.14 124.631H120.907C120.863 124.631 120.821 124.519 120.789 124.318C120.758 124.118 120.74 123.846 120.74 123.562C120.74 123.278 120.758 123.006 120.789 122.806C120.821 122.605 120.863 122.492 120.907 122.492H135.14C135.184 122.492 135.227 122.605 135.258 122.806C135.289 123.006 135.307 123.278 135.307 123.562C135.307 123.846 135.289 124.118 135.258 124.318C135.227 124.519 135.184 124.631 135.14 124.631Z" fill="#9490FF"/>
<path d="M135.14 132.118H120.907C120.863 132.118 120.821 132.005 120.789 131.805C120.758 131.604 120.74 131.332 120.74 131.049C120.74 130.765 120.758 130.493 120.789 130.292C120.821 130.092 120.863 129.979 120.907 129.979H135.14C135.184 129.979 135.227 130.092 135.258 130.292C135.289 130.493 135.307 130.765 135.307 131.049C135.307 131.332 135.289 131.604 135.258 131.805C135.227 132.005 135.184 132.118 135.14 132.118Z" fill="#9490FF"/>
<path d="M135.14 139.605H120.907C120.863 139.605 120.821 139.492 120.789 139.291C120.758 139.091 120.74 138.819 120.74 138.535C120.74 138.251 120.758 137.979 120.789 137.779C120.821 137.578 120.863 137.466 120.907 137.466H135.14C135.184 137.466 135.227 137.578 135.258 137.779C135.289 137.979 135.307 138.251 135.307 138.535C135.307 138.819 135.289 139.091 135.258 139.291C135.227 139.492 135.184 139.605 135.14 139.605Z" fill="#9490FF"/>
<path d="M135.14 147.091H120.907C120.863 147.091 120.821 146.978 120.789 146.778C120.758 146.577 120.74 146.305 120.74 146.022C120.74 145.738 120.758 145.466 120.789 145.265C120.821 145.065 120.863 144.952 120.907 144.952H135.14C135.184 144.952 135.227 145.065 135.258 145.265C135.289 145.466 135.307 145.738 135.307 146.022C135.307 146.305 135.289 146.577 135.258 146.778C135.227 146.978 135.184 147.091 135.14 147.091Z" fill="#9490FF"/>
<path d="M135.14 154.578H120.907C120.863 154.578 120.821 154.465 120.789 154.264C120.758 154.064 120.74 153.792 120.74 153.508C120.74 153.225 120.758 152.953 120.789 152.752C120.821 152.551 120.863 152.439 120.907 152.439H135.14C135.184 152.439 135.227 152.551 135.258 152.752C135.289 152.953 135.307 153.225 135.307 153.508C135.307 153.792 135.289 154.064 135.258 154.264C135.227 154.465 135.184 154.578 135.14 154.578Z" fill="#9490FF"/>
<path d="M211.884 44.365H200.943V58.9317H211.884V44.365Z" fill="#9490FF"/>
<path d="M126.804 56.4932C130.153 56.4932 132.868 53.7782 132.868 50.4291C132.868 47.08 130.153 44.365 126.804 44.365C123.455 44.365 120.74 47.08 120.74 50.4291C120.74 53.7782 123.455 56.4932 126.804 56.4932Z" fill="#9490FF"/>
<path opacity="0.2" d="M211.884 44.365L200.943 58.9317H211.884V44.365Z" fill="black"/>
<path opacity="0.2" d="M130.344 46.8889H123.253V53.9798H130.344V46.8889Z" fill="black"/>
<path d="M223.338 59.9798C222.723 59.9798 222.132 59.7353 221.697 59.3C221.262 58.8648 221.017 58.2745 221.017 57.6589V44.6216C221.017 44.0061 221.262 43.4158 221.697 42.9805C222.132 42.5453 222.723 42.3008 223.338 42.3008C223.954 42.3008 224.544 42.5453 224.979 42.9805C225.415 43.4158 225.659 44.0061 225.659 44.6216V57.7124C225.645 58.3186 225.394 58.8953 224.961 59.319C224.527 59.7428 223.945 59.9799 223.338 59.9798Z" fill="#9490FF"/>
<path opacity="0.4" d="M223.338 59.9798C222.723 59.9798 222.132 59.7353 221.697 59.3C221.262 58.8648 221.017 58.2745 221.017 57.6589V44.6216C221.017 44.0061 221.262 43.4158 221.697 42.9805C222.132 42.5453 222.723 42.3008 223.338 42.3008C223.954 42.3008 224.544 42.5453 224.979 42.9805C225.415 43.4158 225.659 44.0061 225.659 44.6216V57.7124C225.645 58.3186 225.394 58.8953 224.961 59.319C224.527 59.7428 223.945 59.9799 223.338 59.9798Z" fill="white"/>
<path opacity="0.5" d="M226.611 149.59L204.183 169.696V149.59L226.611 149.59Z" fill="#9490FF"/>
<path opacity="0.28" d="M226.483 35.8193H220.183V155.293L226.483 149.636V35.8193Z" fill="#D5D3FF"/>
<path d="M171.919 3.68004V135.097L147.504 156.983H50.9899C49.9924 156.98 49.0368 156.623 48.3325 155.99C47.6283 155.356 47.2328 154.499 47.2328 153.605V3.68004C47.2328 2.78588 47.6283 1.92818 48.3325 1.29493C49.0368 0.661681 49.9924 0.304535 50.9899 0.301758H168.15C169.15 0.301758 170.108 0.657682 170.815 1.29123C171.522 1.92478 171.919 2.78407 171.919 3.68004Z" fill="#9490FF"/>
<g filter="url(#filter1_d_420_5153)">
<path d="M171.919 9.41919V135.098L147.504 156.983H50.9897C49.9922 156.98 49.0366 156.623 48.3323 155.99C47.6281 155.357 47.2326 154.499 47.2326 153.605V9.41919H171.919Z" fill="white"/>
</g>
<path opacity="0.6" d="M166.839 6.77435C167.841 6.77435 168.653 5.96211 168.653 4.96017C168.653 3.95823 167.841 3.146 166.839 3.146C165.837 3.146 165.025 3.95823 165.025 4.96017C165.025 5.96211 165.837 6.77435 166.839 6.77435Z" fill="white"/>
<path opacity="0.6" d="M159.887 6.77435C160.889 6.77435 161.701 5.96211 161.701 4.96017C161.701 3.95823 160.889 3.146 159.887 3.146C158.885 3.146 158.073 3.95823 158.073 4.96017C158.073 5.96211 158.885 6.77435 159.887 6.77435Z" fill="white"/>
<path opacity="0.6" d="M154.761 4.96021C154.763 5.32232 154.657 5.67695 154.458 5.979C154.258 6.28105 153.973 6.51689 153.639 6.65653C153.305 6.79618 152.937 6.83332 152.581 6.76324C152.226 6.69316 151.9 6.51902 151.644 6.26296C151.388 6.00691 151.213 5.68051 151.143 5.32524C151.073 4.96997 151.11 4.60187 151.25 4.26777C151.39 3.93366 151.626 3.64861 151.928 3.44888C152.23 3.24914 152.584 3.14372 152.946 3.14603C153.185 3.14448 153.422 3.19034 153.642 3.28096C153.863 3.37158 154.064 3.50517 154.233 3.67394C154.401 3.84271 154.535 4.04331 154.626 4.26412C154.716 4.48493 154.762 4.72153 154.761 4.96021Z" fill="white"/>
<path d="M108.201 22.4466H84.359C84.0486 22.4466 83.7508 22.3233 83.5313 22.1038C83.3118 21.8843 83.1885 21.5866 83.1885 21.2761C83.1885 20.9657 83.3118 20.668 83.5313 20.4485C83.7508 20.229 84.0486 20.1057 84.359 20.1057H108.201C108.511 20.1057 108.809 20.229 109.028 20.4485C109.248 20.668 109.371 20.9657 109.371 21.2761C109.371 21.5866 109.248 21.8843 109.028 22.1038C108.809 22.3233 108.511 22.4466 108.201 22.4466Z" fill="#9490FF"/>
<path d="M127.782 28.7903H84.359C84.0486 28.7903 83.7508 28.667 83.5313 28.4475C83.3118 28.228 83.1885 27.9303 83.1885 27.6199C83.1885 27.3095 83.3118 27.0118 83.5313 26.7923C83.7508 26.5728 84.0486 26.4495 84.359 26.4495H127.782C128.092 26.4495 128.39 26.5728 128.61 26.7923C128.829 27.0118 128.952 27.3095 128.952 27.6199C128.952 27.9303 128.829 28.228 128.61 28.4475C128.39 28.667 128.092 28.7903 127.782 28.7903Z" fill="#9490FF"/>
<path d="M108.844 35.1922H84.359C84.0486 35.1922 83.7508 35.0689 83.5313 34.8494C83.3118 34.6299 83.1885 34.3322 83.1885 34.0218C83.1885 33.7113 83.3118 33.4136 83.5313 33.1941C83.7508 32.9746 84.0486 32.8513 84.359 32.8513H108.938C109.248 32.8513 109.546 32.9746 109.766 33.1941C109.985 33.4136 110.109 33.7113 110.109 34.0218C110.109 34.3322 109.985 34.6299 109.766 34.8494C109.546 35.0689 109.248 35.1922 108.938 35.1922H108.844Z" fill="#9490FF"/>
<path d="M156.241 58.5076H82.9706C82.7426 58.5076 82.524 58.3843 82.3628 58.1648C82.2015 57.9453 82.111 57.6476 82.111 57.3372C82.111 57.0268 82.2015 56.7291 82.3628 56.5096C82.524 56.2901 82.7426 56.1667 82.9706 56.1667H156.241C156.469 56.1667 156.688 56.2901 156.849 56.5096C157.01 56.7291 157.101 57.0268 157.101 57.3372C157.101 57.6476 157.01 57.9453 156.849 58.1648C156.688 58.3843 156.469 58.5076 156.241 58.5076Z" fill="#9490FF"/>
<path d="M156.241 66.7007H82.9706C82.7426 66.7007 82.524 66.5774 82.3628 66.3579C82.2015 66.1384 82.111 65.8407 82.111 65.5303C82.111 65.2199 82.2015 64.9222 82.3628 64.7027C82.524 64.4832 82.7426 64.3599 82.9706 64.3599H156.241C156.469 64.3599 156.688 64.4832 156.849 64.7027C157.01 64.9222 157.101 65.2199 157.101 65.5303C157.101 65.8407 157.01 66.1384 156.849 66.3579C156.688 66.5774 156.469 66.7007 156.241 66.7007Z" fill="#9490FF"/>
<path d="M156.241 74.8936H82.9706C82.7426 74.8936 82.524 74.7703 82.3628 74.5508C82.2015 74.3313 82.111 74.0336 82.111 73.7232C82.111 73.4127 82.2015 73.115 82.3628 72.8955C82.524 72.676 82.7426 72.5527 82.9706 72.5527H156.241C156.469 72.5527 156.688 72.676 156.849 72.8955C157.01 73.115 157.101 73.4127 157.101 73.7232C157.101 74.0336 157.01 74.3313 156.849 74.5508C156.688 74.7703 156.469 74.8936 156.241 74.8936Z" fill="#9490FF"/>
<path d="M156.241 83.0867H82.9706C82.7426 83.0867 82.524 82.9634 82.3628 82.7439C82.2015 82.5244 82.111 82.2267 82.111 81.9163C82.111 81.6059 82.2015 81.3082 82.3628 81.0887C82.524 80.8692 82.7426 80.7458 82.9706 80.7458H156.241C156.469 80.7458 156.688 80.8692 156.849 81.0887C157.01 81.3082 157.101 81.6059 157.101 81.9163C157.101 82.2267 157.01 82.5244 156.849 82.7439C156.688 82.9634 156.469 83.0867 156.241 83.0867Z" fill="#9490FF"/>
<path d="M156.241 91.2798H82.9706C82.7426 91.2798 82.524 91.1565 82.3628 90.937C82.2015 90.7175 82.111 90.4198 82.111 90.1094C82.111 89.799 82.2015 89.5013 82.3628 89.2818C82.524 89.0623 82.7426 88.939 82.9706 88.939H156.241C156.469 88.939 156.688 89.0623 156.849 89.2818C157.01 89.5013 157.101 89.799 157.101 90.1094C157.101 90.4198 157.01 90.7175 156.849 90.937C156.688 91.1565 156.469 91.2798 156.241 91.2798Z" fill="#9490FF"/>
<path d="M156.241 99.4728H82.9706C82.7426 99.4728 82.524 99.3495 82.3628 99.13C82.2015 98.9105 82.111 98.6128 82.111 98.3024C82.111 97.992 82.2015 97.6943 82.3628 97.4748C82.524 97.2553 82.7426 97.132 82.9706 97.132H156.241C156.469 97.132 156.688 97.2553 156.849 97.4748C157.01 97.6943 157.101 97.992 157.101 98.3024C157.101 98.6128 157.01 98.9105 156.849 99.13C156.688 99.3495 156.469 99.4728 156.241 99.4728Z" fill="#9490FF"/>
<path d="M156.241 107.666H82.9706C82.7426 107.666 82.524 107.543 82.3628 107.323C82.2015 107.104 82.111 106.806 82.111 106.495C82.111 106.185 82.2015 105.887 82.3628 105.668C82.524 105.448 82.7426 105.325 82.9706 105.325H156.241C156.469 105.325 156.688 105.448 156.849 105.668C157.01 105.887 157.101 106.185 157.101 106.495C157.101 106.806 157.01 107.104 156.849 107.323C156.688 107.543 156.469 107.666 156.241 107.666Z" fill="#9490FF"/>
<path d="M156.241 115.859H82.9706C82.7426 115.859 82.524 115.735 82.3628 115.516C82.2015 115.297 82.111 114.999 82.111 114.688C82.111 114.378 82.2015 114.08 82.3628 113.861C82.524 113.641 82.7426 113.518 82.9706 113.518H156.241C156.469 113.518 156.688 113.641 156.849 113.861C157.01 114.08 157.101 114.378 157.101 114.688C157.101 114.999 157.01 115.297 156.849 115.516C156.688 115.735 156.469 115.859 156.241 115.859Z" fill="#9490FF"/>
<path d="M156.241 124.052H82.9706C82.7426 124.052 82.524 123.929 82.3628 123.709C82.2015 123.49 82.111 123.192 82.111 122.881C82.111 122.571 82.2015 122.273 82.3628 122.054C82.524 121.834 82.7426 121.711 82.9706 121.711H156.241C156.469 121.711 156.688 121.834 156.849 122.054C157.01 122.273 157.101 122.571 157.101 122.881C157.101 123.192 157.01 123.49 156.849 123.709C156.688 123.929 156.469 124.052 156.241 124.052Z" fill="#9490FF"/>
<path d="M156.241 132.245H82.9706C82.7426 132.245 82.524 132.122 82.3628 131.902C82.2015 131.683 82.111 131.385 82.111 131.074C82.111 130.764 82.2015 130.466 82.3628 130.247C82.524 130.027 82.7426 129.904 82.9706 129.904H156.241C156.469 129.904 156.688 130.027 156.849 130.247C157.01 130.466 157.101 130.764 157.101 131.074C157.101 131.385 157.01 131.683 156.849 131.902C156.688 132.122 156.469 132.245 156.241 132.245Z" fill="#9490FF"/>
<path d="M156.241 140.438H82.9706C82.7426 140.438 82.524 140.315 82.3628 140.095C82.2015 139.876 82.111 139.578 82.111 139.267C82.111 138.957 82.2015 138.659 82.3628 138.44C82.524 138.22 82.7426 138.097 82.9706 138.097H156.241C156.469 138.097 156.688 138.22 156.849 138.44C157.01 138.659 157.101 138.957 157.101 139.267C157.101 139.578 157.01 139.876 156.849 140.095C156.688 140.315 156.469 140.438 156.241 140.438Z" fill="#9490FF"/>
<path d="M156.241 49.4189H82.9706C82.7426 49.4189 82.524 49.234 82.3628 48.9048C82.2015 48.5756 82.111 48.1292 82.111 47.6637C82.111 47.1982 82.2015 46.7517 82.3628 46.4225C82.524 46.0934 82.7426 45.9084 82.9706 45.9084H156.241C156.469 45.9084 156.688 46.0934 156.849 46.4225C157.01 46.7517 157.101 47.1982 157.101 47.6637C157.101 48.1292 157.01 48.5756 156.849 48.9048C156.688 49.234 156.469 49.4189 156.241 49.4189Z" fill="#9490FF"/>
<path d="M71.945 49.4189H56.3693C56.3209 49.4189 56.2744 49.234 56.2401 48.9048C56.2058 48.5756 56.1866 48.1292 56.1866 47.6637C56.1866 47.1982 56.2058 46.7517 56.2401 46.4225C56.2744 46.0934 56.3209 45.9084 56.3693 45.9084H71.945C71.9935 45.9084 72.0399 46.0934 72.0742 46.4225C72.1085 46.7517 72.1277 47.1982 72.1277 47.6637C72.1277 48.1292 72.1085 48.5756 72.0742 48.9048C72.0399 49.234 71.9935 49.4189 71.945 49.4189Z" fill="#9490FF"/>
<path d="M71.945 58.5076H56.3694C56.3209 58.5076 56.2744 58.3843 56.2402 58.1648C56.2059 57.9453 56.1866 57.6476 56.1866 57.3372C56.1866 57.0268 56.2059 56.7291 56.2402 56.5096C56.2744 56.2901 56.3209 56.1667 56.3694 56.1667H71.945C71.9935 56.1667 72.04 56.2901 72.0743 56.5096C72.1085 56.7291 72.1278 57.0268 72.1278 57.3372C72.1278 57.6476 72.1085 57.9453 72.0743 58.1648C72.04 58.3843 71.9935 58.5076 71.945 58.5076Z" fill="#9490FF"/>
<path d="M71.9451 66.7007H56.3695C56.321 66.7007 56.2745 66.5774 56.2402 66.3579C56.206 66.1384 56.1867 65.8407 56.1867 65.5303C56.1867 65.2199 56.206 64.9222 56.2402 64.7027C56.2745 64.4832 56.321 64.3599 56.3695 64.3599H71.9451C71.9936 64.3599 72.0401 64.4832 72.0743 64.7027C72.1086 64.9222 72.1279 65.2199 72.1279 65.5303C72.1279 65.8407 72.1086 66.1384 72.0743 66.3579C72.0401 66.5774 71.9936 66.7007 71.9451 66.7007Z" fill="#9490FF"/>
<path d="M71.9451 74.8936H56.3695C56.321 74.8936 56.2745 74.7703 56.2402 74.5508C56.206 74.3313 56.1867 74.0336 56.1867 73.7232C56.1867 73.4127 56.206 73.115 56.2402 72.8955C56.2745 72.676 56.321 72.5527 56.3695 72.5527H71.9451C71.9936 72.5527 72.0401 72.676 72.0743 72.8955C72.1086 73.115 72.1279 73.4127 72.1279 73.7232C72.1279 74.0336 72.1086 74.3313 72.0743 74.5508C72.0401 74.7703 71.9936 74.8936 71.9451 74.8936Z" fill="#9490FF"/>
<path d="M71.9451 83.0867H56.3695C56.321 83.0867 56.2745 82.9634 56.2402 82.7439C56.206 82.5244 56.1867 82.2267 56.1867 81.9163C56.1867 81.6059 56.206 81.3082 56.2402 81.0887C56.2745 80.8692 56.321 80.7458 56.3695 80.7458H71.9451C71.9936 80.7458 72.0401 80.8692 72.0743 81.0887C72.1086 81.3082 72.1279 81.6059 72.1279 81.9163C72.1279 82.2267 72.1086 82.5244 72.0743 82.7439C72.0401 82.9634 71.9936 83.0867 71.9451 83.0867Z" fill="#9490FF"/>
<path d="M71.9451 91.2798H56.3695C56.321 91.2798 56.2745 91.1565 56.2402 90.937C56.206 90.7175 56.1867 90.4198 56.1867 90.1094C56.1867 89.799 56.206 89.5013 56.2402 89.2818C56.2745 89.0623 56.321 88.939 56.3695 88.939H71.9451C71.9936 88.939 72.0401 89.0623 72.0743 89.2818C72.1086 89.5013 72.1279 89.799 72.1279 90.1094C72.1279 90.4198 72.1086 90.7175 72.0743 90.937C72.0401 91.1565 71.9936 91.2798 71.9451 91.2798Z" fill="#9490FF"/>
<path d="M71.9451 99.4728H56.3695C56.321 99.4728 56.2745 99.3495 56.2402 99.13C56.206 98.9105 56.1867 98.6128 56.1867 98.3024C56.1867 97.992 56.206 97.6943 56.2402 97.4748C56.2745 97.2553 56.321 97.132 56.3695 97.132H71.9451C71.9936 97.132 72.0401 97.2553 72.0743 97.4748C72.1086 97.6943 72.1279 97.992 72.1279 98.3024C72.1279 98.6128 72.1086 98.9105 72.0743 99.13C72.0401 99.3495 71.9936 99.4728 71.9451 99.4728Z" fill="#9490FF"/>
<path d="M71.9451 107.666H56.3695C56.321 107.666 56.2745 107.543 56.2402 107.323C56.206 107.104 56.1867 106.806 56.1867 106.495C56.1867 106.185 56.206 105.887 56.2402 105.668C56.2745 105.448 56.321 105.325 56.3695 105.325H71.9451C71.9936 105.325 72.0401 105.448 72.0743 105.668C72.1086 105.887 72.1279 106.185 72.1279 106.495C72.1279 106.806 72.1086 107.104 72.0743 107.323C72.0401 107.543 71.9936 107.666 71.9451 107.666Z" fill="#9490FF"/>
<path d="M71.9451 115.859H56.3695C56.321 115.859 56.2745 115.735 56.2402 115.516C56.206 115.297 56.1867 114.999 56.1867 114.688C56.1867 114.378 56.206 114.08 56.2402 113.861C56.2745 113.641 56.321 113.518 56.3695 113.518H71.9451C71.9936 113.518 72.0401 113.641 72.0743 113.861C72.1086 114.08 72.1279 114.378 72.1279 114.688C72.1279 114.999 72.1086 115.297 72.0743 115.516C72.0401 115.735 71.9936 115.859 71.9451 115.859Z" fill="#9490FF"/>
<path d="M71.9451 124.052H56.3695C56.321 124.052 56.2745 123.929 56.2402 123.709C56.206 123.49 56.1867 123.192 56.1867 122.881C56.1867 122.571 56.206 122.273 56.2402 122.054C56.2745 121.834 56.321 121.711 56.3695 121.711H71.9451C71.9936 121.711 72.0401 121.834 72.0743 122.054C72.1086 122.273 72.1279 122.571 72.1279 122.881C72.1279 123.192 72.1086 123.49 72.0743 123.709C72.0401 123.929 71.9936 124.052 71.9451 124.052Z" fill="#9490FF"/>
<path d="M71.9451 132.245H56.3695C56.321 132.245 56.2745 132.122 56.2402 131.902C56.206 131.683 56.1867 131.385 56.1867 131.074C56.1867 130.764 56.206 130.466 56.2402 130.247C56.2745 130.027 56.321 129.904 56.3695 129.904H71.9451C71.9936 129.904 72.0401 130.027 72.0743 130.247C72.1086 130.466 72.1279 130.764 72.1279 131.074C72.1279 131.385 72.1086 131.683 72.0743 131.902C72.0401 132.122 71.9936 132.245 71.9451 132.245Z" fill="#9490FF"/>
<path d="M71.9451 140.438H56.3695C56.321 140.438 56.2745 140.315 56.2402 140.095C56.206 139.876 56.1867 139.578 56.1867 139.267C56.1867 138.957 56.206 138.659 56.2402 138.44C56.2745 138.22 56.321 138.097 56.3695 138.097H71.9451C71.9936 138.097 72.0401 138.22 72.0743 138.44C72.1086 138.659 72.1279 138.957 72.1279 139.267C72.1279 139.578 72.1086 139.876 72.0743 140.095C72.0401 140.315 71.9936 140.438 71.9451 140.438Z" fill="#9490FF"/>
<path d="M155.931 19.8247H143.957V35.766H155.931V19.8247Z" fill="#9490FF"/>
<path d="M62.8229 33.0974C66.4881 33.0974 69.4593 30.1262 69.4593 26.4611C69.4593 22.7959 66.4881 19.8247 62.8229 19.8247C59.1578 19.8247 56.1866 22.7959 56.1866 26.4611C56.1866 30.1262 59.1578 33.0974 62.8229 33.0974Z" fill="#9490FF"/>
<path opacity="0.2" d="M155.931 19.8247L143.957 35.766H155.931V19.8247Z" fill="black"/>
<path opacity="0.2" d="M66.6972 22.5869H58.9372V30.3469H66.6972V22.5869Z" fill="black"/>
<path d="M168.466 36.9129C167.793 36.9129 167.147 36.6453 166.67 36.169C166.194 35.6927 165.926 35.0467 165.926 34.3731V20.1055C165.926 19.4319 166.194 18.7859 166.67 18.3096C167.147 17.8333 167.793 17.5657 168.466 17.5657C169.14 17.5657 169.786 17.8333 170.262 18.3096C170.739 18.7859 171.006 19.4319 171.006 20.1055V34.4316C170.991 35.095 170.716 35.7261 170.242 36.1898C169.767 36.6536 169.13 36.9131 168.466 36.9129Z" fill="#9490FF"/>
<path opacity="0.4" d="M168.466 36.9129C167.793 36.9129 167.147 36.6453 166.67 36.169C166.194 35.6927 165.926 35.0467 165.926 34.3731V20.1055C165.926 19.4319 166.194 18.7859 166.67 18.3096C167.147 17.8333 167.793 17.5657 168.466 17.5657C169.14 17.5657 169.786 17.8333 170.262 18.3096C170.739 18.7859 171.006 19.4319 171.006 20.1055V34.4316C170.991 35.095 170.716 35.7261 170.242 36.1898C169.767 36.6536 169.13 36.9131 168.466 36.9129Z" fill="white"/>
<path opacity="0.5" d="M172.048 134.979L147.504 156.983V134.979L172.048 134.979Z" fill="#9490FF"/>
<path opacity="0.28" d="M171.907 10.4731H165.013V141.221L171.907 135.03V10.4731Z" fill="#D5D3FF"/>
<defs>
<filter id="filter0_d_420_5153" x="106.558" y="27.8564" width="127.935" height="148.84" filterUnits="userSpaceOnUse" color-interpolation-filters="sRGB">
<feFlood flood-opacity="0" result="BackgroundImageFix"/>
<feColorMatrix in="SourceAlpha" type="matrix" values="0 0 0 0 0 0 0 0 0 0 0 0 0 0 0 0 0 0 127 0" result="hardAlpha"/>
<feOffset dx="1"/>
<feGaussianBlur stdDeviation="3.5"/>
<feComposite in2="hardAlpha" operator="out"/>
<feColorMatrix type="matrix" values="0 0 0 0 0 0 0 0 0 0 0 0 0 0 0 0 0 0 0.11 0"/>
<feBlend mode="normal" in2="BackgroundImageFix" result="effect1_dropShadow_420_5153"/>
<feBlend mode="normal" in="SourceGraphic" in2="effect1_dropShadow_420_5153" result="shape"/>
</filter>
<filter id="filter1_d_420_5153" x="41.2326" y="2.41919" width="138.686" height="161.564" filterUnits="userSpaceOnUse" color-interpolation-filters="sRGB">
<feFlood flood-opacity="0" result="BackgroundImageFix"/>
<feColorMatrix in="SourceAlpha" type="matrix" values="0 0 0 0 0 0 0 0 0 0 0 0 0 0 0 0 0 0 127 0" result="hardAlpha"/>
<feOffset dx="1"/>
<feGaussianBlur stdDeviation="3.5"/>
<feComposite in2="hardAlpha" operator="out"/>
<feColorMatrix type="matrix" values="0 0 0 0 0 0 0 0 0 0 0 0 0 0 0 0 0 0 0.11 0"/>
<feBlend mode="normal" in2="BackgroundImageFix" result="effect1_dropShadow_420_5153"/>
<feBlend mode="normal" in="SourceGraphic" in2="effect1_dropShadow_420_5153" result="shape"/>
</filter>
</defs>
</svg>
