<svg width="44" height="50" viewBox="0 0 44 50" fill="none" xmlns="http://www.w3.org/2000/svg">
<path d="M38.4344 0.462891H5.63355C2.86737 0.462891 0.615234 2.7161 0.615234 5.50826V38.6213C0.615234 41.4135 2.8672 43.6667 5.63339 43.6667H33.3919L32.0944 39.1357L35.2277 42.0502L38.1895 44.7933L43.4525 49.4467V5.50826C43.4525 2.7161 41.2005 0.462891 38.4344 0.462891ZM28.9857 32.4495C28.9857 32.4495 28.1045 31.3962 27.3701 30.4655C30.5769 29.5592 31.8008 27.551 31.8008 27.551C30.7971 28.2123 29.8425 28.6778 28.9857 28.9959C27.7618 29.5104 26.5868 29.8531 25.4364 30.0491C23.0864 30.49 20.9323 30.3676 19.0965 30.0247C17.7011 29.7551 16.5017 29.3634 15.4982 28.9716C14.9351 28.7511 14.3232 28.4817 13.7111 28.1388C13.6378 28.0898 13.5643 28.0653 13.4908 28.0163C13.442 27.9918 13.4174 27.9674 13.393 27.9429C12.9524 27.698 12.7076 27.5265 12.7076 27.5265C12.7076 27.5265 13.8826 29.4859 16.9913 30.4165C16.257 31.3474 15.3513 32.4493 15.3513 32.4493C9.94138 32.2779 7.88535 28.7266 7.88535 28.7266C7.88535 20.8402 11.4102 14.4478 11.4102 14.4478C14.9351 11.8026 18.2886 11.8761 18.2886 11.8761L18.5334 12.1701C14.1274 13.4434 12.0956 15.3785 12.0956 15.3785C12.0956 15.3785 12.6341 15.0847 13.5397 14.6683C16.159 13.517 18.2398 13.1988 19.0965 13.1253C19.2433 13.1007 19.3657 13.0762 19.5127 13.0762C21.153 12.8624 22.8131 12.846 24.4574 13.0273C26.7826 13.2967 29.2796 13.9825 31.8252 15.3785C31.8252 15.3785 29.8915 13.5417 25.7301 12.2681L26.0728 11.8763C26.0728 11.8763 29.4263 11.8026 32.9512 14.4479C32.9512 14.4479 36.4762 20.8402 36.4762 28.7266C36.4762 28.7266 34.3954 32.2779 28.9857 32.4493V32.4495ZM17.6032 21.0117C16.208 21.0117 15.1066 22.2362 15.1066 23.7302C15.1066 25.2243 16.2324 26.4488 17.6032 26.4488C18.9986 26.4488 20.1 25.2243 20.1 23.7302C20.1246 22.2362 18.9986 21.0117 17.6034 21.0117H17.6032ZM26.538 21.0117C25.1426 21.0117 24.041 22.2362 24.041 23.7302C24.041 25.2243 25.1672 26.4488 26.538 26.4488C27.9332 26.4488 29.0346 25.2243 29.0346 23.7302C29.0346 22.2362 27.9332 21.0117 26.538 21.0117Z" fill="#7289DA"/>
</svg>
