<svg width="54" height="54" viewBox="0 0 54 54" fill="none" xmlns="http://www.w3.org/2000/svg">
<path fill-rule="evenodd" clip-rule="evenodd" d="M26.751 0.240234C41.5146 0.240234 53.4829 12.2085 53.4829 26.9722C53.4829 41.7358 41.5146 53.7041 26.751 53.7041C11.9874 53.7041 0.019043 41.7358 0.019043 26.9722C0.019043 12.2085 11.9874 0.240234 26.751 0.240234Z" fill="url(#paint0_linear_403_423)"/>
<path d="M30.2244 53.4795V32.8313H36.0455L36.8171 25.5641H30.2244L30.2342 21.9266C30.2342 20.0311 30.4142 19.016 33.1368 19.016H36.7763V11.7476H30.9539C23.9601 11.7476 21.4989 15.2728 21.4989 21.2019V25.5647H17.1392V32.8326H21.4989V53.1868C23.1973 53.5252 24.9532 53.7039 26.751 53.7039C27.9124 53.704 29.0726 53.629 30.2244 53.4795Z" fill="white"/>
<defs>
<linearGradient id="paint0_linear_403_423" x1="26.751" y1="-0.246848" x2="26.751" y2="55.9838" gradientUnits="userSpaceOnUse">
<stop stop-color="#00B2FF"/>
<stop offset="1" stop-color="#006AFF"/>
</linearGradient>
</defs>
</svg>
