<svg width="54" height="54" viewBox="0 0 54 54" fill="none" xmlns="http://www.w3.org/2000/svg">
<path d="M13.8256 53.6083C10.656 53.4641 8.93424 52.9366 7.78902 52.49C6.27156 51.8991 5.1897 51.1958 4.05082 50.0585C2.91193 48.9212 2.20706 47.8394 1.6194 46.3219C1.17272 45.1767 0.645255 43.4549 0.501113 40.2854C0.342715 36.8592 0.311035 35.8312 0.311035 27.151C0.311035 18.4708 0.345883 17.4443 0.499529 14.015C0.643671 10.8455 1.17431 9.12686 1.61782 7.97847C2.20865 6.46101 2.91352 5.37915 4.04923 4.23869C5.18653 3.10139 6.26839 2.39493 7.78743 1.80727C8.93265 1.36059 10.6544 0.833125 13.824 0.688982C17.2517 0.532168 18.2813 0.500488 26.9584 0.500488C35.6386 0.500488 36.665 0.535336 40.0943 0.688982C43.2639 0.833125 44.9825 1.36376 46.1309 1.80727C47.6483 2.39493 48.7302 3.10139 49.8691 4.23869C51.008 5.37599 51.7097 6.45943 52.3005 7.97689C52.7472 9.1221 53.2747 10.8439 53.4188 14.0134C53.5756 17.4428 53.6073 18.4692 53.6073 27.1494C53.6073 35.8265 53.5756 36.8561 53.4188 40.2854C53.2747 43.4549 52.744 45.1767 52.3005 46.3219C51.7097 47.8394 51.0064 48.9212 49.8691 50.0585C48.7318 51.1958 47.6483 51.8991 46.1309 52.49C44.9857 52.9366 43.2639 53.4641 40.0943 53.6083C36.6682 53.7651 35.6386 53.7967 26.9584 53.7967C18.2813 53.7967 17.2517 53.7667 13.8256 53.6083Z" fill="url(#paint0_radial_403_309)"/>
<path d="M13.8256 53.6083C10.656 53.4641 8.93424 52.9366 7.78902 52.49C6.27156 51.8991 5.1897 51.1958 4.05082 50.0585C2.91193 48.9212 2.20706 47.8394 1.6194 46.3219C1.17272 45.1767 0.645255 43.4549 0.501113 40.2854C0.342715 36.8592 0.311035 35.8312 0.311035 27.151C0.311035 18.4708 0.345883 17.4443 0.499529 14.015C0.643671 10.8455 1.17431 9.12686 1.61782 7.97847C2.20865 6.46101 2.91352 5.37915 4.04923 4.23869C5.18653 3.10139 6.26839 2.39493 7.78743 1.80727C8.93265 1.36059 10.6544 0.833125 13.824 0.688982C17.2517 0.532168 18.2813 0.500488 26.9584 0.500488C35.6386 0.500488 36.665 0.535336 40.0943 0.688982C43.2639 0.833125 44.9825 1.36376 46.1309 1.80727C47.6483 2.39493 48.7302 3.10139 49.8691 4.23869C51.008 5.37599 51.7097 6.45943 52.3005 7.97689C52.7472 9.1221 53.2747 10.8439 53.4188 14.0134C53.5756 17.4428 53.6073 18.4692 53.6073 27.1494C53.6073 35.8265 53.5756 36.8561 53.4188 40.2854C53.2747 43.4549 52.744 45.1767 52.3005 46.3219C51.7097 47.8394 51.0064 48.9212 49.8691 50.0585C48.7318 51.1958 47.6483 51.8991 46.1309 52.49C44.9857 52.9366 43.2639 53.4641 40.0943 53.6083C36.6682 53.7651 35.6386 53.7967 26.9584 53.7967C18.2813 53.7967 17.2517 53.7667 13.8256 53.6083Z" fill="url(#paint1_radial_403_309)"/>
<path d="M20.4153 27.2632C20.4153 23.6183 23.3692 20.6627 27.0141 20.6627C30.659 20.6627 33.6146 23.6183 33.6146 27.2632C33.6146 30.9081 30.659 33.8636 27.0141 33.8636C23.3692 33.8636 20.4153 30.9081 20.4153 27.2632ZM16.8472 27.2632C16.8472 32.8784 21.3989 37.4301 27.0141 37.4301C32.6294 37.4301 37.1811 32.8784 37.1811 27.2632C37.1811 21.6479 32.6294 17.0962 27.0141 17.0962C21.3989 17.0962 16.8473 21.6476 16.8473 27.2632H16.8472ZM35.2078 16.6931C35.2076 17.163 35.3467 17.6224 35.6077 18.0133C35.8686 18.4041 36.2395 18.7088 36.6736 18.8888C37.1077 19.0688 37.5854 19.116 38.0463 19.0245C38.5073 18.933 38.9307 18.7069 39.2631 18.3748C39.5955 18.0426 39.822 17.6194 39.9139 17.1585C40.0057 16.6976 39.9589 16.2199 39.7792 15.7857C39.5995 15.3514 39.2952 14.9802 38.9045 14.719C38.5139 14.4578 38.0546 14.3183 37.5847 14.3181H37.5837C36.9538 14.3184 36.3498 14.5686 35.9043 15.014C35.4588 15.4593 35.2083 16.0632 35.2078 16.6931ZM19.015 43.3799C17.0846 43.292 16.0354 42.9704 15.3381 42.6987C14.4137 42.3389 13.7541 41.9102 13.0607 41.2177C12.3672 40.5252 11.9379 39.8663 11.5797 38.9419C11.3078 38.2449 10.9863 37.1954 10.8985 35.265C10.8026 33.1779 10.7834 32.551 10.7834 27.2635C10.7834 21.976 10.8041 21.3508 10.8985 19.262C10.9865 17.3316 11.3104 16.2841 11.5797 15.5851C11.9395 14.6607 12.3682 14.0011 13.0607 13.3076C13.7532 12.6142 14.4121 12.1849 15.3381 11.8266C16.0351 11.5548 17.0846 11.2333 19.015 11.1455C21.1021 11.0495 21.729 11.0303 27.0141 11.0303C32.2992 11.0303 32.9268 11.0508 35.0156 11.1458C36.946 11.2337 37.9935 11.5577 38.6925 11.8269C39.6169 12.1852 40.2765 12.6154 40.97 13.308C41.6634 14.0005 42.0911 14.661 42.451 15.5854C42.7228 16.2824 43.0443 17.3319 43.1321 19.2623C43.2281 21.3511 43.2473 21.9763 43.2473 27.2638C43.2473 32.5513 43.2281 33.1765 43.1321 35.2653C43.0442 37.1957 42.7211 38.2449 42.451 38.9422C42.0911 39.8666 41.6625 40.5262 40.97 41.218C40.2774 41.9099 39.6169 42.3392 38.6925 42.6991C37.9956 42.9709 36.946 43.2924 35.0156 43.3802C32.9286 43.4762 32.3016 43.4953 27.0141 43.4953C21.7266 43.4953 21.1014 43.4762 19.015 43.3802V43.3799ZM18.8511 7.58329C16.7433 7.67928 15.303 8.0135 14.0451 8.50295C12.7432 9.0084 11.6397 9.6865 10.5377 10.7867C9.43573 11.887 8.75937 12.9907 8.25392 14.2941C7.76447 15.5528 7.43025 16.9923 7.33426 19.1001C7.23669 21.2112 7.21436 21.8862 7.21436 27.2632C7.21436 32.6401 7.23669 33.3151 7.33426 35.4262C7.43025 37.5342 7.76447 38.9735 8.25392 40.2322C8.75937 41.534 9.43589 42.6398 10.5377 43.7396C11.6395 44.8393 12.7417 45.5165 14.0451 46.0234C15.3053 46.5128 16.7433 46.847 18.8511 46.943C20.9633 47.039 21.6371 47.0629 27.0141 47.0629C32.3911 47.0629 33.0661 47.0406 35.1772 46.943C37.2851 46.847 38.7245 46.5128 39.9831 46.0234C41.285 45.5165 42.3886 44.8398 43.4906 43.7396C44.5925 42.6394 45.2675 41.534 45.7743 40.2322C46.2638 38.9735 46.5996 37.534 46.694 35.4262C46.79 33.3135 46.8123 32.6401 46.8123 27.2632C46.8123 21.8862 46.79 21.2112 46.694 19.1001C46.598 16.9921 46.2638 15.552 45.7743 14.2941C45.2675 12.9923 44.5908 11.8887 43.4906 10.7867C42.3903 9.68476 41.285 9.0084 39.9847 8.50295C38.7245 8.0135 37.285 7.67769 35.1788 7.58329C33.0673 7.48682 32.3927 7.46338 27.0165 7.46338C21.6403 7.46338 20.9641 7.48571 18.8519 7.58329" fill="white"/>
<defs>
<radialGradient id="paint0_radial_403_309" cx="0" cy="0" r="1" gradientUnits="userSpaceOnUse" gradientTransform="translate(3.76031 52.6292) scale(67.6665)">
<stop offset="0.09" stop-color="#FA8F21"/>
<stop offset="0.78" stop-color="#D82D7E"/>
</radialGradient>
<radialGradient id="paint1_radial_403_309" cx="0" cy="0" r="1" gradientUnits="userSpaceOnUse" gradientTransform="translate(37.2275 50.9179) scale(59.5471)">
<stop offset="0.64" stop-color="#8C3AAA" stop-opacity="0"/>
<stop offset="1" stop-color="#8C3AAA"/>
</radialGradient>
</defs>
</svg>
