<svg width="54" height="54" viewBox="0 0 54 54" fill="none" xmlns="http://www.w3.org/2000/svg">
<path d="M0.0839844 0.240234H53.5479V53.7042H0.0839844V0.240234Z" fill="#12100E"/>
<path d="M12.8425 18.1206C12.8645 17.9032 12.835 17.6837 12.7564 17.4798C12.6777 17.2759 12.5522 17.0934 12.3899 16.9471L9.03588 12.9069V12.3037H19.449L27.4974 29.9553L34.5738 12.3037H44.5003V12.9072L41.633 15.6563C41.5117 15.7488 41.418 15.8726 41.3618 16.0144C41.3057 16.1562 41.2893 16.3106 41.3144 16.461V36.6605C41.2893 36.8109 41.3057 36.9654 41.3618 37.1072C41.418 37.249 41.5117 37.3728 41.633 37.4652L44.4332 40.2144V40.8178H30.3483V40.2144L33.249 37.398C33.5342 37.1129 33.5342 37.0293 33.5342 36.5936V20.2663L25.4688 40.7507H24.3787L14.9888 20.2663V33.9953C14.9501 34.2801 14.9769 34.5701 15.0669 34.8431C15.157 35.1161 15.308 35.365 15.5086 35.571L19.2812 40.1472V40.7507H8.5835V40.1475L12.3561 35.571C12.5551 35.3648 12.7027 35.1148 12.7872 34.8411C12.8717 34.5674 12.8907 34.2777 12.8425 33.9953V18.1206Z" fill="white"/>
</svg>
