<svg width="58" height="58" viewBox="0 0 58 58" fill="none" xmlns="http://www.w3.org/2000/svg">
<path d="M29.3286 57.7973C45.1601 57.7973 57.9941 44.9633 57.9941 29.1318C57.9941 13.3003 45.1601 0.466309 29.3286 0.466309C13.4971 0.466309 0.663086 13.3003 0.663086 29.1318C0.663086 44.9633 13.4971 57.7973 29.3286 57.7973Z" fill="#FF4500"/>
<path d="M48.4477 29.132C48.4534 29.5247 48.4047 29.9167 48.3015 30.2958C48.1983 30.6749 48.042 31.0382 47.8371 31.3736C47.6328 31.709 47.382 32.0143 47.0925 32.2802C46.803 32.546 46.4776 32.7696 46.1258 32.9445C46.1336 33.0491 46.1401 33.1545 46.1437 33.2598C46.1523 33.4699 46.1523 33.6803 46.1437 33.8904C46.1401 33.9958 46.1336 34.1011 46.1258 34.2058C46.1258 40.6268 38.6441 45.844 29.4138 45.844C20.1835 45.844 12.7018 40.6268 12.7018 34.2058C12.6939 34.1011 12.6875 33.9958 12.6839 33.8904C12.6752 33.6803 12.6752 33.4699 12.6839 33.2598C12.6875 33.1545 12.6939 33.0491 12.7018 32.9445C12.1505 32.6911 11.6609 32.3209 11.2668 31.8596C10.8727 31.3984 10.5835 30.8569 10.4193 30.2729C10.2554 29.6885 10.2204 29.0755 10.3169 28.4764C10.4135 27.8772 10.6391 27.3062 10.9783 26.8029C11.3171 26.2997 11.7614 25.8762 12.2803 25.5619C12.7992 25.2476 13.3802 25.0499 13.9831 24.9826C14.5861 24.9151 15.1966 24.9794 15.7723 25.1712C16.3479 25.363 16.875 25.6777 17.3169 26.0934C18.1374 25.5373 18.9969 25.0413 19.8889 24.6093C20.7812 24.1779 21.7035 23.8109 22.6487 23.5128C23.594 23.2147 24.56 22.9861 25.5382 22.8277C26.5164 22.6693 27.5054 22.5826 28.4965 22.5676L30.6177 12.6207C30.6414 12.5053 30.688 12.3963 30.7546 12.2989C30.8205 12.2021 30.9058 12.119 31.004 12.0552C31.1029 11.9914 31.2132 11.9477 31.3293 11.9262C31.4447 11.9055 31.5637 11.9076 31.6783 11.9327L38.7014 13.3373C39.4101 12.1197 40.8979 11.598 42.2115 12.1054C43.5251 12.6128 44.2761 13.9995 43.9823 15.3768C43.6892 16.7542 42.4379 17.7145 41.0319 17.6421C39.6251 17.5698 38.4792 16.4862 38.3287 15.0859L32.1943 13.7959L30.3311 22.7396C31.31 22.7604 32.2868 22.8521 33.2528 23.0133C35.1873 23.3358 37.0652 23.9358 38.8282 24.7949C39.7088 25.2234 40.5574 25.7149 41.3673 26.2654C41.9496 25.7063 42.6814 25.3277 43.4742 25.1754C44.267 25.0226 45.0871 25.1025 45.8355 25.4055C46.584 25.7083 47.2289 26.2213 47.6923 26.8825C48.1559 27.5437 48.4182 28.325 48.4477 29.132ZM20 33.0957C20.1448 33.4433 20.3555 33.7593 20.6221 34.0252C20.8879 34.2918 21.204 34.5025 21.5515 34.6472C21.8994 34.7911 22.2722 34.8651 22.6487 34.8651C23.8082 34.8651 24.8531 34.1664 25.2974 33.0957C25.741 32.0243 25.4952 30.7917 24.6754 29.9719C23.8555 29.152 22.6229 28.9062 21.5515 29.3498C20.4809 29.7942 19.7822 30.839 19.7822 31.9985C19.7822 32.3748 19.856 32.7474 20 33.0957ZM36.4182 39.9769C36.5651 39.8335 36.6489 39.6379 36.6518 39.4329C36.6547 39.2272 36.5751 39.0295 36.4318 38.8825C36.2885 38.7356 36.0928 38.6518 35.8879 38.6489C35.6822 38.6461 35.4844 38.7256 35.3189 38.8496C34.8878 39.1588 34.4314 39.4309 33.9544 39.663C33.4774 39.8952 32.9816 40.0867 32.4724 40.2356C31.9636 40.3839 31.4426 40.4892 30.9158 40.5502C30.3884 40.6111 29.8574 40.6268 29.3278 40.5982C28.7989 40.6218 28.2686 40.6003 27.7433 40.5344C27.2179 40.4691 26.699 40.3588 26.1925 40.2047C25.6851 40.0514 25.1928 39.855 24.7191 39.6185C24.2454 39.382 23.7925 39.1054 23.3654 38.7922C23.217 38.6704 23.0285 38.6081 22.8365 38.6174C22.6444 38.6267 22.4631 38.7077 22.3269 38.8431C22.1915 38.9793 22.1105 39.1606 22.1012 39.3527C22.0919 39.5447 22.1542 39.7332 22.2761 39.8815C22.7799 40.2614 23.3152 40.5967 23.8763 40.8848C24.4374 41.1729 25.0229 41.4116 25.6249 41.5993C26.2269 41.7871 26.8439 41.9225 27.4695 42.0049C28.0952 42.0866 28.7265 42.1146 29.3564 42.0888C29.9864 42.1146 30.6177 42.0866 31.2433 42.0049C32.4964 41.8401 33.7118 41.4612 34.8366 40.8848C35.3977 40.5967 35.933 40.2614 36.4368 39.8815L36.4182 39.9769ZM35.8922 35.0944C36.2806 35.0987 36.6661 35.0235 37.0252 34.8744C37.3842 34.7246 37.7088 34.5039 37.9797 34.2251C38.2506 33.9463 38.4613 33.6153 38.6003 33.2519C38.7395 32.889 38.8031 32.5015 38.7874 32.1132C38.7874 30.9537 38.0887 29.9088 37.018 29.4645C35.9466 29.0209 34.714 29.2667 33.8942 30.0865C33.0744 30.9064 32.8285 32.139 33.2721 33.2104C33.7165 34.281 34.7613 34.9797 35.9208 34.9797L35.8922 35.0944Z" fill="white"/>
</svg>
