<svg width="44" height="51" viewBox="0 0 44 51" fill="none" xmlns="http://www.w3.org/2000/svg">
<path d="M17.192 20.3873V18.4218C16.5286 18.3137 15.8585 18.2546 15.1869 18.2447C8.68483 18.2304 2.92836 22.5638 0.975775 28.9422C-0.976811 35.3205 1.32799 42.2639 6.66501 46.0829C4.70791 43.9288 3.39888 41.2382 2.89592 38.3358C2.39295 35.4334 2.71757 32.4433 3.83057 29.7264C4.94357 27.0096 6.79738 24.6821 9.16824 23.025C11.5391 21.3678 14.3257 20.4518 17.1916 20.3875L17.192 20.3873Z" fill="#25F4EE"/>
<path d="M17.5521 42.6509C21.1875 42.6458 24.1757 39.7004 24.3349 35.9652V2.63345H30.2557C30.1349 1.93695 30.0773 1.23042 30.0835 0.522949L21.9849 0.522949V33.8226C21.8503 37.5767 18.8549 40.5504 15.2022 40.5565C14.1106 40.547 13.0369 40.2709 12.0693 39.751C12.6964 40.6445 13.5199 41.3729 14.4727 41.8769C15.4255 42.3808 16.4807 42.646 17.5521 42.6509ZM41.315 13.9425V12.0899C39.1359 12.0908 37.0051 11.4295 35.1902 10.1891C36.7812 12.0912 38.9311 13.4088 41.315 13.9425Z" fill="#25F4EE"/>
<path d="M35.1908 10.1891C33.4029 8.09532 32.4173 5.40374 32.4182 2.61719H30.2563C30.5355 4.15784 31.1171 5.62382 31.9655 6.92566C32.8139 8.2275 33.9113 9.33789 35.1908 10.1891ZM15.1871 26.573C13.6709 26.5809 12.2008 27.1099 11.0105 28.0759C9.82018 29.0418 8.97802 30.3893 8.61789 31.904C8.25776 33.4188 8.40033 35.0138 9.02295 36.4357C9.64556 37.8575 10.7125 39.0245 12.0541 39.7511C11.3206 38.7095 10.8813 37.4796 10.7848 36.1974C10.6883 34.9152 10.9384 33.6304 11.5074 32.4852C12.0763 31.34 12.9421 30.3788 14.0089 29.7078C15.0757 29.0369 16.3022 28.6823 17.5527 28.6833C18.2325 28.6925 18.9076 28.8013 19.5575 29.0065V20.5317C18.8938 20.4294 18.2238 20.3755 17.5527 20.3707H17.1922V26.8146C16.5388 26.6343 15.8634 26.553 15.1871 26.573Z" fill="#FE2C55"/>
<path d="M41.3154 13.9419V20.386C37.2813 20.378 33.352 19.0647 30.0839 16.6323V33.5641C30.0666 42.0128 23.402 48.8526 15.187 48.8526C12.1359 48.8583 9.15839 47.8901 6.66504 46.0817C8.69821 48.3307 11.3428 49.898 14.2544 50.5792C17.166 51.2605 20.2096 51.0242 22.9887 49.9012C25.7679 48.7781 28.1538 46.8204 29.8356 44.2829C31.5175 41.7455 32.4174 38.7459 32.418 35.675V18.7912C35.697 21.2076 39.6312 22.5037 43.6651 22.4965V14.1991C42.8753 14.1967 42.0879 14.1105 41.3154 13.9419Z" fill="#FE2C55"/>
<path d="M30.0842 33.5647V16.633C33.3621 19.0515 37.297 20.3479 41.3312 20.3383V13.8944C38.9479 13.3767 36.7928 12.0763 35.1909 10.1891C33.9114 9.33789 32.8139 8.2275 31.9656 6.92566C31.1172 5.62382 30.5356 4.15784 30.2564 2.61719H24.3355V35.9657C24.2779 37.4173 23.782 38.8143 22.9167 39.9627C22.0515 41.1111 20.8599 41.9538 19.5076 42.3737C18.1552 42.7936 16.7093 42.7698 15.3707 42.3056C14.0321 41.8414 12.8673 40.9599 12.0383 39.7836C10.6965 39.0572 9.62935 37.8902 9.00657 36.4683C8.3838 35.0463 8.24115 33.4511 8.6013 31.9362C8.96145 30.4213 9.80373 29.0737 10.9942 28.1078C12.1847 27.1418 13.655 26.6129 15.1714 26.6051C15.8515 26.6114 16.527 26.72 17.1765 26.9274V20.4833C14.2951 20.5335 11.4903 21.4449 9.10386 23.1062C6.71745 24.7676 4.85261 27.1071 3.7367 29.8396C2.6208 32.5721 2.30206 35.5794 2.81933 38.495C3.3366 41.4106 4.66755 44.1083 6.64988 46.2594C9.16772 48.0083 12.1495 48.9142 15.1872 48.8533C23.4023 48.8533 30.0668 42.0134 30.0842 33.5647Z" fill="black"/>
</svg>
