<svg width="61" height="50" viewBox="0 0 61 50" fill="none" xmlns="http://www.w3.org/2000/svg">
<path d="M19.3489 49.7633C42.196 49.7633 54.6903 30.8128 54.6903 14.3795C54.6903 13.8413 54.6793 13.3056 54.6551 12.7721C57.0862 11.0109 59.1843 8.83022 60.8511 6.33234C58.6254 7.323 56.2304 7.98976 53.7179 8.29038C56.2825 6.75082 58.2512 4.31519 59.1801 1.41195C56.7418 2.86011 54.0743 3.881 51.2927 4.43059C49.026 2.01331 45.7991 0.501465 42.2259 0.501465C35.3665 0.501465 29.804 6.07076 29.804 12.9358C29.804 13.9118 29.9131 14.8608 30.1262 15.7714C19.8027 15.2513 10.6486 10.3027 4.52216 2.7781C3.41874 4.67596 2.83835 6.83291 2.84028 9.02869C2.84028 13.3433 5.03308 17.1521 8.36781 19.3804C6.39527 19.3201 4.46604 18.7867 2.74233 17.825C2.74048 17.8772 2.74048 17.9281 2.74048 17.9839C2.74048 24.0065 7.02198 29.035 12.7055 30.1744C11.6381 30.4655 10.5366 30.6127 9.43025 30.612C8.63126 30.612 7.85259 30.5333 7.09581 30.3879C8.67716 35.3291 13.2626 38.9248 18.6992 39.0253C14.4478 42.3615 9.09247 44.3486 3.27195 44.3486C2.2818 44.3494 1.29247 44.2919 0.309082 44.1763C5.80634 47.704 12.3338 49.7624 19.3495 49.7624" fill="#1DA1F2"/>
</svg>
