<svg width="454" height="524" viewBox="0 0 454 524" fill="none" xmlns="http://www.w3.org/2000/svg">
<path opacity="0.3" d="M229.963 235.357C230.02 235.357 230.02 235.3 229.963 235.357C230.02 235.3 230.02 235.357 229.963 235.357Z" fill="#662D91"/>
<g filter="url(#filter0_d_567_548)">
<path d="M259.561 386.353C259.561 423.414 229.505 453.47 192.443 453.47C155.382 453.47 125.326 423.414 125.326 386.353C125.326 349.291 155.382 319.235 192.443 319.235C229.505 319.292 259.561 349.291 259.561 386.353Z" fill="white"/>
</g>
<path d="M242.272 379.064C238.26 351.551 212.668 332.512 185.154 336.523L189.956 369.46C190.747 369.347 191.595 369.234 192.442 369.234C201.877 369.234 209.56 376.918 209.56 386.352C209.56 395.787 201.877 403.471 192.442 403.471C191.199 403.471 190.013 403.358 188.883 403.075L181.99 435.617C187.696 436.804 193.685 437.086 199.73 436.182C227.244 432.171 246.339 406.578 242.272 379.064Z" fill="#5868FE"/>
<g filter="url(#filter1_d_567_548)">
<path d="M204.363 386.127C204.363 392.793 198.94 398.217 192.273 398.217C185.607 398.217 180.183 392.793 180.183 386.127C180.183 379.46 185.607 374.037 192.273 374.037C198.94 374.037 204.363 379.46 204.363 386.127Z" fill="white"/>
</g>
<path d="M141.885 384.925C141.948 383.659 142.392 382.683 143.215 381.999C144.051 381.303 145.147 380.954 146.502 380.954C147.427 380.954 148.218 381.119 148.877 381.448C149.536 381.765 150.03 382.202 150.359 382.759C150.701 383.304 150.872 383.925 150.872 384.621C150.872 385.419 150.663 386.097 150.245 386.654C149.84 387.199 149.352 387.566 148.782 387.756V387.832C149.517 388.06 150.087 388.466 150.492 389.048C150.91 389.631 151.119 390.378 151.119 391.29C151.119 392.05 150.942 392.728 150.587 393.323C150.245 393.919 149.732 394.387 149.048 394.729C148.377 395.059 147.566 395.223 146.616 395.223C145.185 395.223 144.019 394.862 143.12 394.14C142.221 393.418 141.746 392.354 141.695 390.948H144.279C144.304 391.569 144.513 392.069 144.906 392.449C145.311 392.817 145.862 393 146.559 393C147.205 393 147.699 392.823 148.041 392.468C148.396 392.101 148.573 391.632 148.573 391.062C148.573 390.302 148.332 389.758 147.851 389.428C147.37 389.099 146.622 388.934 145.609 388.934H145.058V386.749H145.609C147.408 386.749 148.307 386.148 148.307 384.944C148.307 384.4 148.142 383.975 147.813 383.671C147.496 383.367 147.034 383.215 146.426 383.215C145.831 383.215 145.368 383.38 145.039 383.709C144.722 384.026 144.539 384.431 144.488 384.925H141.885ZM152.917 384.678C152.917 383.716 153.196 382.962 153.753 382.417C154.323 381.873 155.051 381.6 155.938 381.6C156.825 381.6 157.547 381.873 158.104 382.417C158.674 382.962 158.959 383.716 158.959 384.678C158.959 385.654 158.674 386.414 158.104 386.958C157.547 387.503 156.825 387.775 155.938 387.775C155.051 387.775 154.323 387.503 153.753 386.958C153.196 386.414 152.917 385.654 152.917 384.678ZM165.115 381.828L157.648 395.128H155.064L162.512 381.828H165.115ZM155.919 383.196C155.222 383.196 154.874 383.69 154.874 384.678C154.874 385.679 155.222 386.179 155.919 386.179C156.261 386.179 156.527 386.059 156.717 385.818C156.907 385.565 157.002 385.185 157.002 384.678C157.002 383.69 156.641 383.196 155.919 383.196ZM161.258 392.259C161.258 391.284 161.537 390.53 162.094 389.998C162.664 389.454 163.392 389.181 164.279 389.181C165.166 389.181 165.881 389.454 166.426 389.998C166.983 390.53 167.262 391.284 167.262 392.259C167.262 393.235 166.983 393.995 166.426 394.539C165.881 395.084 165.166 395.356 164.279 395.356C163.38 395.356 162.651 395.084 162.094 394.539C161.537 393.995 161.258 393.235 161.258 392.259ZM164.26 390.777C163.538 390.777 163.177 391.271 163.177 392.259C163.177 393.26 163.538 393.76 164.26 393.76C164.969 393.76 165.324 393.26 165.324 392.259C165.324 391.271 164.969 390.777 164.26 390.777Z" fill="#5767FB"/>
<circle cx="192.443" cy="386.127" r="8.70643" fill="#5767F9"/>
<g filter="url(#filter2_d_567_548)">
<path d="M289.936 147.91C289.936 190.253 255.648 224.542 213.304 224.542C170.96 224.542 136.672 190.202 136.672 147.91C136.62 105.617 170.96 71.2773 213.304 71.2773C255.596 71.2773 289.936 105.617 289.936 147.91Z" fill="white"/>
</g>
<path d="M268.661 132.831C259.934 102.261 228.073 84.6 197.503 93.327C193.939 94.3598 190.583 95.7024 187.381 97.3032L204.112 130.249C206.849 128.803 209.948 128.028 213.252 128.028C224.252 128.028 233.133 136.962 233.133 147.909C233.133 149.82 232.875 151.679 232.359 153.486L269.126 162.678C271.553 153.177 271.553 142.952 268.661 132.831Z" fill="#433ED1"/>
<g filter="url(#filter3_d_567_548)">
<path d="M225.956 147.755C225.956 154.364 220.586 159.786 213.924 159.786C207.315 159.786 201.893 154.416 201.893 147.755C201.893 141.145 207.263 135.723 213.924 135.723C220.586 135.723 225.956 141.093 225.956 147.755Z" fill="white"/>
</g>
<path d="M168.571 180V177.69L175.438 167.862H178.861V177.438H180.709V180H178.861V182.982H175.921V180H168.571ZM176.11 171.012L171.805 177.438H176.11V171.012ZM182.245 171.432C182.245 170.368 182.553 169.535 183.169 168.933C183.799 168.331 184.604 168.03 185.584 168.03C186.564 168.03 187.362 168.331 187.978 168.933C188.608 169.535 188.923 170.368 188.923 171.432C188.923 172.51 188.608 173.35 187.978 173.952C187.362 174.554 186.564 174.855 185.584 174.855C184.604 174.855 183.799 174.554 183.169 173.952C182.553 173.35 182.245 172.51 182.245 171.432ZM195.727 168.282L187.474 182.982H184.618L192.85 168.282H195.727ZM185.563 169.794C184.793 169.794 184.408 170.34 184.408 171.432C184.408 172.538 184.793 173.091 185.563 173.091C185.941 173.091 186.235 172.958 186.445 172.692C186.655 172.412 186.76 171.992 186.76 171.432C186.76 170.34 186.361 169.794 185.563 169.794ZM191.464 179.811C191.464 178.733 191.772 177.9 192.388 177.312C193.018 176.71 193.823 176.409 194.803 176.409C195.783 176.409 196.574 176.71 197.176 177.312C197.792 177.9 198.1 178.733 198.1 179.811C198.1 180.889 197.792 181.729 197.176 182.331C196.574 182.933 195.783 183.234 194.803 183.234C193.809 183.234 193.004 182.933 192.388 182.331C191.772 181.729 191.464 180.889 191.464 179.811ZM194.782 178.173C193.984 178.173 193.585 178.719 193.585 179.811C193.585 180.917 193.984 181.47 194.782 181.47C195.566 181.47 195.958 180.917 195.958 179.811C195.958 178.719 195.566 178.173 194.782 178.173Z" fill="#433ECE"/>
<circle cx="213.924" cy="147.754" r="8.70643" fill="#433ED1"/>
<g filter="url(#filter4_d_567_548)">
<path d="M224.251 275.697C224.251 318.041 189.963 352.329 147.619 352.329C105.275 352.329 70.9869 317.989 70.9869 275.697C70.9352 233.404 105.275 199.064 147.619 199.064C189.911 199.064 224.251 233.404 224.251 275.697Z" fill="white"/>
</g>
<path d="M202.976 260.618C194.249 230.047 162.388 212.387 131.818 221.114C128.254 222.147 124.898 223.489 121.696 225.09L138.427 258.036C141.164 256.59 144.263 255.815 147.567 255.815C158.566 255.815 167.448 264.749 167.448 275.696C167.448 277.607 167.19 279.466 166.674 281.273L203.441 290.465C205.868 280.963 205.868 270.739 202.976 260.618Z" fill="#433ED1"/>
<g filter="url(#filter5_d_567_548)">
<path d="M160.271 275.541C160.271 282.151 154.901 287.573 148.239 287.573C141.63 287.573 136.208 282.203 136.208 275.541C136.208 268.932 141.578 263.51 148.239 263.51C154.901 263.51 160.271 268.88 160.271 275.541Z" fill="white"/>
</g>
<path d="M104.715 308.092V305.782L111.582 295.954H115.005V305.53H116.853V308.092H115.005V311.074H112.065V308.092H104.715ZM112.254 299.104L107.949 305.53H112.254V299.104ZM118.389 299.524C118.389 298.46 118.697 297.627 119.313 297.025C119.943 296.423 120.748 296.122 121.728 296.122C122.708 296.122 123.506 296.423 124.122 297.025C124.752 297.627 125.067 298.46 125.067 299.524C125.067 300.602 124.752 301.442 124.122 302.044C123.506 302.646 122.708 302.947 121.728 302.947C120.748 302.947 119.943 302.646 119.313 302.044C118.697 301.442 118.389 300.602 118.389 299.524ZM131.871 296.374L123.618 311.074H120.762L128.994 296.374H131.871ZM121.707 297.886C120.937 297.886 120.552 298.432 120.552 299.524C120.552 300.63 120.937 301.183 121.707 301.183C122.085 301.183 122.379 301.05 122.589 300.784C122.799 300.504 122.904 300.084 122.904 299.524C122.904 298.432 122.505 297.886 121.707 297.886ZM127.608 307.903C127.608 306.825 127.916 305.992 128.532 305.404C129.162 304.802 129.967 304.501 130.947 304.501C131.927 304.501 132.718 304.802 133.32 305.404C133.936 305.992 134.244 306.825 134.244 307.903C134.244 308.981 133.936 309.821 133.32 310.423C132.718 311.025 131.927 311.326 130.947 311.326C129.953 311.326 129.148 311.025 128.532 310.423C127.916 309.821 127.608 308.981 127.608 307.903ZM130.926 306.265C130.128 306.265 129.729 306.811 129.729 307.903C129.729 309.009 130.128 309.562 130.926 309.562C131.71 309.562 132.102 309.009 132.102 307.903C132.102 306.811 131.71 306.265 130.926 306.265Z" fill="#433ECE"/>
<circle cx="148.239" cy="275.697" r="8.70643" fill="#433ED1"/>
<g filter="url(#filter6_d_567_548)">
<path d="M383.218 273.652C383.218 322.201 343.859 361.518 295.31 361.518C246.761 361.518 207.443 322.159 207.443 273.652C207.443 225.103 246.803 185.786 295.31 185.786C343.859 185.786 383.218 225.145 383.218 273.652Z" fill="white"/>
</g>
<path d="M314.108 275.456C313.185 285.066 305.128 292.577 295.309 292.577C284.861 292.577 276.427 284.1 276.427 273.694C276.427 263.246 284.903 254.812 295.309 254.812C299.086 254.812 302.611 255.945 305.59 257.875L328.375 218.431C318.64 212.809 307.352 209.578 295.309 209.578C258.887 209.578 229.347 239.118 229.347 275.54C229.347 312.005 258.887 341.503 295.309 341.503C331.732 341.503 361.272 311.963 361.272 275.54H314.108V275.456Z" fill="#1610A7"/>
<g filter="url(#filter7_d_567_548)">
<path d="M308.276 273.484C308.276 280.114 302.905 285.527 296.233 285.527C289.603 285.527 284.19 280.156 284.19 273.484C284.19 266.855 289.561 261.442 296.233 261.442C302.863 261.442 308.276 266.813 308.276 273.484Z" fill="white"/>
</g>
<path d="M330.917 253.364H325.085V256.442C325.337 256.13 325.697 255.878 326.165 255.686C326.633 255.482 327.131 255.38 327.659 255.38C328.619 255.38 329.405 255.59 330.017 256.01C330.629 256.43 331.073 256.97 331.349 257.63C331.625 258.278 331.763 258.974 331.763 259.718C331.763 261.098 331.367 262.208 330.575 263.048C329.795 263.888 328.679 264.308 327.227 264.308C325.859 264.308 324.767 263.966 323.951 263.282C323.135 262.598 322.673 261.704 322.565 260.6H325.013C325.121 261.08 325.361 261.464 325.733 261.752C326.117 262.04 326.603 262.184 327.191 262.184C327.899 262.184 328.433 261.962 328.793 261.518C329.153 261.074 329.333 260.486 329.333 259.754C329.333 259.01 329.147 258.446 328.775 258.062C328.415 257.666 327.881 257.468 327.173 257.468C326.669 257.468 326.249 257.594 325.913 257.846C325.577 258.098 325.337 258.434 325.193 258.854H322.781V251.15H330.917V253.364ZM333.393 254.408C333.393 253.496 333.657 252.782 334.185 252.266C334.725 251.75 335.415 251.492 336.255 251.492C337.095 251.492 337.779 251.75 338.307 252.266C338.847 252.782 339.117 253.496 339.117 254.408C339.117 255.332 338.847 256.052 338.307 256.568C337.779 257.084 337.095 257.342 336.255 257.342C335.415 257.342 334.725 257.084 334.185 256.568C333.657 256.052 333.393 255.332 333.393 254.408ZM344.949 251.708L337.875 264.308H335.427L342.483 251.708H344.949ZM336.237 253.004C335.577 253.004 335.247 253.472 335.247 254.408C335.247 255.356 335.577 255.83 336.237 255.83C336.561 255.83 336.813 255.716 336.993 255.488C337.173 255.248 337.263 254.888 337.263 254.408C337.263 253.472 336.921 253.004 336.237 253.004ZM341.295 261.59C341.295 260.666 341.559 259.952 342.087 259.448C342.627 258.932 343.317 258.674 344.157 258.674C344.997 258.674 345.675 258.932 346.191 259.448C346.719 259.952 346.983 260.666 346.983 261.59C346.983 262.514 346.719 263.234 346.191 263.75C345.675 264.266 344.997 264.524 344.157 264.524C343.305 264.524 342.615 264.266 342.087 263.75C341.559 263.234 341.295 262.514 341.295 261.59ZM344.139 260.186C343.455 260.186 343.113 260.654 343.113 261.59C343.113 262.538 343.455 263.012 344.139 263.012C344.811 263.012 345.147 262.538 345.147 261.59C345.147 260.654 344.811 260.186 344.139 260.186Z" fill="#1711A7"/>
<circle cx="296.233" cy="273.484" r="8.70643" fill="#1610A7"/>
<defs>
<filter id="filter0_d_567_548" x="54.8734" y="248.783" width="275.139" height="275.139" filterUnits="userSpaceOnUse" color-interpolation-filters="sRGB">
<feFlood flood-opacity="0" result="BackgroundImageFix"/>
<feColorMatrix in="SourceAlpha" type="matrix" values="0 0 0 0 0 0 0 0 0 0 0 0 0 0 0 0 0 0 127 0" result="hardAlpha"/>
<feOffset/>
<feGaussianBlur stdDeviation="35.2261"/>
<feComposite in2="hardAlpha" operator="out"/>
<feColorMatrix type="matrix" values="0 0 0 0 0 0 0 0 0 0 0 0 0 0 0 0 0 0 0.1 0"/>
<feBlend mode="normal" in2="BackgroundImageFix" result="effect1_dropShadow_567_548"/>
<feBlend mode="normal" in="SourceGraphic" in2="effect1_dropShadow_567_548" result="shape"/>
</filter>
<filter id="filter1_d_567_548" x="156.699" y="350.553" width="71.1484" height="71.1484" filterUnits="userSpaceOnUse" color-interpolation-filters="sRGB">
<feFlood flood-opacity="0" result="BackgroundImageFix"/>
<feColorMatrix in="SourceAlpha" type="matrix" values="0 0 0 0 0 0 0 0 0 0 0 0 0 0 0 0 0 0 127 0" result="hardAlpha"/>
<feOffset/>
<feGaussianBlur stdDeviation="11.742"/>
<feComposite in2="hardAlpha" operator="out"/>
<feColorMatrix type="matrix" values="0 0 0 0 0 0 0 0 0 0 0 0 0 0 0 0 0 0 0.18 0"/>
<feBlend mode="normal" in2="BackgroundImageFix" result="effect1_dropShadow_567_548"/>
<feBlend mode="normal" in="SourceGraphic" in2="effect1_dropShadow_567_548" result="shape"/>
</filter>
<filter id="filter2_d_567_548" x="66.2196" y="0.825066" width="294.169" height="294.169" filterUnits="userSpaceOnUse" color-interpolation-filters="sRGB">
<feFlood flood-opacity="0" result="BackgroundImageFix"/>
<feColorMatrix in="SourceAlpha" type="matrix" values="0 0 0 0 0 0 0 0 0 0 0 0 0 0 0 0 0 0 127 0" result="hardAlpha"/>
<feOffset/>
<feGaussianBlur stdDeviation="35.2261"/>
<feComposite in2="hardAlpha" operator="out"/>
<feColorMatrix type="matrix" values="0 0 0 0 0 0 0 0 0 0 0 0 0 0 0 0 0 0 0.1 0"/>
<feBlend mode="normal" in2="BackgroundImageFix" result="effect1_dropShadow_567_548"/>
<feBlend mode="normal" in="SourceGraphic" in2="effect1_dropShadow_567_548" result="shape"/>
</filter>
<filter id="filter3_d_567_548" x="178.408" y="112.239" width="71.0322" height="71.0319" filterUnits="userSpaceOnUse" color-interpolation-filters="sRGB">
<feFlood flood-opacity="0" result="BackgroundImageFix"/>
<feColorMatrix in="SourceAlpha" type="matrix" values="0 0 0 0 0 0 0 0 0 0 0 0 0 0 0 0 0 0 127 0" result="hardAlpha"/>
<feOffset/>
<feGaussianBlur stdDeviation="11.742"/>
<feComposite in2="hardAlpha" operator="out"/>
<feColorMatrix type="matrix" values="0 0 0 0 0 0 0 0 0 0 0 0 0 0 0 0 0 0 0.18 0"/>
<feBlend mode="normal" in2="BackgroundImageFix" result="effect1_dropShadow_567_548"/>
<feBlend mode="normal" in="SourceGraphic" in2="effect1_dropShadow_567_548" result="shape"/>
</filter>
<filter id="filter4_d_567_548" x="0.534538" y="128.612" width="294.169" height="294.169" filterUnits="userSpaceOnUse" color-interpolation-filters="sRGB">
<feFlood flood-opacity="0" result="BackgroundImageFix"/>
<feColorMatrix in="SourceAlpha" type="matrix" values="0 0 0 0 0 0 0 0 0 0 0 0 0 0 0 0 0 0 127 0" result="hardAlpha"/>
<feOffset/>
<feGaussianBlur stdDeviation="35.2261"/>
<feComposite in2="hardAlpha" operator="out"/>
<feColorMatrix type="matrix" values="0 0 0 0 0 0 0 0 0 0 0 0 0 0 0 0 0 0 0.1 0"/>
<feBlend mode="normal" in2="BackgroundImageFix" result="effect1_dropShadow_567_548"/>
<feBlend mode="normal" in="SourceGraphic" in2="effect1_dropShadow_567_548" result="shape"/>
</filter>
<filter id="filter5_d_567_548" x="112.723" y="240.025" width="71.0322" height="71.0319" filterUnits="userSpaceOnUse" color-interpolation-filters="sRGB">
<feFlood flood-opacity="0" result="BackgroundImageFix"/>
<feColorMatrix in="SourceAlpha" type="matrix" values="0 0 0 0 0 0 0 0 0 0 0 0 0 0 0 0 0 0 127 0" result="hardAlpha"/>
<feOffset/>
<feGaussianBlur stdDeviation="11.742"/>
<feComposite in2="hardAlpha" operator="out"/>
<feColorMatrix type="matrix" values="0 0 0 0 0 0 0 0 0 0 0 0 0 0 0 0 0 0 0.18 0"/>
<feBlend mode="normal" in2="BackgroundImageFix" result="effect1_dropShadow_567_548"/>
<feBlend mode="normal" in="SourceGraphic" in2="effect1_dropShadow_567_548" result="shape"/>
</filter>
<filter id="filter6_d_567_548" x="136.991" y="115.333" width="316.679" height="316.637" filterUnits="userSpaceOnUse" color-interpolation-filters="sRGB">
<feFlood flood-opacity="0" result="BackgroundImageFix"/>
<feColorMatrix in="SourceAlpha" type="matrix" values="0 0 0 0 0 0 0 0 0 0 0 0 0 0 0 0 0 0 127 0" result="hardAlpha"/>
<feOffset/>
<feGaussianBlur stdDeviation="35.2261"/>
<feComposite in2="hardAlpha" operator="out"/>
<feColorMatrix type="matrix" values="0 0 0 0 0 0 0 0 0 0 0 0 0 0 0 0 0 0 0.1 0"/>
<feBlend mode="normal" in2="BackgroundImageFix" result="effect1_dropShadow_567_548"/>
<feBlend mode="normal" in="SourceGraphic" in2="effect1_dropShadow_567_548" result="shape"/>
</filter>
<filter id="filter7_d_567_548" x="260.706" y="237.958" width="71.0536" height="71.0539" filterUnits="userSpaceOnUse" color-interpolation-filters="sRGB">
<feFlood flood-opacity="0" result="BackgroundImageFix"/>
<feColorMatrix in="SourceAlpha" type="matrix" values="0 0 0 0 0 0 0 0 0 0 0 0 0 0 0 0 0 0 127 0" result="hardAlpha"/>
<feOffset/>
<feGaussianBlur stdDeviation="11.742"/>
<feComposite in2="hardAlpha" operator="out"/>
<feColorMatrix type="matrix" values="0 0 0 0 0 0 0 0 0 0 0 0 0 0 0 0 0 0 0.18 0"/>
<feBlend mode="normal" in2="BackgroundImageFix" result="effect1_dropShadow_567_548"/>
<feBlend mode="normal" in="SourceGraphic" in2="effect1_dropShadow_567_548" result="shape"/>
</filter>
</defs>
</svg>
