<svg width="446" height="515" viewBox="0 0 446 515" fill="none" xmlns="http://www.w3.org/2000/svg">
<path opacity="0.3" d="M204.891 244.141C204.944 244.141 204.944 244.088 204.891 244.141C204.944 244.088 204.944 244.141 204.891 244.141Z" fill="#662D91"/>
<g filter="url(#filter0_d_997_256)">
<path d="M232.617 385.595C232.617 420.314 204.461 448.471 169.741 448.471C135.022 448.471 106.865 420.314 106.865 385.595C106.865 350.875 135.022 322.719 169.741 322.719C204.461 322.772 232.617 350.875 232.617 385.595Z" fill="white"/>
</g>
<path d="M216.421 378.767C212.663 352.992 188.687 335.156 162.913 338.914L167.411 369.77C168.152 369.664 168.946 369.558 169.74 369.558C178.579 369.558 185.777 376.756 185.777 385.594C185.777 394.433 178.579 401.631 169.74 401.631C168.576 401.631 167.464 401.525 166.406 401.261L159.949 431.746C165.294 432.857 170.904 433.122 176.567 432.275C202.342 428.517 220.231 404.542 216.421 378.767Z" fill="#5868FE"/>
<g filter="url(#filter1_d_997_256)">
<path d="M180.909 385.383C180.909 391.628 175.828 396.709 169.582 396.709C163.337 396.709 158.256 391.628 158.256 385.383C158.256 379.138 163.337 374.057 169.582 374.057C175.828 374.057 180.909 379.138 180.909 385.383Z" fill="white"/>
</g>
<path d="M169.53 375.698C164.184 375.698 159.844 380.038 159.844 385.383C159.844 390.729 164.184 395.069 169.53 395.069C174.875 395.069 179.215 390.729 179.215 385.383C179.215 380.038 174.875 375.698 169.53 375.698ZM167.995 387.5C168.365 388.029 168.947 388.294 169.741 388.294C170.271 388.294 170.694 388.135 171.065 387.871C171.382 387.606 171.594 387.236 171.753 386.653H173.499C173.393 387.659 173.023 388.453 172.388 388.982C171.7 389.511 170.8 389.829 169.688 389.829C168.365 389.829 167.413 389.458 166.725 388.665C166.037 387.924 165.719 386.812 165.719 385.33C165.719 383.848 166.089 382.737 166.778 381.943C167.518 381.149 168.524 380.779 169.847 380.779C170.959 380.779 171.805 381.043 172.441 381.625C173.076 382.155 173.393 382.896 173.499 383.848H172.441C172.017 383.848 171.753 383.69 171.594 383.319C171.488 383.107 171.329 382.896 171.17 382.737C170.853 382.472 170.376 382.366 169.847 382.366C169.106 382.366 168.471 382.631 168.101 383.107C167.677 383.584 167.518 384.325 167.518 385.277C167.413 386.283 167.571 386.971 167.995 387.5Z" fill="#5868FE"/>
<path d="M122.389 384.161C122.449 382.961 122.869 382.037 123.649 381.389C124.441 380.729 125.479 380.399 126.763 380.399C127.639 380.399 128.389 380.555 129.013 380.867C129.637 381.167 130.105 381.581 130.417 382.109C130.741 382.625 130.903 383.213 130.903 383.873C130.903 384.629 130.705 385.271 130.309 385.799C129.925 386.315 129.463 386.663 128.923 386.843V386.915C129.619 387.131 130.159 387.515 130.543 388.067C130.939 388.619 131.137 389.327 131.137 390.191C131.137 390.911 130.969 391.553 130.633 392.117C130.309 392.681 129.823 393.125 129.175 393.449C128.539 393.761 127.771 393.917 126.871 393.917C125.515 393.917 124.411 393.575 123.559 392.891C122.707 392.207 122.257 391.199 122.209 389.867H124.657C124.681 390.455 124.879 390.929 125.251 391.289C125.635 391.637 126.157 391.811 126.817 391.811C127.429 391.811 127.897 391.643 128.221 391.307C128.557 390.959 128.725 390.515 128.725 389.975C128.725 389.255 128.497 388.739 128.041 388.427C127.585 388.115 126.877 387.959 125.917 387.959H125.395V385.889H125.917C127.621 385.889 128.473 385.319 128.473 384.179C128.473 383.663 128.317 383.261 128.005 382.973C127.705 382.685 127.267 382.541 126.691 382.541C126.127 382.541 125.689 382.697 125.377 383.009C125.077 383.309 124.903 383.693 124.855 384.161H122.389ZM132.841 383.927C132.841 383.015 133.105 382.301 133.633 381.785C134.173 381.269 134.863 381.011 135.703 381.011C136.543 381.011 137.227 381.269 137.755 381.785C138.295 382.301 138.565 383.015 138.565 383.927C138.565 384.851 138.295 385.571 137.755 386.087C137.227 386.603 136.543 386.861 135.703 386.861C134.863 386.861 134.173 386.603 133.633 386.087C133.105 385.571 132.841 384.851 132.841 383.927ZM144.397 381.227L137.323 393.827H134.875L141.931 381.227H144.397ZM135.685 382.523C135.025 382.523 134.695 382.991 134.695 383.927C134.695 384.875 135.025 385.349 135.685 385.349C136.009 385.349 136.261 385.235 136.441 385.007C136.621 384.767 136.711 384.407 136.711 383.927C136.711 382.991 136.369 382.523 135.685 382.523ZM140.743 391.109C140.743 390.185 141.007 389.471 141.535 388.967C142.075 388.451 142.765 388.193 143.605 388.193C144.445 388.193 145.123 388.451 145.639 388.967C146.167 389.471 146.431 390.185 146.431 391.109C146.431 392.033 146.167 392.753 145.639 393.269C145.123 393.785 144.445 394.043 143.605 394.043C142.753 394.043 142.063 393.785 141.535 393.269C141.007 392.753 140.743 392.033 140.743 391.109ZM143.587 389.705C142.903 389.705 142.561 390.173 142.561 391.109C142.561 392.057 142.903 392.531 143.587 392.531C144.259 392.531 144.595 392.057 144.595 391.109C144.595 390.173 144.259 389.705 143.587 389.705Z" fill="#5767FB"/>
<circle cx="169.53" cy="385.594" r="8.70643" fill="#5868FE"/>
<g filter="url(#filter2_d_997_256)">
<path d="M191.855 270.542C191.855 305.261 163.698 333.418 128.979 333.418C94.2596 333.418 66.103 305.261 66.103 270.542C66.103 235.822 94.2596 207.666 128.979 207.666C163.698 207.719 191.855 235.822 191.855 270.542Z" fill="white"/>
</g>
<path d="M175.659 263.714C171.902 237.939 147.926 220.103 122.151 223.861L126.65 254.717C127.391 254.611 128.185 254.505 128.979 254.505C137.817 254.505 145.015 261.703 145.015 270.542C145.015 279.38 137.817 286.578 128.979 286.578C127.814 286.578 126.703 286.472 125.644 286.208L119.188 316.693C124.533 317.804 130.143 318.069 135.806 317.222C161.581 313.464 179.47 289.489 175.659 263.714Z" fill="#5868FE"/>
<g filter="url(#filter3_d_997_256)">
<path d="M140.146 270.33C140.146 276.575 135.066 281.656 128.82 281.656C122.575 281.656 117.494 276.575 117.494 270.33C117.494 264.085 122.575 259.004 128.82 259.004C135.066 259.004 140.146 264.085 140.146 270.33Z" fill="white"/>
</g>
<path d="M128.768 260.645C123.422 260.645 119.083 264.984 119.083 270.33C119.083 275.675 123.422 280.015 128.768 280.015C134.113 280.015 138.453 275.675 138.453 270.33C138.453 264.984 134.113 260.645 128.768 260.645ZM127.233 272.447C127.604 272.976 128.186 273.241 128.98 273.241C129.509 273.241 129.932 273.082 130.303 272.817C130.62 272.553 130.832 272.182 130.991 271.6H132.737C132.632 272.606 132.261 273.4 131.626 273.929C130.938 274.458 130.038 274.776 128.927 274.776C127.604 274.776 126.651 274.405 125.963 273.611C125.275 272.87 124.957 271.759 124.957 270.277C124.957 268.795 125.328 267.684 126.016 266.89C126.757 266.096 127.762 265.725 129.086 265.725C130.197 265.725 131.044 265.99 131.679 266.572C132.314 267.101 132.632 267.842 132.737 268.795H131.679C131.255 268.795 130.991 268.636 130.832 268.266C130.726 268.054 130.567 267.842 130.409 267.684C130.091 267.419 129.615 267.313 129.086 267.313C128.345 267.313 127.709 267.578 127.339 268.054C126.916 268.53 126.757 269.271 126.757 270.224C126.651 271.23 126.81 271.918 127.233 272.447Z" fill="#5868FE"/>
<path d="M81.6272 269.108C81.6872 267.908 82.1072 266.984 82.8872 266.336C83.6792 265.676 84.7172 265.346 86.0012 265.346C86.8772 265.346 87.6272 265.502 88.2512 265.814C88.8752 266.114 89.3432 266.528 89.6552 267.056C89.9792 267.572 90.1412 268.16 90.1412 268.82C90.1412 269.576 89.9432 270.218 89.5472 270.746C89.1632 271.262 88.7012 271.61 88.1612 271.79V271.862C88.8572 272.078 89.3972 272.462 89.7812 273.014C90.1772 273.566 90.3752 274.274 90.3752 275.138C90.3752 275.858 90.2072 276.5 89.8712 277.064C89.5472 277.628 89.0612 278.072 88.4132 278.396C87.7772 278.708 87.0092 278.864 86.1092 278.864C84.7532 278.864 83.6492 278.522 82.7972 277.838C81.9452 277.154 81.4952 276.146 81.4472 274.814H83.8952C83.9192 275.402 84.1172 275.876 84.4892 276.236C84.8732 276.584 85.3952 276.758 86.0552 276.758C86.6672 276.758 87.1352 276.59 87.4592 276.254C87.7952 275.906 87.9632 275.462 87.9632 274.922C87.9632 274.202 87.7352 273.686 87.2792 273.374C86.8232 273.062 86.1152 272.906 85.1552 272.906H84.6332V270.836H85.1552C86.8592 270.836 87.7112 270.266 87.7112 269.126C87.7112 268.61 87.5552 268.208 87.2432 267.92C86.9432 267.632 86.5052 267.488 85.9292 267.488C85.3652 267.488 84.9272 267.644 84.6152 267.956C84.3152 268.256 84.1412 268.64 84.0932 269.108H81.6272ZM92.0786 268.874C92.0786 267.962 92.3426 267.248 92.8706 266.732C93.4106 266.216 94.1006 265.958 94.9406 265.958C95.7806 265.958 96.4646 266.216 96.9926 266.732C97.5326 267.248 97.8026 267.962 97.8026 268.874C97.8026 269.798 97.5326 270.518 96.9926 271.034C96.4646 271.55 95.7806 271.808 94.9406 271.808C94.1006 271.808 93.4106 271.55 92.8706 271.034C92.3426 270.518 92.0786 269.798 92.0786 268.874ZM103.635 266.174L96.5606 278.774H94.1126L101.169 266.174H103.635ZM94.9226 267.47C94.2626 267.47 93.9326 267.938 93.9326 268.874C93.9326 269.822 94.2626 270.296 94.9226 270.296C95.2466 270.296 95.4986 270.182 95.6786 269.954C95.8586 269.714 95.9486 269.354 95.9486 268.874C95.9486 267.938 95.6066 267.47 94.9226 267.47ZM99.9806 276.056C99.9806 275.132 100.245 274.418 100.773 273.914C101.313 273.398 102.003 273.14 102.843 273.14C103.683 273.14 104.361 273.398 104.877 273.914C105.405 274.418 105.669 275.132 105.669 276.056C105.669 276.98 105.405 277.7 104.877 278.216C104.361 278.732 103.683 278.99 102.843 278.99C101.991 278.99 101.301 278.732 100.773 278.216C100.245 277.7 99.9806 276.98 99.9806 276.056ZM102.825 274.652C102.141 274.652 101.799 275.12 101.799 276.056C101.799 277.004 102.141 277.478 102.825 277.478C103.497 277.478 103.833 277.004 103.833 276.056C103.833 275.12 103.497 274.652 102.825 274.652Z" fill="#5767FB"/>
<circle cx="128.768" cy="270.33" r="8.70643" fill="#5868FE"/>
<g filter="url(#filter4_d_997_256)">
<path d="M261.7 144.819C261.7 188.219 226.557 223.361 183.158 223.361C139.759 223.361 104.616 188.166 104.616 144.819C104.563 101.473 139.759 66.2773 183.158 66.2773C226.505 66.2773 261.7 101.473 261.7 144.819Z" fill="white"/>
</g>
<path d="M239.895 129.365C230.95 98.0329 198.295 79.9322 166.963 88.8767C163.311 89.9352 159.871 91.3113 156.589 92.952L173.737 126.719C176.542 125.237 179.718 124.443 183.105 124.443C194.378 124.443 203.482 133.599 203.482 144.819C203.482 146.778 203.217 148.683 202.688 150.535L240.371 159.956C242.859 150.218 242.859 139.738 239.895 129.365Z" fill="#433ED1"/>
<g filter="url(#filter5_d_997_256)">
<path d="M196.125 144.661C196.125 151.435 190.621 156.992 183.794 156.992C177.019 156.992 171.462 151.488 171.462 144.661C171.462 137.886 176.966 132.329 183.794 132.329C190.621 132.329 196.125 137.833 196.125 144.661Z" fill="white"/>
</g>
<path d="M183.846 134.128C178.024 134.128 173.313 138.839 173.313 144.661C173.313 150.483 178.024 155.193 183.846 155.193C189.668 155.193 194.378 150.483 194.378 144.661C194.378 138.839 189.668 134.128 183.846 134.128ZM187.392 148.313C186.81 148.789 185.963 149.054 184.851 149.054H180.617V140.744C180.617 140.48 180.723 140.268 180.882 140.056C181.094 139.844 181.305 139.791 181.57 139.791H184.957C185.91 139.791 186.651 140.003 187.127 140.374C187.656 140.797 187.868 141.379 187.868 142.12C187.868 142.597 187.762 142.967 187.551 143.285C187.339 143.602 187.074 143.814 186.704 144.026C187.18 144.237 187.551 144.502 187.762 144.872C187.974 145.19 188.133 145.666 188.133 146.248C188.239 147.095 187.974 147.836 187.392 148.313Z" fill="#433ED1"/>
<path d="M139.207 176.232V173.812L146.401 163.516H149.987V173.548H151.923V176.232H149.987V179.356H146.907V176.232H139.207ZM147.105 166.816L142.595 173.548H147.105V166.816ZM153.532 167.256C153.532 166.141 153.854 165.269 154.5 164.638C155.16 164.007 156.003 163.692 157.03 163.692C158.056 163.692 158.892 164.007 159.538 164.638C160.198 165.269 160.528 166.141 160.528 167.256C160.528 168.385 160.198 169.265 159.538 169.896C158.892 170.527 158.056 170.842 157.03 170.842C156.003 170.842 155.16 170.527 154.5 169.896C153.854 169.265 153.532 168.385 153.532 167.256ZM167.656 163.956L159.01 179.356H156.018L164.642 163.956H167.656ZM157.008 165.54C156.201 165.54 155.798 166.112 155.798 167.256C155.798 168.415 156.201 168.994 157.008 168.994C157.404 168.994 157.712 168.855 157.932 168.576C158.152 168.283 158.262 167.843 158.262 167.256C158.262 166.112 157.844 165.54 157.008 165.54ZM163.19 176.034C163.19 174.905 163.512 174.032 164.158 173.416C164.818 172.785 165.661 172.47 166.688 172.47C167.714 172.47 168.543 172.785 169.174 173.416C169.819 174.032 170.142 174.905 170.142 176.034C170.142 177.163 169.819 178.043 169.174 178.674C168.543 179.305 167.714 179.62 166.688 179.62C165.646 179.62 164.803 179.305 164.158 178.674C163.512 178.043 163.19 177.163 163.19 176.034ZM166.666 174.318C165.83 174.318 165.412 174.89 165.412 176.034C165.412 177.193 165.83 177.772 166.666 177.772C167.487 177.772 167.898 177.193 167.898 176.034C167.898 174.89 167.487 174.318 166.666 174.318Z" fill="#433ECE"/>
<circle cx="183.846" cy="144.661" r="8.70643" fill="#433ED1"/>
<g filter="url(#filter6_d_997_256)">
<path d="M379.456 279.577C379.456 334.415 334.997 378.827 280.158 378.827C225.32 378.827 180.908 334.368 180.908 279.577C180.908 224.738 225.367 180.326 280.158 180.326C334.997 180.326 379.456 224.785 379.456 279.577Z" fill="white"/>
</g>
<path d="M301.393 281.615C300.35 292.469 291.25 300.953 280.159 300.953C268.357 300.953 258.83 291.379 258.83 279.624C258.83 267.822 268.404 258.295 280.159 258.295C284.424 258.295 288.406 259.575 291.771 261.755L317.508 217.202C306.512 210.851 293.762 207.201 280.159 207.201C239.018 207.201 205.65 240.569 205.65 281.71C205.65 322.898 239.018 356.218 280.159 356.218C321.3 356.218 354.667 322.851 354.667 281.71H301.393V281.615Z" fill="#1610A7"/>
<g filter="url(#filter7_d_997_256)">
<path d="M294.804 279.387C294.804 286.876 288.737 292.99 281.201 292.99C273.712 292.99 267.598 286.923 267.598 279.387C267.598 271.898 273.665 265.784 281.201 265.784C288.69 265.784 294.804 271.851 294.804 279.387Z" fill="white"/>
</g>
<path d="M279.732 280.004H282.624L281.202 275.644L279.732 280.004Z" fill="#1610A7"/>
<path d="M281.202 267.775C274.803 267.775 269.589 272.989 269.589 279.387C269.589 285.786 274.803 291 281.202 291C287.6 291 292.814 285.786 292.814 279.387C292.814 272.989 287.6 267.775 281.202 267.775ZM283.856 283.89L283.145 281.757H279.164L278.5 283.89H276.272L279.685 274.316C279.875 273.842 280.206 273.605 280.68 273.605H282.339L286.084 283.89H283.856Z" fill="#1610A7"/>
<path d="M313.538 261.474C311.938 260.642 311.138 259.354 311.138 257.61C311.138 256.746 311.354 255.962 311.786 255.258C312.234 254.538 312.898 253.97 313.778 253.554C314.674 253.122 315.762 252.906 317.042 252.906C318.322 252.906 319.402 253.122 320.282 253.554C321.178 253.97 321.842 254.538 322.274 255.258C322.722 255.962 322.946 256.746 322.946 257.61C322.946 258.49 322.73 259.266 322.298 259.938C321.866 260.594 321.29 261.106 320.57 261.474C321.45 261.858 322.138 262.418 322.634 263.154C323.13 263.89 323.378 264.762 323.378 265.77C323.378 266.858 323.098 267.81 322.538 268.626C321.994 269.426 321.242 270.042 320.282 270.474C319.322 270.906 318.242 271.122 317.042 271.122C315.842 271.122 314.762 270.906 313.802 270.474C312.858 270.042 312.106 269.426 311.546 268.626C311.002 267.81 310.73 266.858 310.73 265.77C310.73 264.762 310.978 263.89 311.474 263.154C311.97 262.402 312.658 261.842 313.538 261.474ZM319.682 258.09C319.682 257.306 319.442 256.698 318.962 256.266C318.498 255.834 317.858 255.618 317.042 255.618C316.242 255.618 315.602 255.834 315.122 256.266C314.658 256.698 314.426 257.314 314.426 258.114C314.426 258.834 314.666 259.41 315.146 259.842C315.642 260.274 316.274 260.49 317.042 260.49C317.81 260.49 318.442 260.274 318.938 259.842C319.434 259.394 319.682 258.81 319.682 258.09ZM317.042 262.938C316.13 262.938 315.386 263.17 314.81 263.634C314.25 264.098 313.97 264.762 313.97 265.626C313.97 266.426 314.242 267.082 314.786 267.594C315.346 268.09 316.098 268.338 317.042 268.338C317.986 268.338 318.73 268.082 319.274 267.57C319.818 267.058 320.09 266.41 320.09 265.626C320.09 264.778 319.81 264.122 319.25 263.658C318.69 263.178 317.954 262.938 317.042 262.938ZM325.648 257.538C325.648 256.322 326 255.37 326.704 254.682C327.424 253.994 328.344 253.65 329.464 253.65C330.584 253.65 331.496 253.994 332.2 254.682C332.92 255.37 333.28 256.322 333.28 257.538C333.28 258.77 332.92 259.73 332.2 260.418C331.496 261.106 330.584 261.45 329.464 261.45C328.344 261.45 327.424 261.106 326.704 260.418C326 259.73 325.648 258.77 325.648 257.538ZM341.056 253.938L331.624 270.738H328.36L337.768 253.938H341.056ZM329.44 255.666C328.56 255.666 328.12 256.29 328.12 257.538C328.12 258.802 328.56 259.434 329.44 259.434C329.872 259.434 330.208 259.282 330.448 258.978C330.688 258.658 330.808 258.178 330.808 257.538C330.808 256.29 330.352 255.666 329.44 255.666ZM336.184 267.114C336.184 265.882 336.536 264.93 337.24 264.258C337.96 263.57 338.88 263.226 340 263.226C341.12 263.226 342.024 263.57 342.712 264.258C343.416 264.93 343.768 265.882 343.768 267.114C343.768 268.346 343.416 269.306 342.712 269.994C342.024 270.682 341.12 271.026 340 271.026C338.864 271.026 337.944 270.682 337.24 269.994C336.536 269.306 336.184 268.346 336.184 267.114ZM339.976 265.242C339.064 265.242 338.608 265.866 338.608 267.114C338.608 268.378 339.064 269.01 339.976 269.01C340.872 269.01 341.32 268.378 341.32 267.114C341.32 265.866 340.872 265.242 339.976 265.242Z" fill="#1711A7"/>
<circle cx="281.202" cy="279.387" r="8.70643" fill="#1610A7"/>
<defs>
<filter id="filter0_d_997_256" x="40.8652" y="256.719" width="257.752" height="257.752" filterUnits="userSpaceOnUse" color-interpolation-filters="sRGB">
<feFlood flood-opacity="0" result="BackgroundImageFix"/>
<feColorMatrix in="SourceAlpha" type="matrix" values="0 0 0 0 0 0 0 0 0 0 0 0 0 0 0 0 0 0 127 0" result="hardAlpha"/>
<feOffset/>
<feGaussianBlur stdDeviation="33"/>
<feComposite in2="hardAlpha" operator="out"/>
<feColorMatrix type="matrix" values="0 0 0 0 0 0 0 0 0 0 0 0 0 0 0 0 0 0 0.1 0"/>
<feBlend mode="normal" in2="BackgroundImageFix" result="effect1_dropShadow_997_256"/>
<feBlend mode="normal" in="SourceGraphic" in2="effect1_dropShadow_997_256" result="shape"/>
</filter>
<filter id="filter1_d_997_256" x="136.256" y="352.057" width="66.6523" height="66.6523" filterUnits="userSpaceOnUse" color-interpolation-filters="sRGB">
<feFlood flood-opacity="0" result="BackgroundImageFix"/>
<feColorMatrix in="SourceAlpha" type="matrix" values="0 0 0 0 0 0 0 0 0 0 0 0 0 0 0 0 0 0 127 0" result="hardAlpha"/>
<feOffset/>
<feGaussianBlur stdDeviation="11"/>
<feComposite in2="hardAlpha" operator="out"/>
<feColorMatrix type="matrix" values="0 0 0 0 0 0 0 0 0 0 0 0 0 0 0 0 0 0 0.18 0"/>
<feBlend mode="normal" in2="BackgroundImageFix" result="effect1_dropShadow_997_256"/>
<feBlend mode="normal" in="SourceGraphic" in2="effect1_dropShadow_997_256" result="shape"/>
</filter>
<filter id="filter2_d_997_256" x="0.103027" y="141.666" width="257.752" height="257.752" filterUnits="userSpaceOnUse" color-interpolation-filters="sRGB">
<feFlood flood-opacity="0" result="BackgroundImageFix"/>
<feColorMatrix in="SourceAlpha" type="matrix" values="0 0 0 0 0 0 0 0 0 0 0 0 0 0 0 0 0 0 127 0" result="hardAlpha"/>
<feOffset/>
<feGaussianBlur stdDeviation="33"/>
<feComposite in2="hardAlpha" operator="out"/>
<feColorMatrix type="matrix" values="0 0 0 0 0 0 0 0 0 0 0 0 0 0 0 0 0 0 0.1 0"/>
<feBlend mode="normal" in2="BackgroundImageFix" result="effect1_dropShadow_997_256"/>
<feBlend mode="normal" in="SourceGraphic" in2="effect1_dropShadow_997_256" result="shape"/>
</filter>
<filter id="filter3_d_997_256" x="95.4941" y="237.004" width="66.6523" height="66.6523" filterUnits="userSpaceOnUse" color-interpolation-filters="sRGB">
<feFlood flood-opacity="0" result="BackgroundImageFix"/>
<feColorMatrix in="SourceAlpha" type="matrix" values="0 0 0 0 0 0 0 0 0 0 0 0 0 0 0 0 0 0 127 0" result="hardAlpha"/>
<feOffset/>
<feGaussianBlur stdDeviation="11"/>
<feComposite in2="hardAlpha" operator="out"/>
<feColorMatrix type="matrix" values="0 0 0 0 0 0 0 0 0 0 0 0 0 0 0 0 0 0 0.18 0"/>
<feBlend mode="normal" in2="BackgroundImageFix" result="effect1_dropShadow_997_256"/>
<feBlend mode="normal" in="SourceGraphic" in2="effect1_dropShadow_997_256" result="shape"/>
</filter>
<filter id="filter4_d_997_256" x="38.6162" y="0.277344" width="289.084" height="289.084" filterUnits="userSpaceOnUse" color-interpolation-filters="sRGB">
<feFlood flood-opacity="0" result="BackgroundImageFix"/>
<feColorMatrix in="SourceAlpha" type="matrix" values="0 0 0 0 0 0 0 0 0 0 0 0 0 0 0 0 0 0 127 0" result="hardAlpha"/>
<feOffset/>
<feGaussianBlur stdDeviation="33"/>
<feComposite in2="hardAlpha" operator="out"/>
<feColorMatrix type="matrix" values="0 0 0 0 0 0 0 0 0 0 0 0 0 0 0 0 0 0 0.1 0"/>
<feBlend mode="normal" in2="BackgroundImageFix" result="effect1_dropShadow_997_256"/>
<feBlend mode="normal" in="SourceGraphic" in2="effect1_dropShadow_997_256" result="shape"/>
</filter>
<filter id="filter5_d_997_256" x="149.462" y="110.329" width="68.6636" height="68.6633" filterUnits="userSpaceOnUse" color-interpolation-filters="sRGB">
<feFlood flood-opacity="0" result="BackgroundImageFix"/>
<feColorMatrix in="SourceAlpha" type="matrix" values="0 0 0 0 0 0 0 0 0 0 0 0 0 0 0 0 0 0 127 0" result="hardAlpha"/>
<feOffset/>
<feGaussianBlur stdDeviation="11"/>
<feComposite in2="hardAlpha" operator="out"/>
<feColorMatrix type="matrix" values="0 0 0 0 0 0 0 0 0 0 0 0 0 0 0 0 0 0 0.18 0"/>
<feBlend mode="normal" in2="BackgroundImageFix" result="effect1_dropShadow_997_256"/>
<feBlend mode="normal" in="SourceGraphic" in2="effect1_dropShadow_997_256" result="shape"/>
</filter>
<filter id="filter6_d_997_256" x="114.908" y="114.326" width="330.548" height="330.5" filterUnits="userSpaceOnUse" color-interpolation-filters="sRGB">
<feFlood flood-opacity="0" result="BackgroundImageFix"/>
<feColorMatrix in="SourceAlpha" type="matrix" values="0 0 0 0 0 0 0 0 0 0 0 0 0 0 0 0 0 0 127 0" result="hardAlpha"/>
<feOffset/>
<feGaussianBlur stdDeviation="33"/>
<feComposite in2="hardAlpha" operator="out"/>
<feColorMatrix type="matrix" values="0 0 0 0 0 0 0 0 0 0 0 0 0 0 0 0 0 0 0.1 0"/>
<feBlend mode="normal" in2="BackgroundImageFix" result="effect1_dropShadow_997_256"/>
<feBlend mode="normal" in="SourceGraphic" in2="effect1_dropShadow_997_256" result="shape"/>
</filter>
<filter id="filter7_d_997_256" x="245.598" y="243.784" width="71.2061" height="71.2061" filterUnits="userSpaceOnUse" color-interpolation-filters="sRGB">
<feFlood flood-opacity="0" result="BackgroundImageFix"/>
<feColorMatrix in="SourceAlpha" type="matrix" values="0 0 0 0 0 0 0 0 0 0 0 0 0 0 0 0 0 0 127 0" result="hardAlpha"/>
<feOffset/>
<feGaussianBlur stdDeviation="11"/>
<feComposite in2="hardAlpha" operator="out"/>
<feColorMatrix type="matrix" values="0 0 0 0 0 0 0 0 0 0 0 0 0 0 0 0 0 0 0.18 0"/>
<feBlend mode="normal" in2="BackgroundImageFix" result="effect1_dropShadow_997_256"/>
<feBlend mode="normal" in="SourceGraphic" in2="effect1_dropShadow_997_256" result="shape"/>
</filter>
</defs>
</svg>
